<?xml version="1.0" encoding="UTF-8" standalone="no"?>
<!-- Created with Inkscape (http://www.inkscape.org/) -->

<svg
   width="113.861"
   height="113.861"
   viewBox="0 0 30.125719 30.125724"
   version="1.1"
   id="svg5"
   xml:space="preserve"
   inkscape:version="1.2.1 (9c6d41e4, 2022-07-14)"
   sodipodi:docname="ball copy.svg"
   xmlns:inkscape="http://www.inkscape.org/namespaces/inkscape"
   xmlns:sodipodi="http://sodipodi.sourceforge.net/DTD/sodipodi-0.dtd"
   xmlns="http://www.w3.org/2000/svg"
   xmlns:svg="http://www.w3.org/2000/svg"><sodipodi:namedview
     id="namedview7"
     pagecolor="#ffffff"
     bordercolor="#000000"
     borderopacity="0.25"
     inkscape:showpageshadow="2"
     inkscape:pageopacity="0.0"
     inkscape:pagecheckerboard="true"
     inkscape:deskcolor="#d1d1d1"
     inkscape:document-units="mm"
     showgrid="false"
     showguides="false"
     inkscape:zoom="0.94553798"
     inkscape:cx="59.754342"
     inkscape:cy="11.104789"
     inkscape:window-width="1608"
     inkscape:window-height="747"
     inkscape:window-x="272"
     inkscape:window-y="111"
     inkscape:window-maximized="0"
     inkscape:current-layer="layer1" /><defs
     id="defs2" /><g
     inkscape:label="Layer 1"
     inkscape:groupmode="layer"
     id="layer1"><path
       id="path2528"
       style="display:inline;fill:#fdb515;stroke:none;stroke-width:0.264583"
       d="M 15.06265,0 A 15.063,15.063 0 0 0 0,15.06264 15.063,15.063 0 0 0 15.06265,30.12581 15.063,15.063 0 0 0 30.12581,15.06264 15.063,15.063 0 0 0 15.06265,0 Z m 2.33474,2.5771 A 12.686,12.686 0 0 1 30.08344,15.26263 12.686,12.686 0 0 1 17.39739,27.94868 12.686,12.686 0 0 1 4.71134,15.26263 12.686,12.686 0 0 1 17.39739,2.5771 Z" /></g></svg>
