<?xml version="1.0" encoding="UTF-8" standalone="no"?>
<!-- Created with Inkscape (http://www.inkscape.org/) -->

<svg
   width="1000"
   height="1000"
   viewBox="0 0 264.58333 264.58333"
   version="1.1"
   id="svg5"
   xml:space="preserve"
   inkscape:version="1.2.1 (9c6d41e4, 2022-07-14)"
   sodipodi:docname="paddle.svg"
   xmlns:inkscape="http://www.inkscape.org/namespaces/inkscape"
   xmlns:sodipodi="http://sodipodi.sourceforge.net/DTD/sodipodi-0.dtd"
   xmlns="http://www.w3.org/2000/svg"
   xmlns:svg="http://www.w3.org/2000/svg"><sodipodi:namedview
     id="namedview7"
     pagecolor="#ffffff"
     bordercolor="#000000"
     borderopacity="0.25"
     inkscape:showpageshadow="2"
     inkscape:pageopacity="0.0"
     inkscape:pagecheckerboard="0"
     inkscape:deskcolor="#d1d1d1"
     inkscape:document-units="mm"
     showgrid="false"
     inkscape:zoom="0.8332191"
     inkscape:cx="408.65602"
     inkscape:cy="477.66548"
     inkscape:window-width="1920"
     inkscape:window-height="1080"
     inkscape:window-x="0"
     inkscape:window-y="0"
     inkscape:window-maximized="0"
     inkscape:current-layer="layer1" /><defs
     id="defs2"><rect
       x="467.71653"
       y="695.90551"
       width="340.15748"
       height="69.448818"
       id="rect58318" /><rect
       x="80.787401"
       y="649.13385"
       width="588.18897"
       height="77.952755"
       id="rect58155" /></defs><g
     inkscape:label="Layer 1"
     inkscape:groupmode="layer"
     id="layer1"
     style="display:inline"><path
       id="path248"
       style="display:inline;fill:#fdb515;fill-opacity:1;stroke-width:0.265;stroke-dasharray:none"
       class="UnoptimicedTransforms"
       d="m 117.22961,162.34126 c 7.03605,4.33609 13.90273,8.94157 20.89253,13.35184 4.41103,2.78318 8.87207,5.48662 13.28117,8.27289 4.67386,2.95358 13.96386,8.95144 13.96386,8.95144 -5.98181,-1.17235 -10.93596,-2.94945 -21.92803,-2.38808 -5.30979,0.16759 -10.11233,1.10043 -14.62014,3.93888 -2.89333,1.69772 -5.12686,3.67378 -7.04132,6.44131 -2.80856,3.96176 -5.38461,8.69306 -7.96224,12.80554 -4.66139,7.78775 -9.6825,15.78511 -14.46924,23.49327 -0.541345,0.87986 -0.869128,0.89074 -1.685923,0.50131 -2.750978,-1.60471 -5.403022,-3.17892 -8.163267,-4.80649 -3.417679,-2.14462 -6.724241,-4.37535 -10.343459,-6.60105 -0.499398,-0.28288 -0.631003,-1.03794 -0.291111,-1.55081 2.048546,-3.20146 4.10207,-7.00871 6.131266,-10.22527 4.1135,-6.77459 8.044973,-13.25737 12.099051,-20.06732 5.085283,-8.3495 6.253863,-9.62305 6.536203,-15.53668 0.15565,-3.2601 -0.37899,-7.51422 -1.69726,-10.97247 -5.063631,-13.2835 -9.488581,-17.54744 -11.064904,-21.26562 6.013629,4.03747 17.661764,10.29514 26.362814,15.65731 z m 4.1846,-119.789168 c 1.2127,-0.921007 2.6815,-1.68686 4.05639,-2.507719 1.37488,-0.820859 2.72987,-1.725305 4.1009,-2.517444 3.70037,-1.943434 7.30708,-3.983608 11.14515,-5.642342 6.56484,-2.481059 13.78175,-4.518012 20.72695,-5.47971 5.05098,-0.511845 10.12621,-0.598218 15.22306,-0.442435 3.24546,0.06603 6.93856,0.660518 10.12242,1.411993 4.73338,1.04377 9.65007,2.587921 14.05865,4.647552 8.65836,3.946434 16.53317,9.477508 23.01861,16.444937 2.46037,2.707573 4.70908,5.720988 6.77979,8.734426 0.79852,1.469614 1.89552,2.876067 2.66173,4.372251 2.93655,5.283939 5.4153,10.924014 7.21298,16.665709 1.28373,3.995894 1.95929,8.182641 2.47477,12.342769 0.71576,5.245 1.08713,10.603731 0.76341,15.895271 -0.4241,7.81092 -1.884,16.01235 -4.22943,23.47303 -2.43863,7.79502 -5.59786,15.09847 -9.81029,22.07994 -3.55194,5.55127 -7.60671,11.24049 -12.10912,16.08329 -5.44871,5.98105 -11.86201,11.21547 -18.59858,15.67884 -1.06185,0.75023 -2.34578,1.50908 -3.50199,2.09073 -3.42792,2.11495 -7.12428,3.79971 -10.74062,5.55776 -2.15818,0.87265 -4.56423,1.69722 -6.82568,2.17435 -2.38964,0.3175 -5.02731,0.51564 -7.32344,-0.32004 -2.33907,-0.85131 -4.13174,-2.14531 -6.24072,-3.43802 -4.18314,-2.56407 -8.42585,-5.03063 -12.594,-7.61899 -4.17555,-2.59294 -8.27216,-5.31119 -12.43524,-7.9241 -6.29573,-3.95145 -12.64896,-7.61057 -18.96796,-11.72468 -9.50207,-6.1865 -21.483669,-13.02106 -30.362094,-18.11281 -2.492562,-1.44455 -4.053132,-2.98415 -4.693955,-4.32676 -3.814255,-11.19903 -4.534641,-27.95347 -1.986007,-38.741 2.030726,-8.595394 5.204439,-17.837604 10.101202,-26.793527 -16.400636,28.539857 -13.337393,53.221587 -8.930884,65.690367 0.976611,2.96025 3.123471,4.21468 5.119429,5.79112 0.399798,1.83866 1.972724,3.76097 2.447949,4.824 3.362566,6.74676 7.392624,12.7254 8.80704,19.81308 0.765,3.83343 0.72231,7.94666 -0.28531,11.72357 -1.247826,4.67726 -4.915499,9.5333 -6.925414,12.76491 -5.966066,9.30086 -11.675321,18.33436 -17.5795,27.67351 -0.715547,1.09636 -1.006495,2.779 -0.41504,4.04506 0.956444,2.40852 2.97443,3.09509 5.035936,4.4086 5.024566,3.1532 10.206173,6.29186 15.363939,9.22319 1.8145,0.96685 3.584921,0.86351 5.243329,-0.57308 0.95289,-1.0633 1.3304,-2.2047 2.13647,-3.38002 5.47393,-8.96817 10.71268,-17.84481 16.35676,-26.70679 2.08927,-3.2236 3.99068,-6.77815 6.46469,-9.73273 1.56605,-1.7224 3.78182,-3.21211 5.8027,-4.27968 2.9389,-1.43095 6.23904,-2.18651 9.41367,-2.87693 4.64507,-0.66974 9.62831,-0.44663 14.32783,-0.25894 3.06533,0.13613 7.00339,0.5597 10.08141,0.89444 2.42441,0.53354 0.19309,1.00264 6.42202,2.50647 4.51762,1.08515 8.47991,-0.26027 12.64744,-2.02395 4.01965,-1.69881 7.96808,-3.36383 11.72582,-5.59004 8.16447,-4.59236 15.41227,-10.31767 21.9785,-16.97675 3.49441,-3.58288 6.32527,-7.37727 9.24872,-11.4347 3.6994,-5.27841 7.02321,-10.66748 9.76475,-16.50436 1.25044,-2.88922 2.74933,-5.77133 3.70972,-8.77355 3.22751,-9.35703 4.91293,-18.79739 5.12306,-28.70735 0.17737,-5.11832 0.19473,-10.423172 -0.62777,-15.485469 -1.32047,-9.523104 -3.97176,-18.77614 -8.59347,-27.231476 -3.5413,-6.721928 -8.00014,-13.013689 -13.46353,-18.298561 -4.95663,-4.946549 -10.78103,-9.001746 -16.98498,-12.246293 -7.92282,-4.193619 -16.28223,-6.838693 -25.21781,-7.726149 -3.2421,-0.359647 -6.34295,-0.472856 -9.60544,-0.446595 -10.14458,0.190499 -20.21669,2.038525 -29.64252,5.814381 -6.02688,2.404699 -11.67889,5.255944 -17.14005,8.748695 -0.68744,0.466258 -1.54721,1.045392 -2.32117,1.579461 -0.77397,0.53407 -1.46213,1.023074 -1.80637,1.309071 -5.8813,4.593504 -10.74526,9.277766 -15.25525,14.587376 -4.50998,5.309611 -6.535498,7.391547 -10.700027,14.539703 7.184647,-11.037498 16.711827,-21.505607 26.246467,-28.746862 z"
       sodipodi:nodetypes="aaaccccccccccccsscasccccccccccccccccccccssaacccsccccaacccccccccccccccccccccccccccccscscs"
       inkscape:label="path248" /></g></svg>
