<?xml version="1.0" encoding="UTF-8" standalone="no"?>
<svg
   version="1.0"
   x="0"
   y="0"
   width="1000"
   height="1000"
   id="svg1312"
   sodipodi:docname="logo_three_star_ball_white.svg"
   inkscape:version="1.2.1 (9c6d41e4, 2022-07-14)"
   xml:space="preserve"
   inkscape:export-filename="logo_three_star_ball_white.png"
   inkscape:export-xdpi="96"
   inkscape:export-ydpi="96"
   xmlns:inkscape="http://www.inkscape.org/namespaces/inkscape"
   xmlns:sodipodi="http://sodipodi.sourceforge.net/DTD/sodipodi-0.dtd"
   xmlns:xlink="http://www.w3.org/1999/xlink"
   xmlns="http://www.w3.org/2000/svg"
   xmlns:svg="http://www.w3.org/2000/svg"><sodipodi:namedview
     id="namedview1314"
     pagecolor="#ffffff"
     bordercolor="#000000"
     borderopacity="0.25"
     inkscape:showpageshadow="2"
     inkscape:pageopacity="0.0"
     inkscape:pagecheckerboard="true"
     inkscape:deskcolor="#d1d1d1"
     showgrid="false"
     inkscape:zoom="0.6350113"
     inkscape:cx="274.79826"
     inkscape:cy="596.83977"
     inkscape:window-width="1920"
     inkscape:window-height="1052"
     inkscape:window-x="0"
     inkscape:window-y="28"
     inkscape:window-maximized="0"
     inkscape:current-layer="svg1312" /><defs
     id="defs1308"><linearGradient
       id="linearGradient"><stop
         style="stop-color:#eaea69;stop-opacity:1;"
         offset="0.08381684"
         id="stop6455" /><stop
         style="stop-color:#af360b;stop-opacity:1;"
         offset="1"
         id="stop6457" /></linearGradient><radialGradient
       cx="159.68721"
       cy="163.80367"
       r="200"
       fx="159.68721"
       fy="163.80367"
       id="radialGradient"
       xlink:href="#linearGradient"
       gradientUnits="userSpaceOnUse"
       gradientTransform="matrix(2.0271136,3.1107892,-3.504698,2.2838013,627.57805,-586.25968)" /><radialGradient
       cx="159.68721"
       cy="163.80367"
       r="200"
       fx="159.68721"
       fy="163.80367"
       id="radialGradient-3"
       xlink:href="#linearGradient-7"
       gradientUnits="userSpaceOnUse"
       gradientTransform="matrix(2.0271136,3.1107892,-3.504698,2.2838013,627.57806,-586.25968)" /><linearGradient
       id="linearGradient-7"><stop
         style="stop-color:#ffffff;stop-opacity:1;"
         offset="0.08381684"
         id="stop6455-2" /><stop
         style="stop-color:#595959;stop-opacity:1;"
         offset="1"
         id="stop6457-4" /></linearGradient></defs><circle
     cx="500"
     cy="500"
     r="500"
     style="mix-blend-mode:normal;fill:url(#radialGradient-3);fill-rule:nonzero;stroke-width:2.5"
     id="circle1310" /><g
     aria-label="Table Tennis"
     transform="matrix(3.2168644,0,0,3.2168644,-221.07071,113.35125)"
     id="text58324"
     style="font-style:oblique;font-weight:500;font-size:22.9306px;font-family:'Sneakers Pro';-inkscape-font-specification:'Sneakers Pro, Medium Oblique';white-space:pre;inline-size:197.299;display:inline;fill:#003262;stroke-width:0.264583"
     inkscape:label="Table Tennis"><path
       d="m 300.42405,193.55677 -0.13758,0.73378 q -0.0917,0.38982 -0.36689,0.73378 -0.25224,0.32103 -0.64206,0.57327 -0.38982,0.2293 -0.89429,0.38982 -0.48154,0.13758 -0.98602,0.13758 h -8.07157 q -0.5274,0 -0.96308,-0.13758 -0.41275,-0.16052 -0.71085,-0.38982 -0.27517,-0.25224 -0.41275,-0.57327 -0.11465,-0.34396 -0.0229,-0.73378 l 0.27517,-1.37583 q 0.0688,-0.2981 0.29809,-0.48155 0.25224,-0.20637 0.55034,-0.20637 h 4.01285 q 0.2981,0 0.43568,0.20637 0.16052,0.18345 0.0917,0.48155 l -0.0688,0.29809 q -0.11465,0.55034 0.13759,0.94016 0.25223,0.36689 0.73378,0.36689 0.48154,0 0.89429,-0.36689 0.41275,-0.38982 0.5274,-0.94016 0.11466,-0.5274 0.0688,-0.8255 -0.0229,-0.2981 -0.16052,-0.48154 -0.0917,-0.0688 -0.55033,-0.20638 -0.45861,-0.13758 -1.07774,-0.27516 -0.5962,-0.16052 -1.26118,-0.32103 -0.64206,-0.16052 -1.10067,-0.2981 -0.57327,-0.16051 -1.10067,-0.34396 -0.50447,-0.20637 -0.87136,-0.5274 -0.34396,-0.34396 -0.48155,-0.87136 -0.13758,-0.55034 0.0459,-1.37584 l 0.16051,-0.73378 q 0.0688,-0.36689 0.34396,-0.71085 0.27517,-0.34396 0.66499,-0.57326 0.38982,-0.25224 0.87136,-0.38982 0.48154,-0.16052 1.00894,-0.16052 h 8.07158 q 0.50447,0 0.91722,0.16052 0.43568,0.13758 0.71085,0.38982 0.2981,0.2293 0.41275,0.57326 0.13758,0.34396 0.0688,0.71085 l -0.2981,1.37584 q -0.0688,0.29809 -0.32103,0.50447 -0.2293,0.18344 -0.5274,0.18344 h -4.01285 q -0.2981,0 -0.45862,-0.18344 -0.13758,-0.20638 -0.0688,-0.50447 l 0.0688,-0.2981 q 0.11466,-0.55034 -0.13758,-0.91723 -0.25224,-0.38982 -0.73378,-0.38982 -0.48154,0 -0.89429,0.38982 -0.41275,0.36689 -0.52741,0.91723 -0.11465,0.5274 -0.0917,0.8255 0.0459,0.2981 0.18345,0.48154 0.0917,0.0917 0.55033,0.22931 0.45861,0.11465 1.05481,0.27517 0.61912,0.13758 1.26118,0.29809 0.64206,0.16052 1.1236,0.2981 0.57327,0.18345 1.07774,0.38982 0.5274,0.18345 0.87136,0.52741 0.36689,0.32102 0.50447,0.84843 0.13759,0.5274 -0.0459,1.3529 z"
       id="path1443"
       inkscape:label="s" /><path
       d="m 287.94984,183.67368 q -0.0688,0.2981 -0.2981,0.50448 -0.2293,0.18344 -0.5274,0.18344 h -4.12751 q -0.29809,0 -0.45861,-0.18344 -0.16051,-0.20638 -0.0917,-0.50448 l 0.13758,-0.61912 q 0.0459,-0.2981 0.27517,-0.48154 0.25224,-0.20638 0.55033,-0.20638 h 4.12751 q 0.2981,0 0.43568,0.20638 0.16052,0.18344 0.11466,0.48154 z m -2.49943,11.7634 q -0.0688,0.2981 -0.2981,0.50448 -0.22931,0.18344 -0.5274,0.18344 h -4.12751 q -0.2981,0 -0.45861,-0.18344 -0.16052,-0.20638 -0.0917,-0.50448 l 2.04083,-9.63085 q 0.0688,-0.2981 0.29809,-0.48154 0.25224,-0.20638 0.55034,-0.20638 h 4.12751 q 0.29809,0 0.43568,0.20638 0.16051,0.18344 0.0917,0.48154 z"
       id="path1441"
       inkscape:label="i"
       style="font-style:oblique;font-weight:500;font-size:22.9306px;font-family:'Sneakers Pro';-inkscape-font-specification:'Sneakers Pro, Medium Oblique';white-space:pre;inline-size:197.299;display:inline;fill:#003262;stroke-width:0.264583" /><path
       d="m 278.29609,195.43708 q -0.0688,0.2981 -0.2981,0.50448 -0.2293,0.18344 -0.5274,0.18344 h -4.12751 q -0.2981,0 -0.45861,-0.18344 -0.16052,-0.20638 -0.0917,-0.50448 l 1.55928,-7.33779 0.0229,-0.0688 q 0.11465,-0.55034 -0.13759,-0.91723 -0.25223,-0.38982 -0.73378,-0.38982 -0.48154,0 -0.89429,0.38982 -0.41275,0.36689 -0.5274,0.91723 l -1.58221,7.40658 q -0.0688,0.2981 -0.2981,0.50448 -0.22931,0.18344 -0.52741,0.18344 h -4.1275 q -0.2981,0 -0.45862,-0.18344 -0.16051,-0.20638 -0.0917,-0.50448 l 2.04083,-9.63085 q 0.0688,-0.2981 0.29809,-0.48154 0.25224,-0.20638 0.55034,-0.20638 h 4.12751 l 0.41275,0.52741 q 0.38982,-0.25224 0.87136,-0.38982 0.48154,-0.13759 1.00894,-0.13759 h 3.69183 q 0.50447,0 0.91723,0.16052 0.43568,0.13758 0.71084,0.38982 0.2981,0.2293 0.41275,0.57326 0.13759,0.34396 0.0688,0.71085 z"
       id="path1439"
       inkscape:label="n"
       style="font-style:oblique;font-weight:500;font-size:22.9306px;font-family:'Sneakers Pro';-inkscape-font-specification:'Sneakers Pro, Medium Oblique';white-space:pre;inline-size:197.299;display:inline;fill:#003262;stroke-width:0.264583" /><path
       d="m 263.34538,195.43708 q -0.0688,0.2981 -0.2981,0.50448 -0.22931,0.18344 -0.52741,0.18344 h -4.1275 q -0.2981,0 -0.45862,-0.18344 -0.16051,-0.20638 -0.0917,-0.50448 l 1.55928,-7.33779 0.0229,-0.0688 q 0.11466,-0.55034 -0.13758,-0.91723 -0.25224,-0.38982 -0.73378,-0.38982 -0.48154,0 -0.89429,0.38982 -0.41275,0.36689 -0.52741,0.91723 l -1.58221,7.40658 q -0.0688,0.2981 -0.2981,0.50448 -0.2293,0.18344 -0.5274,0.18344 h -4.12751 q -0.2981,0 -0.45861,-0.18344 -0.16051,-0.20638 -0.0917,-0.50448 l 2.04082,-9.63085 q 0.0688,-0.2981 0.2981,-0.48154 0.25224,-0.20638 0.55033,-0.20638 h 4.12751 l 0.41275,0.52741 q 0.38982,-0.25224 0.87136,-0.38982 0.48155,-0.13759 1.00895,-0.13759 h 3.69183 q 0.50447,0 0.91722,0.16052 0.43568,0.13758 0.71085,0.38982 0.2981,0.2293 0.41275,0.57326 0.13758,0.34396 0.0688,0.71085 z"
       id="path1437"
       inkscape:label="n"
       style="font-style:oblique;font-weight:500;font-size:22.9306px;font-family:'Sneakers Pro';-inkscape-font-specification:'Sneakers Pro, Medium Oblique';white-space:pre;inline-size:197.299;display:inline;fill:#003262;stroke-width:0.264583" /><path
       d="m 248.6469,194.29055 q -0.0917,0.38982 -0.36689,0.73378 -0.25224,0.32103 -0.64206,0.57327 -0.38982,0.2293 -0.89429,0.38982 -0.48154,0.13758 -0.98602,0.13758 h -8.30087 q -0.52741,0 -0.96309,-0.13758 -0.41275,-0.16052 -0.71085,-0.38982 -0.27517,-0.25224 -0.41275,-0.57327 -0.11465,-0.34396 -0.0229,-0.73378 l 1.55928,-7.33779 q 0.0688,-0.36689 0.34396,-0.71085 0.27517,-0.34396 0.66499,-0.57326 0.38982,-0.25224 0.87136,-0.38982 0.48154,-0.16052 1.00895,-0.16052 h 8.30087 q 0.50448,0 0.91723,0.16052 0.43568,0.13758 0.71085,0.38982 0.29809,0.2293 0.41275,0.57326 0.13758,0.34396 0.0688,0.71085 l -0.48154,2.17841 q -0.0688,0.38982 -0.34396,0.73378 -0.27517,0.32102 -0.66499,0.57326 -0.38982,0.22931 -0.89429,0.38982 -0.48155,0.13759 -0.98602,0.13759 h -5.29697 l -0.48154,2.24719 q -0.11465,0.55034 0.13758,0.94016 0.25224,0.36689 0.73378,0.36689 0.45861,0 0.87136,-0.36689 0.41276,-0.36689 0.55034,-0.89429 0.0688,-0.2981 0.2981,-0.48155 0.2293,-0.20637 0.5274,-0.20637 h 4.12751 q 0.2981,0 0.45861,0.20637 0.16051,0.18345 0.0917,0.48155 z m -4.51733,-4.70077 0.34396,-1.55928 q 0.11465,-0.55034 -0.13759,-0.91723 -0.25223,-0.38982 -0.73377,-0.38982 -0.48155,0 -0.8943,0.38982 -0.41275,0.36689 -0.5274,0.91723 l -0.34396,1.55928 z"
       id="path1435"
       inkscape:label="e"
       style="font-style:oblique;font-weight:500;font-size:22.9306px;font-family:'Sneakers Pro';-inkscape-font-specification:'Sneakers Pro, Medium Oblique';white-space:pre;inline-size:197.299;display:inline;fill:#003262;stroke-width:0.264583" /><path
       d="m 237.20457,184.3616 q -0.0917,0.36689 -0.41275,0.61913 -0.2981,0.25224 -0.64206,0.25224 h -3.87527 l -2.10961,10.02067 q -0.0917,0.36689 -0.38982,0.61912 -0.2981,0.25224 -0.66499,0.25224 h -5.06766 q -0.36689,0 -0.57327,-0.25224 -0.18344,-0.25223 -0.0917,-0.61912 l 2.10961,-10.02067 h -4.01285 q -0.36689,0 -0.57327,-0.25224 -0.18344,-0.25224 -0.0917,-0.61913 l 0.22931,-1.14653 q 0.0688,-0.34396 0.36689,-0.59619 0.32103,-0.25224 0.68792,-0.25224 h 14.67558 q 0.34396,0 0.5274,0.25224 0.20638,0.25223 0.13759,0.59619 z"
       id="path1433"
       inkscape:label="T"
       style="font-style:oblique;font-weight:500;font-size:22.9306px;font-family:'Sneakers Pro';-inkscape-font-specification:'Sneakers Pro, Medium Oblique';white-space:pre;inline-size:197.299;display:inline;fill:#003262;stroke-width:0.264583" /><path
       d="m 211.79754,194.29055 q -0.0917,0.38982 -0.36689,0.73378 -0.25223,0.32103 -0.64205,0.57327 -0.38982,0.2293 -0.8943,0.38982 -0.48154,0.13758 -0.98601,0.13758 h -8.30088 q -0.5274,0 -0.96308,-0.13758 -0.41275,-0.16052 -0.71085,-0.38982 -0.27517,-0.25224 -0.41275,-0.57327 -0.11466,-0.34396 -0.0229,-0.73378 l 1.55928,-7.33779 q 0.0688,-0.36689 0.34396,-0.71085 0.27516,-0.34396 0.66498,-0.57326 0.38982,-0.25224 0.87137,-0.38982 0.48154,-0.16052 1.00894,-0.16052 h 8.30088 q 0.50447,0 0.91722,0.16052 0.43568,0.13758 0.71085,0.38982 0.2981,0.2293 0.41275,0.57326 0.13759,0.34396 0.0688,0.71085 l -0.48154,2.17841 q -0.0688,0.38982 -0.34396,0.73378 -0.27516,0.32102 -0.66498,0.57326 -0.38982,0.22931 -0.8943,0.38982 -0.48154,0.13759 -0.98601,0.13759 h -5.29697 l -0.48154,2.24719 q -0.11466,0.55034 0.13758,0.94016 0.25224,0.36689 0.73378,0.36689 0.45861,0 0.87136,-0.36689 0.41275,-0.36689 0.55034,-0.89429 0.0688,-0.2981 0.29809,-0.48155 0.22931,-0.20637 0.52741,-0.20637 h 4.1275 q 0.2981,0 0.45862,0.20637 0.16051,0.18345 0.0917,0.48155 z m -4.51732,-4.70077 0.34395,-1.55928 q 0.11466,-0.55034 -0.13758,-0.91723 -0.25224,-0.38982 -0.73378,-0.38982 -0.48154,0 -0.89429,0.38982 -0.41275,0.36689 -0.52741,0.91723 l -0.34395,1.55928 z"
       id="path1431"
       inkscape:label="e"
       style="font-style:oblique;font-weight:500;font-size:22.9306px;font-family:'Sneakers Pro';-inkscape-font-specification:'Sneakers Pro, Medium Oblique';white-space:pre;inline-size:197.299;display:inline;fill:#003262;stroke-width:0.264583" /><path
       d="m 197.16783,196.125 h -4.15043 q -0.52741,0 -0.96309,-0.13758 -0.41275,-0.16052 -0.71085,-0.38982 -0.27516,-0.25224 -0.41275,-0.57327 -0.11465,-0.34396 -0.0229,-0.73378 l 2.38478,-11.23599 q 0.0459,-0.2981 0.27517,-0.48154 0.25224,-0.20638 0.55033,-0.20638 h 4.12751 q 0.2981,0 0.43568,0.20638 0.16052,0.18344 0.11466,0.48154 l -2.17841,10.15825 q -0.11465,0.55034 0.13758,0.94016 0.25224,0.36689 0.73378,0.36689 z"
       id="path1429"
       inkscape:label="l"
       style="font-style:oblique;font-weight:500;font-size:22.9306px;font-family:'Sneakers Pro';-inkscape-font-specification:'Sneakers Pro, Medium Oblique';white-space:pre;inline-size:197.299;display:inline;fill:#003262;stroke-width:0.264583" /><path
       d="m 189.25681,194.29055 q -0.0917,0.38982 -0.36689,0.73378 -0.25223,0.32103 -0.64205,0.57327 -0.38982,0.2293 -0.8943,0.38982 -0.48154,0.13758 -0.98601,0.13758 h -3.69183 q -0.5274,0 -0.96308,-0.13758 -0.41275,-0.13759 -0.71085,-0.38982 l -0.61913,0.5274 h -4.12751 q -0.29809,0 -0.45861,-0.18344 -0.16051,-0.20638 -0.0917,-0.50448 l 2.63702,-12.38252 q 0.0459,-0.2981 0.27517,-0.48154 0.25223,-0.20638 0.55033,-0.20638 h 4.12751 q 0.2981,0 0.43568,0.20638 0.16051,0.18344 0.11465,0.48154 l -0.55033,2.49943 q 0.80257,-0.43568 1.71979,-0.43568 h 3.69183 q 0.50447,0 0.91722,0.16052 0.43569,0.13758 0.71085,0.38982 0.2981,0.2293 0.41275,0.57326 0.13759,0.34396 0.0688,0.71085 z m -5.29696,-1.07774 1.1236,-5.18231 q 0.11465,-0.55034 -0.13759,-0.91723 -0.25223,-0.38982 -0.73378,-0.38982 -0.48154,0 -0.89429,0.38982 -0.41275,0.36689 -0.5274,0.91723 l -1.1236,5.18231 q -0.11466,0.55034 0.13758,0.94016 0.25224,0.36689 0.73378,0.36689 0.48154,0 0.89429,-0.36689 0.41275,-0.38982 0.52741,-0.94016 z"
       id="path1427"
       inkscape:label="b"
       style="font-style:oblique;font-weight:500;font-size:22.9306px;font-family:'Sneakers Pro';-inkscape-font-specification:'Sneakers Pro, Medium Oblique';white-space:pre;inline-size:197.299;display:inline;fill:#003262;stroke-width:0.264583" /><path
       d="m 174.3061,194.29055 q -0.0917,0.38982 -0.36689,0.73378 -0.25224,0.32103 -0.64206,0.57327 -0.38982,0.2293 -0.89429,0.38982 -0.48155,0.13758 -0.98602,0.13758 h -8.30088 q -0.5274,0 -0.96308,-0.13758 -0.41275,-0.16052 -0.71085,-0.38982 -0.27517,-0.25224 -0.41275,-0.57327 -0.11465,-0.34396 -0.0229,-0.73378 l 0.43568,-2.06375 q 0.0917,-0.48154 0.41275,-0.8943 0.34396,-0.41275 0.8255,-0.71084 0.50448,-0.32103 1.10067,-0.50448 0.61913,-0.18344 1.26118,-0.18344 h 4.67785 l 0.41275,-1.90324 q 0.11465,-0.55034 -0.13759,-0.91723 -0.25223,-0.38982 -0.73378,-0.38982 -0.48154,0 -0.89429,0.38982 -0.41275,0.36689 -0.5274,0.91723 l -0.0229,0.0688 q -0.0688,0.2981 -0.2981,0.50447 -0.22931,0.18345 -0.5274,0.18345 h -3.82941 q -0.2981,0 -0.45862,-0.18345 -0.16051,-0.20637 -0.0917,-0.50447 l 0.25224,-1.14653 q 0.0688,-0.36689 0.32103,-0.71085 0.27516,-0.34396 0.66498,-0.57326 0.38982,-0.25224 0.87137,-0.38982 0.48154,-0.16052 1.00894,-0.16052 h 8.02571 q 0.50448,0 0.91723,0.16052 0.43568,0.13758 0.71084,0.38982 0.2981,0.2293 0.41276,0.57326 0.13758,0.34396 0.0688,0.71085 z m -5.29697,-1.07774 0.0688,-0.29809 0.34396,-1.60515 h -2.29306 l -0.41275,1.90324 q -0.11465,0.55034 0.13758,0.94016 0.25224,0.36689 0.73378,0.36689 0.48154,0 0.89429,-0.36689 0.41275,-0.38982 0.52741,-0.94016 z"
       id="path1425"
       inkscape:label="a"
       style="font-style:oblique;font-weight:500;font-size:22.9306px;font-family:'Sneakers Pro';-inkscape-font-specification:'Sneakers Pro, Medium Oblique';white-space:pre;inline-size:197.299;display:inline;fill:#003262;stroke-width:0.264583" /><path
       d="m 162.86377,184.3616 q -0.0917,0.36689 -0.41275,0.61913 -0.2981,0.25224 -0.64205,0.25224 h -3.87528 l -2.10961,10.02067 q -0.0917,0.36689 -0.38982,0.61912 -0.2981,0.25224 -0.66499,0.25224 h -5.06766 q -0.36689,0 -0.57327,-0.25224 -0.18344,-0.25223 -0.0917,-0.61912 l 2.10962,-10.02067 h -4.01286 q -0.36689,0 -0.57326,-0.25224 -0.18345,-0.25224 -0.0917,-0.61913 l 0.22931,-1.14653 q 0.0688,-0.34396 0.36689,-0.59619 0.32103,-0.25224 0.68792,-0.25224 h 14.67558 q 0.34396,0 0.52741,0.25224 0.20637,0.25223 0.13758,0.59619 z"
       id="path1423"
       inkscape:label="T"
       style="font-style:oblique;font-weight:500;font-size:22.9306px;font-family:'Sneakers Pro';-inkscape-font-specification:'Sneakers Pro, Medium Oblique';white-space:pre;inline-size:197.299;display:inline;fill:#003262;stroke-width:0.264583" /></g><g
     aria-label="® "
     transform="matrix(4.1008014,0,0,4.2394904,-197.24304,-199.11149)"
     id="text199"
     style="font-weight:bold;font-size:7.05556px;font-family:Arial;-inkscape-font-specification:'Arial, Bold';white-space:pre;inline-size:197.299;display:inline;fill:#003262;stroke-width:0.264583"
     inkscape:label="Rights Reserved"><path
       d="m 208.55226,199.03816 q 0.60022,0 1.1518,0.30158 0.55157,0.29864 0.86542,0.85944 0.31691,0.56072 0.31691,1.17321 0,0.60937 -0.31082,1.164 -0.30778,0.55153 -0.86239,0.86235 -0.55155,0.30778 -1.16092,0.30778 -0.60951,0 -1.16404,-0.30778 -0.55157,-0.31082 -0.86247,-0.86235 -0.30772,-0.55463 -0.30772,-1.164 0,-0.61249 0.31386,-1.17321 0.31693,-0.5608 0.86841,-0.85944 0.55153,-0.30158 1.15196,-0.30158 z m 0.003,0.45703 q -0.48136,0 -0.92326,0.24078 -0.44192,0.2408 -0.69782,0.69169 -0.25295,0.45105 -0.25295,0.94473 0,0.49055 0.24681,0.93543 0.24999,0.44492 0.69475,0.69477 0.44499,0.24989 0.93247,0.24989 0.49066,0 0.93247,-0.24989 0.44494,-0.24985 0.69478,-0.69477 0.24989,-0.44488 0.24989,-0.93543 0,-0.49368 -0.25597,-0.94473 -0.25292,-0.45089 -0.69779,-0.69169 -0.44184,-0.24078 -0.92338,-0.24078 z m -1.05732,3.12649 v -2.47742 h 0.5028 q 0.70695,0 0.79224,0.007 0.24989,0.0216 0.38704,0.10045 0.14016,0.0761 0.23158,0.23772 0.0944,0.15843 0.0944,0.35349 0,0.26813 -0.17672,0.46012 -0.17369,0.18893 -0.49067,0.23466 0.11275,0.0432 0.17373,0.0944 0.0614,0.0488 0.16763,0.18896 0.0279,0.0363 0.18278,0.3017 l 0.29256,0.49974 h -0.62167 l -0.20717,-0.40224 q -0.21028,-0.40526 -0.34739,-0.50887 -0.13709,-0.10668 -0.3474,-0.10668 h -0.13099 v 1.01779 z m 0.5028,-1.40781 h 0.20409 q 0.43583,0 0.5394,-0.0329 0.10671,-0.0329 0.16761,-0.11589 0.0614,-0.086 0.0614,-0.19188 0,-0.10359 -0.0614,-0.1829 -0.058,-0.083 -0.16761,-0.11573 -0.10965,-0.0363 -0.5394,-0.0363 h -0.20409 z"
       id="path286"
       style="display:inline;stroke-width:0.234027"
       inkscape:label="R" /></g><g
     id="g8952"
     transform="matrix(0.08582079,0,0,-0.08582079,300,599.74258)"
     inkscape:label="Cal Logo"
     style="display:inline"><path
       d="m 4415.2274,2213.615 35.3077,64.0568 c -8.7599,4.844 -17.6347,7.8601 -25.7817,9.6367 -8.1852,1.7765 -15.6937,2.3644 -22.5382,2.3772 -12.2077,-0.039 -22.3977,-1.8149 -31.6173,-4.0387 -16.0513,-4.0004 -29.4083,-9.5855 -41.7564,-15.4136 -18.3754,-8.793 -34.1585,-18.4041 -46.0085,-26.0598 -11.7992,-7.63 -19.4864,-13.2918 -20.3802,-13.9437 l -2.0687,-1.5976 c -80.7417,-64.1462 -151.3316,-135.9481 -214.3237,-213.8975 -63.0176,-77.9621 -118.4501,-162.059 -169.3239,-251.1532 -113.968,-199.6088 -175.7854,-381.9124 -209.0116,-526.4107 -33.2263,-144.524 -37.951,-251.26828 -37.951,-300.48671 0,-18.16135 0.6385,-28.50092 0.7406,-30.03461 1.9793,-29.52338 21.4656,-54.88026 49.4564,-64.37632 28.0035,-9.50883 58.8803,-1.22694 78.3793,20.99867 0.1915,0.21728 34.4266,39.22393 72.9906,84.95323 19.2948,22.87742 39.6494,47.42912 57.5778,69.92314 8.977,11.2598 17.341,22.0211 24.7857,31.9773 7.4574,10.0328 13.9187,19.0688 19.6522,28.1047 4.878,7.7067 12.0034,18.5576 20.6994,31.5811 30.5448,45.7293 80.3715,118.1702 132.701,197.0652 52.3933,79.023 107.3534,164.4874 149.4672,238.7304 50.8484,89.6949 104.7485,195.1994 149.8888,289.5465 22.5637,47.1735 42.9056,91.5096 59.5698,129.7877 8.3512,19.1583 15.7704,36.8084 22.1296,52.6564 6.372,15.8864 11.6713,29.8941 15.8725,42.368 l -69.2492,23.3759 67.0145,-29.1783 c 0.7279,1.6998 6.7806,15.6691 13.1143,36.131 3.1669,10.2628 6.3975,22.1617 8.9771,35.3513 2.5538,13.2153 4.5459,27.6703 4.5842,43.825 -0.013,7.9497 -0.498,16.3338 -1.9154,25.2675 -2.1453,13.3302 -6.321,28.258 -15.2086,43.4415 -4.4309,7.5534 -10.0878,15.0557 -16.9451,21.8678 -6.8317,6.8121 -14.8766,12.8701 -23.5215,17.6245 -22.6531,12.5123 -50.1842,12.1033 -72.467,-1.0608 -22.2829,-13.164 -35.9207,-37.0896 -35.9207,-62.996 v 0 h 73.08 l 35.3077,64.0568 -35.3077,-64.0568 h 73.0927 v 0 h -73.0927 l -35.295,-64.0567 19.3075,35.0574 -30.583,-25.7659 c 2.937,-3.553 7.1382,-7.0422 11.2755,-9.2915 l 19.3075,35.0574 -30.583,-25.7659 27.646,23.2864 -32.4728,-15.9503 c 1.0087,-2.0705 2.5794,-4.6777 4.8268,-7.3361 l 27.646,23.2864 -32.4728,-15.9503 18.9627,9.3171 -20.9293,-3.8597 c 0.089,-0.4346 0.4342,-2.3133 1.9666,-5.4574 l 18.9627,9.3171 -20.9293,-3.8597 1.9793,0.3706 -2.0048,-0.2556 0.025,-0.115 1.9793,0.3706 -2.0048,-0.2556 c 0.025,-0.1278 0.1149,-0.9586 0.1022,-2.2878 0.038,-3.2079 -0.5491,-9.1892 -1.8517,-15.7586 -1.9153,-9.9049 -5.2993,-21.1136 -8.1341,-29.2038 -1.4175,-4.0515 -2.6944,-7.3745 -3.5372,-9.5089 -0.4341,-1.0735 -0.7534,-1.8404 -0.9322,-2.2749 l -0.1532,-0.3834 24.7729,-10.5697 -24.6963,10.7486 -0.077,-0.1789 24.7729,-10.5697 -24.6963,10.7486 -2.2347,-5.8024 c -2.8603,-8.512 -7.3297,-20.4492 -12.9993,-34.5846 -9.9602,-24.7945 -23.6492,-56.5162 -39.8154,-92.1615 -48.5242,-107.0253 -119.6122,-249.939 -183.2682,-362.1534 -22.2318,-39.2367 -49.3287,-83.4578 -78.0473,-128.5481 -43.0845,-67.6738 -89.8082,-137.3541 -129.9172,-196.6564 -20.061,-29.6513 -38.4618,-56.7205 -54.0278,-79.7897 -15.5789,-23.1202 -28.1952,-42.0229 -37.2743,-56.3756 -2.2986,-3.6681 -7.1126,-10.5696 -13.2293,-18.7493 -10.7647,-14.4293 -25.6922,-33.2042 -41.7308,-52.7714 -24.0833,-29.3956 -50.7844,-60.8233 -71.3689,-84.7615 -10.2922,-11.97554 -19.0649,-22.09785 -25.2453,-29.20391 -3.0902,-3.55303 -5.542,-6.35199 -7.202,-8.25633 -0.83,-0.95855 -1.4685,-1.68704 -1.8899,-2.17271 l -0.6257,-0.70294 54.909,-48.28542 72.9267,4.90778 -47.1834,-3.16962 47.1961,2.97791 -0.013,0.19171 -47.1834,-3.16962 47.1961,2.97791 -0.013,0.19171 c -0.064,1.25251 -0.4214,8.17964 -0.4214,20.23182 0,39.8374 3.8564,135.56481 34.2351,267.66591 30.3915,132.1138 87.2542,300.576 193.471,486.6372 47.8348,83.7902 99.015,161.1645 156.0565,231.7395 57.0542,70.5748 119.9186,134.3759 191.5812,191.3395 l -45.4596,57.283 43.3781,-58.8806 -13.7783,18.7109 13.7017,-18.7749 0.077,0.064 -13.7783,18.7109 13.7017,-18.7749 c 0.3703,0.3069 14.1997,10.2758 29.5104,18.8899 7.5723,4.3071 15.5532,8.2308 21.1463,10.378 2.7582,1.0863 4.9035,1.7126 5.6569,1.8788 l 0.2809,0.064 -3.5116,18.4169 v -18.6597 c 2.49,0.013 3.4733,0.2556 3.5116,0.2428 l -3.5116,18.4169 v -18.6597 40.3869 l -8.5684,-39.4028 c 3.8181,-0.8307 6.6658,-0.9713 8.5684,-0.9841 v 40.3869 l -8.5684,-39.4028 10.8286,49.7296 -24.543,-44.5278 c 5.095,-2.8118 9.9219,-4.3839 13.7144,-5.2018 l 10.8286,49.7296 -24.543,-44.5278 c 22.6531,-12.4996 50.1715,-12.1033 72.4543,1.0735 22.2828,13.1641 35.9334,37.0896 35.9334,62.9832 z m -1925.006,-1081.8081 -2.2474,73.1184 c -16.4728,-0.5369 -32.639,-3.2719 -49.4309,-7.694 -29.2932,-7.7834 -60.5531,-20.8709 -93.9326,-39.8374 -49.9544,-28.4754 -104.4292,-70.3066 -159.2233,-128.3309 -54.7556,-58.01154 -109.6901,-132.2162 -159.9127,-225.18291 -4.3416,-8.03906 -8.9131,-17.30506 -13.9188,-28.10474 -17.3793,-37.63912 -39.8664,-94.05307 -58.7014,-158.31435 -9.3985,-32.11787 -17.8263,-66.11449 -24.0196,-100.73737 -6.1677,-34.64844 -10.1389,-69.87201 -10.1518,-104.88981 0,-20.81846 1.4175,-41.58708 4.8908,-62.19082 3.4861,-20.5884 9.0408,-41.0784 17.7114,-60.96259 12.5396,-28.75654 30.9405,-54.51347 54.3854,-74.82198 23.3809,-20.34429 51.7421,-35.03185 82.2995,-42.45616 l -0.166,0.0396 c 15.9491,-3.92366 32.1665,-5.8561 48.3582,-5.8561 h 0.026 c 24.4536,-0.0243 48.3964,4.38377 70.5005,12.27201 19.3714,6.89901 37.3509,16.34522 53.9257,27.4887 29.0379,19.56979 53.9385,44.12276 76.6427,71.6268 33.9669,41.33146 63.2347,89.71913 90.9318,142.25925 27.6205,52.52863 53.466,109.24931 78.8774,166.85186 l -0.025,-0.0384 c 6.8445,15.4902 12.9101,29.21665 17.9156,40.13135 l 0.051,0.11503 c 6.0145,13.13854 16.2046,36.18212 28.7059,65.27096 18.7202,43.56937 42.3821,100.22614 63.4008,154.48016 10.5093,27.14617 20.3673,53.67888 28.6803,77.98774 8.313,24.41111 15.0936,46.1894 19.6522,66.08893 v 0.0256 c 3.7926,16.92174 7.4064,37.31964 7.4575,60.74664 -0.026,15.6564 -1.6473,32.8591 -7.1254,51.1355 -4.1118,13.6626 -10.5476,27.9386 -20.0865,41.32 -7.1254,10.0328 -15.9746,19.465 -26.152,27.5168 -15.285,12.1416 -33.3156,20.9603 -52.2912,26.3793 -19.0266,5.4702 -39.0364,7.8091 -60.2466,7.8218 -2.9753,0 -5.9889,-0.051 -9.0409,-0.1405 h 0.013 l 2.2474,-73.1184 2.2602,-73.1183 c 1.5707,0.051 3.0775,0.077 4.5204,0.077 12.1822,0.013 18.9245,-1.7126 21.2612,-2.5817 0.9067,-0.3195 1.2132,-0.5112 1.2132,-0.4984 l 4.099,7.2466 -6.1422,-5.4701 c 0.8683,-1.0225 1.9921,-1.7765 2.0432,-1.7765 l 4.099,7.2466 -6.1422,-5.4701 7.9427,7.0677 -9.3984,-5.0228 1.4557,-2.0449 7.9427,7.0677 -9.3984,-5.0228 4.712,2.5178 -4.9035,-2.1216 0.1915,-0.3962 4.712,2.5178 -4.9035,-2.1216 1.7239,0.7413 -1.7495,-0.6902 0.026,-0.051 1.7239,0.7412 -1.7495,-0.6901 0.1533,-0.4984 c 0.3065,-1.0736 0.83,-4.1282 0.8173,-8.5631 0.051,-7.3106 -1.4303,-17.9696 -3.831,-28.3731 v 0.026 c -1.6344,-7.2339 -4.648,-18.0719 -8.6704,-30.72487 -7.036,-22.25118 -17.124,-50.31757 -28.476,-80.04544 -17.0346,-44.64294 -36.9679,-93.20954 -54.3854,-134.38891 -8.7089,-20.60246 -16.792,-39.36451 -23.5854,-54.90583 -6.7806,-15.50297 -12.2971,-27.87467 -15.681,-35.28747 l 0.038,0.10224 c -5.7207,-12.47394 -11.965,-26.62217 -18.7967,-42.11235 l -0.013,-0.0256 c -21.6698,-49.15452 -43.1865,-96.43028 -64.8437,-139.07942 -16.23,-31.99006 -32.5494,-61.38309 -48.8179,-86.89461 -12.1948,-19.14547 -24.3514,-36.09521 -36.2015,-50.3444 -17.7625,-21.44727 -34.797,-36.49908 -49.2521,-45.15672 -7.2531,-4.3825 -13.8166,-7.25815 -19.946,-9.09602 -6.1421,-1.82635 -11.8502,-2.67115 -18.0816,-2.68522 h -0.026 c -4.5587,-0.0102 -9.143,0.5483 -13.3697,1.59758 l -0.1659,0.0396 c -8.4663,2.1216 -15.0937,5.62094 -21.1975,10.86358 -6.0527,5.27715 -11.6458,12.51101 -16.2045,22.87488 -3.0008,6.84021 -5.6825,15.82121 -7.5213,26.76531 -1.8516,10.91342 -2.8476,23.70945 -2.8476,37.79249 -0.025,27.09377 3.716,58.80265 10.1646,91.29116 9.6155,48.78387 25.1687,99.33149 40.6071,141.36717 7.7128,21.02423 15.3873,39.9652 22.1551,55.49373 6.7423,15.47742 12.7312,27.77243 16.2811,34.31615 67.7679,125.46799 142.7251,207.63502 206.7642,257.88868 31.9876,25.12679 61.281,42.21459 84.8408,52.65649 11.7479,5.2273 22.0529,8.7802 30.2127,10.9402 8.1213,2.1728 14.1486,2.8501 16.5876,2.9012 h 0.013 z M 73.088454,-736.05135 l 69.928096,-21.2681 c 1.00751,3.3499 2.99317,8.8069 5.6569,14.9676 3.98537,9.3059 9.4967,20.3342 15.44729,30.6587 5.91612,10.3393 12.38644,20.0946 17.62833,26.7894 l -0.0102,-0.015 c 16.571,21.2923 40.22911,45.6165 70.71124,71.5613 30.47702,25.9818 67.72318,53.629 111.31451,82.2961 67.55334,44.4231 131.89516,80.094 199.43446,110.1682 67.5432,30.0602 138.4345,54.5876 219.2119,76.1205 v 0 c 115.8924,30.9178 236.79432,48.0068 356.36432,57.2179 119.5789,9.2314 237.7596,10.6092 348.4331,10.6092 h -0.1149 l 11.8756,-0.024 h 0.051 c 72.582,-0.065 167.0892,-2.4168 274.8257,-6.3661 323.401,-11.8566 766.1715,-37.9726 1112.928,-58.446 121.3616,-7.1444 230.0047,-13.545 316.8247,-18.3531 43.4164,-2.3913 81.3802,-4.3927 112.8443,-5.8753 31.4897,-1.4979 56.3391,-2.482 74.3187,-2.8513 l -0.3448,0.01 11.9394,-0.294 h -0.025 c 19.5501,-0.4946 53.0573,-1.379 93.2685,-1.379 144.8959,0.026 244.5492,11.284 316.148,26.9302 35.7674,7.823 64.5372,16.7938 87.931,25.955 23.3298,9.1113 41.4115,18.5729 54.3725,26.0457 13.0633,7.5036 26.2797,15.7612 39.1514,24.7077 19.3204,13.5194 37.7468,28.0932 54.2832,46.0858 8.2619,9.1165 16.1791,19.1212 23.1767,32.0169 3.4734,6.4645 6.7041,13.7137 9.2069,22.1208 2.49,8.388 4.2522,18.0234 4.2522,28.6825 0,4.3582 -0.2937,8.8467 -0.9449,13.3788 v 0.031 c -1.4047,9.9152 -4.4566,19.7794 -8.7344,28.562298 -3.9968,8.2422 -9.0025,15.5004 -14.3018,21.6121 -10.0113,11.5026 -20.7377,19.0164 -30.6597,24.59262 -17.4815,9.60979 -33.2518,14.04341 -48.3198,17.53382 -22.4999,4.98191 -43.8251,6.98848 -62.2259,8.6014 -9.143,0.76429 -17.4688,1.3931 -24.275,1.98229 -6.7422,0.55851 -12.1182,1.1886 -14.0592,1.51706 -67.7933,10.9786098 -131.1047,29.9847698 -187.8396,53.64438 -56.7223,23.64427 -106.8682,51.97649 -148.05,81.102402 -20.8781,14.75274 -41.1434,33.38443 -59.3655,53.1702 -27.3778,29.66526 -50.1331,61.80612 -65.546,86.08943 -7.7255,12.14165 -13.6506,22.31636 -17.5197,29.24093 -1.941,3.46484 -3.3712,6.11045 -4.2651,7.79749 l -0.9193,1.76247 -0.1533,0.31057 -21.5677,-11.01952 21.6187,10.91472 -0.051,0.1048 -21.5677,-11.01952 21.6187,10.91472 c -9.411,18.66107 -26.369,32.41053 -46.5576,37.76692 -20.1886,5.35766 -41.7181,1.78802 -59.123,-9.76445 l -69.249,-46.01047 C 3098.646,192.81042 2987.5256,133.8544 2885.6759,95.742388 c -101.9519,-38.13757 -194.3267,-55.6356 -282.7302,-55.6765 -9.0663,0 -18.2348,0.19554 -27.1352,0.57896 h -0.026 c -47.4133,2.00785 -89.1696,12.94556 -119.2929,26.341 -15.0297,6.62934 -27.097,13.87855 -35.1162,19.99922 -4.0224,3.0303 -7.0105,5.76664 -8.8748,7.71825 -0.9322,0.97389 -1.5834,1.75223 -1.9538,2.23662 l -0.3702,0.4895 -0.026,0.0498 -2.7965,-1.81741 2.8475,1.72795 -0.051,0.0895 -2.7965,-1.81742 2.8475,1.72795 -45.6254,75.840592 c -11.1734,18.58184 -29.6892,31.08263 -51.091,34.50786 -21.4144,3.41499 -42.8927,-2.71079 -59.3016,-16.88457 l -66.9251,-57.86839 c -17.4432,-15.09655 -37.4147,-28.17246 -58.4845,-39.209872 -31.5789,-16.60466 -65.5715,-28.52776 -95.7203,-36.59493 -30.1616,-8.08762 -56.4286,-12.38193 -72.5692,-14.46774 l -0.064,-0.0102 c -18.7839,-2.44111 -37.9765,-3.66934 -56.7605,-3.66934 -49.0733,0 -95.1457,8.25761 -136.2253,23.4794 -41.1178,15.2218 -77.2173,37.31833 -106.9958,65.255622 l -0.038,0.0256 -11.3522,-12.12631 11.5182,11.97678 -0.166,0.14953 -11.3522,-12.12631 11.5182,11.97678 -0.013,0.0102 c -0.2681,0.25434 -1.6728,1.70239 -3.4477,3.60416 -3.1541,3.39966 -7.6361,8.39691 -12.4247,13.86832 -7.2148,8.24355 -15.2724,17.6987 -21.8231,25.59715 -3.269,3.93902 -6.1677,7.50355 -8.3003,10.18877 -1.047,1.32791 -1.9154,2.44239 -2.4644,3.15555 l -0.5237,0.70422 v 0 l -20.0736,-14.32843 20.3163,13.98335 -0.2427,0.34508 -20.0736,-14.32843 20.3163,13.98335 -0.013,0.0103 -47.6942,69.33522 c -11.8374,17.21941 -30.3021,28.46259 -51.0271,31.09796 -20.7249,2.62132 -41.3988,-3.66933 -57.1563,-17.39323 l -63.388,-55.2164 -0.4086,-0.3553 c -0.7151,-0.63904 -3.0519,-2.5702 -6.155,-4.92185 -5.478,-4.16395 -13.3824,-9.76572 -21.9891,-15.59116 -12.9354,-8.78161 -27.5949,-18.22781 -39.8537,-25.88089 -6.1165,-3.8342 -11.6713,-7.23514 -16.0257,-9.84113 -2.1708,-1.31768 -4.0607,-2.43088 -5.5037,-3.25906 -1.4174,-0.83459 -2.4644,-1.40844 -2.5283,-1.44295 C 1165.9485,78.462908 1017.8169,40.375188 872.80868,40.416088 c -130.2351,-0.0307 -253.8799,32.06674 -357.313,91.392132 v 0 c -53.93097,30.95225 -96.67952,67.78747 -131.3756,109.01924 -51.9311,61.79717 -85.90571,134.17292 -107.02011,211.29158 -21.10037,77.00236 -28.99577,158.38977 -28.9715,235.11222 0,23.86155 0.7534,47.2502 2.07505,69.91036 v 0 c 8.74968,149.22729 40.26486,298.68468 94.62984,447.86088 54.36498,149.1631 131.63082,298.0325 231.91122,445.5344 172.7474,254.1696 413.075,499.4308 693.95352,706.7975 101.9838,75.3421 230.9943,160.5126 374.2684,232.7362 143.2613,72.2876 300.7351,131.3855 458.809,156.1673 58.4972,9.2532 117.9266,17.5606 171.8396,17.4967 30.4681,0.026 55.4835,-2.5945 75.0336,-6.991 19.6268,-4.3966 33.6095,-10.3907 43.8378,-16.9217 l 0.025,-0.013 c 13.0122,-8.3202 22.8191,-17.6501 31.0299,-28.2709 12.2205,-15.8481 20.8144,-35.1852 26.3053,-56.8357 5.4909,-21.5482 7.6362,-45.052 7.6106,-66.7152 0.013,-13.9437 -0.8556,-27.1078 -2.0431,-38.4699 v 0.026 c -5.6314,-54.1773 -22.9596,-114.1188 -49.8778,-172.5393 -20.1631,-43.8377 -45.6255,-86.8319 -74.9316,-126.2476 -43.9272,-59.1745 -96.5886,-110.0801 -151.5487,-144.9329 -27.4673,-17.4585 -55.4452,-30.9549 -83.1679,-39.9781 -27.7482,-9.0487 -55.1643,-13.6753 -82.2741,-13.6753 h 0.064 c -13.8549,-0.013 -26.2157,2.7862 -35.512,6.8505 -9.3601,4.0642 -15.3745,9.1893 -18.5668,13.3558 l 0.013,-0.013 c -1.7494,2.2877 -2.439,3.7575 -2.9498,5.2017 -0.4724,1.457 -0.8299,3.0163 -0.8428,5.8791 0,2.5689 0.3448,6.1859 1.609,11.0809 v 0.026 c 3.0264,11.3238 6.5763,17.7013 11.9396,24.3217 4.0989,4.9078 9.6281,9.9817 17.9028,15.5158 12.297,8.2946 30.8384,17.2028 55.3815,26.0342 24.5046,8.8826 54.7684,17.7524 89.8336,27.4529 l -0.038,-0.013 c 10.2155,2.8246 20.495,5.6747 30.7873,8.6142 l -0.038,-0.013 c 51.6145,14.6978 95.4012,33.9455 132.1646,57.2957 27.5694,17.5096 51.1165,37.3452 70.6283,58.8552 29.3061,32.2456 49.201,68.1977 61.1149,103.7663 11.9779,35.6198 16.2556,70.6516 16.2556,102.7567 0,11.1832 -0.5235,22.034 -1.4301,32.4886 -2.0559,23.5292 -7.6873,47.6335 -17.9029,71.1244 -7.6617,17.5991 -17.9412,34.8402 -31.1577,50.7011 -19.7544,23.8487 -46.315,44.3489 -78.009,58.0626 -31.6939,13.7904 -68.036,20.8581 -107.6982,20.8325 -33.1496,-0.039 -65.2522,-4.7161 -95.5543,-11.3236 -45.3957,-9.9946 -86.7817,-24.5006 -118.8205,-37.2302 -31.9876,-12.7424 -54.5387,-23.7721 -61.1405,-27.0695 l -0.013,-0.013 c -146.5048,-73.2842 -268.2494,-170.3279 -375.5262,-278.8104 -107.3407,-108.5589 -200.5965,-228.5695 -291.4401,-349.8966 -176.5439,-235.893 -310.48352,-468.4631 -400.54952,-696.9818 -90.0392,-228.4673 -136.109,-453.07516 -136.1001,-671.54822 0,-31.79834 0.9781,-63.44332 2.928,-94.94771 3.5027,-56.12 15.6376,-112.32945 35.3614,-165.84218 14.805,-40.11857 33.9044,-78.73031 57.1985,-114.49194 34.9464,-53.57408 79.3958,-101.00194 133.6612,-135.81908 27.1097,-17.37917 56.67882,-31.50311 88.33832,-41.24327 31.6353,-9.74016 65.3443,-15.04159 100.1961,-15.02625 41.9798,-0.0256 83.7553,7.66841 123.8951,22.3253 40.1742,14.64794 78.7381,36.131 115.4633,63.49445 l -0.025,-0.0153 c 60.2977,44.92795 105.604,100.58783 142.2015,157.14237 36.5974,56.64528 64.8436,114.61591 90.3189,166.45438 l 0.013,0.0256 c 14.0848,28.73098 27.0331,55.07198 39.8537,78.80571 l -0.026,-0.0511 c 74.0888,136.95783 161.1004,257.53083 265.9893,355.73762 58.1269,54.40742 117.0455,98.43682 177.9817,134.38892 60.9616,35.952 123.9792,63.8651 190.6362,85.6561 32.9071,10.7486 63.1325,18.2892 93.8943,23.2737 30.7746,4.9716 62.2003,7.4127 97.6102,7.4127 4.2268,0 8.4917,-0.026 12.8206,-0.1022 h 0.013 c 12.1949,-0.2172 21.5932,-2.1727 29.6253,-4.9589 11.9267,-4.2176 21.2102,-10.5313 29.2805,-18.1869 7.9938,-7.5789 14.3657,-16.5765 18.5286,-23.9127 13.3059,-23.2991 38.2702,-37.4346 65.0735,-36.8338 26.8161,0.5879 51.1292,15.8096 63.388,39.684 3.9713,7.7195 8.083,16.1164 12.246,24.6156 6.1931,12.6783 12.5652,25.6764 17.4559,34.8529 2.4006,4.5371 4.4949,8.1669 5.3121,9.4577 l 0.2171,0.3323 0.051,0.064 -23.7896,16.1675 22.1935,-18.2508 c 1.1876,1.4571 1.5323,2.0066 1.5961,2.0833 l -23.7896,16.1675 22.1935,-18.2508 -44.9998,37 36.8272,-45.0646 c 5.0568,4.2048 6.8956,6.5948 8.1726,8.0646 l -44.9998,37 36.8272,-45.0646 -44.3996,54.3305 30.7362,-63.1108 c 3.3329,1.6743 7.7001,3.9492 13.6762,8.7803 l -44.4124,54.3305 30.7362,-63.1108 -27.5694,56.5927 16.0641,-60.9254 c 2.0814,0.6135 5.0951,1.2909 11.5053,4.3327 l -27.5694,56.5927 16.0641,-60.9254 -10.2795,39.0067 7.0744,-39.7224 c 0.4214,0.077 1.3152,0.2301 3.2051,0.7157 l -10.2795,39.0067 7.0744,-39.7224 -2.0304,11.3621 1.7495,-11.4132 0.2809,0.051 -2.0304,11.3621 1.7495,-11.4132 c 0.1532,0.051 4.5203,0.5496 10.1772,0.8819 8.645,0.5495 20.9421,0.9841 34.5672,1.2525 13.6506,0.2811 28.7441,0.3962 43.6718,0.3962 15.6937,0 31.2214,-0.1278 44.7315,-0.3578 13.472,-0.2174 25.0666,-0.5369 32.2815,-0.8692 10.4199,-0.4473 23.5853,-0.6901 38.6661,-1.0863 22.3849,-0.5623 48.6263,-1.4698 68.1509,-3.2591 9.6283,-0.8307 17.7369,-2.0321 20.8399,-2.7351 l 0.83,-0.1917 0.2171,-0.051 8.0576,28.9738 -12.7185,-27.1462 c 3.4094,-1.5592 4.5715,-1.7765 4.6609,-1.8276 l 8.0576,28.9738 -12.7185,-27.1462 23.0745,49.2949 -30.136,-45.2817 c 3.0647,-2.0322 5.3631,-3.1952 7.0615,-4.0132 l 23.0745,49.2949 -30.136,-45.2817 35.1927,52.8607 -46.6215,-43.0452 c 4.4821,-4.8438 8.3769,-7.7578 11.4288,-9.8155 l 35.1927,52.8607 -46.6215,-43.0452 -0.026,0.026 46.928,43.288 -56.6456,-29.4593 c 2.273,-4.3966 5.4909,-9.2404 9.7176,-13.8287 l 46.928,43.288 -56.6456,-29.4593 51.9847,27.0437 -57.6416,-10.8506 c 0.7662,-4.0131 2.2219,-9.5344 5.6569,-16.1931 l 51.9847,27.0437 -57.6416,-10.8506 44.2592,8.3329 h -45.0892 c 0.013,-1.6488 0.076,-4.2944 0.83,-8.3329 l 44.2592,8.3329 h -45.0892 19.2564 l -19.1543,2.326 c 0,0 -0.1021,-0.639 -0.1021,-2.326 h 19.2564 l -19.1543,2.326 c 0,-0.064 -0.3702,-2.4411 -1.3153,-6.0836 -1.6216,-6.454 -4.8651,-16.7808 -9.3727,-29.3826 -6.7552,-18.9793 -16.2812,-43.2498 -27.3013,-71.2651 -11.0329,-28.0408 -23.5981,-59.9031 -36.5847,-94.7432 v 0.013 c -20.8144,-55.9922 -53.9513,-129.28946 -88.8759,-220.35185 -13.1143,-34.25224 -26.5606,-68.5556 -39.7898,-102.36052 v 0.0256 c -34.2224,-87.4199 -65.1885,-166.30229 -88.2502,-237.299 -11.5181,-35.52775 -21.0825,-69.13201 -27.9397,-101.28821 -6.8189,-32.16643 -11.0457,-62.9206 -11.0713,-93.24406 0,-17.65396 1.4686,-35.20184 5.044,-52.62064 5.2994,-26.02147 15.7831,-52.04168 32.5623,-74.66221 16.6643,-22.68572 39.2152,-41.13336 64.3968,-54.06358 34.1839,-17.76771 72.5181,-26.535262 111.248,-26.470082 29.6764,0.0153 57.897,4.94741 84.2534,12.511022 39.5599,11.38759 75.238,28.59167 107.2767,46.63928 31.9877,18.08339 60.4254,37.18924 84.049,53.00022 l -0.089,-0.0651 c 7.4192,4.95763 14.1998,9.49605 20.1504,13.38521 l -0.076,-0.0396 c 37.2614,24.29352 67.2571,44.4231 93.9198,64.27279 26.6117,19.81006 49.9289,39.53066 71.9819,61.64125 l -0.038,-0.0396 24.045,24.02897 c 14.9658,14.96746 22.7425,35.78592 21.2485,56.89834 l -2.3752,33.91866 c -3.4861,49.57884 -5.1972,100.03698 -5.1972,150.69962 -0.013,125.94089 10.586,253.17261 30.4298,371.54733 19.8055,118.36186 48.9712,227.93066 85.0962,318.00876 125.2434,312.8968 308.8692,595.5928 529.1563,816.2895 25.6285,25.7148 63.2092,58.7528 106.7533,92.8901 65.3161,51.3145 144.5382,105.5812 219.2655,146.0449 37.2997,20.2446 73.5014,37.0129 105.4123,48.3877 31.8345,11.477 59.5188,17.1389 77.4855,17.42 l 0.9068,0.013 c 3.2179,-0.013 4.648,-0.3963 5.1715,-0.5497 l 0.3321,-0.1149 0.1021,0.23 -0.1404,-0.2045 0.038,-0.026 0.1021,0.23 -0.1404,-0.2045 0.4852,-0.4346 c 0.6895,-0.6901 2.4006,-2.7478 4.4438,-6.9399 3.1029,-6.1986 6.538,-17.0238 8.6833,-30.533 2.2091,-13.4964 3.2817,-29.5362 3.269,-46.0744 0,-22.9924 -2.0049,-46.9434 -4.6481,-67.3926 -2.605,-20.4107 -5.8612,-37.5752 -7.8533,-46.5856 -2.6944,-12.2822 -7.3169,-29.7151 -13.74,-50.8287 -11.25,-37.0257 -27.978,-85.5284 -49.7501,-142.1852 -65.3288,-170.1236 -176.1555,-413.8896 -323.9245,-660.3268 -18.3243,-30.5714 -42.8418,-68.53 -70.8453,-110.2462 -42.0373,-62.6251 -91.9917,-133.8775 -141.8312,-203.8006 -49.8522,-69.92311 -99.6023,-138.54261 -141.448,-196.24741 -26.3052,-36.29715 -49.8778,-68.81121 -69.2875,-95.86793 -19.4607,-27.12061 -34.5671,-48.47714 -44.7699,-63.7884 l -10.6115,-15.93752 c -6.87,-10.31401 -10.9563,-22.00834 -12.0161,-34.35448 l -1.6217,-19.10713 -0.013,-0.0256 c -1.3025,-15.42629 -1.9282,-30.82701 -1.9282,-46.1255 0.076,-97.24824 24.9516,-190.67377 61.945,-273.22422 37.1721,-82.59007 86.3986,-154.49677 139.507,-209.38854 52.9041,-54.647652 108.758,-92.7341022 163.118,-120.696962 54.3854,-28.01782 106.9703,-46.31976 155.0859,-63.29506 l -0.025,0.015 c 33.0475,-11.633 65.6353,-23.135598 97.4953,-36.629498 11.4032,-4.7429 23.5087,-11.2585 29.9701,-16.2302 1.609,-1.2039 2.8604,-2.2775 3.6904,-3.0558 l 1.1237,-1.1388 0.051,-0.064 15.7192,12.4356 -19.0137,-4.8273 c 1.3024,-5.102 3.2434,-7.5533 3.2945,-7.6083 l 15.7192,12.4356 -19.0137,-4.8273 19.5501,4.9666 h -20.278 c 0,-0.639 0.064,-2.3606 0.7151,-4.9563 l 19.5629,4.9563 h -20.278 3.8308 l -3.8181,0.2953 -0.013,-0.2953 h 3.8308 l -3.8181,0.2953 c 0,-0.1649 -0.2681,-2.3261 -1.4046,-5.8907 -1.66,-5.3679 -5.261,-13.7494 -11.0584,-23.7094 -5.7846,-9.9651 -13.7017,-21.5329 -23.6109,-33.9187 -46.4937,-58.1278 -95.8097,-105.8509 -147.4369,-145.7995 -77.4216,-59.8801 -160.232,-102.4512 -246.8222,-134.6969 -86.5263,-32.2367 -176.7685,-53.9588 -267.6875,-71.7265 -135.9316,-26.6196 -304.8342,-40.0943 -515.6207,-40.0802 -141.9971,0 -284.4539,5.727 -423.1693,11.3237 -52.7765,2.1369 -104.5441,4.2035 -154.8178,5.9302 h -0.025 c -157.7291,5.318 -331.7522,15.517 -500.5015,25.4067 -148.2032,8.6922 -301.8333,17.714 -444.188,23.3657 -112.9081,4.4732 -221.8705,6.7341 -323.9768,6.7341 -278.78952,-0.024 -519.59972,-16.8194 -717.41762,-50.7137 h -0.02 c -90.29969,-15.5158 -167.70983,-35.6952 -240.16667,-54.5365 l -0.0498,-0.026 c -21.11428,-5.5072 -41.91457,-10.9134 -62.59992,-16.1152 l 0.0996,0.024 c -12.18085,-3.0546 -23.88284,-6.6945 -36.68811,-10.5785 l -0.0652,-0.015 c -13.21263,-4.0387 -29.36441,-8.9465 -45.28647,-13.1501 -15.792326,-4.2087 -31.629476,-7.5789 -41.371216,-8.6921 l 8.60946,-72.6448 72.945536,-4.5631 v 0 l -72.945546,4.5631 69.928096,-21.2681 -69.928096,21.2681 -72.94593045,4.5631 v 0 c -1.35677005,-21.6524 6.97335995,-42.7905 22.72084045,-57.708 15.74738,-14.8975 37.30591,-22.0467 58.82958,-19.5005 21.363926,2.5961 41.929876,7.4138 61.407876,12.5111 19.35477,5.1023 37.33682,10.609 50.68991,14.6729 l -0.0651,-0.015 c 12.86913,3.9242 23.3146,7.0693 29.51931,8.602 l 0.0996,0.025 c 21.5141,5.3969 42.75876,10.9285 63.93319,16.4502 l -0.0549,-0.01 c 72.49645,18.8767 144.95839,37.6633 228.10976,51.9366 h -0.014 c 186.2703,31.9819 419.9079,48.6466 692.72642,48.6211 99.961,0 207.0591,-2.2264 318.1922,-6.6345 140.3755,-5.5621 293.2266,-14.5329 441.4297,-23.2199 168.7877,-9.88 343.7813,-20.1595 504.1154,-25.5763 h -0.026 c 49.6735,-1.6975 101.1603,-3.7594 153.8984,-5.8912 138.7409,-5.6015 283.1642,-11.4377 429.0688,-11.4526 216.9542,0.05 394.5528,13.6743 543.6625,42.8053 126.5588,24.793 258.9915,57.9474 387.6701,119.1247 64.3073,30.5842 127.5931,68.2373 188.1972,115.1309 60.617,46.8898 118.5141,103.0252 172.1716,170.1327 19.6267,24.5939 35.627,48.9909 47.5792,73.9542 5.9634,12.511 10.9052,25.2009 14.5445,38.4813 3.6137,13.2804 5.9634,27.1935 5.9889,42.2108 0,9.905 -1.0726,20.3251 -3.767,30.968898 -4.9673,19.5301 -14.2763,35.3667 -24.1727,47.74737 -7.4701,9.35674 -15.4128,17.02515 -23.3555,23.65961 -11.9395,9.94465 -23.9812,17.6386198 -35.6014,24.16826975 -11.6075,6.49003005 -22.8447,11.74801025 -33.1242,16.10622025 -37.287,15.78032 -72.9777,28.28238 -105.9487,39.89875 l -0.025,0.0102 c -48.205,16.92418 -93.5879,33.09047 -136.5957,55.317362 -43.0588,22.27546 -84.049,50.21404 -125.1924,92.54495 -39.8792,41.003 -81.0737,100.43318 -111.0565,167.44104 -30.1617,67.05928 -49.1883,141.51957 -49.1116,213.27034 0,11.3109 0.4597,22.55791 1.4174,33.72823 l -0.013,-0.0256 0.038,0.38342 0.2043,0.30673 c 8.0448,12.09053 22.8447,33.0892 41.8713,59.60912 19.0777,26.58382 42.5736,58.99565 68.8789,95.28001 55.7899,76.9653 126.0351,173.8429 192.2324,267.94693 33.1114,47.0585 65.2011,93.4397 94.0603,136.4339 28.8718,43.0198 54.4748,82.5758 74.8549,116.5597 116.5858,194.4964 210.3013,385.9639 278.5672,544.7 34.133,79.3808 61.8811,150.5691 82.9764,210.1272 10.5476,29.7918 19.4225,56.6695 26.6373,80.3905 7.202,23.7465 12.7439,44.2212 16.6514,61.948 2.9881,13.6114 6.8317,34.1755 10.0752,59.3918 3.2307,25.178 5.8228,54.7653 5.8357,86.0396 -0.013,22.3151 -1.3153,45.4993 -5.0568,68.9135 -2.8348,17.5734 -7.036,35.313 -13.6251,53.0142 -4.9546,13.2536 -11.2883,26.5199 -19.7034,39.3645 -6.3081,9.6112 -13.8294,18.9666 -22.7169,27.5807 -13.2931,12.9214 -29.9063,24.015 -48.4859,31.2745 -18.5797,7.336 -38.7683,10.8124 -58.9313,10.774 -1.443,0 -2.8732,-0.013 -4.3162,-0.051 -27.4545,-0.6646 -54.577,-5.5084 -81.9548,-12.8701 -47.8219,-12.998 -96.7036,-33.9328 -146.0323,-59.3663 -73.8589,-38.2015 -148.4202,-86.7425 -214.975,-135.7692 -33.2646,-24.5134 -64.4733,-49.1418 -92.4769,-72.7349 -28.0291,-23.6187 -52.8147,-46.1511 -73.5014,-66.8814 -235.5466,-236.1359 -429.0688,-534.8843 -561.4121,-865.2396 -41.0669,-102.6161 -72.2883,-221.3995 -93.5623,-348.235 -21.2485,-126.82275 -32.4475,-261.63343 -32.4475,-395.75395 0,-53.96006 1.8134,-107.80508 5.5421,-160.95867 l 0.051,-0.62882 -0.447,-0.44477 -0.038,-0.0396 c -16.5748,-16.57558 -33.5072,-31.01903 -55.8923,-47.70805 -22.321,-16.64556 -50.0565,-35.35138 -86.4241,-59.06083 l -0.076,-0.0498 c -6.9339,-4.53843 -14.0209,-9.28134 -21.3251,-14.16356 l -0.076,-0.0498 c -31.3237,-21.03829 -65.9802,-43.99368 -100.343,-60.79901 -17.1366,-8.41225 -34.0818,-15.24608 -49.9799,-19.79983 -15.9108,-4.57294 -30.6852,-6.84917 -43.9655,-6.83384 -17.4815,0.0639 -31.4002,3.60416 -44.0931,10.10952 -5.3377,2.77085 -8.5939,5.30144 -10.969,7.60323 -3.4606,3.49936 -5.5675,6.57056 -7.9171,13.06058 -2.2347,6.41464 -4.1118,16.49987 -4.0991,30.72861 -0.026,16.23019 2.4646,37.53305 7.8661,62.74934 8.032,37.85767 22.4233,84.32824 41.3605,137.35531 18.9116,53.0654 42.2927,112.78955 67.9594,178.31613 l 0.013,0.0256 c 13.2036,33.74101 26.7777,68.37667 40.1728,103.34462 33.2008,86.72975 65.5844,158.07153 89.3357,221.55319 v 0.013 c 20.1758,54.139 39.7132,101.8365 54.845,141.61 7.5851,19.9634 14.0849,37.8691 19.1799,54.7141 2.5411,8.4608 4.7503,16.666 6.4997,25.2419 1.7112,8.6269 3.1157,17.5094 3.1669,28.7308 -0.038,7.3105 -0.5874,15.7457 -3.4095,26.1492 -1.4302,5.1762 -3.4861,10.8381 -6.5635,16.781 -3.0648,5.9303 -7.2149,12.1161 -12.5142,17.8674 l -0.026,0.026 c -4.7119,5.0995 -9.1812,8.7037 -13.1909,11.5282 -7.7893,5.419 -13.957,8.1669 -19.3714,10.3651 -10.0495,3.9365 -17.8517,5.6874 -25.6922,7.285 -13.523,2.6073 -26.8288,4.0259 -40.8242,5.1762 -20.8526,1.6742 -42.8162,2.4794 -62.3153,3.0291 -9.7304,0.2811 -18.8095,0.4856 -26.6117,0.6773 -7.7639,0.1917 -14.3401,0.3834 -18.4775,0.5623 -9.5388,0.4218 -21.9508,0.7541 -36.3675,0.997 -14.3786,0.2428 -30.6214,0.3834 -47.1451,0.3834 -25.437,-0.013 -51.3846,-0.3323 -72.8119,-1.2014 -10.7902,-0.4602 -20.2908,-0.9969 -29.3188,-1.9427 -4.6226,-0.5112 -8.9898,-1.0353 -14.8254,-2.2238 -2.9881,-0.6391 -6.3337,-1.3804 -11.2755,-3.0547 -2.5029,-0.869 -5.4271,-1.9553 -9.2452,-3.8085 -3.8053,-1.9043 -8.5556,-4.4221 -14.8381,-9.4961 -5.4782,-4.5371 -8.5556,-8.0135 -11.1351,-11.0042 -4.6736,-5.5468 -7.3553,-9.6366 -9.9603,-13.6753 -4.4054,-6.94 -8.0064,-13.5092 -11.7351,-20.5258 -5.5292,-10.4418 -11.0329,-21.6377 -16.2684,-32.3096 -5.1972,-10.6333 -10.139,-20.7556 -13.8549,-27.9895 l 64.9968,-33.4598 63.4518,36.2972 c -13.0632,22.775 -33.9286,51.6209 -67.2953,76.326 -16.6515,12.2822 -36.4443,23.3248 -59.1486,31.2743 -22.6786,7.9624 -48.1921,12.7296 -75.5444,13.1514 h 0.013 c -5.1078,0.077 -10.1772,0.1278 -15.2085,0.1278 -42.1777,0 -81.942,-2.978 -120.9273,-9.2916 -38.9854,-6.3009 -77.0642,-15.912 -115.9601,-28.6287 -75.8766,-24.7818 -149.0076,-57.1169 -219.4699,-98.6923 -70.475,-41.5628 -138.23,-92.3404 -203.6356,-153.5983 C 1706.4541,951.34378 1610.6061,817.35107 1530.8604,669.95141 l -0.026,-0.0383 c -14.7104,-27.24842 -28.3993,-55.19978 -42.4969,-83.94354 l 0.013,0.0383 c -25.3857,-51.82568 -51.3718,-104.43098 -81.827,-151.45368 -30.4426,-47.10834 -64.9714,-88.19569 -106.7405,-119.25404 l -0.013,-0.0102 c -26.844,-20.00432 -52.9923,-34.20366 -78.1968,-43.39426 -25.2504,-9.17653 -49.547,-13.46957 -73.8691,-13.49513 -35.7942,0.0754 -67.8675,9.28134 -98.4148,26.38062 -22.8203,12.84587 -44.549,30.33879 -64.42092,51.76178 -29.8143,32.07696 -55.2538,73.03012 -73.5755,117.7868 -18.3753,44.71834 -29.6189,93.13158 -32.4473,139.25708 -1.761,28.4498 -2.6433,57.07854 -2.6433,85.8862 0.01,197.80669 41.6056,403.88246 125.90502,617.86926 84.2788,213.9359 211.3598,435.5657 381.5585,662.9468 89.6931,119.8829 179.1564,234.4617 278.3246,334.6751 99.2192,100.2773 207.7729,186.1891 337.0132,250.8849 h -0.013 c 5.0567,2.5434 37.3637,18.353 79.0689,32.9614 20.8271,7.2977 43.9782,14.2888 66.8229,19.286 22.8192,5.0356 45.3574,7.9751 64.2818,7.9368 20.1503,0 34.797,-3.1057 45.5745,-7.1444 8.1086,-3.0545 14.1358,-6.646 19.116,-10.5824 7.3935,-5.9047 12.7056,-12.7807 16.8557,-21.1775 4.1118,-8.3331 6.7423,-18.2253 7.5979,-28.1815 0.5747,-6.5437 0.8811,-13.1769 0.8811,-19.8101 0,-16.9727 -2.0304,-33.8943 -6.7295,-50.0236 -3.5372,-12.116 -8.5173,-23.8232 -15.5406,-35.3258 -10.5732,-17.2028 -25.6667,-34.265 -49.5713,-50.9694 -23.8917,-16.6276 -56.8499,-32.7313 -102.169,-45.6398 l -0.038,-0.013 c -9.5645,-2.7223 -19.4607,-5.4701 -29.6125,-8.2819 h -0.026 c -32.1409,-8.9081 -62.0343,-17.5095 -90.1017,-27.1845 -21.0442,-7.2594 -41.0797,-15.1323 -60.2467,-24.5006 -14.3657,-7.0293 -28.2462,-14.9278 -41.4882,-24.1682 -19.8311,-13.8032 -38.3086,-30.9038 -53.2617,-51.6851 -14.9914,-20.7175 -26.0626,-44.8474 -32.5623,-70.4216 l 0.013,0.026 c -3.9713,-15.4263 -6.2188,-31.351 -6.2188,-47.5059 -0.013,-17.8674 2.8221,-36.0287 8.7216,-53.2187 5.8613,-17.2156 14.7233,-33.3193 25.6923,-47.4548 l 0.013,-0.026 c 20.3036,-26.1621 46.8641,-45.2946 75.8637,-57.922 29.0762,-12.6145 60.8596,-18.9154 93.639,-18.9665 h 0.064 c 38.9726,0 77.1917,5.9686 113.8658,16.6532 64.2052,18.7365 123.6474,51.6084 177.3177,93.1839 80.4608,62.5104 148.4585,144.7158 199.8303,234.6278 51.2058,90.0144 85.939,187.7867 96.1545,283.9486 v 0.026 c 1.6473,15.6564 2.8476,33.805 2.8476,53.6917 -0.076,41.1154 -4.9162,89.976 -23.7768,139.7185 -9.4495,24.82 -22.5765,49.7935 -40.5305,73.131 -17.9284,23.3248 -40.7476,44.8603 -68.3169,62.3826 l 0.025,-0.013 c -27.0969,17.2923 -57.6671,28.9866 -90.5104,36.3227 -32.9198,7.3489 -68.3169,10.5057 -106.9191,10.5185 -68.2915,-0.064 -134.6419,-9.9051 -194.5182,-19.2733 -178.3137,-28.1048 -348.9274,-92.9795 -501.8807,-170.0343 -152.9534,-77.131 -288.3105,-166.6725 -395.3101,-245.6828 C 890.88678,2258.603 639.51618,2002.8104 455.89546,1732.8441 349.52914,1576.3957 266.43145,1416.8033 207.50776,1255.1531 148.58278,1093.5032 113.88108,929.79541 104.27904,765.6914 v 0 c -1.47654,-25.29298 -2.32955,-51.51895 -2.32955,-78.46064 0.005,-57.74314 3.89075,-118.71979 13.9917,-180.60387 15.17416,-92.73666 44.34869,-187.81218 96.41005,-275.49025 26.01791,-43.78407 57.76678,-85.6306 96.02556,-123.88191 C 346.61514,69.002138 391.33913,34.379258 442.84118,4.8584278 h 0.005 c 127.2854,-72.9393798 275.8665,-110.7471778 429.9691,-110.7574778 170.51272,0.036 341.90402,44.488298 496.70132,128.126438 3.3456,1.8123 6.372,3.57987 10.1518,5.80115 12.8972,7.65435 32.971,20.14492 53.3256,33.5493 10.1645,6.70986 20.3035,13.58459 29.6763,20.28423 4.6993,3.34598 9.2069,6.67024 13.5358,9.99577 4.3288,3.34471 8.4534,6.64468 12.7056,10.398372 l -0.4086,-0.35403 1.6345,1.41738 1.2641,-1.8417 -0.013,0.0153 c 1.3025,-1.906882 2.3879,-3.360042 3.486,-4.842602 2.0432,-2.72612 4.1374,-5.38195 6.4742,-8.29722 8.0704,-10.0699 19.1032,-23.19567 29.8169,-35.54181 5.3504,-6.16029 10.5604,-12.05219 15.3106,-17.26927 2.3752,-2.62131 4.6482,-5.07265 6.8701,-7.39873 2.2729,-2.36571 4.3672,-4.52309 7.1381,-7.12907 l -0.025,0.0256 c 44.8082,-42.05229 98.0572,-74.21872 156.2734,-95.75551 58.2418,-21.5623 121.4893,-32.566398 186.9331,-32.566398 25.1177,0 50.4651,1.6231 75.6211,4.9077 l -0.064,-0.01 c 28.31,3.679598 76.4383,11.822198 131.4112,30.199498 27.4928,9.2162 56.7094,21.01405 86.0155,36.37516 29.2933,15.37133 58.6888,34.3378698 86.1688,58.07288 l 1.277,1.1132 0.881,-1.45828 c 6.4358,-10.68337 13.8549,-19.9097502 21.9125,-28.3565102 14.1231,-14.7233498 30.3149,-27.1589498 48.4859,-38.4072398 27.2374,-16.76951 59.0591,-30.71331 95.0181,-41.26761 35.9334,-10.5198 75.9658,-17.523598 119.063,-19.400998 h -0.026 c 11.1478,-0.4896 22.3851,-0.7286 33.5329,-0.7286 107.9919,-0.015 218.6014,21.727198 333.9358,64.951518 115.4238,43.2498398 235.8659,107.77697 366.0129,194.237042 l 69.2492,46.00024 -40.4284,60.94726 -65.2522,-32.94478 c 1.1492,-2.25196 19.1287,-37.80782 51.6271,-83.9576 16.2812,-23.08065 36.2016,-48.836282 59.8125,-74.457722 23.6364,-25.60227 50.9248,-51.12275 82.4528,-73.4391002 50.2609,-35.5469198 109.486,-68.8508598 176.1812,-96.6744578 66.6697,-27.7979 140.8223,-50.0747 220.6829,-63.01 7.6107,-1.2282 14.519,-1.9261 21.606,-2.5804 12.2843,-1.0992 24.9389,-1.9568 37.0572,-3.1211 9.0536,-0.8678 17.7242,-1.9017 25.0283,-3.1402 5.4526,-0.9087 10.1262,-1.9567 13.3441,-2.8756 2.4007,-0.6634 3.9841,-1.2781 4.3417,-1.457 l 0.089,-0.026 11.9523,24.9977 -19.9461,-18.5576 c 4.9674,-5.2273 7.9427,-6.3494 7.9938,-6.4401 l 11.9523,24.9977 -19.9461,-18.5576 34.0564,31.6974 -41.5521,-20.8082 c 2.2986,-4.6138 5.0696,-8.2921 7.4957,-10.8892 l 34.0564,31.6974 -41.5521,-20.8082 44.3869,22.2115 -49.1372,-7.0153 c 0.7151,-5.1762 2.439,-10.6182 4.7503,-15.1962 l 44.3869,22.2115 -49.1372,-7.0153 v 0.026 l 50.8738,7.2595 h -51.3845 c -0.013,-2.2865 0.1532,-4.743 0.5107,-7.2595 l 50.8738,7.2595 h -51.3845 43.4292 l -40.7476,15.6064 c -1.0982,-2.8909 -2.6688,-8.1182 -2.6816,-15.6064 h 43.4292 l -40.7476,15.6064 18.1583,-6.9552 -16.4345,10.5939 c -0.025,-0.074 -0.715,-1.0582 -1.7238,-3.6387 l 18.1583,-6.9552 -16.4345,10.5939 -0.2937,-0.4039 c -0.7916,-1.1132 -3.2689,-4.0144 -6.9721,-7.5188 -5.5675,-5.3015 -13.8294,-12.0024 -23.2533,-18.6471 -9.4367,-6.6702 -20.0609,-13.3801 -30.5319,-19.3857 -8.811,-5.0471 -19.1032,-10.4789 -34.8864,-16.6941 -23.5598,-9.2264 -59.4294,-19.9008 -115.5769,-28.3323 -56.0966,-8.4224 -132.2796,-14.5086 -235.2403,-14.4933 -38.1681,0 -70.028,0.8282 -89.5654,1.328 h -0.026 l -11.9395,0.2939 -0.3448,0.01 c -15.4129,0.3093 -39.5727,1.2436 -70.3729,2.7019 -92.6301,4.3927 -245.9921,13.444 -427.9834,24.1529 -231.2178,13.6498 -505.3412,29.8301 -758.9312,42.6351 -126.8142,6.4057 -248.495,11.9627 -357.2402,15.9516 -108.7708,3.9888 -204.5167,6.4056 -280.0358,6.4798 h 0.051 l -11.8885,0.015 h -0.1149 c -111.8866,-0.015 -233.8918,-1.3433 -359.6665,-11.0438 -125.7835,-9.7146 -255.41472,-27.7725 -382.75492,-61.7064 v 0 c -86.908,-23.1599 -165.65,-50.2639 -241.0004,-83.8132 -75.35431,-33.5391 -147.15863,-73.4545 -220.32418,-121.5967 -47.65076,-31.3524 -89.59099,-62.3199 -125.77472,-93.1495 -36.17849,-30.8475 -66.645806,-61.4968 -91.207226,-92.9795 l -0.0149,-0.01 c -14.31081,-18.4425 -26.66137,-38.622 -37.45557,-59.0468 -5.36729,-10.199 -10.27053,-20.4235 -14.61511,-30.5233 -4.34469,-10.1198 -8.1306605,-20.0397 -11.2482105,-30.2643 -1.53634,-5.0723 -2.68359995,-11.4227 -3.01281995,-16.7147 l 72.94594045,-4.5631"
       style="display:inline;fill:#003262;fill-opacity:1;fill-rule:nonzero;stroke:none;stroke-width:1.27751"
       id="path8956"
       inkscape:label="Outline" /><path
       d="m 4415.2274,2213.615 c -29.8169,16.4616 -109.3966,-42.2657 -109.3966,-42.2657 -152.3914,-121.1225 -266.9341,-271.1805 -365.6425,-444.0648 -260.8049,-456.8073 -236.747,-815.73995 -236.747,-815.73995 0,0 136.0465,155.01685 168.1491,205.79455 43.7611,69.233 208.4241,300.985 301.0671,464.3733 99.3341,175.1849 213.4809,417.66 241.7781,501.6291 0,0 45.8172,105.4279 0.7918,130.2735 z M 2490.2214,1131.8068 c -75.6723,-2.326 -256.144,-95.5611 -400.4524,-362.71578 -33.6731,-62.34419 -138.0769,-321.66558 -81.5078,-451.10582 17.0856,-39.13574 48.0006,-65.97518 87.0371,-75.51085 10.0879,-2.49096 20.495,-3.7294 30.8639,-3.7294 127.2994,-0.0243 216.4562,178.23561 304.0296,376.87559 6.8445,15.47741 12.9866,29.42114 18.3626,41.11546 22.3978,48.97559 116.9434,267.34639 135.6124,349.5901 11.6331,51.2761 15.5022,128.8421 -93.9454,125.4807 z M 73.088454,-736.05145 c 8.24031,27.144 29.684156,68.7365 51.023196,96.1344 41.13153,52.76 108.26221,109.9536 199.50941,169.9832 140.71378,92.5705 272.29992,151.1571 439.97912,195.8537 243.24032,64.848 501.05962,70.2798 723.61332,70.2798 l 11.8757,-0.01 c 296.2018,-0.2697 929.5575,-37.643 1391.9932,-64.9425 242.6975,-14.2876 434.3936,-25.6113 501.1655,-26.9635 l 11.9395,-0.2952 c 19.5374,-0.4984 52.2274,-1.3573 91.417,-1.3573 282.1938,0 378.5526,44.2225 422.0711,69.2202 47.3623,27.1986 97.0357,66.0404 93.1538,93.2236 -5.6569,39.595898 -104.7868,36.515698 -141.9077,42.545598 -147.654,23.914 -274.9279,82.5402798 -366.3833,147.22334 C 3397.7389,128.93226 3331.7331,259.8934 3331.7331,259.8934 L 3262.484,213.88293 C 3008.9195,45.397648 2799.3588,-33.073202 2602.9636,-33.088542 c -10.1135,0 -20.3164,0.21983 -30.3404,0.65437 -113.1253,4.90778 -200.3795,51.10741 -225.0247,92.08101 l -45.6254,75.839312 -66.9379,-57.856892 c -89.8208,-77.66823025 -215.358,-101.01726 -265.172,-107.47279 -21.9763,-2.85009 -44.2464,-4.27897 -66.1972,-4.27897 -114.5043,0 -218.6398,38.5324898 -293.2139,108.52208 -11.0073,10.31402 -51.5633,57.946362 -58.8547,68.565832 l -47.6814,69.31988 -63.3879,-55.19595 C 1418.2325,137.37897 1348.7918,94.154688 1334.7964,86.591078 1190.3374,8.5240878 1030.574,-32.743462 872.81538,-32.743462 c -142.1657,0 -278.2811,34.9411098 -393.64108,101.07222 C 205.328,225.35099 163.83726,531.89447 177.24525,761.41003 195.59123,1074.754 309.67929,1387.753 516.32088,1691.6905 c 178.1847,262.0678 424.0325,512.5948 710.98292,724.5114 208.9848,154.3396 528.7464,349.4239 865.1342,402.3105 59.1867,9.3043 122.0766,18.3785 183.1788,18.3785 69.0703,0 120.8125,-11.5537 158.1505,-35.3769 100.7516,-64.1974 103.6119,-190.2022 96.3461,-259.6141 -26.7394,-254.9235 -262.1839,-562.8742 -514.4842,-562.8869 -46.6471,0.038 -88.3013,18.2124 -111.7972,48.5537 -18.4647,23.8488 -23.5725,52.5159 -15.1957,85.1706 21.3634,83.2662 99.7555,110.5785 226.3526,145.6359 10.1773,2.8118 20.2653,5.6108 30.1999,8.448 201.7713,57.4748 234.2186,183.1601 225.9312,278.4656 -5.6186,64.7342 -51.1164,133.9032 -161.9559,133.9032 -104.1226,0 -228.9575,-60.9639 -242.838,-67.9038 -275.7452,-137.9804 -460.6224,-365.924 -641.1579,-607.1339 C 953.19828,1507.1499 778.50478,1031.0695 805.89928,589.04949 c 12.0416,-194.21531 146.1471,-403.80322 341.80442,-403.80322 66.302,0 132.1454,23.99829 195.7121,71.35202 102.0541,75.99524 159.6702,193.4983 210.544,297.15095 14.0848,28.73098 27.4033,55.88994 41.169,81.37462 76.9236,142.17235 168.3534,269.45521 280.3165,374.30794 123.5452,115.678 253.3347,189.6015 395.8681,236.1743 76.0809,24.8711 144.3084,35.543 228.2042,34.1882 79.1072,-1.2781 121.0935,-51.276 139.7241,-83.9051 13.9699,27.1973 35.7036,75.3548 44.2465,82.3459 7.8276,6.4158 143.8103,5.7768 186.2818,3.8853 34.9374,-1.5592 143.0187,-1.0353 156.0181,-15.1451 15.349,-16.666 -27.9397,-107.2171 -75.9404,-235.9441 -22.2701,-59.73695 -55.0366,-132.06285 -89.093,-220.9653 -13.2547,-34.59733 -26.7777,-69.06683 -39.9941,-102.84619 -108.3367,-276.5587 -179.8971,-459.288 -59.7359,-521.48905 23.4449,-12.14165 49.5714,-18.29299 77.677,-18.29299 85.9134,0 172.0439,57.68306 234.9338,99.79415 7.3553,4.90779 14.2891,9.56123 20.7377,13.76479 73.6163,48.01704 115.462,77.65801 154.1026,116.35409 l 24.0451,24.02897 -2.388,33.91866 c -21.5422,306.80165 22.6915,641.15717 115.3983,872.61527 128.7934,321.6132 317.361,612.3482 545.2842,840.7646 114.2617,114.5277 401.2569,322.5077 558.9349,326.1759 133.5054,3.1056 95.9886,-232.1868 83.832,-287.4377 C 4547.1877,2087.393 4406.6207,1714.4399 4177.4588,1332.1568 4100.05,1203.0209 3931.4029,970.43795 3819.8227,816.53293 3767.225,743.96419 3725.673,686.66838 3707.4254,659.26658 l -10.6243,-15.93751 -1.6345,-19.10713 c -15.4639,-182.2283 78.8263,-368.14767 179.1437,-471.58175 94.0603,-96.992632 193.6754,-132.034712 289.9959,-165.934212 33.0092,-11.61764 67.1549,-23.61359 101.7221,-38.26153 29.7019,-12.5762 66.6313,-33.589 73.8972,-62.281598 7.1764,-28.3373 -11.2627,-72.7745 -50.5673,-121.9405 -200.2773,-250.4618 -457.1874,-329.8312 -704.9928,-378.293 -142.5206,-27.8785 -315.7648,-41.4222 -529.6416,-41.4477 -143.9509,0 -287.3909,5.7871 -426.1063,11.3824 -52.7764,2.137 -104.3908,4.2087 -154.3708,5.9073 -159.0316,5.3666 -333.54,15.6052 -502.3148,25.4962 -148.2031,8.6921 -301.4374,17.6884 -442.7961,23.2889 -112.027,4.449 -220.0572,6.6856 -321.0909,6.6856 -275.80142,0 -513.02602,-16.7197 -705.07202,-49.6555 -86.72807,-14.9023 -161.66475,-34.3775 -234.14203,-53.2441 -21.14378,-5.5218 -42.1637,-10.9934 -63.26406,-16.2804 -9.19278,-2.3016 -20.26651,-5.6914 -33.09989,-9.6005 -26.567,-8.1178 -68.27763,-20.8186 -99.378446,-24.513 v 0"
       style="display:inline;fill:#003262;fill-opacity:1;fill-rule:nonzero;stroke:none;stroke-width:1.27751"
       id="path8958"
       inkscape:label="Fill" /></g><g
     id="g1931"
     inkscape:label="Stars"
     transform="translate(0,24.999999)"><path
       sodipodi:type="star"
       style="fill:#003262;fill-opacity:1;stroke-width:0.698"
       id="path1506-1"
       inkscape:flatsided="false"
       sodipodi:sides="5"
       sodipodi:cx="500.43951"
       sodipodi:cy="782.44946"
       sodipodi:r1="267.88089"
       sodipodi:r2="133.94044"
       sodipodi:arg1="0.94031133"
       sodipodi:arg2="1.5686299"
       inkscape:rounded="0"
       inkscape:randomized="0"
       d="M 658.3651,998.82802 500.72969,916.38959 343.45296,999.51027 373.14455,824.11521 245.49091,700.22186 421.47673,674.26018 499.85916,514.5692 l 79.07363,159.34986 176.09665,25.1989 -127.11562,124.44531 z"
       inkscape:transform-center-x="0.028165654"
       inkscape:transform-center-y="-3.9822214"
       transform="matrix(0.15700481,0,0,0.15672007,521.45675,126.02598)"
       inkscape:label="Star 3" /><path
       sodipodi:type="star"
       style="fill:#003262;fill-opacity:1;stroke-width:0.698"
       id="path1506"
       inkscape:flatsided="false"
       sodipodi:sides="5"
       sodipodi:cx="500.43951"
       sodipodi:cy="782.44946"
       sodipodi:r1="267.88089"
       sodipodi:r2="133.94044"
       sodipodi:arg1="0.94031133"
       sodipodi:arg2="1.5686299"
       inkscape:rounded="0"
       inkscape:randomized="0"
       d="M 658.3651,998.82802 500.72969,916.38959 343.45296,999.51027 373.14455,824.11521 245.49091,700.22186 421.47673,674.26018 499.85916,514.5692 l 79.07363,159.34986 176.09665,25.1989 -127.11562,124.44531 z"
       inkscape:transform-center-x="0.028165654"
       inkscape:transform-center-y="-3.9822214"
       transform="matrix(0.15700481,0,0,0.15672007,421.45675,124.35668)"
       inkscape:label="Star 2" /><path
       sodipodi:type="star"
       style="fill:#003262;fill-opacity:1;stroke-width:0.698"
       id="path1506-4"
       inkscape:flatsided="false"
       sodipodi:sides="5"
       sodipodi:cx="500.43951"
       sodipodi:cy="782.44946"
       sodipodi:r1="267.88089"
       sodipodi:r2="133.94044"
       sodipodi:arg1="0.94031133"
       sodipodi:arg2="1.5686299"
       inkscape:rounded="0"
       inkscape:randomized="0"
       d="M 658.3651,998.82802 500.72969,916.38959 343.45296,999.51027 373.14455,824.11521 245.49091,700.22186 421.47673,674.26018 499.85916,514.5692 l 79.07363,159.34986 176.09665,25.1989 -127.11562,124.44531 z"
       inkscape:transform-center-x="0.028165654"
       inkscape:transform-center-y="-3.9822214"
       transform="matrix(0.15700481,0,0,0.15672007,321.45675,125.00049)"
       inkscape:label="Star 1" /></g></svg>
