<?xml version="1.0" encoding="UTF-8" standalone="no"?>
<!-- Created with Inkscape (http://www.inkscape.org/) -->

<svg
   width="1000.0001"
   height="1000.0001"
   viewBox="0 0 264.58333 264.58333"
   version="1.1"
   id="svg5"
   xml:space="preserve"
   inkscape:version="1.2.1 (9c6d41e4, 2022-07-14)"
   sodipodi:docname="logo_round_legacy.svg"
   inkscape:export-filename="logo_round_black.png"
   inkscape:export-xdpi="96"
   inkscape:export-ydpi="96"
   xmlns:inkscape="http://www.inkscape.org/namespaces/inkscape"
   xmlns:sodipodi="http://sodipodi.sourceforge.net/DTD/sodipodi-0.dtd"
   xmlns:xlink="http://www.w3.org/1999/xlink"
   xmlns="http://www.w3.org/2000/svg"
   xmlns:svg="http://www.w3.org/2000/svg"><sodipodi:namedview
     id="namedview7"
     pagecolor="#ffffff"
     bordercolor="#000000"
     borderopacity="0.25"
     inkscape:showpageshadow="2"
     inkscape:pageopacity="0.0"
     inkscape:pagecheckerboard="true"
     inkscape:deskcolor="#d1d1d1"
     inkscape:document-units="mm"
     showgrid="false"
     showguides="false"
     inkscape:zoom="1.0096765"
     inkscape:cx="288.70633"
     inkscape:cy="575.43183"
     inkscape:window-width="1920"
     inkscape:window-height="938"
     inkscape:window-x="0"
     inkscape:window-y="25"
     inkscape:window-maximized="0"
     inkscape:current-layer="layer1" /><defs
     id="defs2"><linearGradient
       inkscape:collect="always"
       id="linearGradient2953"><stop
         style="stop-color:#fdffff;stop-opacity:1;"
         offset="0"
         id="stop2949" /><stop
         style="stop-color:#fdb515;stop-opacity:1;"
         offset="1"
         id="stop2951" /></linearGradient><rect
       x="467.71653"
       y="695.90551"
       width="340.15748"
       height="69.448818"
       id="rect58318" /><rect
       x="80.787401"
       y="649.13385"
       width="588.18897"
       height="77.952755"
       id="rect58155" /><radialGradient
       inkscape:collect="always"
       xlink:href="#linearGradient2953"
       id="radialGradient2955"
       cx="132.29166"
       cy="132.29166"
       fx="132.29166"
       fy="132.29166"
       r="129.64583"
       gradientUnits="userSpaceOnUse"
       gradientTransform="matrix(1.0102041,0,0,1.0102041,-1.3499099,-1.3499099)" /></defs><g
     inkscape:label="Layer 1"
     inkscape:groupmode="layer"
     id="layer1"><circle
       style="display:inline;fill:#000000;fill-opacity:1;stroke-width:0.265214"
       id="circle2798"
       cx="132.29167"
       cy="132.29167"
       r="132.29167"
       inkscape:label="ball outline" /><circle
       style="display:inline;fill:url(#radialGradient2955);fill-opacity:1;stroke-width:0.262543"
       id="path367"
       cx="132.29167"
       cy="132.29167"
       r="130.96875"
       inkscape:label="orange table tennis ball" /><g
       id="g938"
       inkscape:label="Stars"><path
         sodipodi:type="star"
         style="display:inline;fill:#000000;fill-opacity:1;fill-rule:evenodd;stroke-width:1.05833;stroke-dasharray:none"
         id="path52512"
         inkscape:flatsided="false"
         sodipodi:sides="5"
         sodipodi:cx="97.590927"
         sodipodi:cy="46.673923"
         sodipodi:r1="22.5086"
         sodipodi:r2="11.2543"
         sodipodi:arg1="0.96972257"
         sodipodi:arg2="1.5980411"
         inkscape:rounded="0"
         inkscape:randomized="0"
         d="M 110.32018,65.237415 97.284344,57.924047 83.869552,64.516596 86.796685,49.858825 76.381399,39.137809 l 14.844902,-1.745632 6.977792,-13.2185 6.247517,13.57891 14.7278,2.551533 -10.98372,10.137861 z"
         inkscape:transform-center-x="2.4015962"
         inkscape:transform-center-y="-0.43079943"
         transform="matrix(0.49457125,0,0,0.49457125,83.932289,35.669395)"
         inkscape:label="star2" /><path
         sodipodi:type="star"
         style="display:inline;fill:#000000;fill-opacity:1;fill-rule:evenodd;stroke-width:1.05833;stroke-dasharray:none"
         id="path52514"
         inkscape:flatsided="false"
         sodipodi:sides="5"
         sodipodi:cx="97.590927"
         sodipodi:cy="46.673923"
         sodipodi:r1="22.5086"
         sodipodi:r2="11.2543"
         sodipodi:arg1="0.96972257"
         sodipodi:arg2="1.5980411"
         inkscape:rounded="0"
         inkscape:randomized="0"
         d="M 110.32018,65.237415 97.284344,57.924047 83.869552,64.516596 86.796685,49.858825 76.381399,39.137809 l 14.844902,-1.745632 6.977792,-13.2185 6.247517,13.57891 14.7278,2.551533 -10.98372,10.137861 z"
         inkscape:transform-center-x="2.4015962"
         inkscape:transform-center-y="-0.43079943"
         transform="matrix(0.49457125,0,0,0.49457125,54.828123,35.669395)"
         inkscape:label="star1" /><path
         sodipodi:type="star"
         style="display:inline;fill:#000000;fill-opacity:1;fill-rule:evenodd;stroke-width:1.05833;stroke-dasharray:none"
         id="path52516"
         inkscape:flatsided="false"
         sodipodi:sides="5"
         sodipodi:cx="97.590927"
         sodipodi:cy="46.673923"
         sodipodi:r1="22.5086"
         sodipodi:r2="11.2543"
         sodipodi:arg1="0.96972257"
         sodipodi:arg2="1.5980411"
         inkscape:rounded="0"
         inkscape:randomized="0"
         d="M 110.32018,65.237415 97.284344,57.924047 83.869552,64.516596 86.796685,49.858825 76.381399,39.137809 l 14.844902,-1.745632 6.977792,-13.2185 6.247517,13.57891 14.7278,2.551533 -10.98372,10.137861 z"
         inkscape:transform-center-x="2.4015962"
         inkscape:transform-center-y="-0.43079943"
         transform="matrix(0.49457125,0,0,0.49457125,113.03646,35.669395)"
         inkscape:label="star3" /></g><g
       id="g1332"
       inkscape:label="Text"><path
         id="circle932"
         style="font-style:normal;font-variant:normal;font-weight:bold;font-stretch:normal;font-size:28.2222px;font-family:Serpentine;-inkscape-font-specification:'Serpentine, Bold';font-variant-ligatures:normal;font-variant-caps:normal;font-variant-numeric:normal;font-variant-east-asian:normal;text-align:center;text-anchor:middle;display:none;fill:none;fill-opacity:1;fill-rule:evenodd;stroke:#00000b;stroke-width:1.2215;stroke-dasharray:none;stroke-opacity:1"
         inkscape:label="Table Tennis Underline"
         d="m 131.91537,13.830544 c -3.23988,0.05964 -6.47775,0.164042 -9.70698,0.447196 -3.46531,0.29283 -6.91612,0.750509 -10.34254,1.347707 -3.4266,0.591606 -6.82423,1.350803 -10.18322,2.251279 -3.329766,0.877909 -6.616839,1.921259 -9.851078,3.104718 -2.555983,0.908977 -5.073038,1.936262 -7.552093,3.036766 -3.178507,1.41111 -6.299912,2.952219 -9.339589,4.640993 -3.041631,1.686706 -6.010983,3.501953 -8.896564,5.442658 -2.879743,1.951052 -5.674824,4.023644 -8.382404,6.206483 -2.451892,2.00491 -4.826958,4.096971 -7.130036,6.271125 -2.505152,2.412317 -4.917715,4.918907 -7.220431,7.525978 -2.312771,2.642097 -4.506579,5.38636 -6.589726,8.213405 -2.048245,2.809661 -3.981194,5.702953 -5.78269,8.677549 -1.779663,2.948751 -3.438115,5.971848 -4.952056,9.066291 -1.171059,2.373557 -2.261813,4.791602 -3.262636,7.241776 -1.322972,3.215598 -2.507375,6.488775 -3.534222,9.810352 -1.032865,3.32168 -1.91683,6.68888 -2.659634,10.08642 -0.731829,3.39994 -1.317791,6.82974 -1.761546,10.27853 -0.389547,3.14314 -0.649369,6.29727 -0.814886,9.45984 -0.136522,3.44233 -0.147149,6.88772 -0.01096,10.33055 0.154176,3.47417 0.452599,6.94131 0.898854,10.39074 0.456512,3.44708 1.057596,6.87555 1.809917,10.27113 0.740115,3.36336 1.63385,6.69372 2.6752,9.97693 0.785308,2.52792 1.677817,5.02617 2.639455,7.49212 1.250272,3.20957 2.649381,6.36 4.171033,9.44924 1.547289,3.11517 3.230502,6.16061 5.031533,9.13559 1.671454,2.72962 3.458662,5.38211 5.318267,7.98668 2.026832,2.74419 4.141495,5.42144 6.375131,8.00096 2.284329,2.62271 4.681853,5.14546 7.1814,7.56457 2.526254,2.43798 5.165446,4.75815 7.894961,6.96676 2.705153,2.18417 5.511102,4.24364 8.400101,6.17894 2.855106,1.92601 5.804228,3.71392 8.825138,5.36868 2.369666,1.32062 4.797399,2.5445 7.260339,3.68118 3.153733,1.46416 6.368445,2.79936 9.641374,3.97203 3.272543,1.17858 6.593253,2.22353 9.956518,3.10934 3.39692,0.887 6.82756,1.644 10.28776,2.23619 3.42961,0.5798 6.88195,1.01272 10.34691,1.30902 3.15768,0.24546 6.32031,0.37259 9.48735,0.39351 3.47743,-0.0126 6.95314,-0.15798 10.41887,-0.45104 3.49779,-0.30751 6.97963,-0.77809 10.43923,-1.38011 3.42391,-0.60799 6.81884,-1.3743 10.17743,-2.27717 3.35831,-0.90098 6.67247,-1.96581 9.93718,-3.16348 3.236,-1.17849 6.41541,-2.51411 9.53055,-3.98341 2.4324,-1.1238 4.81766,-2.3575 7.1585,-3.66045 3.04042,-1.68832 6.00851,-3.50699 8.88685,-5.45801 2.90385,-1.97371 5.72705,-4.0659 8.44793,-6.28448 2.71636,-2.22532 5.34396,-4.55829 7.85789,-7.00953 2.50645,-2.45938 4.91299,-5.01879 7.20397,-7.67961 2.05816,-2.40768 4.01023,-4.8992 5.89067,-7.44766 2.00596,-2.80016 3.91879,-5.66531 5.69984,-8.61448 1.80045,-3.01434 3.47666,-6.10203 5.02041,-9.25622 1.51383,-3.1305 2.8969,-6.32394 4.13926,-9.57239 1.24278,-3.24785 2.33134,-6.55437 3.28099,-9.90002 0.92191,-3.24895 1.71231,-6.53729 2.3407,-9.85626 0.5346,-2.65952 0.93742,-5.34791 1.27385,-8.03903 0.53031,-4.39207 0.84083,-8.81188 0.89473,-13.2361 0.24407,-21.67177 -5.62192,-43.365334 -16.76872,-61.953611 C 222.53762,52.320417 205.52168,36.49259 185.53411,26.476828 169.22655,18.255877 150.99524,13.873909 132.72748,13.846157 c -0.27068,-0.0057 -0.54139,-0.01039 -0.8121,-0.01608 z" /><g
         aria-label="TABLE TENNIS"
         id="text997"
         style="font-weight:bold;font-size:28.2223px;font-family:Serpentine;-inkscape-font-specification:'Serpentine, Bold';text-align:center;text-anchor:middle;fill:#1a1a1a;fill-rule:evenodd;stroke-width:1.05833;paint-order:stroke fill markers"
         inkscape:label="Table Tennis Text as Path"><path
           d="m 51.514637,192.45023 -3.172523,2.0327 c 0.863204,0.25635 1.407787,0.49189 2.245396,1.44653 l 2.0661,2.35475 -8.994749,7.89214 c -1.294056,1.13542 -1.9521,1.41243 -2.705813,1.6232 l 5.286239,6.02479 c 0.306989,-0.71991 0.667217,-1.33635 1.961273,-2.47177 l 8.994749,-7.89213 2.066101,2.35475 c 0.837608,0.95464 1.000339,1.52522 1.142265,2.41443 l 2.427982,-2.88126 z"
           id="path510" /><path
           d="m 59.247984,215.46985 5.985826,-2.99681 -1.840585,6.35369 z m 3.183708,6.4277 -0.68879,2.42011 c -0.117063,0.41363 -0.388731,0.88363 -0.65515,1.21261 -0.248658,0.30706 -0.363569,0.35927 -1.05303,0.67251 l 7.040331,5.70138 c -0.05624,-0.91713 0.05571,-1.95226 0.334775,-2.92469 l 4.803631,-16.15632 -6.33849,-5.13301 -0.0253,1.28688 -13.777788,6.56468 c -1.374751,0.66618 -1.957645,0.84783 -3.661383,1.24759 l 3.969781,3.2148 c 0.105626,-0.71342 0.119216,-0.77504 0.509965,-1.25756 0.230897,-0.28512 0.527592,-0.51696 0.872322,-0.67358 l 2.506092,-1.16632 z"
           id="path512" /><path
           d="m 77.898934,228.62817 3.529973,1.89734 c 0.770628,0.4142 0.927551,0.65875 0.513344,1.42938 l -1.33615,2.4859 c -0.414207,0.77062 -0.704745,0.77467 -1.475373,0.36046 l -3.529974,-1.89734 z m 3.420546,-6.36389 3.529973,1.89733 c 0.770628,0.41421 0.927551,0.65876 0.513345,1.42938 l -1.042198,1.939 c -0.414207,0.77063 -0.704745,0.77467 -1.475373,0.36047 l -3.529973,-1.89734 z m -11.730868,7.27999 c -0.815052,1.5164 -1.3346,2.00612 -1.966945,2.46726 l 13.026099,7.00143 c 3.35596,1.8038 4.84811,0.87562 5.890308,-1.06338 l 1.41632,-2.63505 c 0.908582,-1.69041 0.248574,-2.42964 -2.212777,-4.16913 l 0.02672,-0.0497 c 2.305979,1.01516 3.735989,1.33521 4.818271,-0.67836 l 0.97539,-1.81471 c 1.042198,-1.939 0.993091,-3.69559 -2.36287,-5.49939 l -13.026099,-7.00143 c -0.03573,0.78181 -0.157534,1.48532 -0.972586,3.00171 z"
           id="path514" /><path
           d="m 94.944765,241.54644 3.87875,-11.32019 c 0.558028,-1.62861 0.991168,-2.19619 1.540255,-2.75388 l -7.582391,-2.59803 c 0.09168,0.77724 0.08572,1.49119 -0.472309,3.1198 l -3.842158,11.21339 c -0.558028,1.62861 -0.991168,2.19619 -1.54025,2.75388 l 14.737598,5.04969 1.72246,-3.1986 c -0.87637,0.20688 -2.24789,-0.14373 -2.99545,-0.39987 z"
           id="path516" /><path
           d="m 110.90264,245.75939 0.87861,-4.77406 4.82957,0.88883 c 1.55434,0.28606 2.28554,0.67889 2.96634,1.03376 l 0.71514,-3.88587 c -0.76252,0.0892 -1.58567,0.19602 -3.14001,-0.09 l -4.82958,-0.88883 0.76623,-4.16342 5.52348,1.01653 c 1.5821,0.29116 2.3133,0.684 2.99409,1.03886 l 0.0732,-3.51617 -15.37691,-2.82994 c 0.20536,0.7552 0.30482,1.46222 -0.007,3.15534 l -2.14544,11.65759 c -0.3116,1.69313 -0.65625,2.31841 -1.11703,2.95101 l 15.65448,2.88103 1.23894,-3.30163 c -0.73477,0.0943 -1.55792,0.20112 -3.14002,-0.09 z"
           id="path518" /><path
           d="m 130.02083,233.02445 -0.3285,3.75351 c 0.73024,-0.52685 1.24939,-0.81415 2.51687,-0.8942 l 3.12644,-0.19746 0.75426,11.94246 c 0.10851,1.71814 -0.0741,2.40836 -0.36764,3.13386 l 7.99919,-0.50521 c -0.38247,-0.68281 -0.65049,-1.34457 -0.759,-3.0627 l -0.75426,-11.94246 3.12645,-0.19746 c 1.26747,-0.08 1.81864,0.13964 2.60937,0.57044 l -0.79814,-3.68236 z"
           id="path520" /><path
           d="m 156.45849,245.196 -1.0348,-4.74266 4.79781,-1.04683 c 1.54412,-0.33691 2.37032,-0.25721 3.13537,-0.19304 l -0.84228,-3.8603 c -0.66878,0.37701 -1.3867,0.79363 -2.93082,1.13054 l -4.7978,1.04683 -0.90245,-4.13603 5.48715,-1.19724 c 1.57169,-0.34293 2.3979,-0.26323 3.16294,-0.19906 l -1.29147,-3.27123 -15.27577,3.33302 c 0.48129,0.61715 0.84627,1.23078 1.21327,2.91277 l 2.52683,11.58091 c 0.367,1.68199 0.2908,2.39188 0.11032,3.15342 l 15.5515,-3.39318 -0.13338,-3.52391 c -0.64121,0.37099 -1.35912,0.78761 -2.93082,1.13054 z"
           id="path522" /><path
           d="m 177.49843,241.78068 8.26552,-3.34907 -5.56412,-13.73228 c -0.76308,-1.88328 -0.82238,-2.25511 -0.59104,-3.26238 l -4.02814,1.63214 c 0.86724,0.56214 1.08349,0.87038 1.84657,2.75366 l 4.31352,10.64579 -0.0785,0.0318 -12.33307,-10.89824 -8.97175,3.63523 c 0.86724,0.56213 1.08348,0.87037 1.84656,2.75366 l 4.34532,10.72425 c 0.76307,1.88328 0.82238,2.25512 0.59104,3.26238 l 4.02814,-1.63214 c -0.86724,-0.56214 -1.08349,-0.87038 -1.84657,-2.75366 l -4.39831,-10.85504 0.0523,-0.0212 z"
           id="path524" /><path
           d="m 197.32815,231.29324 7.48568,-4.84766 -8.05388,-12.43664 c -1.10453,-1.7056 -1.23289,-2.05957 -1.19565,-3.09239 l -3.64808,2.36247 c 0.95769,0.38851 1.22818,0.65044 2.33272,2.35603 l 6.24367,9.64136 -0.0711,0.046 -14.16695,-8.37698 -8.12527,5.26186 c 0.95769,0.38851 1.22818,0.65044 2.33272,2.35604 l 6.28969,9.71242 c 1.10453,1.7056 1.23289,2.05957 1.19565,3.09239 l 3.64808,-2.36247 c -0.95769,-0.38851 -1.22818,-0.65044 -2.33272,-2.35604 l -6.36639,-9.83086 0.0474,-0.0307 z"
           id="path526" /><path
           d="m 213.02562,219.05222 c -0.71851,-0.31024 -1.33331,-0.67325 -2.46288,-1.97242 l -7.77734,-8.94512 c -1.12957,-1.29918 -1.4036,-1.95847 -1.61096,-2.71312 l -6.04861,5.25896 c 0.71851,0.31024 1.33331,0.67325 2.46288,1.97242 l 7.77734,8.94512 c 1.12957,1.29918 1.4036,1.95847 1.61097,2.71312 z"
           id="path528" /><path
           d="m 212.67593,192.93507 -8.47493,9.57206 c -1.60892,1.81721 -1.42686,3.82543 0.68618,5.69628 l 3.02164,2.67531 c 2.26095,2.0018 3.64804,1.79751 5.46276,-0.25213 l 3.72298,-4.20494 c 0.71092,-0.80296 0.96624,-0.87846 1.45224,-0.44817 l 0.92974,0.82318 c 0.50713,0.449 0.44198,0.69288 -0.26894,1.49583 l -4.41519,4.98677 c -0.89801,1.01425 -1.60057,1.29688 -2.30314,1.57951 l 3.13982,1.98836 8.23172,-9.29736 c 2.18888,-2.47226 1.67909,-4.28062 -0.45508,-6.17018 l -3.29634,-2.91851 c -1.96512,-1.73989 -3.77349,-1.23009 -5.71916,0.96747 l -3.23656,3.65555 c -0.71093,0.80296 -0.96382,0.9183 -1.47095,0.46929 l -0.7607,-0.6735 c -0.48599,-0.43029 -0.42327,-0.71401 0.28765,-1.51696 l 4.24682,-4.7966 c 0.87929,-0.99313 1.45992,-1.30833 2.29587,-1.69903 z"
           id="path530" /></g><circle
         style="font-style:normal;font-variant:normal;font-weight:bold;font-stretch:normal;font-size:28.2222px;font-family:Serpentine;-inkscape-font-specification:'Serpentine, Bold';font-variant-ligatures:normal;font-variant-caps:normal;font-variant-numeric:normal;font-variant-east-asian:normal;text-align:center;text-anchor:middle;display:none;fill:none;fill-opacity:1;fill-rule:evenodd;stroke:#000000;stroke-width:1.02233;stroke-dasharray:none;stroke-opacity:1"
         id="path52570"
         cx="130.52942"
         cy="-134.03076"
         r="98.707405"
         inkscape:label="Berkeley Underline"
         transform="rotate(90.75824)" /><g
         aria-label="BERKELEY"
         id="text54234"
         style="font-weight:bold;font-size:28.2222px;font-family:Serpentine;-inkscape-font-specification:'Serpentine, Bold';text-align:center;text-anchor:middle;fill-rule:evenodd;stroke-width:1.05833"
         inkscape:label="Berkeley Text as Path"><path
           d="m 64.105069,50.378042 3.133449,-2.498395 c 0.684063,-0.545424 0.970633,-0.59344 1.516057,0.09062 l 1.759433,2.206654 c 0.545424,0.684063 0.434797,0.952744 -0.249266,1.498168 l -3.133449,2.498395 z m -4.504148,-5.649035 3.133449,-2.498394 c 0.684063,-0.545425 0.970634,-0.593441 1.516058,0.09062 l 1.372357,1.72119 c 0.545424,0.684063 0.434797,0.952745 -0.249266,1.498169 l -3.133449,2.498394 z m 2.075759,13.649229 c 1.073254,1.346059 1.318985,2.016411 1.494045,2.779206 l 11.562868,-9.219427 c 2.978983,-2.375234 2.712952,-4.112251 1.340595,-5.833442 L 74.209189,43.76552 c -1.196414,-1.500525 -2.135742,-1.18471 -4.703522,0.393423 l -0.03519,-0.04413 c 1.840761,-1.720361 2.697768,-2.909009 1.272628,-4.696399 l -1.284386,-1.610857 c -1.372358,-1.72119 -3.006514,-2.36736 -5.985497,0.0079 l -11.562868,9.219427 c 0.704656,0.340531 1.303453,0.729374 2.376707,2.075433 z"
           id="path489" /><path
           d="m 85.430861,42.009346 -2.219287,-4.317199 4.367399,-2.245092 c 1.405599,-0.722558 2.224525,-0.857938 2.980347,-0.992611 l -1.806396,-3.513999 c -0.549377,0.536273 -1.136051,1.123453 -2.541651,1.846011 l -4.367399,2.245092 -1.935424,-3.764999 4.994899,-2.567663 c 1.430699,-0.735461 2.249624,-0.87084 3.005447,-1.005514 L 85.819748,24.86413 71.914352,32.012297 c 0.623771,0.472666 1.134239,0.971843 1.921311,2.502942 l 5.419188,10.541997 c 0.787073,1.5311 0.895941,2.236722 0.917311,3.019056 L 94.328558,40.799097 93.29371,37.427935 c -0.524277,0.523371 -1.110951,1.11055 -2.541651,1.846011 z"
           id="path491" /><path
           d="m 99.162848,23.3853 3.751082,-1.047742 c 0.84264,-0.235362 1.12524,-0.167784 1.3606,0.674851 l 0.5922,2.120179 c 0.23536,0.842635 0.0287,1.046875 -0.81395,1.282237 l -3.75108,1.047742 z m 3.982272,6.389111 5.26375,6.675824 7.42063,-2.072705 c -0.75304,-0.492924 -1.32976,-1.298815 -2.18469,-2.261421 l -3.73143,-4.232188 c 1.38308,-0.503528 2.59548,-0.988684 1.8818,-3.543772 l -0.89589,-3.20745 c -0.81238,-2.90845 -2.53833,-3.422645 -5.58269,-2.572304 L 91.01898,22.55396 c 0.67908,0.542882 1.078751,1.134506 1.541883,2.792595 l 3.188777,11.416347 c 0.463133,1.658089 0.427894,2.37119 0.291521,3.141843 l 7.719629,-2.156222 c -0.51599,-0.588436 -0.91566,-1.18006 -1.3788,-2.838149 l -1.27551,-4.566539 z"
           id="path493" /><path
           d="m 130.32399,20.812682 3.14937,-3.717119 c 0.90787,-1.062434 1.48437,-1.401951 2.27936,-1.893626 l -6.28577,0.312797 c 0.0394,0.224096 0.0788,0.448192 0.09,0.673691 0.0295,0.591933 -0.11722,1.051347 -0.86158,1.992616 l -4.43517,5.702587 -0.24827,-4.989155 c -0.0856,-1.719427 0.10627,-2.407144 0.40945,-3.128659 l -8.0052,0.39836 c 0.37332,0.687851 0.63248,1.353125 0.71804,3.072552 l 0.58913,11.838675 c 0.0856,1.719427 -0.10627,2.407144 -0.40945,3.128659 l 8.0052,-0.398361 c -0.37332,-0.687851 -0.63248,-1.353125 -0.71805,-3.072551 l -0.13465,-2.705983 1.54369,-1.913532 4.41091,7.438182 8.4562,-0.420804 c -1.06805,-1.020622 -2.13315,-2.550018 -2.80517,-3.56209 z"
           id="path495" /><path
           d="m 147.10398,31.664477 0.72435,-4.79987 4.85568,0.732768 c 1.56275,0.235834 2.30622,0.604907 2.9981,0.937651 l 0.58958,-3.906872 c -0.75925,0.113756 -1.57853,0.246995 -3.14128,0.01116 l -4.85568,-0.732769 0.6317,-4.185934 5.55334,0.838052 c 1.59065,0.240045 2.33412,0.609117 3.02599,0.941861 l -0.0401,-3.516692 -15.46005,-2.333068 c 0.22959,0.748191 0.35177,1.451631 0.0949,3.153911 l -1.76875,11.720614 c -0.25689,1.70228 -0.58121,2.338339 -1.02137,2.985459 l 15.73911,2.375182 1.13193,-3.339817 c -0.73135,0.117967 -1.55062,0.251206 -3.14128,0.01116 z"
           id="path497" /><path
           d="m 165.15519,36.020697 3.85571,-11.328006 c 0.55472,-1.629737 0.9867,-2.198195 1.53464,-2.756996 l -7.58762,-2.582601 c 0.0933,0.777048 0.0888,1.491006 -0.46597,3.120742 l -3.81933,11.221138 c -0.55472,1.629737 -0.9867,2.198196 -1.53465,2.756997 l 14.74778,5.019703 1.71596,-3.202091 c -0.87596,0.20866 -2.24818,-0.139156 -2.99626,-0.393778 z"
           id="path499" /><path
           d="m 181.14347,43.070595 2.35469,-4.244863 4.29422,2.382073 c 1.38205,0.766645 1.94987,1.372082 2.48201,1.925459 l 1.91661,-3.45512 c -0.75118,-0.158507 -1.56542,-0.319714 -2.94747,-1.086358 l -4.29422,-2.382074 2.05351,-3.701915 4.91121,2.724326 c 1.40673,0.780334 1.97454,1.385771 2.50669,1.939148 L 195.61101,33.8619 181.9386,26.277597 c -0.0461,0.781267 -0.17722,1.483094 -1.01232,2.988539 l -5.74983,10.365362 c -0.8351,1.505446 -1.36109,1.988231 -1.9995,2.440936 l 13.9192,7.721203 2.22683,-2.734388 c -0.72651,-0.144817 -1.54074,-0.306024 -2.94747,-1.086358 z"
           id="path501" /><path
           d="m 195.21936,52.166373 c -1.11187,1.314338 -1.7217,1.685636 -2.43595,2.00557 l 6.11922,5.176591 c 0.19713,-0.757393 0.46221,-1.420329 1.57409,-2.734668 l 2.31488,-2.73641 9.79076,-3.139986 c 1.46331,-0.462545 1.75664,-0.547099 3.54483,-0.476043 l -3.92147,-3.317392 c -0.49546,0.541982 -1.02737,1.127058 -2.13935,1.480183 l -5.59638,1.80872 0.76168,-5.750796 c 0.10267,-0.689434 0.20034,-1.678833 0.61957,-2.174403 0.12759,-0.150826 0.28005,-0.24365 0.45073,-0.358021 l -7.08881,-5.996825 c 0.0879,0.813707 0.11116,1.092124 -0.1074,2.792503 l -1.33456,10.404461 z"
           id="path503" /></g><path
         id="circle1361"
         style="font-weight:bold;font-size:28.2222px;font-family:Serpentine;-inkscape-font-specification:'Serpentine, Bold';text-align:center;text-anchor:middle;display:inline;fill:none;fill-rule:evenodd;stroke:#000000;stroke-width:1.14502"
         inkscape:label="Partial Circle"
         transform="rotate(90.75824)"
         d="m 60.207896,-219.33827 c 2.729993,-2.25299 5.569976,-4.37747 8.510686,-6.36417 2.94071,-1.98671 5.982147,-3.83564 9.115051,-5.53753 3.132903,-1.7019 6.357272,-3.25676 9.663846,-4.65532 13.226291,-5.59425 27.767851,-8.68775 43.031941,-8.68775 15.26409,0 29.80565,3.0935 43.03194,8.68775 3.30657,1.39856 6.53094,2.95342 9.66384,4.65532 m 1e-5,194.418449 c -3.13291,1.701895 -6.35727,3.256755 -9.66385,4.655318 -13.22629,5.594247 -27.76785,8.687747 -43.03194,8.687748 -15.26409,0 -29.80565,-3.093496 -43.031942,-8.687746 -3.306574,-1.398563 -6.530943,-2.953423 -9.663846,-4.655318 -3.132904,-1.701895 -6.174341,-3.550826 -9.115051,-5.537531 -2.94071,-1.986704 -5.780693,-4.111183 -8.510686,-6.364174"
         sodipodi:nodetypes="csssssccsssssc" /><text
         xml:space="preserve"
         style="font-style:normal;font-variant:normal;font-weight:bold;font-stretch:normal;font-size:28.2222px;font-family:Serpentine;-inkscape-font-specification:'Serpentine, Bold';font-variant-ligatures:normal;font-variant-caps:normal;font-variant-numeric:normal;font-variant-east-asian:normal;text-align:center;text-anchor:middle;display:none;fill:#000000;fill-opacity:1;fill-rule:evenodd;stroke:none;stroke-width:1.05833;stroke-dasharray:none;stroke-opacity:1"
         id="text462"
         inkscape:label="Berkeley Text"><textPath
           xlink:href="#path52570"
           startOffset="50%"
           id="textPath460"
           inkscape:label="Berkeley Path"><tspan
             id="tspan458"
             style="font-style:normal;font-variant:normal;font-weight:bold;font-stretch:normal;font-size:28.2222px;font-family:Serpentine;-inkscape-font-specification:'Serpentine, Bold';font-variant-ligatures:normal;font-variant-caps:normal;font-variant-numeric:normal;font-variant-east-asian:normal;fill:#000000;fill-opacity:1;stroke:none;stroke-width:1.05833">BERKELEY</tspan></textPath></text><text
         xml:space="preserve"
         style="font-style:normal;font-variant:normal;font-weight:bold;font-stretch:normal;font-size:28.2223px;font-family:Serpentine;-inkscape-font-specification:'Serpentine, Bold';font-variant-ligatures:normal;font-variant-caps:normal;font-variant-numeric:normal;font-variant-east-asian:normal;text-align:center;text-anchor:middle;display:none;fill:#1a1a1a;fill-opacity:1;fill-rule:evenodd;stroke:none;stroke-width:1.05833;stroke-opacity:1;paint-order:stroke fill markers"
         id="text508"
         inkscape:label="Table Tennis Text"><textPath
           xlink:href="#circle932"
           startOffset="50%"
           id="textPath506">TABLE TENNIS</textPath></text></g><g
       inkscape:label="bear claw"
       id="layer1-7"
       transform="matrix(1.2078738,0,0,1.2078738,75.273376,79.432178)"><g
         id="g49682"
         inkscape:label="paw"
         transform="matrix(0.98753858,0,0,0.98753858,-1.5129416,-0.0015328)"
         style="display:inline"><text
           xml:space="preserve"
           style="font-style:normal;font-variant:normal;font-weight:bold;font-stretch:normal;font-size:5.91502px;font-family:Arial;-inkscape-font-specification:'Arial, Bold';font-variant-ligatures:normal;font-variant-caps:normal;font-variant-numeric:normal;font-variant-east-asian:normal;text-align:center;text-anchor:middle;display:inline;fill:#000000;fill-opacity:1;fill-rule:evenodd;stroke-width:0.887249;stroke-dasharray:none"
           x="51.952908"
           y="104.726"
           id="text52380"
           inkscape:label="TM"><tspan
             sodipodi:role="line"
             id="tspan52378"
             style="font-style:normal;font-variant:normal;font-weight:bold;font-stretch:normal;font-size:5.91502px;font-family:Arial;-inkscape-font-specification:'Arial, Bold';font-variant-ligatures:normal;font-variant-caps:normal;font-variant-numeric:normal;font-variant-east-asian:normal;fill:#000000;stroke-width:0.887249"
             x="51.952908"
             y="104.726">TM</tspan></text><path
           style="display:inline;fill:#003262;fill-opacity:1;stroke:none;stroke-width:0.633148;stroke-dasharray:none;stroke-opacity:1;paint-order:stroke fill markers"
           d="m 84.39661,50.163504 c -4.56554,-4.93344 -4.16172,-7.47617 2.10648,-13.26024 4.41041,-4.06996 6.29244,-6.99248 6.37039,-9.8929 0.0846,-3.17814 3.00144,-0.92418 4.25263,3.28713 2.72303,9.16541 -7.65054,25.35461 -12.7295,19.86601 z m -9.71535,-14.30387 c -0.514,-0.35885 -2.12215,-1.06092 -3.57344,-1.56041 -4.018,-1.3822 -4.3326,-2.25521 -2.2974,-6.3713 5.21647,-10.5503 19.53357,-17.743966 24.81241,-12.46717 1.48905,1.4883 1.55374,2.21286 0.16692,1.86491 -3.38695,-0.84968 -7.14435,2.6835 -10.97036,10.315 -3.95368,7.88698 -5.85789,9.81007 -8.13813,8.21897 z m -12.61311,-7.37521 c -0.44227,-0.49409 -1.65892,-1.26642 -2.70368,-1.71605 -5.5696,-2.39738 -4.96315,-6.29557 2.17709,-13.994667 8.26346,-8.9099689 16.86181,-11.81695891 19.55504,-6.6112139 0.86918,1.680385 0.85764,1.701356 -0.94279,1.703167 -3.48563,0.0034 -6.14431,3.4165359 -11.08971,14.2369539 -3.50104,7.65964 -4.79564,8.84066 -6.99595,6.38181 z m -40.062787,-1.79279 c -2.120985,-1.55027 3.936173,-11.803037 9.461249,-16.014723 5.138477,-3.9169729 11.785774,-5.1787309 14.263039,-2.7073459 1.163094,1.160334 1.163094,1.160334 -0.116494,1.160334 -3.216476,0 -6.637341,3.5060499 -9.742078,9.9847549 -1.781481,3.71721 -1.928116,3.89207 -3.800902,4.52985 -1.071376,0.36493 -2.53919,1.10919 -3.261824,1.65409 -2.464703,1.85811 -5.356306,2.45017 -6.802914,1.39304 z m 17.836045,-2.66382 c -1.156094,-0.30007 -0.890375,-1.5707 1.202352,-5.74857 6.091443,-12.1609039 16.64531,-20.2459579 22.68712,-17.38010191 1.82405,0.86510901 2.05049,1.90163701 0.41573,1.90163701 -2.2476,0 -4.33542,2.948492 -7.69022,10.8601809 -3.502216,8.259494 -3.729701,8.549164 -6.712766,8.549164 -1.191991,0 -3.076576,0.35364 -4.187964,0.78612 -2.294815,0.89271 -4.627032,1.31359 -5.714252,1.03157 z"
           id="path26697"
           sodipodi:nodetypes="ssssssssssssssssssssssssssssssssssss"
           inkscape:label="pawfill" /><path
           style="display:inline;fill:none;stroke:#000000;stroke-width:0.876195;stroke-dasharray:none;stroke-opacity:1;paint-order:stroke fill markers"
           d="M 26.861207,105.35236 C 9.8819933,103.87802 -2.9481637,87.350034 1.0550673,72.108614 c 0.462268,-1.76016 0.820976,-4.71044 0.868663,-7.14457 0.160529,-8.19473 2.639115,-14.27824 9.8251467,-24.11467 1.674988,-2.29276 1.901266,-2.83695 1.606538,-3.86424 -0.219731,-0.76592 -0.156626,-1.55475 0.175533,-2.19461 0.28521,-0.54957 0.454662,-1.19094 0.376567,-1.42514 -0.0781,-0.2341 0.62003,-1.16957 1.551451,-2.07871 0.931422,-0.90925 1.699798,-1.85173 1.70752,-2.09485 0.05824,-1.82818 1.651329,-2.45427 3.845223,-1.51103 3.154176,1.3564 9.46244,-0.886 13.933584,-4.95261 1.418932,-1.29061 2.635763,-1.10447 2.813104,0.43017 0.281621,2.43736 2.535333,2.95628 6.899794,1.58874 1.471722,-0.46099 3.563561,-0.84098 4.648527,-0.84393 1.497883,-0.004 2.283209,-0.26656 3.262803,-1.09038 1.586909,-1.33468 2.151629,-1.04784 2.151629,1.09336 0,1.91232 0.8548,2.89961 3.25276,3.75664 0.88089,0.31472 2.2256,1.11546 2.98821,1.77923 0.76261,0.66378 1.61741,1.22862 1.89954,1.25544 1.28839,0.12193 2.27449,-0.19175 3.14952,-1.00217 1.19293,-1.10498 1.49549,-0.82941 0.87973,0.80164 -0.85474,2.26354 -0.22508,3.35889 2.49929,4.34852 1.33476,0.48472 3.36384,1.35112 4.50922,1.92488 2.08258,1.04346 2.08258,1.04346 3.47264,0.22364 1.40515,-0.82856 2.67623,-0.15613 2.67623,1.41604 0,0.22008 0.31515,0.74834 0.70013,1.17348 0.5748,0.63471 0.61261,0.96563 0.21113,1.84636 -1.95396,4.28656 2.38974,12.32785 6.14934,11.3846 1.6534,-0.4147 1.01159,4.56195 -0.84529,6.55409 -0.86145,0.92427 -1.99398,4.10323 -1.99398,5.59688 0,0.46688 -0.25268,1.14891 -0.56178,1.51517 -0.3088,0.36627 -0.90365,1.59243 -1.32171,2.72434 -0.97268,2.63266 -10.36253,12.07688 -12.00778,12.07688 -0.25353,0 -0.46074,0.18625 -0.46074,0.41385 0,0.34477 -0.90726,0.72281 -2.63846,1.09958 -0.17391,0.0375 -0.41156,0.11529 -0.52759,0.17415 -0.11498,0.0575 -0.35347,0.14563 -0.52757,0.19484 -2.00182,0.56389 -7.10986,2.85869 -7.85645,3.52948 -0.43223,0.38842 -1.63986,2.41493 -2.68362,4.50367 -1.96317,3.92827 -3.838925,6.75939 -4.223715,6.37465 -0.121444,-0.12132 -0.593047,0.1985 -1.04799,0.71064 -0.666936,0.75118 -0.780378,0.7843 -0.585618,0.1712 0.286325,-0.90107 -0.07492,-0.72634 -2.492549,1.20702 -5.931451,4.742816 -11.992643,6.427796 -20.472841,5.691476 z M 84.39661,50.163504 c -4.56554,-4.93344 -4.16172,-7.47617 2.10648,-13.26024 4.41041,-4.06996 6.29244,-6.99248 6.37039,-9.8929 0.0846,-3.17814 3.00144,-0.92418 4.25263,3.28713 2.72303,9.16541 -7.65054,25.35461 -12.7295,19.86601 z m -9.71535,-14.30387 c -0.514,-0.35885 -2.12215,-1.06092 -3.57344,-1.56041 -4.018,-1.3822 -4.3326,-2.25521 -2.2974,-6.3713 5.21647,-10.5503 19.53357,-17.743966 24.81241,-12.46717 1.48905,1.4883 1.55374,2.21286 0.16692,1.86491 -3.38695,-0.84968 -7.14435,2.6835 -10.97036,10.315 -3.95368,7.88698 -5.85789,9.81007 -8.13813,8.21897 z m -12.61311,-7.37521 c -0.44227,-0.49409 -1.65892,-1.26642 -2.70368,-1.71605 -5.5696,-2.39738 -4.96315,-6.29557 2.17709,-13.994667 8.26346,-8.9099689 16.86181,-11.81695891 19.55504,-6.6112139 0.86918,1.680385 0.85764,1.701356 -0.94279,1.703167 -3.48563,0.0034 -6.14431,3.4165359 -11.08971,14.2369539 -3.50104,7.65964 -4.79564,8.84066 -6.99595,6.38181 z m -40.062787,-1.79279 c -2.120985,-1.55027 3.936173,-11.803037 9.461249,-16.014723 5.138477,-3.9169729 11.785774,-5.1787309 14.263039,-2.7073459 1.163094,1.160334 1.163094,1.160334 -0.116494,1.160334 -3.216476,0 -6.637341,3.5060499 -9.742078,9.9847549 -1.781481,3.71721 -1.928116,3.89207 -3.800902,4.52985 -1.071376,0.36493 -2.53919,1.10919 -3.261824,1.65409 -2.464703,1.85811 -5.356306,2.45017 -6.802914,1.39304 z m 17.836045,-2.66382 c -1.156094,-0.30007 -0.890375,-1.5707 1.202352,-5.74857 6.091443,-12.1609039 16.64531,-20.2459579 22.68712,-17.38010191 1.82405,0.86510901 2.05049,1.90163701 0.41573,1.90163701 -2.2476,0 -4.33542,2.948492 -7.69022,10.8601809 -3.502216,8.259494 -3.729701,8.549164 -6.712766,8.549164 -1.191991,0 -3.076576,0.35364 -4.187964,0.78612 -2.294815,0.89271 -4.627032,1.31359 -5.714252,1.03157 z"
           id="path40725"
           sodipodi:nodetypes="sssssscscsssscsssssssssssscssssssssscsssssssssssssssssssssssssssssssssssssssssss"
           inkscape:label="paw outline" /></g><g
         id="g8952"
         transform="matrix(0.01231731,0,0,-0.01231731,102.74618,80.660196)"
         inkscape:label="cal"
         style="display:inline"><path
           d="m -3396.8139,2860.8554 35.3077,64.0568 c -8.7599,4.844 -17.6347,7.8601 -25.7817,9.6367 -8.1852,1.7765 -15.6937,2.3644 -22.5382,2.3772 -12.2077,-0.039 -22.3977,-1.8149 -31.6173,-4.0387 -16.0513,-4.0004 -29.4083,-9.5855 -41.7564,-15.4136 -18.3754,-8.793 -34.1585,-18.4041 -46.0085,-26.0598 -11.7992,-7.63 -19.4864,-13.2918 -20.3802,-13.9437 l -2.0687,-1.5976 c -80.7417,-64.1462 -151.3316,-135.9481 -214.3237,-213.8975 -63.0176,-77.9621 -118.4501,-162.059 -169.3239,-251.1532 -113.968,-199.6088 -175.7854,-381.9124 -209.0116,-526.4107 -33.2263,-144.524 -37.951,-251.2683 -37.951,-300.4867 0,-18.1613 0.6385,-28.5009 0.7406,-30.0346 1.9793,-29.5234 21.4656,-54.8803 49.4564,-64.3763 28.0035,-9.5089 58.8803,-1.227 78.3793,20.9986 0.1915,0.2173 34.4266,39.224 72.9906,84.9533 19.2948,22.8774 39.6494,47.4291 57.5778,69.9231 8.977,11.2598 17.341,22.0211 24.7857,31.9773 7.4574,10.0328 13.9187,19.0688 19.6522,28.1047 4.878,7.7067 12.0034,18.5576 20.6994,31.5811 30.5448,45.7293 80.3715,118.1702 132.701,197.0652 52.3933,79.023 107.3534,164.4874 149.4672,238.7304 50.8484,89.6949 104.7485,195.1994 149.8888,289.5465 22.5637,47.1735 42.9056,91.5096 59.5698,129.7877 8.3512,19.1583 15.7704,36.8084 22.1296,52.6564 6.372,15.8864 11.6713,29.8941 15.8725,42.368 l -69.2492,23.3759 67.0145,-29.1783 c 0.7279,1.6998 6.7806,15.6691 13.1143,36.131 3.1669,10.2628 6.3975,22.1617 8.9771,35.3513 2.5538,13.2153 4.5459,27.6703 4.5842,43.825 -0.013,7.9497 -0.498,16.3338 -1.9154,25.2675 -2.1453,13.3302 -6.321,28.258 -15.2086,43.4415 -4.4309,7.5534 -10.0878,15.0557 -16.9451,21.8678 -6.8317,6.8121 -14.8766,12.8701 -23.5215,17.6245 -22.6531,12.5123 -50.1842,12.1033 -72.467,-1.0608 -22.2829,-13.164 -35.9207,-37.0896 -35.9207,-62.996 v 0 h 73.08 l 35.3077,64.0568 -35.3077,-64.0568 h 73.0927 v 0 h -73.0927 l -35.295,-64.0567 19.3075,35.0574 -30.583,-25.7659 c 2.937,-3.553 7.1382,-7.0422 11.2755,-9.2915 l 19.3075,35.0574 -30.583,-25.7659 27.646,23.2864 -32.4728,-15.9503 c 1.0087,-2.0705 2.5794,-4.6777 4.8268,-7.3361 l 27.646,23.2864 -32.4728,-15.9503 18.9627,9.3171 -20.9293,-3.8597 c 0.089,-0.4346 0.4342,-2.3133 1.9666,-5.4574 l 18.9627,9.3171 -20.9293,-3.8597 1.9793,0.3706 -2.0048,-0.2556 0.025,-0.115 1.9793,0.3706 -2.0048,-0.2556 c 0.025,-0.1278 0.1149,-0.9586 0.1022,-2.2878 0.038,-3.2079 -0.5491,-9.1892 -1.8517,-15.7586 -1.9153,-9.9049 -5.2993,-21.1136 -8.1341,-29.2038 -1.4175,-4.0515 -2.6944,-7.3745 -3.5372,-9.5089 -0.4341,-1.0735 -0.7534,-1.8404 -0.9322,-2.2749 l -0.1532,-0.3834 24.7729,-10.5697 -24.6963,10.7486 -0.077,-0.1789 24.7729,-10.5697 -24.6963,10.7486 -2.2347,-5.8024 c -2.8603,-8.512 -7.3297,-20.4492 -12.9993,-34.5846 -9.9602,-24.7945 -23.6492,-56.5162 -39.8154,-92.1615 -48.5242,-107.0253 -119.6122,-249.939 -183.2682,-362.1534 -22.2318,-39.2367 -49.3287,-83.4578 -78.0473,-128.5481 -43.0845,-67.6738 -89.8082,-137.3541 -129.9172,-196.6564 -20.061,-29.6513 -38.4618,-56.7205 -54.0278,-79.7897 -15.5789,-23.1202 -28.1952,-42.0229 -37.2743,-56.3756 -2.2986,-3.6681 -7.1126,-10.5696 -13.2293,-18.7493 -10.7647,-14.4293 -25.6922,-33.2042 -41.7308,-52.7714 -24.0833,-29.3956 -50.7844,-60.8233 -71.3689,-84.7615 -10.2922,-11.9755 -19.0649,-22.0978 -25.2453,-29.2039 -3.0902,-3.553 -5.542,-6.352 -7.202,-8.2563 -0.83,-0.9586 -1.4685,-1.6871 -1.8899,-2.1727 l -0.6257,-0.703 54.909,-48.2854 72.9267,4.9078 -47.1834,-3.1696 47.1961,2.9779 -0.013,0.1917 -47.1834,-3.1696 47.1961,2.9779 -0.013,0.1917 c -0.064,1.2525 -0.4214,8.1796 -0.4214,20.2318 0,39.8374 3.8564,135.5648 34.2351,267.6659 30.3915,132.1138 87.2542,300.576 193.471,486.6372 47.8348,83.7902 99.015,161.1645 156.0565,231.7395 57.0542,70.5748 119.9186,134.3759 191.5812,191.3395 l -45.4596,57.283 43.3781,-58.8806 -13.7783,18.7109 13.7017,-18.7749 0.077,0.064 -13.7783,18.7109 13.7017,-18.7749 c 0.3703,0.3069 14.1997,10.2758 29.5104,18.8899 7.5723,4.3071 15.5532,8.2308 21.1463,10.378 2.7582,1.0863 4.9035,1.7126 5.6569,1.8788 l 0.2809,0.064 -3.5116,18.4169 v -18.6597 c 2.49,0.013 3.4733,0.2556 3.5116,0.2428 l -3.5116,18.4169 v -18.6597 40.3869 l -8.5684,-39.4028 c 3.8181,-0.8307 6.6658,-0.9713 8.5684,-0.9841 v 40.3869 l -8.5684,-39.4028 10.8286,49.7296 -24.543,-44.5278 c 5.095,-2.8118 9.9219,-4.3839 13.7144,-5.2018 l 10.8286,49.7296 -24.543,-44.5278 c 22.6531,-12.4996 50.1715,-12.1033 72.4543,1.0735 22.2828,13.1641 35.9334,37.0896 35.9334,62.9832 z m -1925.006,-1081.8081 -2.2474,73.1184 c -16.4728,-0.5369 -32.639,-3.2719 -49.4309,-7.694 -29.2932,-7.7834 -60.5531,-20.8709 -93.9326,-39.8374 -49.9544,-28.4754 -104.4292,-70.3066 -159.2233,-128.3309 -54.7556,-58.0115 -109.6901,-132.2162 -159.9127,-225.1829 -4.3416,-8.0391 -8.9131,-17.3051 -13.9188,-28.1047 -17.3793,-37.6392 -39.8664,-94.0531 -58.7014,-158.3144 -9.3985,-32.1179 -17.8263,-66.1145 -24.0196,-100.7374 -6.1677,-34.6484 -10.1389,-69.872 -10.1518,-104.8898 0,-20.8184 1.4175,-41.587 4.8908,-62.19079 3.4861,-20.5884 9.0408,-41.0784 17.7114,-60.96259 12.5396,-28.75654 30.9405,-54.51347 54.3854,-74.82198 23.3809,-20.34429 51.7421,-35.03185 82.2995,-42.45616 l -0.166,0.0396 c 15.9491,-3.92366 32.1665,-5.8561 48.3582,-5.8561 h 0.026 c 24.4536,-0.0243 48.3964,4.38377 70.5005,12.27201 19.3714,6.89901 37.3509,16.34522 53.9257,27.4887 29.0379,19.56979 53.9385,44.12276 76.6427,71.6268 33.9669,41.33146 63.2347,89.71911 90.9318,142.25921 27.6205,52.5287 53.466,109.2494 78.8774,166.8519 l -0.025,-0.038 c 6.8445,15.4902 12.9101,29.2167 17.9156,40.1314 l 0.051,0.115 c 6.0145,13.1385 16.2046,36.1821 28.7059,65.2709 18.7202,43.5694 42.3821,100.2262 63.4008,154.4802 10.5093,27.1462 20.3673,53.6789 28.6803,77.9877 8.313,24.4112 15.0936,46.1894 19.6522,66.089 v 0.026 c 3.7926,16.9217 7.4064,37.3196 7.4575,60.7466 -0.026,15.6564 -1.6473,32.8591 -7.1254,51.1355 -4.1118,13.6626 -10.5476,27.9386 -20.0865,41.32 -7.1254,10.0328 -15.9746,19.465 -26.152,27.5168 -15.285,12.1416 -33.3156,20.9603 -52.2912,26.3793 -19.0266,5.4702 -39.0364,7.8091 -60.2466,7.8218 -2.9753,0 -5.9889,-0.051 -9.0409,-0.1405 h 0.013 l 2.2474,-73.1184 2.2602,-73.1183 c 1.5707,0.051 3.0775,0.077 4.5204,0.077 12.1822,0.013 18.9245,-1.7126 21.2612,-2.5817 0.9067,-0.3195 1.2132,-0.5112 1.2132,-0.4984 l 4.099,7.2466 -6.1422,-5.4701 c 0.8683,-1.0225 1.9921,-1.7765 2.0432,-1.7765 l 4.099,7.2466 -6.1422,-5.4701 7.9427,7.0677 -9.3984,-5.0228 1.4557,-2.0449 7.9427,7.0677 -9.3984,-5.0228 4.712,2.5178 -4.9035,-2.1216 0.1915,-0.3962 4.712,2.5178 -4.9035,-2.1216 1.7239,0.7413 -1.7495,-0.6902 0.026,-0.051 1.7239,0.7412 -1.7495,-0.6901 0.1533,-0.4984 c 0.3065,-1.0736 0.83,-4.1282 0.8173,-8.5631 0.051,-7.3106 -1.4303,-17.9696 -3.831,-28.3731 v 0.026 c -1.6344,-7.2339 -4.648,-18.0719 -8.6704,-30.7249 -7.036,-22.2511 -17.124,-50.3175 -28.476,-80.0454 -17.0346,-44.6429 -36.9679,-93.2095 -54.3854,-134.3889 -8.7089,-20.6025 -16.792,-39.3645 -23.5854,-54.9058 -6.7806,-15.503 -12.2971,-27.8747 -15.681,-35.2875 l 0.038,0.1022 c -5.7207,-12.4739 -11.965,-26.6221 -18.7967,-42.1123 l -0.013,-0.026 c -21.6698,-49.1545 -43.1865,-96.4303 -64.8437,-139.0794 -16.23,-31.9901 -32.5494,-61.3831 -48.8179,-86.8946 -12.1948,-19.1455 -24.3514,-36.0953 -36.2015,-50.3444 -17.7625,-21.44732 -34.797,-36.49913 -49.2521,-45.15677 -7.2531,-4.3825 -13.8166,-7.25815 -19.946,-9.09602 -6.1421,-1.82635 -11.8502,-2.67115 -18.0816,-2.68522 h -0.026 c -4.5587,-0.0102 -9.143,0.5483 -13.3697,1.59758 l -0.1659,0.0396 c -8.4663,2.1216 -15.0937,5.62094 -21.1975,10.86358 -6.0527,5.27715 -11.6458,12.51101 -16.2045,22.87488 -3.0008,6.84017 -5.6825,15.82117 -7.5213,26.76527 -1.8516,10.9135 -2.8476,23.7095 -2.8476,37.7925 -0.025,27.0938 3.716,58.8027 10.1646,91.2912 9.6155,48.7839 25.1687,99.3315 40.6071,141.3672 7.7128,21.0242 15.3873,39.9652 22.1551,55.4937 6.7423,15.4774 12.7312,27.7724 16.2811,34.3161 67.7679,125.468 142.7251,207.6351 206.7642,257.8887 31.9876,25.1268 61.281,42.2146 84.8408,52.6565 11.7479,5.2273 22.0529,8.7802 30.2127,10.9402 8.1213,2.1728 14.1486,2.8501 16.5876,2.9012 h 0.013 z m -2417.1329,-1867.858236 69.9281,-21.268104 c 1.0075,3.3499 2.9931,8.8069 5.6569,14.967604 3.9853,9.3059 9.4967,20.3342 15.4473,30.6587 5.9161,10.3393 12.3864,20.0946 17.6283,26.7894 l -0.01,-0.015 c 16.571,21.2923 40.2291,45.6164995 70.7112,71.5613 30.4771,25.9818 67.7232,53.629 111.3145,82.296096 67.5534,44.4231 131.8952,80.094 199.4345,110.1682 67.5432,30.0602 138.4345,54.5876 219.2119,76.1205 v 0 c 115.8924,30.9178 236.7943,48.0068 356.3643,57.2179 119.5789,9.2314 237.7596,10.6092 348.4331,10.6092 h -0.1149 l 11.8756,-0.024 h 0.051 c 72.582,-0.065 167.0892,-2.4168 274.8257,-6.3661 323.401,-11.8566 766.1715,-37.9726 1112.928,-58.446 121.3616,-7.1444 230.0047,-13.545 316.8247,-18.3531 43.4164,-2.3913 81.3802,-4.3927 112.8443,-5.8753 31.4897,-1.4979 56.3391,-2.482 74.3187,-2.8513 l -0.3448,0.01 11.9394,-0.294 h -0.025 c 19.5501,-0.4946 53.0573,-1.379 93.2685,-1.379 144.8959,0.026 244.5492,11.284 316.148,26.9302 35.7674,7.823 64.5372,16.7938 87.931,25.955 23.3298,9.1113 41.4115,18.5729 54.3725,26.0457 13.0633,7.5036 26.2797,15.7612 39.1514,24.7077 19.3204,13.5194 37.7468,28.0932 54.2832,46.0858 8.2619,9.1165 16.1791,19.1212 23.1767,32.0169 3.4734,6.4645 6.7041,13.7137 9.2069,22.1208 2.49,8.388 4.2522,18.0234 4.2522,28.6825 0,4.3582 -0.2937,8.8467 -0.9449,13.3788 v 0.031 c -1.4047,9.9152 -4.4566,19.7794 -8.7344,28.5623 -3.9968,8.2422 -9.0025,15.5004 -14.3018,21.6121 -10.0113,11.5026 -20.7377,19.0164 -30.6597,24.59262 -17.4815,9.60979 -33.2518,14.04341 -48.3198,17.53382 -22.4999,4.98191 -43.8251,6.98848 -62.2259,8.6014 -9.143,0.76429 -17.4688,1.3931 -24.275,1.98229 -6.7422,0.55851 -12.1182,1.1886 -14.0592,1.51706 -67.7933,10.97861 -131.1047,29.98477 -187.8396,53.64438 -56.7223,23.64427 -106.8682,51.97649 -148.05,81.1024 -20.8781,14.75274 -41.1434,33.38443 -59.3655,53.1702 -27.3778,29.66526 -50.1331,61.80612 -65.546,86.08943 -7.7255,12.14165 -13.6506,22.31636 -17.5197,29.24093 -1.941,3.46484 -3.3712,6.11045 -4.2651,7.79749 l -0.9193,1.76247 -0.1533,0.31057 -21.5677,-11.01952 21.6187,10.91472 -0.051,0.1048 -21.5677,-11.01952 21.6187,10.91472 c -9.411,18.66107 -26.369,32.41053 -46.5576,37.76692 -20.1886,5.35766 -41.7181,1.78802 -59.123,-9.76445 l -69.249,-46.01047 c -123.4177,-82.02629 -234.5381,-140.98231 -336.3878,-179.09432 -101.9519,-38.13757 -194.3267,-55.6356 -282.7302,-55.6765 -9.0663,0 -18.2348,0.19554 -27.1352,0.57896 h -0.026 c -47.4133,2.00785 -89.1696,12.94556 -119.2929,26.341 -15.0297,6.62934 -27.097,13.87855 -35.1162,19.99922 -4.0224,3.0303 -7.0105,5.76664 -8.8748,7.71825 -0.9322,0.97389 -1.5834,1.75223 -1.9538,2.23662 l -0.3702,0.4895 -0.026,0.0498 -2.7965,-1.81741 2.8475,1.72795 -0.051,0.0895 -2.7965,-1.81742 2.8475,1.72795 -45.6254,75.84059 c -11.1734,18.58184 -29.6892,31.08263 -51.091,34.50786 -21.4144,3.41499 -42.8927,-2.71079 -59.3016,-16.88457 l -66.9251,-57.86839 c -17.4432,-15.09655 -37.4147,-28.17246 -58.4845,-39.20987 -31.5789,-16.60466 -65.5715,-28.52776 -95.7203,-36.59493 -30.1616,-8.08762 -56.4286,-12.38193 -72.5692,-14.46774 l -0.064,-0.0102 c -18.7839,-2.44111 -37.9765,-3.66934 -56.7605,-3.66934 -49.0733,0 -95.1457,8.25761 -136.2253,23.4794 -41.1178,15.2218 -77.2173,37.31833 -106.9958,65.25562 l -0.038,0.0256 -11.3522,-12.12631 11.5182,11.97678 -0.166,0.14953 -11.3522,-12.12631 11.5182,11.97678 -0.013,0.0102 c -0.2681,0.25434 -1.6728,1.70239 -3.4477,3.60416 -3.1541,3.39966 -7.6361,8.39691 -12.4247,13.86832 -7.2148,8.24355 -15.2724,17.6987 -21.8231,25.59715 -3.269,3.93902 -6.1677,7.50355 -8.3003,10.18877 -1.047,1.32791 -1.9154,2.44239 -2.4644,3.15555 l -0.5237,0.70422 v 0 l -20.0736,-14.32843 20.3163,13.98335 -0.2427,0.34508 -20.0736,-14.32843 20.3163,13.98335 -0.013,0.0103 -47.6942,69.33522 c -11.8374,17.21941 -30.3021,28.46259 -51.0271,31.09796 -20.7249,2.62132 -41.3988,-3.66933 -57.1563,-17.39323 l -63.388,-55.2164 -0.4086,-0.3553 c -0.7151,-0.63904 -3.0519,-2.5702 -6.155,-4.92185 -5.478,-4.16395 -13.3824,-9.76572 -21.9891,-15.59116 -12.9354,-8.78161 -27.5949,-18.22781 -39.8537,-25.88089 -6.1165,-3.8342 -11.6713,-7.23514 -16.0257,-9.84113 -2.1708,-1.31768 -4.0607,-2.43088 -5.5037,-3.25906 -1.4174,-0.83459 -2.4644,-1.40844 -2.5283,-1.44295 -134.1215,-72.5062 -282.2531,-110.59392 -427.2613,-110.55302 -130.2351,-0.0307 -253.8799,32.06674 -357.313,91.39213 v 0 c -53.931,30.95225 -96.6795,67.78747 -131.3756,109.01924 -51.9311,61.79717 -85.9057,134.17293 -107.0201,211.29163 -21.1004,77.0023 -28.9958,158.3897 -28.9715,235.1122 0,23.8615 0.7534,47.2502 2.075,69.9103 v 0 c 8.7497,149.2273 40.2649,298.6847 94.6299,447.8609 54.365,149.1631 131.6308,298.0325 231.9112,445.5344 172.7474,254.1696 413.075,499.4308 693.9535,706.7975 101.9838,75.3421 230.9943,160.5126 374.2684,232.7362 143.2613,72.2876 300.7351,131.3855 458.809,156.1673 58.4972,9.2532 117.9266,17.5606 171.8396,17.4967 30.4681,0.026 55.4835,-2.5945 75.0336,-6.991 19.6268,-4.3966 33.6095,-10.3907 43.8378,-16.9217 l 0.025,-0.013 c 13.0122,-8.3202 22.8191,-17.6501 31.0299,-28.2709 12.2205,-15.8481 20.8144,-35.1852 26.3053,-56.8357 5.4909,-21.5482 7.6362,-45.052 7.6106,-66.7152 0.013,-13.9437 -0.8556,-27.1078 -2.0431,-38.4699 v 0.026 c -5.6314,-54.1773 -22.9596,-114.1188 -49.8778,-172.5393 -20.1631,-43.8377 -45.6255,-86.8319 -74.9316,-126.2476 -43.9272,-59.1745 -96.5886,-110.0801 -151.5487,-144.9329 -27.4673,-17.4585 -55.4452,-30.9549 -83.1679,-39.9781 -27.7482,-9.0487 -55.1643,-13.6753 -82.2741,-13.6753 h 0.064 c -13.8549,-0.013 -26.2157,2.7862 -35.512,6.8505 -9.3601,4.0642 -15.3745,9.1893 -18.5668,13.3558 l 0.013,-0.013 c -1.7494,2.2877 -2.439,3.7575 -2.9498,5.2017 -0.4724,1.457 -0.8299,3.0163 -0.8428,5.8791 0,2.5689 0.3448,6.1859 1.609,11.0809 v 0.026 c 3.0264,11.3238 6.5763,17.7013 11.9396,24.3217 4.0989,4.9078 9.6281,9.9817 17.9028,15.5158 12.297,8.2946 30.8384,17.2028 55.3815,26.0342 24.5046,8.8826 54.7684,17.7524 89.8336,27.4529 l -0.038,-0.013 c 10.2155,2.8246 20.495,5.6747 30.7873,8.6142 l -0.038,-0.013 c 51.6145,14.6978 95.4012,33.9455 132.1646,57.2957 27.5694,17.5096 51.1165,37.3452 70.6283,58.8552 29.3061,32.2456 49.201,68.1977 61.1149,103.7663 11.9779,35.6198 16.2556,70.6516 16.2556,102.7567 0,11.1832 -0.5235,22.034 -1.4301,32.4886 -2.0559,23.5292 -7.6873,47.6335 -17.9029,71.1244 -7.6617,17.5991 -17.9412,34.8402 -31.1577,50.7011 -19.7544,23.8487 -46.315,44.3489 -78.009,58.0626 -31.6939,13.7904 -68.036,20.8581 -107.6982,20.8325 -33.1496,-0.039 -65.2522,-4.7161 -95.5543,-11.3236 -45.3957,-9.9946 -86.7817,-24.5006 -118.8205,-37.2302 -31.9876,-12.7424 -54.5387,-23.7721 -61.1405,-27.0695 l -0.013,-0.013 c -146.5048,-73.2842 -268.2494,-170.3279 -375.5262,-278.8104 -107.3407,-108.5589 -200.5965,-228.5695 -291.4401,-349.8966 -176.5439,-235.893 -310.4835,-468.4631 -400.5495,-696.9818 -90.0392,-228.4673 -136.109,-453.0751 -136.1001,-671.5482 0,-31.7983 0.9781,-63.4433 2.928,-94.9477 3.5027,-56.12 15.6376,-112.3295 35.3614,-165.8422 14.805,-40.1186 33.9044,-78.73031 57.1985,-114.49194 34.9464,-53.57408 79.3958,-101.00194 133.6612,-135.81908 27.1097,-17.37917 56.6788,-31.50311 88.3383,-41.24327 31.6353,-9.74016 65.3443,-15.04159 100.1961,-15.02625 41.9798,-0.0256 83.7553,7.66841 123.8951,22.3253 40.1742,14.64794 78.7381,36.131 115.4633,63.49445 l -0.025,-0.0153 c 60.2977,44.92795 105.604,100.58783 142.2015,157.14239 36.5974,56.6453 64.8436,114.6159 90.3189,166.4544 l 0.013,0.026 c 14.0848,28.7309 27.0331,55.0719 39.8537,78.8057 l -0.026,-0.051 c 74.0888,136.9578 161.1004,257.5308 265.9893,355.7376 58.1269,54.4074 117.0455,98.4368 177.9817,134.3889 60.9616,35.952 123.9792,63.8651 190.6362,85.6561 32.9071,10.7486 63.1325,18.2892 93.8943,23.2737 30.7746,4.9716 62.2003,7.4127 97.6102,7.4127 4.2268,0 8.4917,-0.026 12.8206,-0.1022 h 0.013 c 12.1949,-0.2172 21.5932,-2.1727 29.6253,-4.9589 11.9267,-4.2176 21.2102,-10.5313 29.2805,-18.1869 7.9938,-7.5789 14.3657,-16.5765 18.5286,-23.9127 13.3059,-23.2991 38.2702,-37.4346 65.0735,-36.8338 26.8161,0.5879 51.1292,15.8096 63.388,39.684 3.9713,7.7195 8.083,16.1164 12.246,24.6156 6.1931,12.6783 12.5652,25.6764 17.4559,34.8529 2.4006,4.5371 4.4949,8.1669 5.3121,9.4577 l 0.2171,0.3323 0.051,0.064 -23.7896,16.1675 22.1935,-18.2508 c 1.1876,1.4571 1.5323,2.0066 1.5961,2.0833 l -23.7896,16.1675 22.1935,-18.2508 -44.9998,37 36.8272,-45.0646 c 5.0568,4.2048 6.8956,6.5948 8.1726,8.0646 l -44.9998,37 36.8272,-45.0646 -44.3996,54.3305 30.7362,-63.1108 c 3.3329,1.6743 7.7001,3.9492 13.6762,8.7803 l -44.4124,54.3305 30.7362,-63.1108 -27.5694,56.5927 16.0641,-60.9254 c 2.0814,0.6135 5.0951,1.2909 11.5053,4.3327 l -27.5694,56.5927 16.0641,-60.9254 -10.2795,39.0067 7.0744,-39.7224 c 0.4214,0.077 1.3152,0.2301 3.2051,0.7157 l -10.2795,39.0067 7.0744,-39.7224 -2.0304,11.3621 1.7495,-11.4132 0.2809,0.051 -2.0304,11.3621 1.7495,-11.4132 c 0.1532,0.051 4.5203,0.5496 10.1772,0.8819 8.645,0.5495 20.9421,0.9841 34.5672,1.2525 13.6506,0.2811 28.7441,0.3962 43.6718,0.3962 15.6937,0 31.2214,-0.1278 44.7315,-0.3578 13.472,-0.2174 25.0666,-0.5369 32.2815,-0.8692 10.4199,-0.4473 23.5853,-0.6901 38.6661,-1.0863 22.3849,-0.5623 48.6263,-1.4698 68.1509,-3.2591 9.6283,-0.8307 17.7369,-2.0321 20.8399,-2.7351 l 0.83,-0.1917 0.2171,-0.051 8.0576,28.9738 -12.7185,-27.1462 c 3.4094,-1.5592 4.5715,-1.7765 4.6609,-1.8276 l 8.0576,28.9738 -12.7185,-27.1462 23.0745,49.2949 -30.136,-45.2817 c 3.0647,-2.0322 5.3631,-3.1952 7.0615,-4.0132 l 23.0745,49.2949 -30.136,-45.2817 35.1927,52.8607 -46.6215,-43.0452 c 4.4821,-4.8438 8.3769,-7.7578 11.4288,-9.8155 l 35.1927,52.8607 -46.6215,-43.0452 -0.026,0.026 46.928,43.288 -56.6456,-29.4593 c 2.273,-4.3966 5.4909,-9.2404 9.7176,-13.8287 l 46.928,43.288 -56.6456,-29.4593 51.9847,27.0437 -57.6416,-10.8506 c 0.7662,-4.0131 2.2219,-9.5344 5.6569,-16.1931 l 51.9847,27.0437 -57.6416,-10.8506 44.2592,8.3329 h -45.0892 c 0.013,-1.6488 0.076,-4.2944 0.83,-8.3329 l 44.2592,8.3329 h -45.0892 19.2564 l -19.1543,2.326 c 0,0 -0.1021,-0.639 -0.1021,-2.326 h 19.2564 l -19.1543,2.326 c 0,-0.064 -0.3702,-2.4411 -1.3153,-6.0836 -1.6216,-6.454 -4.8651,-16.7808 -9.3727,-29.3826 -6.7552,-18.9793 -16.2812,-43.2498 -27.3013,-71.2651 -11.0329,-28.0408 -23.5981,-59.9031 -36.5847,-94.7432 v 0.013 c -20.8144,-55.9922 -53.9513,-129.2894 -88.8759,-220.3518 -13.1143,-34.2523 -26.5606,-68.5556 -39.7898,-102.3606 v 0.026 c -34.2224,-87.4199 -65.1885,-166.3022 -88.2502,-237.299 -11.5181,-35.5277 -21.0825,-69.132 -27.9397,-101.2882 -6.8189,-32.1664 -11.0457,-62.92057 -11.0713,-93.24403 0,-17.65396 1.4686,-35.20184 5.044,-52.62064 5.2994,-26.02147 15.7831,-52.04168 32.5623,-74.66221 16.6643,-22.68572 39.2152,-41.13336 64.3968,-54.06358 34.1839,-17.76771 72.5181,-26.53526 111.248,-26.47008 29.6764,0.0153 57.897,4.94741 84.2534,12.51102 39.5599,11.38759 75.238,28.59167 107.2767,46.63928 31.9877,18.08339 60.4254,37.18924 84.049,53.00022 l -0.089,-0.0651 c 7.4192,4.95763 14.1998,9.49605 20.1504,13.38521 l -0.076,-0.0396 c 37.2614,24.29352 67.2571,44.4231 93.9198,64.27279 26.6117,19.81006 49.9289,39.53066 71.9819,61.64125 l -0.038,-0.0396 24.045,24.02897 c 14.9658,14.9675 22.7425,35.7859 21.2485,56.8983 l -2.3752,33.9187 c -3.4861,49.5788 -5.1972,100.037 -5.1972,150.6996 -0.013,125.9409 10.586,253.1726 30.4298,371.5474 19.8055,118.3618 48.9712,227.9306 85.0962,318.0087 125.2434,312.8968 308.8692,595.5928 529.1563,816.2895 25.6285,25.7148 63.2092,58.7528 106.7533,92.8901 65.3161,51.3145 144.5382,105.5812 219.2655,146.0449 37.2997,20.2446 73.5014,37.0129 105.4123,48.3877 31.8345,11.477 59.5188,17.1389 77.4855,17.42 l 0.9068,0.013 c 3.2179,-0.013 4.648,-0.3963 5.1715,-0.5497 l 0.3321,-0.1149 0.1021,0.23 -0.1404,-0.2045 0.038,-0.026 0.1021,0.23 -0.1404,-0.2045 0.4852,-0.4346 c 0.6895,-0.6901 2.4006,-2.7478 4.4438,-6.9399 3.1029,-6.1986 6.538,-17.0238 8.6833,-30.533 2.2091,-13.4964 3.2817,-29.5362 3.269,-46.0744 0,-22.9924 -2.0049,-46.9434 -4.6481,-67.3926 -2.605,-20.4107 -5.8612,-37.5752 -7.8533,-46.5856 -2.6944,-12.2822 -7.3169,-29.7151 -13.74,-50.8287 -11.25,-37.0257 -27.978,-85.5284 -49.7501,-142.1852 -65.3288,-170.1236 -176.1555,-413.8896 -323.9245,-660.3268 -18.3243,-30.5714 -42.8418,-68.53 -70.8453,-110.2462 -42.0373,-62.6251 -91.9917,-133.8775 -141.8312,-203.8006 -49.8522,-69.9231 -99.6023,-138.5426 -141.448,-196.2474 -26.3052,-36.2971 -49.8778,-68.8112 -69.2875,-95.8679 -19.4607,-27.1206 -34.5671,-48.4772 -44.7699,-63.7884 l -10.6115,-15.9375 c -6.87,-10.3141 -10.9563,-22.0084 -12.0161,-34.3545 l -1.6217,-19.1072 -0.013,-0.026 c -1.3025,-15.4262 -1.9282,-30.827 -1.9282,-46.1255 0.076,-97.2482 24.9516,-190.6737 61.945,-273.22418 37.1721,-82.59007 86.3986,-154.49677 139.507,-209.38854 52.9041,-54.64765 108.758,-92.7341 163.118,-120.69696 54.3854,-28.01782 106.9703,-46.31976 155.0859,-63.29506 l -0.025,0.015 c 33.0475,-11.633 65.6353,-23.1356 97.4953,-36.6295 11.4032,-4.7429 23.5087,-11.2585 29.9701,-16.2302 1.609,-1.2039 2.8604,-2.2775 3.6904,-3.0558 l 1.1237,-1.1388 0.051,-0.064 15.7192,12.4356 -19.0137,-4.8273 c 1.3024,-5.102 3.2434,-7.5533 3.2945,-7.6083 l 15.7192,12.4356 -19.0137,-4.8273 19.5501,4.9666 h -20.278 c 0,-0.639 0.064,-2.3606 0.7151,-4.9563 l 19.5629,4.9563 h -20.278 3.8308 l -3.8181,0.2953 -0.013,-0.2953 h 3.8308 l -3.8181,0.2953 c 0,-0.1649 -0.2681,-2.3261 -1.4046,-5.8907 -1.66,-5.3679 -5.261,-13.7494 -11.0584,-23.7094 -5.7846,-9.9651 -13.7017,-21.5329 -23.6109,-33.9187 -46.4937,-58.1278 -95.8097,-105.8509 -147.4369,-145.7995 -77.4216,-59.8801 -160.232,-102.4512 -246.8222,-134.6969 -86.5263,-32.2367 -176.7685,-53.9588 -267.6875,-71.7265 -135.9316,-26.619596 -304.8342,-40.094296 -515.6207,-40.080196 -141.9971,0 -284.4539,5.727 -423.1693,11.3237 -52.7765,2.1369 -104.5441,4.2035 -154.8178,5.9302 h -0.025 c -157.7291,5.318 -331.7522,15.517 -500.5015,25.406696 -148.2032,8.6922 -301.8333,17.714 -444.188,23.3657 -112.9081,4.4732 -221.8705,6.7341 -323.9768,6.7341 -278.7895,-0.024 -519.5997,-16.8194 -717.4176,-50.713696 h -0.02 c -90.2997,-15.5158 -167.7098,-35.6952 -240.1667,-54.5365 l -0.05,-0.026 c -21.1142,-5.5072 -41.9145,-10.9134 -62.5999,-16.1152 l 0.1,0.024 c -12.1808,-3.0546 -23.8828,-6.6945005 -36.6881,-10.5785005 l -0.065,-0.015 c -13.2126,-4.0387 -29.3644,-8.9465 -45.2865,-13.1501 -15.7923,-4.2086995 -31.6294,-7.5788995 -41.3712,-8.6920995 l 8.6095,-72.6448 72.9455,-4.5631 v 0 l -72.9455,4.5631 69.9281,-21.268104 -69.9281,21.268104 -72.946,4.5631 v 0 c -1.3567,-21.652404 6.9734,-42.790504 22.7209,-57.708004 15.7474,-14.8975 37.3059,-22.0467 58.8296,-19.5005 21.3639,2.5961 41.9298,7.4138 61.4078,12.5111 19.3548,5.1023 37.3369,10.609 50.6899,14.6729 l -0.065,-0.015 c 12.8692,3.9242 23.3146,7.0693 29.5194,8.602 l 0.1,0.025 c 21.5141,5.3969 42.7587,10.9285 63.9331,16.4502 l -0.055,-0.01 c 72.4965,18.876704 144.9584,37.663304 228.1098,51.936604 h -0.014 c 186.2703,31.9819 419.9079,48.6465995 692.7264,48.6210995 99.961,0 207.0591,-2.2263995 318.1922,-6.6344995 140.3755,-5.5621 293.2266,-14.5329 441.4297,-23.2199 168.7877,-9.88 343.7813,-20.1595 504.1154,-25.5763 h -0.026 c 49.6735,-1.6975 101.1603,-3.7594 153.8984,-5.8912 138.7409,-5.6015 283.1642,-11.4377 429.0688,-11.4526 216.9542,0.05 394.5528,13.6743 543.6625,42.8053 126.5588,24.793 258.9915,57.9474 387.6701,119.1247 64.3073,30.584196 127.5931,68.237296 188.1972,115.130896 60.617,46.8898 118.5141,103.0252 172.1716,170.1327 19.6267,24.5939 35.627,48.9909 47.5792,73.9542 5.9634,12.511 10.9052,25.2009 14.5445,38.4813 3.6137,13.2804 5.9634,27.1935 5.9889,42.2108 0,9.905 -1.0726,20.3251 -3.767,30.9689 -4.9673,19.5301 -14.2763,35.3667 -24.1727,47.74737 -7.4701,9.35674 -15.4128,17.02515 -23.3555,23.65961 -11.9395,9.94465 -23.9812,17.63862 -35.6014,24.16827 -11.6075,6.49003 -22.8447,11.74801 -33.1242,16.10622 -37.287,15.78032 -72.9777,28.28238 -105.9487,39.89875 l -0.025,0.0102 c -48.205,16.92418 -93.5879,33.09047 -136.5957,55.31736 -43.0588,22.27546 -84.049,50.21404 -125.1924,92.54495 -39.8792,41.003 -81.0737,100.43318 -111.0565,167.44101 -30.1617,67.0593 -49.1883,141.5196 -49.1116,213.2704 0,11.3109 0.4597,22.5579 1.4174,33.7282 l -0.013,-0.026 0.038,0.3834 0.2043,0.3068 c 8.0448,12.0905 22.8447,33.0892 41.8713,59.6091 19.0777,26.5838 42.5736,58.9956 68.8789,95.28 55.7899,76.9653 126.0351,173.8429 192.2324,267.9469 33.1114,47.0585 65.2011,93.4397 94.0603,136.4339 28.8718,43.0198 54.4748,82.5758 74.8549,116.5597 116.5858,194.4964 210.3013,385.9639 278.5672,544.7 34.133,79.3808 61.8811,150.5691 82.9764,210.1272 10.5476,29.7918 19.4225,56.6695 26.6373,80.3905 7.202,23.7465 12.7439,44.2212 16.6514,61.948 2.9881,13.6114 6.8317,34.1755 10.0752,59.3918 3.2307,25.178 5.8228,54.7653 5.8357,86.0396 -0.013,22.3151 -1.3153,45.4993 -5.0568,68.9135 -2.8348,17.5734 -7.036,35.313 -13.6251,53.0142 -4.9546,13.2536 -11.2883,26.5199 -19.7034,39.3645 -6.3081,9.6112 -13.8294,18.9666 -22.7169,27.5807 -13.2931,12.9214 -29.9063,24.015 -48.4859,31.2745 -18.5797,7.336 -38.7683,10.8124 -58.9313,10.774 -1.443,0 -2.8732,-0.013 -4.3162,-0.051 -27.4545,-0.6646 -54.577,-5.5084 -81.9548,-12.8701 -47.8219,-12.998 -96.7036,-33.9328 -146.0323,-59.3663 -73.8589,-38.2015 -148.4202,-86.7425 -214.975,-135.7692 -33.2646,-24.5134 -64.4733,-49.1418 -92.4769,-72.7349 -28.0291,-23.6187 -52.8147,-46.1511 -73.5014,-66.8814 -235.5466,-236.1359 -429.0688,-534.8843 -561.4121,-865.2396 -41.0669,-102.6161 -72.2883,-221.3995 -93.5623,-348.235 -21.2485,-126.8227 -32.4475,-261.6334 -32.4475,-395.7539 0,-53.9601 1.8134,-107.8051 5.5421,-160.9587 l 0.051,-0.6288 -0.447,-0.4448 -0.038,-0.04 c -16.5748,-16.5756 -33.5072,-31.019 -55.8923,-47.708 -22.321,-16.6456 -50.0565,-35.3514 -86.4241,-59.06088 l -0.076,-0.0498 c -6.9339,-4.53843 -14.0209,-9.28134 -21.3251,-14.16356 l -0.076,-0.0498 c -31.3237,-21.03829 -65.9802,-43.99368 -100.343,-60.79901 -17.1366,-8.41225 -34.0818,-15.24608 -49.9799,-19.79983 -15.9108,-4.57294 -30.6852,-6.84917 -43.9655,-6.83384 -17.4815,0.0639 -31.4002,3.60416 -44.0931,10.10952 -5.3377,2.77085 -8.5939,5.30144 -10.969,7.60323 -3.4606,3.49936 -5.5675,6.57056 -7.9171,13.06058 -2.2347,6.41464 -4.1118,16.49987 -4.0991,30.72861 -0.026,16.23019 2.4646,37.53305 7.8661,62.74938 8.032,37.8576 22.4233,84.3282 41.3605,137.3553 18.9116,53.0654 42.2927,112.7895 67.9594,178.3161 l 0.013,0.026 c 13.2036,33.741 26.7777,68.3767 40.1728,103.3446 33.2008,86.7298 65.5844,158.0716 89.3357,221.5532 v 0.013 c 20.1758,54.139 39.7132,101.8365 54.845,141.61 7.5851,19.9634 14.0849,37.8691 19.1799,54.7141 2.5411,8.4608 4.7503,16.666 6.4997,25.2419 1.7112,8.6269 3.1157,17.5094 3.1669,28.7308 -0.038,7.3105 -0.5874,15.7457 -3.4095,26.1492 -1.4302,5.1762 -3.4861,10.8381 -6.5635,16.781 -3.0648,5.9303 -7.2149,12.1161 -12.5142,17.8674 l -0.026,0.026 c -4.7119,5.0995 -9.1812,8.7037 -13.1909,11.5282 -7.7893,5.419 -13.957,8.1669 -19.3714,10.3651 -10.0495,3.9365 -17.8517,5.6874 -25.6922,7.285 -13.523,2.6073 -26.8288,4.0259 -40.8242,5.1762 -20.8526,1.6742 -42.8162,2.4794 -62.3153,3.0291 -9.7304,0.2811 -18.8095,0.4856 -26.6117,0.6773 -7.7639,0.1917 -14.3401,0.3834 -18.4775,0.5623 -9.5388,0.4218 -21.9508,0.7541 -36.3675,0.997 -14.3786,0.2428 -30.6214,0.3834 -47.1451,0.3834 -25.437,-0.013 -51.3846,-0.3323 -72.8119,-1.2014 -10.7902,-0.4602 -20.2908,-0.9969 -29.3188,-1.9427 -4.6226,-0.5112 -8.9898,-1.0353 -14.8254,-2.2238 -2.9881,-0.6391 -6.3337,-1.3804 -11.2755,-3.0547 -2.5029,-0.869 -5.4271,-1.9553 -9.2452,-3.8085 -3.8053,-1.9043 -8.5556,-4.4221 -14.8381,-9.4961 -5.4782,-4.5371 -8.5556,-8.0135 -11.1351,-11.0042 -4.6736,-5.5468 -7.3553,-9.6366 -9.9603,-13.6753 -4.4054,-6.94 -8.0064,-13.5092 -11.7351,-20.5258 -5.5292,-10.4418 -11.0329,-21.6377 -16.2684,-32.3096 -5.1972,-10.6333 -10.139,-20.7556 -13.8549,-27.9895 l 64.9968,-33.4598 63.4518,36.2972 c -13.0632,22.775 -33.9286,51.6209 -67.2953,76.326 -16.6515,12.2822 -36.4443,23.3248 -59.1486,31.2743 -22.6786,7.9624 -48.1921,12.7296 -75.5444,13.1514 h 0.013 c -5.1078,0.077 -10.1772,0.1278 -15.2085,0.1278 -42.1777,0 -81.942,-2.978 -120.9273,-9.2916 -38.9854,-6.3009 -77.0642,-15.912 -115.9601,-28.6287 -75.8766,-24.7818 -149.0076,-57.1169 -219.4699,-98.6923 -70.475,-41.5628 -138.23,-92.3404 -203.6356,-153.5983 -119.0644,-111.5126 -214.9124,-245.5053 -294.6581,-392.905 l -0.026,-0.038 c -14.7104,-27.2484 -28.3993,-55.1998 -42.4969,-83.9435 l 0.013,0.038 c -25.3857,-51.8257 -51.3718,-104.431 -81.827,-151.4537 -30.4426,-47.1083 -64.9714,-88.19569 -106.7405,-119.25404 l -0.013,-0.0102 c -26.844,-20.00432 -52.9923,-34.20366 -78.1968,-43.39426 -25.2504,-9.17653 -49.547,-13.46957 -73.8691,-13.49513 -35.7942,0.0754 -67.8675,9.28134 -98.4148,26.38062 -22.8203,12.84587 -44.549,30.33879 -64.4209,51.76178 -29.8143,32.07693 -55.2538,73.03013 -73.5755,117.78683 -18.3753,44.7183 -29.6189,93.1316 -32.4473,139.2571 -1.761,28.4498 -2.6433,57.0785 -2.6433,85.8862 0.01,197.8066 41.6056,403.8824 125.905,617.8692 84.2788,213.9359 211.3598,435.5657 381.5585,662.9468 89.6931,119.8829 179.1564,234.4617 278.3246,334.6751 99.2192,100.2773 207.7729,186.1891 337.0132,250.8849 h -0.013 c 5.0567,2.5434 37.3637,18.353 79.0689,32.9614 20.8271,7.2977 43.9782,14.2888 66.8229,19.286 22.8192,5.0356 45.3574,7.9751 64.2818,7.9368 20.1503,0 34.797,-3.1057 45.5745,-7.1444 8.1086,-3.0545 14.1358,-6.646 19.116,-10.5824 7.3935,-5.9047 12.7056,-12.7807 16.8557,-21.1775 4.1118,-8.3331 6.7423,-18.2253 7.5979,-28.1815 0.5747,-6.5437 0.8811,-13.1769 0.8811,-19.8101 0,-16.9727 -2.0304,-33.8943 -6.7295,-50.0236 -3.5372,-12.116 -8.5173,-23.8232 -15.5406,-35.3258 -10.5732,-17.2028 -25.6667,-34.265 -49.5713,-50.9694 -23.8917,-16.6276 -56.8499,-32.7313 -102.169,-45.6398 l -0.038,-0.013 c -9.5645,-2.7223 -19.4607,-5.4701 -29.6125,-8.2819 h -0.026 c -32.1409,-8.9081 -62.0343,-17.5095 -90.1017,-27.1845 -21.0442,-7.2594 -41.0797,-15.1323 -60.2467,-24.5006 -14.3657,-7.0293 -28.2462,-14.9278 -41.4882,-24.1682 -19.8311,-13.8032 -38.3086,-30.9038 -53.2617,-51.6851 -14.9914,-20.7175 -26.0626,-44.8474 -32.5623,-70.4216 l 0.013,0.026 c -3.9713,-15.4263 -6.2188,-31.351 -6.2188,-47.5059 -0.013,-17.8674 2.8221,-36.0287 8.7216,-53.2187 5.8613,-17.2156 14.7233,-33.3193 25.6923,-47.4548 l 0.013,-0.026 c 20.3036,-26.1621 46.8641,-45.2946 75.8637,-57.922 29.0762,-12.6145 60.8596,-18.9154 93.639,-18.9665 h 0.064 c 38.9726,0 77.1917,5.9686 113.8658,16.6532 64.2052,18.7365 123.6474,51.6084 177.3177,93.1839 80.4608,62.5104 148.4585,144.7158 199.8303,234.6278 51.2058,90.0144 85.939,187.7867 96.1545,283.9486 v 0.026 c 1.6473,15.6564 2.8476,33.805 2.8476,53.6917 -0.076,41.1154 -4.9162,89.976 -23.7768,139.7185 -9.4495,24.82 -22.5765,49.7935 -40.5305,73.131 -17.9284,23.3248 -40.7476,44.8603 -68.3169,62.3826 l 0.025,-0.013 c -27.0969,17.2923 -57.6671,28.9866 -90.5104,36.3227 -32.9198,7.3489 -68.3169,10.5057 -106.9191,10.5185 -68.2915,-0.064 -134.6419,-9.9051 -194.5182,-19.2733 -178.3137,-28.1048 -348.9274,-92.9795 -501.8807,-170.0343 -152.9534,-77.131 -288.3105,-166.6725 -395.3101,-245.6828 -293.0211,-216.4541 -544.3917,-472.2467 -728.0124,-742.213 -106.3663,-156.4484 -189.464,-316.0408 -248.3877,-477.691 -58.925,-161.6499 -93.6267,-325.3577 -103.2287,-489.4617 v 0 c -1.4766,-25.293 -2.3296,-51.5189 -2.3296,-78.4606 0.01,-57.7432 3.8908,-118.7198 13.9917,-180.6039 15.1742,-92.7367 44.3487,-187.81218 96.4101,-275.49025 26.0179,-43.78407 57.7667,-85.6306 96.0255,-123.88191 38.2384,-38.25259 82.9624,-72.87547 134.4644,-102.3963 h 0.01 c 127.2854,-72.93938 275.8665,-110.74718 429.9691,-110.75748 170.5127,0.036 341.904,44.4883 496.7013,128.12644 3.3456,1.8123 6.372,3.57987 10.1518,5.80115 12.8972,7.65435 32.971,20.14492 53.3256,33.5493 10.1645,6.70986 20.3035,13.58459 29.6763,20.28423 4.6993,3.34598 9.2069,6.67024 13.5358,9.99577 4.3288,3.34471 8.4534,6.64468 12.7056,10.39837 l -0.4086,-0.35403 1.6345,1.41738 1.2641,-1.8417 -0.013,0.0153 c 1.3025,-1.90688 2.3879,-3.36004 3.486,-4.8426 2.0432,-2.72612 4.1374,-5.38195 6.4742,-8.29722 8.0704,-10.0699 19.1032,-23.19567 29.8169,-35.54181 5.3504,-6.16029 10.5604,-12.05219 15.3106,-17.26927 2.3752,-2.62131 4.6482,-5.07265 6.8701,-7.39873 2.2729,-2.36571 4.3672,-4.52309 7.1381,-7.12907 l -0.025,0.0256 c 44.8082,-42.05229 98.0572,-74.21872 156.2734,-95.75551 58.2418,-21.5623 121.4893,-32.5664 186.9331,-32.5664 25.1177,0 50.4651,1.6231 75.6211,4.9077 l -0.064,-0.01 c 28.31,3.6796 76.4383,11.8222 131.4112,30.1995 27.4928,9.2162 56.7094,21.01405 86.0155,36.37516 29.2933,15.37133 58.6888,34.33787 86.1688,58.07288 l 1.277,1.1132 0.881,-1.45828 c 6.4358,-10.68337 13.8549,-19.90975 21.9125,-28.35651 14.1231,-14.72335 30.3149,-27.15895 48.4859,-38.40724 27.2374,-16.76951 59.0591,-30.71331 95.0181,-41.26761 35.9334,-10.5198 75.9658,-17.5236 119.063,-19.401 h -0.026 c 11.1478,-0.4896 22.3851,-0.7286 33.5329,-0.7286 107.9919,-0.015 218.6014,21.7272 333.9358,64.95152 115.4238,43.24984 235.8659,107.77697 366.0129,194.23704 l 69.2492,46.00024 -40.4284,60.94726 -65.2522,-32.94478 c 1.1492,-2.25196 19.1287,-37.80782 51.6271,-83.9576 16.2812,-23.08065 36.2016,-48.83628 59.8125,-74.45772 23.6364,-25.60227 50.9248,-51.12275 82.4528,-73.4391 50.2609,-35.54692 109.486,-68.85086 176.1812,-96.67446 66.6697,-27.7979 140.8223,-50.0747 220.6829,-63.01 7.6107,-1.2282 14.519,-1.9261 21.606,-2.5804 12.2843,-1.0992 24.9389,-1.9568 37.0572,-3.1211 9.0536,-0.8678 17.7242,-1.9017 25.0283,-3.1402 5.4526,-0.9087 10.1262,-1.9567 13.3441,-2.8756 2.4007,-0.6634 3.9841,-1.2781 4.3417,-1.457 l 0.089,-0.026 11.9523,24.9977 -19.9461,-18.5576 c 4.9674,-5.2273 7.9427,-6.3494 7.9938,-6.4401 l 11.9523,24.9977 -19.9461,-18.5576 34.0564,31.6974 -41.5521,-20.8082 c 2.2986,-4.6138 5.0696,-8.2921 7.4957,-10.8892 l 34.0564,31.6974 -41.5521,-20.8082 44.3869,22.2115 -49.1372,-7.0153 c 0.7151,-5.1762 2.439,-10.6182 4.7503,-15.1962 l 44.3869,22.2115 -49.1372,-7.0153 v 0.026 l 50.8738,7.2595 h -51.3845 c -0.013,-2.2865 0.1532,-4.743 0.5107,-7.2595 l 50.8738,7.2595 h -51.3845 43.4292 l -40.7476,15.6064 c -1.0982,-2.8909 -2.6688,-8.1182 -2.6816,-15.6064 h 43.4292 l -40.7476,15.6064 18.1583,-6.9552 -16.4345,10.5939 c -0.025,-0.074 -0.715,-1.0582 -1.7238,-3.6387 l 18.1583,-6.9552 -16.4345,10.5939 -0.2937,-0.4039 c -0.7916,-1.1132 -3.2689,-4.0144 -6.9721,-7.5188 -5.5675,-5.3015 -13.8294,-12.0024 -23.2533,-18.6471 -9.4367,-6.6702 -20.0609,-13.3801 -30.5319,-19.3857 -8.811,-5.0471 -19.1032,-10.4789 -34.8864,-16.6941 -23.5598,-9.2264 -59.4294,-19.9008 -115.5769,-28.3323 -56.0966,-8.4224 -132.2796,-14.5086 -235.2403,-14.4933 -38.1681,0 -70.028,0.8282 -89.5654,1.328 h -0.026 l -11.9395,0.2939 -0.3448,0.01 c -15.4129,0.3093 -39.5727,1.2436 -70.3729,2.7019 -92.6301,4.3927 -245.9921,13.444 -427.9834,24.1529 -231.2178,13.6498 -505.3412,29.8301 -758.9312,42.6351 -126.8142,6.4057 -248.495,11.9627 -357.2402,15.9516 -108.7708,3.9888 -204.5167,6.4056 -280.0358,6.4798 h 0.051 l -11.8885,0.015 h -0.1149 c -111.8866,-0.015 -233.8918,-1.3433 -359.6665,-11.0438 -125.7835,-9.7146 -255.4147,-27.7725 -382.7549,-61.7064 v 0 c -86.908,-23.1599 -165.65,-50.2639 -241.0004,-83.8132 -75.3543,-33.5391 -147.1586,-73.4545 -220.3242,-121.5967 -47.6507,-31.3524 -89.591,-62.3199 -125.7747,-93.1495 -36.1785,-30.8475 -66.6458,-61.496796 -91.2072,-92.979496 l -0.015,-0.01 c -14.3108,-18.4425 -26.6614,-38.622 -37.4556,-59.0468005 -5.3673,-10.1989995 -10.2705,-20.4234995 -14.6151,-30.5232995 -4.3447,-10.1198 -8.1307,-20.0397 -11.2482,-30.2643 -1.5363,-5.0723 -2.6836,-11.4227 -3.0128,-16.7147 l 72.9459,-4.5631"
           style="display:inline;fill:#000000;fill-opacity:1;fill-rule:nonzero;stroke:none;stroke-width:1.27751"
           id="path8956"
           inkscape:label="cal outline" /><path
           d="m -3396.8139,2860.8554 c -29.8169,16.4616 -109.3966,-42.2657 -109.3966,-42.2657 -152.3914,-121.1225 -266.9341,-271.1805 -365.6425,-444.0648 -260.8049,-456.8073 -236.747,-815.7399 -236.747,-815.7399 0,0 136.0465,155.0168 168.1491,205.7945 43.7611,69.233 208.4241,300.985 301.0671,464.3733 99.3341,175.1849 213.4809,417.66 241.7781,501.6291 0,0 45.8172,105.4279 0.7918,130.2735 z m -1925.006,-1081.8082 c -75.6723,-2.326 -256.144,-95.5611 -400.4524,-362.7158 -33.6731,-62.3442 -138.0769,-321.6655 -81.5078,-451.10579 17.0856,-39.13574 48.0006,-65.97518 87.0371,-75.51085 10.0879,-2.49096 20.495,-3.7294 30.8639,-3.7294 127.2994,-0.0243 216.4562,178.23564 304.0296,376.87564 6.8445,15.4774 12.9866,29.4211 18.3626,41.1154 22.3978,48.9756 116.9434,267.3464 135.6124,349.5901 11.6331,51.2761 15.5022,128.8421 -93.9454,125.4807 z M -7738.9528,-88.811036 c 8.2403,27.144 29.6841,68.7365 51.0232,96.1343995 41.1315,52.7600005 108.2622,109.9535965 199.5094,169.9831965 140.7138,92.5705 272.2999,151.1571 439.9791,195.8537 243.2403,64.848 501.0596,70.2798 723.6133,70.2798 l 11.8757,-0.01 c 296.2018,-0.2697 929.5575,-37.643 1391.9932,-64.9425 242.6975,-14.2876 434.3936,-25.6113 501.1655,-26.9635 l 11.9395,-0.2952 c 19.5374,-0.4984 52.2274,-1.3573 91.417,-1.3573 282.1938,0 378.5526,44.2225 422.0711,69.2202 47.3623,27.1986 97.0357,66.0404 93.1538,93.2236 -5.6569,39.5959 -104.7868,36.5157 -141.9077,42.5456 -147.654,23.914 -274.9279,82.54028 -366.3833,147.22334 -104.7994,74.08837 -170.8052,205.04951 -170.8052,205.04951 l -69.2491,-46.01047 c -253.5645,-168.48528 -463.1252,-246.95613 -659.5204,-246.97147 -10.1135,0 -20.3164,0.21983 -30.3404,0.65437 -113.1253,4.90778 -200.3795,51.10741 -225.0247,92.08101 l -45.6254,75.83931 -66.9379,-57.85689 c -89.8208,-77.66823 -215.358,-101.01726 -265.172,-107.47279 -21.9763,-2.85009 -44.2464,-4.27897 -66.1972,-4.27897 -114.5043,0 -218.6398,38.53249 -293.2139,108.52208 -11.0073,10.31402 -51.5633,57.94636 -58.8547,68.56583 l -47.6814,69.31988 -63.3879,-55.19595 c -22.2956,-19.71037 -91.7363,-62.93465 -105.7317,-70.49826 -144.459,-78.06699 -304.2224,-119.33454 -461.981,-119.33454 -142.1657,0 -278.2811,34.94111 -393.6411,101.07222 -273.8463,157.02223 -315.337,463.56573 -301.929,693.08123 18.346,313.344 132.434,626.343 339.0756,930.2805 178.1847,262.0678 424.0325,512.5948 710.9829,724.5114 208.9848,154.3396 528.7464,349.4239 865.1342,402.3105 59.1867,9.3043 122.0766,18.3785 183.1788,18.3785 69.0703,0 120.8125,-11.5537 158.1505,-35.3769 100.7516,-64.1974 103.6119,-190.2022 96.3461,-259.6141 -26.7394,-254.9235 -262.1839,-562.8742 -514.4842,-562.8869 -46.6471,0.038 -88.3013,18.2124 -111.7972,48.5537 -18.4647,23.8488 -23.5725,52.5159 -15.1957,85.1706 21.3634,83.2662 99.7555,110.5785 226.3526,145.6359 10.1773,2.8118 20.2653,5.6108 30.1999,8.448 201.7713,57.4748 234.2186,183.1601 225.9312,278.4656 -5.6186,64.7342 -51.1164,133.9032 -161.9559,133.9032 -104.1226,0 -228.9575,-60.9639 -242.838,-67.9038 -275.7452,-137.9804 -460.6224,-365.924 -641.1579,-607.1339 -371.9699,-497.0024 -546.6634,-973.0828 -519.2689,-1415.1028 12.0416,-194.2153 146.1471,-403.80322 341.8044,-403.80322 66.302,0 132.1454,23.99829 195.7121,71.35202 102.0541,75.99524 159.6702,193.4983 210.544,297.151 14.0848,28.7309 27.4033,55.8899 41.169,81.3746 76.9236,142.1723 168.3534,269.4552 280.3165,374.3079 123.5452,115.678 253.3347,189.6015 395.8681,236.1743 76.0809,24.8711 144.3084,35.543 228.2042,34.1882 79.1072,-1.2781 121.0935,-51.276 139.7241,-83.9051 13.9699,27.1973 35.7036,75.3548 44.2465,82.3459 7.8276,6.4158 143.8103,5.7768 186.2818,3.8853 34.9374,-1.5592 143.0187,-1.0353 156.0181,-15.1451 15.349,-16.666 -27.9397,-107.2171 -75.9404,-235.9441 -22.2701,-59.7369 -55.0366,-132.0628 -89.093,-220.9653 -13.2547,-34.5973 -26.7777,-69.0668 -39.9941,-102.8462 -108.3367,-276.5587 -179.8971,-459.28798 -59.7359,-521.48903 23.4449,-12.14165 49.5714,-18.29299 77.677,-18.29299 85.9134,0 172.0439,57.68306 234.9338,99.79415 7.3553,4.90779 14.2891,9.56123 20.7377,13.76479 73.6163,48.01704 115.462,77.65798 154.1026,116.35408 l 24.0451,24.029 -2.388,33.9186 c -21.5422,306.8017 22.6915,641.1572 115.3983,872.6153 128.7934,321.6132 317.361,612.3482 545.2842,840.7646 114.2617,114.5277 401.2569,322.5077 558.9349,326.1759 133.5054,3.1056 95.9886,-232.1868 83.832,-287.4377 -26.3946,-120.0234 -166.9616,-492.9765 -396.1235,-875.2596 -77.4088,-129.1359 -246.0559,-361.7188 -357.6361,-515.6239 -52.5977,-72.5687 -94.1497,-129.8645 -112.3973,-157.2663 l -10.6243,-15.9375 -1.6345,-19.1071 c -15.4639,-182.2283 78.8263,-368.14772 179.1437,-471.5818 94.0603,-96.99263 193.6754,-132.03471 289.9959,-165.93421 33.0092,-11.61764 67.1549,-23.61359 101.7221,-38.26153 29.7019,-12.5762 66.6313,-33.589 73.8972,-62.2816 7.1764,-28.3373 -11.2627,-72.7745 -50.5673,-121.9405 -200.2773,-250.4618 -457.1874,-329.831196 -704.9928,-378.292996 -142.5206,-27.8785005 -315.7648,-41.4222005 -529.6416,-41.4477005 -143.9509,0 -287.3909,5.7871 -426.1063,11.3824 -52.7764,2.137 -104.3908,4.2087 -154.3708,5.9073 -159.0316,5.3666005 -333.54,15.6052005 -502.3148,25.4962005 -148.2031,8.6921 -301.4374,17.6884 -442.7961,23.2889 -112.027,4.449 -220.0572,6.6856 -321.0909,6.6856 -275.8014,0 -513.026,-16.7197 -705.072,-49.6555 -86.7281,-14.90230045 -161.6647,-34.3775 -234.142,-53.2441 -21.1438,-5.5218 -42.1637,-10.9934 -63.2641,-16.2804 -9.1928,-2.3016 -20.2665,-5.6914 -33.0999,-9.6005 -26.567,-8.1178 -68.2776,-20.8186 -99.3784,-24.513 v 0"
           style="display:inline;fill:#003262;fill-opacity:1;fill-rule:nonzero;stroke:none;stroke-width:1.27751"
           id="path8958"
           inkscape:label="cal fill" /></g></g></g></svg>
