<?xml version="1.0" encoding="UTF-8" standalone="no"?>
<!-- Created with Inkscape (http://www.inkscape.org/) -->

<svg
   width="1000.0001"
   height="1000.0001"
   viewBox="0 0 264.58333 264.58333"
   version="1.1"
   id="svg5"
   xml:space="preserve"
   inkscape:version="1.2.1 (9c6d41e4, 2022-07-14)"
   sodipodi:docname="logo_round_black.svg"
   inkscape:export-filename="logo_round_black.png"
   inkscape:export-xdpi="96"
   inkscape:export-ydpi="96"
   xmlns:inkscape="http://www.inkscape.org/namespaces/inkscape"
   xmlns:sodipodi="http://sodipodi.sourceforge.net/DTD/sodipodi-0.dtd"
   xmlns="http://www.w3.org/2000/svg"
   xmlns:svg="http://www.w3.org/2000/svg"><sodipodi:namedview
     id="namedview7"
     pagecolor="#ffffff"
     bordercolor="#000000"
     borderopacity="0.25"
     inkscape:showpageshadow="2"
     inkscape:pageopacity="0.0"
     inkscape:pagecheckerboard="true"
     inkscape:deskcolor="#d1d1d1"
     inkscape:document-units="mm"
     showgrid="false"
     showguides="false"
     inkscape:zoom="0.30774996"
     inkscape:cx="-596.26328"
     inkscape:cy="571.89284"
     inkscape:window-width="1280"
     inkscape:window-height="662"
     inkscape:window-x="0"
     inkscape:window-y="26"
     inkscape:window-maximized="0"
     inkscape:current-layer="layer1" /><defs
     id="defs2"><rect
       x="467.71653"
       y="695.90551"
       width="340.15748"
       height="69.448818"
       id="rect58318" /><rect
       x="80.787401"
       y="649.13385"
       width="588.18897"
       height="77.952755"
       id="rect58155" /></defs><g
     inkscape:label="Layer 1"
     inkscape:groupmode="layer"
     id="layer1"><rect
       style="display:none;fill:#000000;fill-opacity:1;stroke-width:0.211666"
       id="rect3993"
       width="211.66667"
       height="211.66667"
       x="26.458334"
       y="26.458334"
       inkscape:label="square_background" /><circle
       style="fill:#000000;fill-opacity:1;stroke-width:0.265214"
       id="path367"
       cx="132.29167"
       cy="132.29167"
       r="132.29167"
       inkscape:label="circle_background" /><path
       id="path248-8"
       style="display:inline;fill:#fdb515;fill-opacity:1;stroke-width:0.265;stroke-dasharray:none"
       class="UnoptimicedTransforms"
       d="m 117.22961,162.34126 c 7.03605,4.33609 13.90273,8.94157 20.89253,13.35184 4.41103,2.78318 8.87207,5.48662 13.28117,8.27289 4.67386,2.95358 13.96386,8.95144 13.96386,8.95144 -5.98181,-1.17235 -10.93596,-2.94945 -21.92803,-2.38808 -5.30979,0.16759 -10.11233,1.10043 -14.62014,3.93888 -2.89333,1.69772 -5.12686,3.67378 -7.04132,6.44131 -2.80856,3.96176 -5.38461,8.69306 -7.96224,12.80554 -4.66139,7.78775 -9.6825,15.78511 -14.46924,23.49327 -0.541345,0.87986 -0.869128,0.89074 -1.685923,0.50131 -2.750978,-1.60471 -5.403022,-3.17892 -8.163267,-4.80649 -3.417679,-2.14462 -6.724241,-4.37535 -10.343459,-6.60105 -0.499398,-0.28288 -0.631003,-1.03794 -0.291111,-1.55081 2.048546,-3.20146 4.10207,-7.00871 6.131266,-10.22527 4.1135,-6.77459 8.044973,-13.25737 12.099051,-20.06732 5.085283,-8.3495 6.253863,-9.62305 6.536203,-15.53668 0.15565,-3.2601 -0.37899,-7.51422 -1.69726,-10.97247 -5.063631,-13.2835 -9.488581,-17.54744 -11.064904,-21.26562 6.013629,4.03747 17.661764,10.29514 26.362814,15.65731 z m 4.1846,-119.789168 c 1.2127,-0.921007 2.6815,-1.68686 4.05639,-2.507719 1.37488,-0.820859 2.72987,-1.725305 4.1009,-2.517444 3.70037,-1.943434 7.30708,-3.983608 11.14515,-5.642342 6.56484,-2.481059 13.78175,-4.518012 20.72695,-5.47971 5.05098,-0.511845 10.12621,-0.598218 15.22306,-0.442435 3.24546,0.06603 6.93856,0.660518 10.12242,1.411993 4.73338,1.04377 9.65007,2.587921 14.05865,4.647552 8.65836,3.946434 16.53317,9.477508 23.01861,16.444937 2.46037,2.707573 4.70908,5.720988 6.77979,8.734426 0.79852,1.469614 1.89552,2.876067 2.66173,4.372251 2.93655,5.283939 5.4153,10.924014 7.21298,16.665709 1.28373,3.995894 1.95929,8.182641 2.47477,12.342769 0.71576,5.245 1.08713,10.603731 0.76341,15.895271 -0.4241,7.81092 -1.884,16.01235 -4.22943,23.47303 -2.43863,7.79502 -5.59786,15.09847 -9.81029,22.07994 -3.55194,5.55127 -7.60671,11.24049 -12.10912,16.08329 -5.44871,5.98105 -11.86201,11.21547 -18.59858,15.67884 -1.06185,0.75023 -2.34578,1.50908 -3.50199,2.09073 -3.42792,2.11495 -7.12428,3.79971 -10.74062,5.55776 -2.15818,0.87265 -4.56423,1.69722 -6.82568,2.17435 -2.38964,0.3175 -5.02731,0.51564 -7.32344,-0.32004 -2.33907,-0.85131 -4.13174,-2.14531 -6.24072,-3.43802 -4.18314,-2.56407 -8.42585,-5.03063 -12.594,-7.61899 -4.17555,-2.59294 -8.27216,-5.31119 -12.43524,-7.9241 -6.29573,-3.95145 -12.64896,-7.61057 -18.96796,-11.72468 -9.50207,-6.1865 -21.483669,-13.02106 -30.362094,-18.11281 -2.492562,-1.44455 -4.053132,-2.98415 -4.693955,-4.32676 -3.814255,-11.19903 -4.534641,-27.95347 -1.986007,-38.741 2.030726,-8.595394 5.204439,-17.837604 10.101202,-26.793527 -16.400636,28.539857 -13.337393,53.221587 -8.930884,65.690367 0.976611,2.96025 3.123471,4.21468 5.119429,5.79112 0.399798,1.83866 1.972724,3.76097 2.447949,4.824 3.362566,6.74676 7.392624,12.7254 8.80704,19.81308 0.765,3.83343 0.72231,7.94666 -0.28531,11.72357 -1.247826,4.67726 -4.915499,9.5333 -6.925414,12.76491 -5.966066,9.30086 -11.675321,18.33436 -17.5795,27.67351 -0.715547,1.09636 -1.006495,2.779 -0.41504,4.04506 0.956444,2.40852 2.97443,3.09509 5.035936,4.4086 5.024566,3.1532 10.206173,6.29186 15.363939,9.22319 1.8145,0.96685 3.584921,0.86351 5.243329,-0.57308 0.95289,-1.0633 1.3304,-2.2047 2.13647,-3.38002 5.47393,-8.96817 10.71268,-17.84481 16.35676,-26.70679 2.08927,-3.2236 3.99068,-6.77815 6.46469,-9.73273 1.56605,-1.7224 3.78182,-3.21211 5.8027,-4.27968 2.9389,-1.43095 6.23904,-2.18651 9.41367,-2.87693 4.64507,-0.66974 9.62831,-0.44663 14.32783,-0.25894 3.06533,0.13613 7.00339,0.5597 10.08141,0.89444 2.42441,0.53354 0.19309,1.00264 6.42202,2.50647 4.51762,1.08515 8.47991,-0.26027 12.64744,-2.02395 4.01965,-1.69881 7.96808,-3.36383 11.72582,-5.59004 8.16447,-4.59236 15.41227,-10.31767 21.9785,-16.97675 3.49441,-3.58288 6.32527,-7.37727 9.24872,-11.4347 3.6994,-5.27841 7.02321,-10.66748 9.76475,-16.50436 1.25044,-2.88922 2.74933,-5.77133 3.70972,-8.77355 3.22751,-9.35703 4.91293,-18.79739 5.12306,-28.70735 0.17737,-5.11832 0.19473,-10.423172 -0.62777,-15.485469 -1.32047,-9.523104 -3.97176,-18.77614 -8.59347,-27.231476 -3.5413,-6.721928 -8.00014,-13.013689 -13.46353,-18.298561 -4.95663,-4.946549 -10.78103,-9.001746 -16.98498,-12.246293 -7.92282,-4.193619 -16.28223,-6.838693 -25.21781,-7.726149 -3.2421,-0.359647 -6.34295,-0.472856 -9.60544,-0.446595 -10.14458,0.190499 -20.21669,2.038525 -29.64252,5.814381 -6.02688,2.404699 -11.67889,5.255944 -17.14005,8.748695 -0.68744,0.466258 -1.54721,1.045392 -2.32117,1.579461 -0.77397,0.53407 -1.46213,1.023074 -1.80637,1.309071 -5.8813,4.593504 -10.74526,9.277766 -15.25525,14.587376 -4.50998,5.309611 -6.535498,7.391547 -10.700027,14.539703 7.184647,-11.037498 16.711827,-21.505607 26.246467,-28.746862 z"
       sodipodi:nodetypes="aaaccccccccccccsscasccccccccccccccccccccssaacccsccccaacccccccccccccccccccccccccccccscscs"
       inkscape:label="paddle"
       transform="matrix(0.79999995,0,0,0.79999995,26.642661,26.414613)" /><text
       xml:space="preserve"
       style="font-style:oblique;font-variant:normal;font-weight:500;font-stretch:normal;font-size:22.9306px;font-family:'Sneakers Pro';-inkscape-font-specification:'Sneakers Pro, Medium Oblique';font-variant-ligatures:normal;font-variant-caps:normal;font-variant-numeric:normal;font-variant-east-asian:normal;white-space:pre;inline-size:197.299;display:inline;fill:#ffffff;fill-opacity:1;stroke-width:0.264583"
       x="143.625"
       y="196.125"
       id="text58324"
       transform="matrix(0.79999995,0,0,0.79999995,-76.318066,19.252341)"
       inkscape:label="table tennis"><tspan
         x="143.625"
         y="196.125"
         id="tspan521">Table Tennis</tspan></text><text
       xml:space="preserve"
       style="font-style:normal;font-variant:normal;font-weight:bold;font-stretch:normal;font-size:7.05556px;font-family:Arial;-inkscape-font-specification:'Arial, Bold';font-variant-ligatures:normal;font-variant-caps:normal;font-variant-numeric:normal;font-variant-east-asian:normal;white-space:pre;inline-size:197.299;display:inline;fill:#ffffff;fill-opacity:1;stroke-width:0.264583"
       x="143.625"
       y="196.125"
       id="text58324-8"
       transform="matrix(0.96281129,0,0,0.99537353,22.377795,-42.385594)"
       inkscape:label="rights_reserved"><tspan
         x="143.625"
         y="196.125"
         id="tspan523">®
</tspan></text><g
       id="g8952"
       transform="matrix(0.02822221,0,0,-0.02822221,12.018009,81.95211)"
       style="display:inline"
       inkscape:label="cal"><path
         d="m 5460.7278,326.13659 35.3077,64.0568 c -8.7599,4.844 -17.6347,7.8601 -25.7817,9.6367 -8.1852,1.7765 -15.6937,2.3644 -22.5382,2.3772 -12.2077,-0.039 -22.3977,-1.8149 -31.6173,-4.0387 -16.0513,-4.0004 -29.4083,-9.5855 -41.7564,-15.4136 -18.3754,-8.793 -34.1585,-18.4041 -46.0085,-26.0598 -11.7992,-7.63 -19.4864,-13.2918 -20.3802,-13.9437 l -2.0687,-1.5976 c -80.7417,-64.1462 -151.3316,-135.9481 -214.3237,-213.8975 -63.0176,-77.962126 -118.4501,-162.059026 -169.3239,-251.15323 -113.968,-199.6088 -175.7854,-381.9124 -209.0116,-526.41074 -33.2263,-144.524 -37.951,-251.26826 -37.951,-300.48669 0,-18.16135 0.6385,-28.50092 0.7406,-30.03461 1.9793,-29.52342 21.4656,-54.88022 49.4564,-64.37632 28.0035,-9.5088 58.8803,-1.2269 78.3793,20.9987 0.1915,0.2172 34.4266,39.2239 72.9906,84.9532 19.2948,22.87742 39.6494,47.42912 57.5778,69.92312 8.977,11.2598 17.341,22.0211 24.7857,31.9773 7.4574,10.0328 13.9187,19.0688 19.6522,28.1047 4.878,7.7067 12.0034,18.5576 20.6994,31.5811 30.5448,45.7293 80.3715,118.1702 132.701,197.06524 52.3933,79.023 107.3534,164.4874 149.4672,238.7304 50.8484,89.6949 104.7485,195.1994 149.8888,289.546504 22.5637,47.1734997 42.9056,91.5096 59.5698,129.78773 8.3512,19.158299 15.7704,36.808396 22.1296,52.656396 6.372,15.8864 11.6713,29.8941 15.8725,42.368 l -69.2492,23.3759 67.0145,-29.1783 c 0.7279,1.6998 6.7806,15.6691 13.1143,36.131 3.1669,10.2628 6.3975,22.1617 8.9771,35.3513 2.5538,13.2153 4.5459,27.6703 4.5842,43.825 -0.013,7.9497 -0.498,16.3338 -1.9154,25.2675 -2.1453,13.3302 -6.321,28.258 -15.2086,43.4415 -4.4309,7.5534 -10.0878,15.0557 -16.9451,21.8678 -6.8317,6.8121 -14.8766,12.8701 -23.5215,17.6245 -22.6531,12.5123 -50.1842,12.1033 -72.467,-1.0608 -22.2829,-13.164 -35.9207,-37.0896 -35.9207,-62.996 v 0 h 73.08 l 35.3077,64.0568 -35.3077,-64.0568 h 73.0927 v 0 h -73.0927 l -35.295,-64.0567 19.3075,35.0574 -30.583,-25.7659 c 2.937,-3.553 7.1382,-7.0422 11.2755,-9.2915 l 19.3075,35.0574 -30.583,-25.7659 27.646,23.2864 -32.4728,-15.9503 c 1.0087,-2.0705 2.5794,-4.6777 4.8268,-7.3361 l 27.646,23.2864 -32.4728,-15.9503 18.9627,9.3171 -20.9293,-3.8597 c 0.089,-0.4346 0.4342,-2.3133 1.9666,-5.4574 l 18.9627,9.3171 -20.9293,-3.8597 1.9793,0.3706 -2.0048,-0.2556 0.025,-0.115 1.9793,0.3706 -2.0048,-0.2556 c 0.025,-0.1278 0.1149,-0.9586 0.1022,-2.2878 0.038,-3.2079 -0.5491,-9.1892 -1.8517,-15.7586 -1.9153,-9.9049 -5.2993,-21.1136 -8.1341,-29.2038 -1.4175,-4.0515 -2.6944,-7.3745 -3.5372,-9.5089 -0.4341,-1.0735 -0.7534,-1.8404 -0.9322,-2.2749 l -0.1532,-0.3834 24.7729,-10.5697 -24.6963,10.7486 -0.077,-0.1789 24.7729,-10.5697 -24.6963,10.7486 -2.2347,-5.8024 c -2.8603,-8.512 -7.3297,-20.4492 -12.9993,-34.5846 -9.9602,-24.7945 -23.6492,-56.5162 -39.8154,-92.161497 -48.5242,-107.025329 -119.6122,-249.939033 -183.2682,-362.153433 -22.2318,-39.2367 -49.3287,-83.4578 -78.0473,-128.5481 -43.0845,-67.6738 -89.8082,-137.3541 -129.9172,-196.6564 -20.061,-29.6513 -38.4618,-56.72054 -54.0278,-79.78974 -15.5789,-23.1202 -28.1952,-42.0229 -37.2743,-56.3756 -2.2986,-3.6681 -7.1126,-10.5696 -13.2293,-18.7493 -10.7647,-14.4293 -25.6922,-33.2042 -41.7308,-52.7714 -24.0833,-29.3956 -50.7844,-60.8233 -71.3689,-84.7615 -10.2922,-11.97552 -19.0649,-22.09783 -25.2453,-29.20389 -3.0902,-3.55303 -5.542,-6.35199 -7.202,-8.25633 -0.83,-0.95855 -1.4685,-1.68704 -1.8899,-2.17271 l -0.6257,-0.70294 54.909,-48.28542 72.9267,4.90778 -47.1834,-3.16962 47.1961,2.97791 -0.013,0.19171 -47.1834,-3.16962 47.1961,2.97791 -0.013,0.19171 c -0.064,1.25251 -0.4214,8.17964 -0.4214,20.23182 0,39.8374 3.8564,135.56479 34.2351,267.66589 30.3915,132.11384 87.2542,300.57604 193.471,486.63724 47.8348,83.7902 99.015,161.164504 156.0565,231.739504 57.0542,70.574826 119.9186,134.375926 191.5812,191.339526 l -45.4596,57.283 43.3781,-58.8806 -13.7783,18.7109 13.7017,-18.7749 0.077,0.064 -13.7783,18.7109 13.7017,-18.7749 c 0.3703,0.3069 14.1997,10.2758 29.5104,18.8899 7.5723,4.3071 15.5532,8.2308 21.1463,10.378 2.7582,1.0863 4.9035,1.7126 5.6569,1.8788 l 0.2809,0.064 -3.5116,18.4169 v -18.6597 c 2.49,0.013 3.4733,0.2556 3.5116,0.2428 l -3.5116,18.4169 v -18.6597 40.3869 l -8.5684,-39.4028 c 3.8181,-0.8307 6.6658,-0.9713 8.5684,-0.9841 v 40.3869 l -8.5684,-39.4028 10.8286,49.7296 -24.543,-44.5278 c 5.095,-2.8118 9.9219,-4.3839 13.7144,-5.2018 l 10.8286,49.7296 -24.543,-44.5278 c 22.6531,-12.4996 50.1715,-12.1033 72.4543,1.0735 22.2828,13.1641 35.9334,37.0896 35.9334,62.9832 z m -1925.006,-1081.80817 -2.2474,73.1184 c -16.4728,-0.5369 -32.639,-3.2719 -49.4309,-7.694 -29.2932,-7.7834 -60.5531,-20.8709 -93.9326,-39.8374 -49.9544,-28.4754 -104.4292,-70.3066 -159.2233,-128.3309 -54.7556,-58.01152 -109.6901,-132.21618 -159.9127,-225.18292 -4.3416,-8.039 -8.9131,-17.305 -13.9188,-28.1047 -17.3793,-37.6391 -39.8664,-94.0531 -58.7014,-158.3144 -9.3985,-32.1178 -17.8263,-66.1145 -24.0196,-100.7373 -6.1677,-34.6485 -10.1389,-69.872 -10.1518,-104.8898 0,-20.8185 1.4175,-41.5871 4.8908,-62.1909 3.4861,-20.5884 9.0408,-41.0784 17.7114,-60.9626 12.5396,-28.7565 30.9405,-54.5134 54.3854,-74.8219 23.3809,-20.3443 51.7421,-35.0319 82.2995,-42.4562 l -0.166,0.04 c 15.9491,-3.9237 32.1665,-5.8561 48.3582,-5.8561 h 0.026 c 24.4536,-0.024 48.3964,4.3838 70.5005,12.272 19.3714,6.899 37.3509,16.3452 53.9257,27.4887 29.0379,19.5698 53.9385,44.1228 76.6427,71.6268 33.9669,41.3315 63.2347,89.7191 90.9318,142.2593 27.6205,52.5286 53.466,109.2493 78.8774,166.8518 l -0.025,-0.038 c 6.8445,15.4902 12.9101,29.2167 17.9156,40.1314 l 0.051,0.115 c 6.0145,13.1385 16.2046,36.1821 28.7059,65.271 18.7202,43.5693 42.3821,100.2261 63.4008,154.4801 10.5093,27.1462 20.3673,53.67891 28.6803,77.98777 8.313,24.41111 15.0936,46.1894 19.6522,66.08893 v 0.0256 c 3.7926,16.92172 7.4064,37.31962 7.4575,60.74662 -0.026,15.6564 -1.6473,32.8591 -7.1254,51.1355 -4.1118,13.6626 -10.5476,27.9386 -20.0865,41.32 -7.1254,10.0328 -15.9746,19.465 -26.152,27.5168 -15.285,12.1416 -33.3156,20.9603 -52.2912,26.3793 -19.0266,5.4702 -39.0364,7.8091 -60.2466,7.8218 -2.9753,0 -5.9889,-0.051 -9.0409,-0.1405 h 0.013 l 2.2474,-73.1184 2.2602,-73.1183 c 1.5707,0.051 3.0775,0.077 4.5204,0.077 12.1822,0.013 18.9245,-1.7126 21.2612,-2.5817 0.9067,-0.3195 1.2132,-0.5112 1.2132,-0.4984 l 4.099,7.2466 -6.1422,-5.4701 c 0.8683,-1.0225 1.9921,-1.7765 2.0432,-1.7765 l 4.099,7.2466 -6.1422,-5.4701 7.9427,7.0677 -9.3984,-5.0228 1.4557,-2.0449 7.9427,7.0677 -9.3984,-5.0228 4.712,2.5178 -4.9035,-2.1216 0.1915,-0.3962 4.712,2.5178 -4.9035,-2.1216 1.7239,0.7413 -1.7495,-0.6902 0.026,-0.051 1.7239,0.7412 -1.7495,-0.6901 0.1533,-0.4984 c 0.3065,-1.0736 0.83,-4.1282 0.8173,-8.5631 0.051,-7.3106 -1.4303,-17.9696 -3.831,-28.3731 v 0.026 c -1.6344,-7.2339 -4.648,-18.0719 -8.6704,-30.72485 -7.036,-22.25118 -17.124,-50.31757 -28.476,-80.04544 -17.0346,-44.64293 -36.9679,-93.20953 -54.3854,-134.38893 -8.7089,-20.6024 -16.792,-39.3645 -23.5854,-54.9058 -6.7806,-15.503 -12.2971,-27.8747 -15.681,-35.2875 l 0.038,0.1023 c -5.7207,-12.474 -11.965,-26.6222 -18.7967,-42.1124 l -0.013,-0.026 c -21.6698,-49.1545 -43.1865,-96.4303 -64.8437,-139.0794 -16.23,-31.9901 -32.5494,-61.3831 -48.8179,-86.8946 -12.1948,-19.1455 -24.3514,-36.0952 -36.2015,-50.3444 -17.7625,-21.4473 -34.797,-36.4991 -49.2521,-45.1567 -7.2531,-4.3825 -13.8166,-7.2582 -19.946,-9.0961 -6.1421,-1.8263 -11.8502,-2.6711 -18.0816,-2.6852 h -0.026 c -4.5587,-0.01 -9.143,0.5483 -13.3697,1.5976 l -0.1659,0.04 c -8.4663,2.1216 -15.0937,5.6209 -21.1975,10.8636 -6.0527,5.2771 -11.6458,12.511 -16.2045,22.8749 -3.0008,6.8402 -5.6825,15.8212 -7.5213,26.7653 -1.8516,10.9134 -2.8476,23.7094 -2.8476,37.7925 -0.025,27.0937 3.716,58.8026 10.1646,91.2911 9.6155,48.7839 25.1687,99.3315 40.6071,141.3672 7.7128,21.0242 15.3873,39.9652 22.1551,55.4937 6.7423,15.4774 12.7312,27.7724 16.2811,34.3162 67.7679,125.468 142.7251,207.63499 206.7642,257.88865 31.9876,25.12677 61.281,42.21457 84.8408,52.65647 11.7479,5.2273 22.0529,8.7802 30.2127,10.9402 8.1213,2.1728 14.1486,2.8501 16.5876,2.9012 h 0.013 z m -2417.1329,-1867.85822 69.9281,-21.2681 c 1.0075,3.3499 2.9932,8.8069 5.6569,14.9676 3.9854,9.3059 9.4967,20.3342 15.4473,30.6587 5.9161,10.3393 12.3864,20.0946 17.6283,26.7894 l -0.01,-0.015 c 16.571,21.2923 40.2291,45.6165 70.7113,71.5613 30.477,25.9818 67.7232,53.629 111.3145,82.2961 67.5533,44.4231 131.8951,80.094 199.4344,110.1682 67.5432,30.0602 138.4345,54.5876 219.2119,76.1205 v 0 c 115.8924,30.9178 236.7943,48.0068 356.3643,57.2179 119.5789,9.2314 237.7596,10.6092 348.4331,10.6092 h -0.1149 l 11.8756,-0.024 h 0.051 c 72.582,-0.065 167.0892,-2.4168 274.8257,-6.3661 323.401,-11.8566 766.1715,-37.9726 1112.928,-58.446 121.3616,-7.1444 230.0047,-13.545 316.8247,-18.3531 43.4164,-2.3913 81.3802,-4.3927 112.8443,-5.8753 31.4897,-1.4979 56.3391,-2.482 74.3187,-2.8513 l -0.3448,0.01 11.9394,-0.294 h -0.025 c 19.5501,-0.4946 53.0573,-1.379 93.2685,-1.379 144.8959,0.026 244.5492,11.284 316.148,26.9302 35.7674,7.823 64.5372,16.7938 87.931,25.955 23.3298,9.1113 41.4115,18.5729 54.3725,26.0457 13.0633,7.5036 26.2797,15.7612 39.1514,24.7077 19.3204,13.5194 37.7468,28.0932 54.2832,46.0858 8.2619,9.1165 16.1791,19.1212 23.1767,32.0169 3.4734,6.4645 6.7041,13.7137 9.2069,22.1208 2.49,8.388 4.2522,18.0234 4.2522,28.6825 0,4.3582 -0.2937,8.8467 -0.9449,13.3788 v 0.031 c -1.4047,9.9152 -4.4566,19.7794 -8.7344,28.5623 -3.9968,8.2422 -9.0025,15.5004 -14.3018,21.6121 -10.0113,11.5026 -20.7377,19.0164 -30.6597,24.5926 -17.4815,9.6098 -33.2518,14.0434 -48.3198,17.5338 -22.4999,4.9819 -43.8251,6.9885 -62.2259,8.6014 -9.143,0.7643 -17.4688,1.3931 -24.275,1.9823 -6.7422,0.5585 -12.1182,1.1886 -14.0592,1.5171 -67.7933,10.9786 -131.1047,29.9847 -187.8396,53.6444 -56.7223,23.6442 -106.8682,51.9764 -148.05,81.1024 -20.8781,14.7527 -41.1434,33.3844 -59.3655,53.1702 -27.3778,29.6652 -50.1331,61.8061 -65.546,86.0894 -7.7255,12.1416 -13.6506,22.3163 -17.5197,29.2409 -1.941,3.4649 -3.3712,6.1105 -4.2651,7.7975 l -0.9193,1.7625 -0.1533,0.3105 -21.5677,-11.0195 21.6187,10.9147 -0.051,0.1048 -21.5677,-11.0195 21.6187,10.9147 c -9.411,18.6611 -26.369,32.4106 -46.5576,37.767 -20.1886,5.3576 -41.7181,1.788 -59.123,-9.7645 l -69.249,-46.0105 c -123.4177,-82.0262 -234.5381,-140.9823 -336.3878,-179.0943 -101.9519,-38.1375 -194.3267,-55.6356 -282.7302,-55.6765 -9.0663,0 -18.2348,0.1956 -27.1352,0.579 h -0.026 c -47.4133,2.0078 -89.1696,12.9455 -119.2929,26.341 -15.0297,6.6293 -27.097,13.8785 -35.1162,19.9992 -4.0224,3.0303 -7.0105,5.7666 -8.8748,7.7183 -0.9322,0.9738 -1.5834,1.7522 -1.9538,2.2366 l -0.3702,0.4895 -0.026,0.05 -2.7965,-1.8174 2.8475,1.7279 -0.051,0.09 -2.7965,-1.8174 2.8475,1.7279 -45.6254,75.8406 c -11.1734,18.5819 -29.6892,31.0827 -51.091,34.5079 -21.4144,3.415 -42.8927,-2.7108 -59.3016,-16.8846 l -66.9251,-57.8684 c -17.4432,-15.0965 -37.4147,-28.1724 -58.4845,-39.2098 -31.5789,-16.6047 -65.5715,-28.5278 -95.7203,-36.595 -30.1616,-8.0876 -56.4286,-12.3819 -72.5692,-14.4677 l -0.064,-0.01 c -18.7839,-2.4411 -37.9765,-3.6693 -56.7605,-3.6693 -49.0733,0 -95.1457,8.2576 -136.2253,23.4794 -41.1178,15.2218 -77.2173,37.3183 -106.9958,65.2556 l -0.038,0.026 -11.3522,-12.1263 11.5182,11.9767 -0.166,0.1496 -11.3522,-12.1263 11.5182,11.9767 -0.013,0.01 c -0.2681,0.2544 -1.6728,1.7024 -3.4477,3.6042 -3.1541,3.3997 -7.6361,8.3969 -12.4247,13.8683 -7.2148,8.2436 -15.2724,17.6987 -21.8231,25.5972 -3.269,3.939 -6.1677,7.5035 -8.3003,10.1887 -1.047,1.328 -1.9154,2.4424 -2.4644,3.1556 l -0.5237,0.7042 v 0 l -20.0736,-14.3284 20.3163,13.9833 -0.2427,0.3451 -20.0736,-14.3284 20.3163,13.9833 -0.013,0.01 -47.6942,69.3353 c -11.8374,17.2194 -30.3021,28.4625 -51.0271,31.0979 -20.7249,2.6213 -41.3988,-3.6693 -57.1563,-17.3932 l -63.388,-55.2164 -0.4086,-0.3553 c -0.7151,-0.6391 -3.0519,-2.5702 -6.155,-4.9219 -5.478,-4.1639 -13.3824,-9.7657 -21.9891,-15.5911 -12.9354,-8.7816 -27.5949,-18.2278 -39.8537,-25.8809 -6.1165,-3.8342 -11.6713,-7.2352 -16.0257,-9.8411 -2.1708,-1.3177 -4.0607,-2.4309 -5.5037,-3.2591 -1.4174,-0.8346 -2.4644,-1.4084 -2.5283,-1.443 -134.1215,-72.5062 -282.2531,-110.5939 -427.2613,-110.553 -130.2351,-0.031 -253.8799,32.0668 -357.313,91.3922 v 0 c -53.9309,30.9522 -96.6795,67.7874 -131.3756,109.0192 -51.9311,61.7972 -85.9057,134.1729 -107.0201,211.2916 -21.1003,77.0023 -28.9957,158.3897 -28.9715,235.1122 0,23.8615 0.7534,47.2502 2.0751,69.9104 v 0 c 8.7497,149.22725 40.2648,298.68462 94.6298,447.86082 54.365,149.16314 131.6308,298.03254 231.9112,445.53444 172.7474,254.169604 413.075,499.43083 693.9535,706.79753 101.9838,75.3421 230.9943,160.5126 374.2684,232.7362 143.2613,72.2876 300.7351,131.3855 458.809,156.1673 58.4972,9.2532 117.9266,17.5606 171.8396,17.4967 30.4681,0.026 55.4835,-2.5945 75.0336,-6.991 19.6268,-4.3966 33.6095,-10.3907 43.8378,-16.9217 l 0.025,-0.013 c 13.0122,-8.3202 22.8191,-17.6501 31.0299,-28.2709 12.2205,-15.8481 20.8144,-35.1852 26.3053,-56.8357 5.4909,-21.5482 7.6362,-45.052 7.6106,-66.7152 0.013,-13.9437 -0.8556,-27.1078 -2.0431,-38.4699 v 0.026 c -5.6314,-54.1773 -22.9596,-114.1188 -49.8778,-172.5393 -20.1631,-43.8377 -45.6255,-86.8319 -74.9316,-126.2476 -43.9272,-59.1745 -96.5886,-110.0801 -151.5487,-144.9329 -27.4673,-17.4585 -55.4452,-30.9549 -83.1679,-39.9781 -27.7482,-9.0487 -55.1643,-13.6753 -82.2741,-13.6753 h 0.064 c -13.8549,-0.013 -26.2157,2.7862 -35.512,6.8505 -9.3601,4.0642 -15.3745,9.1893 -18.5668,13.3558 l 0.013,-0.013 c -1.7494,2.2877 -2.439,3.7575 -2.9498,5.2017 -0.4724,1.457 -0.8299,3.0163 -0.8428,5.8791 0,2.5689 0.3448,6.1859 1.609,11.0809 v 0.026 c 3.0264,11.3238 6.5763,17.7013 11.9396,24.3217 4.0989,4.9078 9.6281,9.9817 17.9028,15.5158 12.297,8.2946 30.8384,17.2028 55.3815,26.0342 24.5046,8.8826 54.7684,17.7524 89.8336,27.4529 l -0.038,-0.013 c 10.2155,2.8246 20.495,5.6747 30.7873,8.6142 l -0.038,-0.013 c 51.6145,14.6978 95.4012,33.9455 132.1646,57.2957 27.5694,17.5096 51.1165,37.3452 70.6283,58.8552 29.3061,32.2456 49.201,68.1977 61.1149,103.7663 11.9779,35.6198 16.2556,70.6516 16.2556,102.7567 0,11.1832 -0.5235,22.034 -1.4301,32.4886 -2.0559,23.5292 -7.6873,47.6335 -17.9029,71.1244 -7.6617,17.5991 -17.9412,34.8402 -31.1577,50.7011 -19.7544,23.8487 -46.315,44.3489 -78.009,58.0626 -31.6939,13.7904 -68.036,20.8581 -107.6982,20.8325 -33.1496,-0.039 -65.2522,-4.7161 -95.5543,-11.3236 -45.3957,-9.9946 -86.7817,-24.5006 -118.8205,-37.2302 -31.9876,-12.7424 -54.5387,-23.7721 -61.1405,-27.0695 l -0.013,-0.013 c -146.5048,-73.2842 -268.2494,-170.3279 -375.5262,-278.8104 -107.3407,-108.5589 -200.5965,-228.5695 -291.4401,-349.8966 -176.5439,-235.893026 -310.4835,-468.46313 -400.5495,-696.98183 -90.0392,-228.46734 -136.109,-453.07518 -136.1001,-671.54826 0,-31.7983 0.9781,-63.4433 2.928,-94.9477 3.5027,-56.12 15.6376,-112.3294 35.3614,-165.8422 14.805,-40.1185 33.9044,-78.7303 57.1985,-114.4919 34.9464,-53.5741 79.3958,-101.002 133.6612,-135.8191 27.1097,-17.3792 56.6788,-31.5031 88.3383,-41.2433 31.6353,-9.7401 65.3443,-15.0416 100.1961,-15.0262 41.9798,-0.026 83.7553,7.6684 123.8951,22.3253 40.1742,14.6479 78.7381,36.131 115.4633,63.4944 l -0.025,-0.015 c 60.2977,44.928 105.604,100.5879 142.2015,157.1424 36.5974,56.6453 64.8436,114.6159 90.3189,166.4544 l 0.013,0.026 c 14.0848,28.731 27.0331,55.072 39.8537,78.8057 l -0.026,-0.051 c 74.0888,136.9578 161.1004,257.5308 265.9893,355.73762 58.1269,54.4074 117.0455,98.4368 177.9817,134.3889 60.9616,35.952 123.9792,63.8651 190.6362,85.6561 32.9071,10.7486 63.1325,18.2892 93.8943,23.2737 30.7746,4.9716 62.2003,7.4127 97.6102,7.4127 4.2268,0 8.4917,-0.026 12.8206,-0.1022 h 0.013 c 12.1949,-0.2172 21.5932,-2.1727 29.6253,-4.9589 11.9267,-4.2176 21.2102,-10.5313 29.2805,-18.1869 7.9938,-7.5789 14.3657,-16.5765 18.5286,-23.9127 13.3059,-23.2991 38.2702,-37.4346 65.0735,-36.8338 26.8161,0.5879 51.1292,15.8096 63.388,39.684 3.9713,7.7195 8.083,16.1164 12.246,24.6156 6.1931,12.6783 12.5652,25.6764 17.4559,34.8529 2.4006,4.5371 4.4949,8.1669 5.3121,9.4577 l 0.2171,0.3323 0.051,0.064 -23.7896,16.1675 22.1935,-18.2508 c 1.1876,1.4571 1.5323,2.0066 1.5961,2.0833 l -23.7896,16.1675 22.1935,-18.2508 -44.9998,37.00004 36.8272,-45.06464 c 5.0568,4.2048 6.8956,6.5948 8.1726,8.0646 l -44.9998,37.00004 36.8272,-45.06464 -44.3996,54.33054 30.7362,-63.11084 c 3.3329,1.6743 7.7001,3.9492 13.6762,8.7803 l -44.4124,54.33054 30.7362,-63.11084 -27.5694,56.59274 16.0641,-60.92544 c 2.0814,0.6135 5.0951,1.2909 11.5053,4.3327 l -27.5694,56.59274 16.0641,-60.92544 -10.2795,39.0067 7.0744,-39.7224 c 0.4214,0.077 1.3152,0.2301 3.2051,0.7157 l -10.2795,39.0067 7.0744,-39.7224 -2.0304,11.3621 1.7495,-11.4132 0.2809,0.051 -2.0304,11.3621 1.7495,-11.4132 c 0.1532,0.051 4.5203,0.5496 10.1772,0.8819 8.645,0.5495 20.9421,0.9841 34.5672,1.2525 13.6506,0.2811 28.7441,0.3962 43.6718,0.3962 15.6937,0 31.2214,-0.1278 44.7315,-0.3578 13.472,-0.2174 25.0666,-0.5369 32.2815,-0.8692 10.4199,-0.4473 23.5853,-0.6901 38.6661,-1.0863 22.3849,-0.5623 48.6263,-1.4698 68.1509,-3.2591 9.6283,-0.8307 17.7369,-2.0321 20.8399,-2.7351 l 0.83,-0.1917 0.2171,-0.051 8.0576,28.9738 -12.7185,-27.1462 c 3.4094,-1.5592 4.5715,-1.7765 4.6609,-1.8276 l 8.0576,28.9738 -12.7185,-27.1462 23.0745,49.29494 -30.136,-45.28174 c 3.0647,-2.0322 5.3631,-3.1952 7.0615,-4.0132 l 23.0745,49.29494 -30.136,-45.28174 35.1927,52.86074 -46.6215,-43.04524 c 4.4821,-4.8438 8.3769,-7.7578 11.4288,-9.8155 l 35.1927,52.86074 -46.6215,-43.04524 -0.026,0.026 46.928,43.28804 -56.6456,-29.45934 c 2.273,-4.3966 5.4909,-9.2404 9.7176,-13.8287 l 46.928,43.28804 -56.6456,-29.45934 51.9847,27.04374 -57.6416,-10.85064 c 0.7662,-4.0131 2.2219,-9.5344 5.6569,-16.1931 l 51.9847,27.04374 -57.6416,-10.85064 44.2592,8.33294 h -45.0892 c 0.013,-1.6488 0.076,-4.2944 0.83,-8.33294 l 44.2592,8.33294 h -45.0892 19.2564 l -19.1543,2.326 c 0,0 -0.1021,-0.639 -0.1021,-2.326 h 19.2564 l -19.1543,2.326 c 0,-0.064 -0.3702,-2.4411 -1.3153,-6.0836 -1.6216,-6.45404 -4.8651,-16.78084 -9.3727,-29.38264 -6.7552,-18.9793 -16.2812,-43.2498 -27.3013,-71.2651 -11.0329,-28.0408 -23.5981,-59.9031 -36.5847,-94.7432 v 0.013 c -20.8144,-55.9922 -53.9513,-129.28944 -88.8759,-220.35182 -13.1143,-34.2523 -26.5606,-68.5556 -39.7898,-102.3605 v 0.026 c -34.2224,-87.4199 -65.1885,-166.3023 -88.2502,-237.299 -11.5181,-35.5278 -21.0825,-69.132 -27.9397,-101.2882 -6.8189,-32.1665 -11.0457,-62.9206 -11.0713,-93.2441 0,-17.654 1.4686,-35.2018 5.044,-52.6206 5.2994,-26.0215 15.7831,-52.0417 32.5623,-74.6623 16.6643,-22.6857 39.2152,-41.1333 64.3968,-54.0635 34.1839,-17.7677 72.5181,-26.5353 111.248,-26.4701 29.6764,0.015 57.897,4.9474 84.2534,12.511 39.5599,11.3876 75.238,28.5917 107.2767,46.6393 31.9877,18.0834 60.4254,37.1892 84.049,53.0002 l -0.089,-0.065 c 7.4192,4.9576 14.1998,9.4961 20.1504,13.3852 l -0.076,-0.04 c 37.2614,24.2935 67.2571,44.4231 93.9198,64.2728 26.6117,19.8101 49.9289,39.5307 71.9819,61.6413 l -0.038,-0.04 24.045,24.0289 c 14.9658,14.9675 22.7425,35.7859 21.2485,56.8984 l -2.3752,33.9186 c -3.4861,49.5789 -5.1972,100.037 -5.1972,150.6996 -0.013,125.9409 10.586,253.1727 30.4298,371.54738 19.8055,118.36184 48.9712,227.93064 85.0962,318.00878 125.2434,312.8968 308.8692,595.5928041 529.1563,816.28953 25.6285,25.7148 63.2092,58.7528 106.7533,92.8901 65.3161,51.3145 144.5382,105.5812 219.2655,146.0449 37.2997,20.2446 73.5014,37.0129 105.4123,48.3877 31.8345,11.477 59.5188,17.1389 77.4855,17.42 l 0.9068,0.013 c 3.2179,-0.013 4.648,-0.3963 5.1715,-0.5497 l 0.3321,-0.1149 0.1021,0.23 -0.1404,-0.2045 0.038,-0.026 0.1021,0.23 -0.1404,-0.2045 0.4852,-0.4346 c 0.6895,-0.6901 2.4006,-2.7478 4.4438,-6.9399 3.1029,-6.1986 6.538,-17.0238 8.6833,-30.533 2.2091,-13.4964 3.2817,-29.5362 3.269,-46.0744 0,-22.9924 -2.0049,-46.9434 -4.6481,-67.3926 -2.605,-20.4107 -5.8612,-37.5752 -7.8533,-46.5856 -2.6944,-12.2822 -7.3169,-29.7151 -13.74,-50.8287 -11.25,-37.0257 -27.978,-85.5284 -49.7501,-142.1852 -65.3288,-170.123626 -176.1555,-413.88963 -323.9245,-660.32683 -18.3243,-30.5714 -42.8418,-68.53 -70.8453,-110.2462 -42.0373,-62.62514 -91.9917,-133.87754 -141.8312,-203.80064 -49.8522,-69.92309 -99.6023,-138.54259 -141.448,-196.24742 -26.3052,-36.2971 -49.8778,-68.8112 -69.2875,-95.8679 -19.4607,-27.1206 -34.5671,-48.4771 -44.7699,-63.7884 l -10.6115,-15.9375 c -6.87,-10.314 -10.9563,-22.0084 -12.0161,-34.3545 l -1.6217,-19.1071 -0.013,-0.026 c -1.3025,-15.4263 -1.9282,-30.827 -1.9282,-46.1255 0.076,-97.2483 24.9516,-190.6738 61.945,-273.2243 37.1721,-82.59 86.3986,-154.4967 139.507,-209.3885 52.9041,-54.6476 108.758,-92.7341 163.118,-120.697 54.3854,-28.0178 106.9703,-46.3197 155.0859,-63.295 l -0.025,0.015 c 33.0475,-11.633 65.6353,-23.1356 97.4953,-36.6295 11.4032,-4.7429 23.5087,-11.2585 29.9701,-16.2302 1.609,-1.2039 2.8604,-2.2775 3.6904,-3.0558 l 1.1237,-1.1388 0.051,-0.064 15.7192,12.4356 -19.0137,-4.8273 c 1.3024,-5.102 3.2434,-7.5533 3.2945,-7.6083 l 15.7192,12.4356 -19.0137,-4.8273 19.5501,4.9666 h -20.278 c 0,-0.639 0.064,-2.3606 0.7151,-4.9563 l 19.5629,4.9563 h -20.278 3.8308 l -3.8181,0.2953 -0.013,-0.2953 h 3.8308 l -3.8181,0.2953 c 0,-0.1649 -0.2681,-2.3261 -1.4046,-5.8907 -1.66,-5.3679 -5.261,-13.7494 -11.0584,-23.7094 -5.7846,-9.9651 -13.7017,-21.5329 -23.6109,-33.9187 -46.4937,-58.1278 -95.8097,-105.8509 -147.4369,-145.7995 -77.4216,-59.8801 -160.232,-102.4512 -246.8222,-134.6969 -86.5263,-32.2367 -176.7685,-53.9588 -267.6875,-71.7265 -135.9316,-26.6196 -304.8342,-40.0943 -515.6207,-40.0802 -141.9971,0 -284.4539,5.727 -423.1693,11.3237 -52.7765,2.1369 -104.5441,4.2035 -154.8178,5.9302 h -0.025 c -157.7291,5.318 -331.7522,15.517 -500.5015,25.4067 -148.2032,8.6922 -301.8333,17.714 -444.188,23.3657 -112.9081,4.4732 -221.8705,6.7341 -323.9768,6.7341 -278.7895,-0.024 -519.5997,-16.8194 -717.4176,-50.7137 h -0.02 c -90.2996,-15.5158 -167.7098,-35.6952 -240.1666,-54.5365 l -0.05,-0.026 c -21.1143,-5.5072 -41.9146,-10.9134 -62.5999,-16.1152 l 0.1,0.024 c -12.1809,-3.0546 -23.8829,-6.6945 -36.6882,-10.5785 l -0.065,-0.015 c -13.2126,-4.0387 -29.3644,-8.9465 -45.2864,-13.1501 -15.7924,-4.2087 -31.6295,-7.5789 -41.3712,-8.6921 l 8.6094,-72.6448 72.9456,-4.5631 v 0 l -72.9456,4.5631 69.9281,-21.2681 -69.9281,21.2681 -72.9459,4.5631 v 0 c -1.3568,-21.6524 6.9733,-42.7905 22.7208,-57.708 15.7474,-14.8975 37.3059,-22.0467 58.8296,-19.5005 21.3639,2.5961 41.9299,7.4138 61.4079,12.5111 19.3547,5.1023 37.3368,10.609 50.6899,14.6729 l -0.065,-0.015 c 12.8691,3.9242 23.3146,7.0693 29.5193,8.602 l 0.1,0.025 c 21.5141,5.3969 42.7588,10.9285 63.9332,16.4502 l -0.055,-0.01 c 72.4964,18.8767 144.9584,37.6633 228.1097,51.9366 h -0.014 c 186.2703,31.9819 419.9079,48.6466 692.7264,48.6211 99.961,0 207.0591,-2.2264 318.1922,-6.6345 140.3755,-5.5621 293.2266,-14.5329 441.4297,-23.2199 168.7877,-9.88 343.7813,-20.1595 504.1154,-25.5763 h -0.026 c 49.6735,-1.6975 101.1603,-3.7594 153.8984,-5.8912 138.7409,-5.6015 283.1642,-11.4377 429.0688,-11.4526 216.9542,0.05 394.5528,13.6743 543.6625,42.8053 126.5588,24.793 258.9915,57.9474 387.6701,119.1247 64.3073,30.5842 127.5931,68.2373 188.1972,115.1309 60.617,46.8898 118.5141,103.0252 172.1716,170.1327 19.6267,24.5939 35.627,48.9909 47.5792,73.9542 5.9634,12.511 10.9052,25.2009 14.5445,38.4813 3.6137,13.2804 5.9634,27.1935 5.9889,42.2108 0,9.905 -1.0726,20.3251 -3.767,30.9689 -4.9673,19.5301 -14.2763,35.3667 -24.1727,47.7474 -7.4701,9.3567 -15.4128,17.0251 -23.3555,23.6596 -11.9395,9.9446 -23.9812,17.6386 -35.6014,24.1682 -11.6075,6.4901 -22.8447,11.748 -33.1242,16.1063 -37.287,15.7803 -72.9777,28.2823 -105.9487,39.8987 l -0.025,0.01 c -48.205,16.9242 -93.5879,33.0905 -136.5957,55.3174 -43.0588,22.2754 -84.049,50.214 -125.1924,92.5449 -39.8792,41.003 -81.0737,100.4332 -111.0565,167.4411 -30.1617,67.0592 -49.1883,141.5195 -49.1116,213.2703 0,11.3109 0.4597,22.5579 1.4174,33.7282 l -0.013,-0.026 0.038,0.3834 0.2043,0.3068 c 8.0448,12.0905 22.8447,33.0892 41.8713,59.6091 19.0777,26.5838 42.5736,58.9956 68.8789,95.28 55.7899,76.9653 126.0351,173.84291 192.2324,267.94696 33.1114,47.0585 65.2011,93.4397 94.0603,136.4339 28.8718,43.0198 54.4748,82.5758 74.8549,116.5597 116.5858,194.4964 210.3013,385.9639 278.5672,544.700004 34.133,79.3808 61.8811,150.569126 82.9764,210.127226 10.5476,29.7918 19.4225,56.6695 26.6373,80.3905 7.202,23.7465 12.7439,44.2212 16.6514,61.948 2.9881,13.6114 6.8317,34.1755 10.0752,59.3918 3.2307,25.178 5.8228,54.7653 5.8357,86.0396 -0.013,22.3151 -1.3153,45.4993 -5.0568,68.9135 -2.8348,17.5734 -7.036,35.313 -13.6251,53.0142 -4.9546,13.2536 -11.2883,26.5199 -19.7034,39.3645 -6.3081,9.6112 -13.8294,18.9666 -22.7169,27.5807 -13.2931,12.9214 -29.9063,24.015 -48.4859,31.2745 -18.5797,7.336 -38.7683,10.8124 -58.9313,10.774 -1.443,0 -2.8732,-0.013 -4.3162,-0.051 -27.4545,-0.6646 -54.577,-5.5084 -81.9548,-12.8701 -47.8219,-12.998 -96.7036,-33.9328 -146.0323,-59.3663 -73.8589,-38.2015 -148.4202,-86.7425 -214.975,-135.7692 -33.2646,-24.5134 -64.4733,-49.1418 -92.4769,-72.7349 -28.0291,-23.6187 -52.8147,-46.1511 -73.5014,-66.8814 -235.5466,-236.135897 -429.0688,-534.88433 -561.4121,-865.23963 -41.0669,-102.6161 -72.2883,-221.3995 -93.5623,-348.235 -21.2485,-126.82276 -32.4475,-261.63346 -32.4475,-395.75396 0,-53.9601 1.8134,-107.8051 5.5421,-160.9587 l 0.051,-0.6288 -0.447,-0.4448 -0.038,-0.04 c -16.5748,-16.5756 -33.5072,-31.019 -55.8923,-47.708 -22.321,-16.6456 -50.0565,-35.3514 -86.4241,-59.0609 l -0.076,-0.05 c -6.9339,-4.5384 -14.0209,-9.2813 -21.3251,-14.1635 l -0.076,-0.05 c -31.3237,-21.0383 -65.9802,-43.9937 -100.343,-60.799 -17.1366,-8.4123 -34.0818,-15.2461 -49.9799,-19.7999 -15.9108,-4.5729 -30.6852,-6.8491 -43.9655,-6.8338 -17.4815,0.064 -31.4002,3.6042 -44.0931,10.1095 -5.3377,2.7709 -8.5939,5.3015 -10.969,7.6033 -3.4606,3.4993 -5.5675,6.5705 -7.9171,13.0605 -2.2347,6.4147 -4.1118,16.4999 -4.0991,30.7286 -0.026,16.2302 2.4646,37.5331 7.8661,62.7494 8.032,37.8577 22.4233,84.3282 41.3605,137.3553 18.9116,53.0654 42.2927,112.7895 67.9594,178.3161 l 0.013,0.026 c 13.2036,33.741 26.7777,68.3767 40.1728,103.3446 33.2008,86.7298 65.5844,158.07158 89.3357,221.55326 v 0.013 c 20.1758,54.139 39.7132,101.8365 54.845,141.61 7.5851,19.9634 14.0849,37.8691 19.1799,54.7141 2.5411,8.4608 4.7503,16.666 6.4997,25.2419 1.7112,8.6269 3.1157,17.5094 3.1669,28.7308 -0.038,7.3105 -0.5874,15.7457 -3.4095,26.1492 -1.4302,5.1762 -3.4861,10.8381 -6.5635,16.781 -3.0648,5.9303 -7.2149,12.1161 -12.5142,17.8674 l -0.026,0.026 c -4.7119,5.0995 -9.1812,8.7037 -13.1909,11.5282 -7.7893,5.419 -13.957,8.1669 -19.3714,10.3651 -10.0495,3.9365 -17.8517,5.6874 -25.6922,7.285 -13.523,2.6073 -26.8288,4.0259 -40.8242,5.1762 -20.8526,1.6742 -42.8162,2.4794 -62.3153,3.0291 -9.7304,0.2811 -18.8095,0.4856 -26.6117,0.6773 -7.7639,0.1917 -14.3401,0.3834 -18.4775,0.5623 -9.5388,0.4218 -21.9508,0.7541 -36.3675,0.997 -14.3786,0.2428 -30.6214,0.3834 -47.1451,0.3834 -25.437,-0.013 -51.3846,-0.3323 -72.8119,-1.2014 -10.7902,-0.4602 -20.2908,-0.9969 -29.3188,-1.9427 -4.6226,-0.5112 -8.9898,-1.0353 -14.8254,-2.2238 -2.9881,-0.6391 -6.3337,-1.3804 -11.2755,-3.0547 -2.5029,-0.869 -5.4271,-1.9553 -9.2452,-3.8085 -3.8053,-1.9043 -8.5556,-4.4221 -14.8381,-9.4961 -5.4782,-4.5371 -8.5556,-8.0135 -11.1351,-11.0042 -4.6736,-5.5468 -7.3553,-9.6366 -9.9603,-13.6753 -4.4054,-6.94 -8.0064,-13.5092 -11.7351,-20.5258 -5.5292,-10.4418 -11.0329,-21.6377 -16.2684,-32.3096 -5.1972,-10.6333 -10.139,-20.7556 -13.8549,-27.9895 l 64.9968,-33.4598 63.4518,36.2972 c -13.0632,22.775 -33.9286,51.6209 -67.2953,76.326 -16.6515,12.2822 -36.4443,23.3248 -59.1486,31.2743 -22.6786,7.9624 -48.1921,12.7296 -75.5444,13.1514 h 0.013 c -5.1078,0.077 -10.1772,0.1278 -15.2085,0.1278 -42.1777,0 -81.942,-2.978 -120.9273,-9.2916 -38.9854,-6.3009 -77.0642,-15.912 -115.9601,-28.6287 -75.8766,-24.7818 -149.0076,-57.1169 -219.4699,-98.6923 -70.475,-41.5628 -138.23,-92.3404 -203.6356,-153.5983 -119.0654,-111.51264 -214.9134,-245.50536 -294.6591,-392.90506 l -0.026,-0.038 c -14.7104,-27.2484 -28.3993,-55.1997 -42.4969,-83.9435 l 0.013,0.038 c -25.3857,-51.8257 -51.3718,-104.431 -81.827,-151.4537 -30.4426,-47.1083 -64.9714,-88.1957 -106.7405,-119.254 l -0.013,-0.01 c -26.844,-20.0043 -52.9923,-34.2037 -78.1968,-43.3943 -25.2504,-9.1765 -49.547,-13.4695 -73.8691,-13.4951 -35.7942,0.075 -67.8675,9.2813 -98.4148,26.3806 -22.8203,12.8459 -44.549,30.3388 -64.4209,51.7618 -29.8143,32.077 -55.2538,73.0301 -73.5755,117.7868 -18.3753,44.7183 -29.6189,93.1316 -32.4473,139.2571 -1.761,28.4498 -2.6433,57.0785 -2.6433,85.8862 0.01,197.8067 41.6056,403.88246 125.905,617.86926 84.2788,213.9359 211.3598,435.5657 381.5585,662.946834 89.6931,119.882896 179.1564,234.461696 278.3246,334.675096 99.2192,100.2773 207.7729,186.1891 337.0132,250.8849 h -0.013 c 5.0567,2.5434 37.3637,18.353 79.0689,32.9614 20.8271,7.2977 43.9782,14.2888 66.8229,19.286 22.8192,5.0356 45.3574,7.9751 64.2818,7.9368 20.1503,0 34.797,-3.1057 45.5745,-7.1444 8.1086,-3.0545 14.1358,-6.646 19.116,-10.5824 7.3935,-5.9047 12.7056,-12.7807 16.8557,-21.1775 4.1118,-8.3331 6.7423,-18.2253 7.5979,-28.1815 0.5747,-6.5437 0.8811,-13.1769 0.8811,-19.8101 0,-16.9727 -2.0304,-33.8943 -6.7295,-50.0236 -3.5372,-12.116 -8.5173,-23.8232 -15.5406,-35.3258 -10.5732,-17.2028 -25.6667,-34.265 -49.5713,-50.9694 -23.8917,-16.6276 -56.8499,-32.7313 -102.169,-45.6398 l -0.038,-0.013 c -9.5645,-2.7223 -19.4607,-5.4701 -29.6125,-8.2819 h -0.026 c -32.1409,-8.9081 -62.0343,-17.5095 -90.1017,-27.1845 -21.0442,-7.2594 -41.0797,-15.1323 -60.2467,-24.5006 -14.3657,-7.0293 -28.2462,-14.9278 -41.4882,-24.1682 -19.8311,-13.8032 -38.3086,-30.9038 -53.2617,-51.6851 -14.9914,-20.7175 -26.0626,-44.8474 -32.5623,-70.4216 l 0.013,0.026 c -3.9713,-15.4263 -6.2188,-31.351 -6.2188,-47.5059 -0.013,-17.8674 2.8221,-36.0287 8.7216,-53.2187 5.8613,-17.2156 14.7233,-33.3193 25.6923,-47.454797 l 0.013,-0.026 c 20.3036,-26.162099 46.8641,-45.294629 75.8637,-57.922029 29.0762,-12.6145 60.8596,-18.9154 93.639,-18.9665 h 0.064 c 38.9726,0 77.1917,5.9686 113.8658,16.6532 64.2052,18.7365 123.6474,51.60843 177.3177,93.183926 80.4608,62.5104 148.4585,144.7158 199.8303,234.6278 51.2058,90.0144 85.939,187.7867 96.1545,283.9486 v 0.026 c 1.6473,15.6564 2.8476,33.805 2.8476,53.6917 -0.076,41.1154 -4.9162,89.976 -23.7768,139.7185 -9.4495,24.82 -22.5765,49.7935 -40.5305,73.131 -17.9284,23.3248 -40.7476,44.8603 -68.3169,62.3826 l 0.025,-0.013 c -27.0969,17.29232 -57.6671,28.98661 -90.5104,36.32271 -32.9198,7.3489 -68.3169,10.5057 -106.9191,10.5185 -68.2915,-0.064 -134.6419,-9.9051 -194.5182,-19.2733 -178.3137,-28.10481 -348.9274,-92.97951 -501.8807,-170.03431 -152.9534,-77.131 -288.3105,-166.6725 -395.3101,-245.6828 -293.0211,-216.4541 -544.3917,-472.2467 -728.0124,-742.21303 -106.3663,-156.4484 -189.464,-316.0408 -248.3877,-477.691 -58.925,-161.64994 -93.6267,-325.35771 -103.2287,-489.46176 v 0 c -1.4765,-25.2929 -2.3295,-51.5189 -2.3295,-78.4606 0.01,-57.7431 3.8907,-118.7198 13.9917,-180.6039 15.1741,-92.7366 44.3486,-187.8122 96.41,-275.4902 26.0179,-43.7841 57.7668,-85.6306 96.0256,-123.8819 38.2383,-38.2526 82.9623,-72.8755 134.4643,-102.3963 v 0 c 127.2854,-72.9394 275.8665,-110.7472 429.9691,-110.7575 170.5127,0.036 341.904,44.4883 496.7013,128.1264 3.3456,1.8123 6.372,3.5799 10.1518,5.8012 12.8972,7.6543 32.971,20.1449 53.3256,33.5493 10.1645,6.7098 20.3035,13.5846 29.6763,20.2842 4.6993,3.346 9.2069,6.6702 13.5358,9.9958 4.3288,3.3447 8.4534,6.6447 12.7056,10.3983 l -0.4086,-0.354 1.6345,1.4174 1.2641,-1.8417 -0.013,0.015 c 1.3025,-1.9069 2.3879,-3.36 3.486,-4.8426 2.0432,-2.7261 4.1374,-5.382 6.4742,-8.2972 8.0704,-10.0699 19.1032,-23.1957 29.8169,-35.5418 5.3504,-6.1603 10.5604,-12.0522 15.3106,-17.2693 2.3752,-2.6213 4.6482,-5.0727 6.8701,-7.3987 2.2729,-2.3657 4.3672,-4.5231 7.1381,-7.1291 l -0.025,0.026 c 44.8082,-42.0523 98.0572,-74.2187 156.2734,-95.7555 58.2418,-21.5623 121.4893,-32.5664 186.9331,-32.5664 25.1177,0 50.4651,1.6231 75.6211,4.9077 l -0.064,-0.01 c 28.31,3.6796 76.4383,11.8222 131.4112,30.1995 27.4928,9.2162 56.7094,21.014 86.0155,36.3751 29.2933,15.3714 58.6888,34.3379 86.1688,58.0729 l 1.277,1.1132 0.881,-1.4583 c 6.4358,-10.6833 13.8549,-19.9097 21.9125,-28.3565 14.1231,-14.7233 30.3149,-27.1589 48.4859,-38.4072 27.2374,-16.7695 59.0591,-30.7133 95.0181,-41.2676 35.9334,-10.5198 75.9658,-17.5236 119.063,-19.401 h -0.026 c 11.1478,-0.4896 22.3851,-0.7286 33.5329,-0.7286 107.9919,-0.015 218.6014,21.7272 333.9358,64.9515 115.4238,43.2498 235.8659,107.777 366.0129,194.237 l 69.2492,46.0003 -40.4284,60.9472 -65.2522,-32.9447 c 1.1492,-2.252 19.1287,-37.8079 51.6271,-83.9576 16.2812,-23.0807 36.2016,-48.8363 59.8125,-74.4578 23.6364,-25.6022 50.9248,-51.1227 82.4528,-73.4391 50.2609,-35.5469 109.486,-68.8508 176.1812,-96.6744 66.6697,-27.7979 140.8223,-50.0747 220.6829,-63.01 7.6107,-1.2282 14.519,-1.9261 21.606,-2.5804 12.2843,-1.0992 24.9389,-1.9568 37.0572,-3.1211 9.0536,-0.8678 17.7242,-1.9017 25.0283,-3.1402 5.4526,-0.9087 10.1262,-1.9567 13.3441,-2.8756 2.4007,-0.6634 3.9841,-1.2781 4.3417,-1.457 l 0.089,-0.026 11.9523,24.9977 -19.9461,-18.5576 c 4.9674,-5.2273 7.9427,-6.3494 7.9938,-6.4401 l 11.9523,24.9977 -19.9461,-18.5576 34.0564,31.6974 -41.5521,-20.8082 c 2.2986,-4.6138 5.0696,-8.2921 7.4957,-10.8892 l 34.0564,31.6974 -41.5521,-20.8082 44.3869,22.2115 -49.1372,-7.0153 c 0.7151,-5.1762 2.439,-10.6182 4.7503,-15.1962 l 44.3869,22.2115 -49.1372,-7.0153 v 0.026 l 50.8738,7.2595 h -51.3845 c -0.013,-2.2865 0.1532,-4.743 0.5107,-7.2595 l 50.8738,7.2595 h -51.3845 43.4292 l -40.7476,15.6064 c -1.0982,-2.8909 -2.6688,-8.1182 -2.6816,-15.6064 h 43.4292 l -40.7476,15.6064 18.1583,-6.9552 -16.4345,10.5939 c -0.025,-0.074 -0.715,-1.0582 -1.7238,-3.6387 l 18.1583,-6.9552 -16.4345,10.5939 -0.2937,-0.4039 c -0.7916,-1.1132 -3.2689,-4.0144 -6.9721,-7.5188 -5.5675,-5.3015 -13.8294,-12.0024 -23.2533,-18.6471 -9.4367,-6.6702 -20.0609,-13.3801 -30.5319,-19.3857 -8.811,-5.0471 -19.1032,-10.4789 -34.8864,-16.6941 -23.5598,-9.2264 -59.4294,-19.9008 -115.5769,-28.3323 -56.0966,-8.4224 -132.2796,-14.5086 -235.2403,-14.4933 -38.1681,0 -70.028,0.8282 -89.5654,1.328 h -0.026 l -11.9395,0.2939 -0.3448,0.01 c -15.4129,0.3093 -39.5727,1.2436 -70.3729,2.7019 -92.6301,4.3927 -245.9921,13.444 -427.9834,24.1529 -231.2178,13.6498 -505.3412,29.8301 -758.9312,42.6351 -126.8142,6.4057 -248.495,11.9627 -357.2402,15.9516 -108.7708,3.9888 -204.5167,6.4056 -280.0358,6.4798 h 0.051 l -11.8885,0.015 h -0.1149 c -111.8866,-0.015 -233.8918,-1.3433 -359.6665,-11.0438 -125.7835,-9.7146 -255.4147,-27.7725 -382.7549,-61.7064 v 0 c -86.908,-23.1599 -165.65,-50.2639 -241.0004,-83.8132 -75.3543,-33.5391 -147.1586,-73.4545 -220.3241,-121.5967 -47.6508,-31.3524 -89.591,-62.3199 -125.7748,-93.1495 -36.1784,-30.8475 -66.6458,-61.4968 -91.2072,-92.9795 l -0.015,-0.01 c -14.3108,-18.4425 -26.6614,-38.622 -37.4556,-59.0468 -5.3672,-10.199 -10.2705,-20.4235 -14.6151,-30.5233 -4.3447,-10.1198 -8.1306,-20.0397 -11.2482,-30.2643 -1.5363,-5.0723 -2.6836,-11.4227 -3.0128,-16.7147 l 72.9459,-4.5631"
         style="display:inline;fill:#ffffff;fill-opacity:1;fill-rule:nonzero;stroke:none;stroke-width:1.27751"
         id="path8956"
         inkscape:label="cal outline" /><path
         d="m 5460.7278,326.13659 c -29.8169,16.4616 -109.3966,-42.2657 -109.3966,-42.2657 -152.3914,-121.1225 -266.9341,-271.180526 -365.6425,-444.06483 -260.8049,-456.8073 -236.747,-815.73997 -236.747,-815.73997 0,0 136.0465,155.01689 168.1491,205.79459 43.7611,69.233 208.4241,300.98498 301.0671,464.37328 99.3341,175.1849 213.4809,417.66003 241.7781,501.62913 0,0 45.8172,105.4279 0.7918,130.2735 z M 3535.7218,-755.67162 c -75.6723,-2.326 -256.144,-95.5611 -400.4524,-362.71578 -33.6731,-62.3442 -138.0769,-321.6656 -81.5078,-451.1059 17.0856,-39.1357 48.0006,-65.9751 87.0371,-75.5108 10.0879,-2.491 20.495,-3.7294 30.8639,-3.7294 127.2994,-0.024 216.4562,178.2356 304.0296,376.8756 6.8445,15.4774 12.9866,29.4211 18.3626,41.1154 22.3978,48.9756 116.9434,267.34643 135.6124,349.59018 11.6331,51.2761 15.5022,128.8421 -93.9454,125.4807 z M 1118.5889,-2623.5299 c 8.2403,27.144 29.6842,68.7365 51.0232,96.1344 41.1315,52.76 108.2622,109.9536 199.5094,169.9832 140.7138,92.5705 272.2999,151.1571 439.9791,195.8537 243.2403,64.848 501.0596,70.2798 723.6133,70.2798 l 11.8757,-0.01 c 296.2018,-0.2697 929.5575,-37.643 1391.9932,-64.9425 242.6975,-14.2876 434.3936,-25.6113 501.1655,-26.9635 l 11.9395,-0.2952 c 19.5374,-0.4984 52.2274,-1.3573 91.417,-1.3573 282.1938,0 378.5526,44.2225 422.0711,69.2202 47.3623,27.1986 97.0357,66.0404 93.1538,93.2236 -5.6569,39.5959 -104.7868,36.5157 -141.9077,42.5456 -147.654,23.914 -274.9279,82.5403 -366.3833,147.2233 -104.7994,74.0884 -170.8052,205.0495 -170.8052,205.0495 l -69.2491,-46.0104 c -253.5645,-168.4853 -463.1252,-246.9562 -659.5204,-246.9715 -10.1135,0 -20.3164,0.2198 -30.3404,0.6544 -113.1253,4.9077 -200.3795,51.1074 -225.0247,92.081 l -45.6254,75.8393 -66.9379,-57.8569 c -89.8208,-77.6682 -215.358,-101.0173 -265.172,-107.4728 -21.9763,-2.8501 -44.2464,-4.279 -66.1972,-4.279 -114.5043,0 -218.6398,38.5325 -293.2139,108.5221 -11.0073,10.314 -51.5633,57.9464 -58.8547,68.5658 l -47.6814,69.3199 -63.3879,-55.1959 c -22.2956,-19.7104 -91.7363,-62.9347 -105.7317,-70.4983 -144.459,-78.067 -304.2224,-119.3345 -461.981,-119.3345 -142.1657,0 -278.2811,34.9411 -393.641,101.0722 -273.8463,157.0222 -315.3371,463.5657 -301.9291,693.0813 18.346,313.34398 132.4341,626.34296 339.0756,930.28046 178.1847,262.067834 424.0325,512.59483 710.9829,724.51143 208.9848,154.3396 528.7464,349.4239 865.1342,402.3105 59.1867,9.3043 122.0766,18.3785 183.1788,18.3785 69.0703,0 120.8125,-11.5537 158.1505,-35.3769 100.7516,-64.1974 103.6119,-190.2022 96.3461,-259.6141 -26.7394,-254.9235 -262.1839,-562.874197 -514.4842,-562.886897 -46.6471,0.038 -88.3013,18.212397 -111.7972,48.553697 -18.4647,23.8488 -23.5725,52.5159 -15.1957,85.1706 21.3634,83.2662 99.7555,110.5785 226.3526,145.6359 10.1773,2.8118 20.2653,5.6108 30.1999,8.448 201.7713,57.4748 234.2186,183.1601 225.9312,278.4656 -5.6186,64.7342 -51.1164,133.9032 -161.9559,133.9032 -104.1226,0 -228.9575,-60.9639 -242.838,-67.9038 -275.7452,-137.9804 -460.6224,-365.924 -641.1579,-607.1339 -371.9699,-497.00243 -546.6634,-973.08281 -519.2689,-1415.10289 12.0416,-194.2153 146.1471,-403.8032 341.8044,-403.8032 66.302,0 132.1454,23.9983 195.7121,71.352 102.0541,75.9953 159.6702,193.4983 210.544,297.151 14.0848,28.731 27.4033,55.8899 41.169,81.3746 76.9236,142.1723 168.3534,269.45521 280.3165,374.30798 123.5452,115.678 253.3347,189.6015 395.8681,236.1743 76.0809,24.87108 144.3084,35.54298 228.2042,34.18818 79.1072,-1.2781 121.0935,-51.27598 139.7241,-83.90508 13.9699,27.1973 35.7036,75.35478 44.2465,82.34588 7.8276,6.4158 143.8103,5.7768 186.2818,3.8853 34.9374,-1.5592 143.0187,-1.0353 156.0181,-15.1451 15.349,-16.666 -27.9397,-107.21708 -75.9404,-235.94408 -22.2701,-59.73699 -55.0366,-132.06289 -89.093,-220.96538 -13.2547,-34.5973 -26.7777,-69.0668 -39.9941,-102.8462 -108.3367,-276.5587 -179.8971,-459.288 -59.7359,-521.489 23.4449,-12.1417 49.5714,-18.293 77.677,-18.293 85.9134,0 172.0439,57.6831 234.9338,99.7942 7.3553,4.9077 14.2891,9.5612 20.7377,13.7647 73.6163,48.0171 115.462,77.6581 154.1026,116.3541 l 24.0451,24.029 -2.388,33.9187 c -21.5422,306.8016 22.6915,641.15718 115.3983,872.61526 128.7934,321.6132 317.361,612.348204 545.2842,840.76463 114.2617,114.5277 401.2569,322.5077 558.9349,326.1759 133.5054,3.1056 95.9886,-232.1868 83.832,-287.4377 -26.3946,-120.0234 -166.9616,-492.97653 -396.1235,-875.25963 -77.4088,-129.13588 -246.0559,-361.71887 -357.6361,-515.62386 -52.5977,-72.5688 -94.1497,-129.8646 -112.3973,-157.2664 l -10.6243,-15.9375 -1.6345,-19.1071 c -15.4639,-182.2283 78.8263,-368.1477 179.1437,-471.5818 94.0603,-96.9926 193.6754,-132.0347 289.9959,-165.9342 33.0092,-11.6176 67.1549,-23.6136 101.7221,-38.2615 29.7019,-12.5762 66.6313,-33.589 73.8972,-62.2816 7.1764,-28.3373 -11.2627,-72.7745 -50.5673,-121.9405 -200.2773,-250.4618 -457.1874,-329.8312 -704.9928,-378.293 -142.5206,-27.8785 -315.7648,-41.4222 -529.6416,-41.4477 -143.9509,0 -287.3909,5.7871 -426.1063,11.3824 -52.7764,2.137 -104.3908,4.2087 -154.3708,5.9073 -159.0316,5.3666 -333.54,15.6052 -502.3148,25.4962 -148.2031,8.6921 -301.4374,17.6884 -442.7961,23.2889 -112.027,4.449 -220.0572,6.6856 -321.0909,6.6856 -275.8014,0 -513.026,-16.7197 -705.072,-49.6555 -86.728,-14.9023 -161.6647,-34.3775 -234.142,-53.2441 -21.1438,-5.5218 -42.1637,-10.9934 -63.264,-16.2804 -9.1928,-2.3016 -20.2666,-5.6914 -33.0999,-9.6005 -26.567,-8.1178 -68.2777,-20.8186 -99.3785,-24.513 v 0"
         style="display:inline;fill:#fdb515;fill-opacity:1;fill-rule:nonzero;stroke:none;stroke-width:1.27751"
         id="path8958"
         inkscape:label="cal fill" /></g><path
       id="path2528"
       style="display:inline;fill:#fdb515;stroke:none;stroke-width:0.211666"
       d="m 186.44774,131.57605 a 12.0504,12.0504 0 0 0 -12.05012,12.05012 12.0504,12.0504 0 0 0 12.05012,12.05052 12.0504,12.0504 0 0 0 12.05052,-12.05052 12.0504,12.0504 0 0 0 -12.05052,-12.05012 z m 1.86779,2.06169 a 10.1488,10.1488 0 0 1 10.14884,10.14842 10.1488,10.1488 0 0 1 -10.14884,10.14884 10.1488,10.1488 0 0 1 -10.14884,-10.14884 10.1488,10.1488 0 0 1 10.14884,-10.14842 z"
       inkscape:label="ball" /></g></svg>
