<?xml version="1.0" encoding="UTF-8" standalone="no"?>
<!-- Created with Inkscape (http://www.inkscape.org/) -->

<svg
   width="1000.0001"
   height="1000.0001"
   viewBox="0 0 264.58333 264.58333"
   version="1.1"
   id="svg5"
   xml:space="preserve"
   inkscape:version="1.2.1 (9c6d41e4, 2022-07-14)"
   sodipodi:docname="logo_white_outline_no_text.svg"
   inkscape:export-filename="logo_white_outline_no_text.png"
   inkscape:export-xdpi="96"
   inkscape:export-ydpi="96"
   xmlns:inkscape="http://www.inkscape.org/namespaces/inkscape"
   xmlns:sodipodi="http://sodipodi.sourceforge.net/DTD/sodipodi-0.dtd"
   xmlns="http://www.w3.org/2000/svg"
   xmlns:svg="http://www.w3.org/2000/svg"><sodipodi:namedview
     id="namedview7"
     pagecolor="#ffffff"
     bordercolor="#000000"
     borderopacity="0.25"
     inkscape:showpageshadow="2"
     inkscape:pageopacity="0.0"
     inkscape:pagecheckerboard="true"
     inkscape:deskcolor="#d1d1d1"
     inkscape:document-units="mm"
     showgrid="false"
     showguides="false"
     inkscape:zoom="0.67178375"
     inkscape:cx="-81.127297"
     inkscape:cy="308.87916"
     inkscape:window-width="1280"
     inkscape:window-height="663"
     inkscape:window-x="0"
     inkscape:window-y="25"
     inkscape:window-maximized="0"
     inkscape:current-layer="layer1" /><defs
     id="defs2"><rect
       x="467.71653"
       y="695.90551"
       width="340.15748"
       height="69.448818"
       id="rect58318" /><rect
       x="80.787401"
       y="649.13385"
       width="588.18897"
       height="77.952755"
       id="rect58155" /></defs><g
     inkscape:label="Layer 1"
     inkscape:groupmode="layer"
     id="layer1"><rect
       style="display:none;fill:#003262;fill-opacity:1;stroke-width:0.264583"
       id="rect3993"
       width="264.58334"
       height="264.58334"
       x="0"
       y="0"
       inkscape:label="background" /><path
       id="path248-8"
       style="display:inline;fill:#ffffff;fill-opacity:1;stroke-width:0.265;stroke-dasharray:none"
       class="UnoptimicedTransforms"
       inkscape:label="paddle"
       d="M 172.03298 24.720326 C 161.88841 24.910825 151.81668 26.758589 142.39086 30.534441 C 136.36398 32.939138 130.71197 35.790514 125.25082 39.283261 C 124.56338 39.749519 123.70347 40.328941 122.92951 40.86301 C 122.15554 41.397079 121.46714 41.885977 121.1229 42.171974 C 116.23194 45.991993 112.12908 49.959572 108.26374 54.212583 C 108.13581 54.493131 107.99685 54.770119 107.85963 55.047674 C 112.20357 50.336202 116.80272 46.054704 121.41436 42.552312 C 122.62706 41.631306 124.09555 40.865313 125.47044 40.044455 C 126.84532 39.223597 128.20046 38.318918 129.57148 37.526779 C 133.27185 35.583347 136.87847 33.543479 140.71654 31.884746 C 147.28137 29.40369 154.49825 27.366675 161.44344 26.404978 C 166.49442 25.893133 171.56996 25.806844 176.6668 25.962627 C 179.91226 26.028657 183.60532 26.622953 186.78918 27.374427 C 191.52256 28.418196 196.43918 29.962577 200.84775 32.022206 C 209.50611 35.968636 217.38107 41.499258 223.8665 48.46668 C 226.32687 51.17425 228.57523 54.188112 230.64593 57.201547 C 231.44445 58.67116 232.54158 60.077191 233.30779 61.573374 C 236.24434 66.857307 238.72311 72.49785 240.52078 78.23954 C 241.80451 82.23543 242.48009 86.421815 242.99557 90.581939 C 243.71133 95.826934 244.08255 101.18556 243.75883 106.47709 C 243.33473 114.288 241.87506 122.48992 239.52963 129.9506 C 237.091 137.74561 233.9318 145.04892 229.71938 152.03038 C 226.16744 157.58165 222.11244 163.27085 217.61004 168.11364 C 212.16133 174.09468 205.74825 179.3289 199.01169 183.79227 C 197.94984 184.5425 196.66579 185.30145 195.50958 185.8831 C 192.08166 187.99805 188.38549 189.68285 184.76915 191.4409 C 182.61097 192.31355 180.20466 193.13831 177.94321 193.61544 C 175.55357 193.93294 172.91575 194.13073 170.61962 193.29505 C 168.28056 192.44374 166.48816 191.14972 164.37918 189.85702 C 160.19604 187.29295 155.95326 184.82672 151.78512 182.23836 C 147.60957 179.64542 143.51277 176.9272 139.3497 174.3143 C 133.05398 170.36285 126.70086 166.70354 120.38186 162.58943 C 119.85531 162.24661 119.24011 161.93227 118.69928 161.58587 C 117.70989 161.55603 116.75403 161.51365 115.77543 161.47787 C 116.27185 161.77856 116.74967 162.04562 117.2296 162.34138 C 124.26564 166.67747 131.13259 171.28276 138.12238 175.69302 C 142.53341 178.4762 146.99413 181.17964 151.40323 183.9659 C 156.07708 186.91948 165.36723 192.91729 165.36723 192.91729 C 159.38543 191.74495 154.43143 189.96796 143.43937 190.52933 C 138.12959 190.69692 133.32688 191.62966 128.81908 194.4681 C 125.92575 196.16582 123.6921 198.14204 121.77764 200.90957 C 118.96909 204.87133 116.39297 209.60252 113.81534 213.71499 C 109.15395 221.50273 104.13319 229.49998 99.346456 237.20813 C 98.805111 238.08799 98.477048 238.09934 97.660254 237.70991 C 94.909279 236.1052 92.25717 234.53054 89.496928 232.90297 C 86.079252 230.75835 82.772587 228.52803 79.153373 226.30234 C 78.653976 226.01946 78.522543 225.2644 78.862435 224.75153 C 80.910979 221.55007 82.964649 217.74235 84.993843 214.52579 C 89.107339 207.75121 93.038773 201.26875 97.092847 194.4588 C 102.17812 186.10931 103.34654 184.83591 103.62888 178.92228 C 103.78453 175.66219 103.2501 171.40807 101.93183 167.94983 C 100.85477 165.12435 99.829761 162.89022 98.831759 160.79936 C 98.293341 160.77237 97.762027 160.74822 97.220487 160.71978 C 98.820832 163.9373 100.17911 167.19759 100.88486 170.73415 C 101.64986 174.56758 101.60671 178.68056 100.59909 182.45747 C 99.351268 187.13472 95.683847 191.99097 93.673934 195.22258 C 87.707874 204.52343 81.998818 213.55669 76.094645 222.89583 C 75.379099 223.99219 75.087712 225.675 75.679167 226.94106 C 76.63561 229.34958 78.654048 230.03607 80.715552 231.34957 C 85.740113 234.50277 90.921711 237.64146 96.079472 240.57278 C 97.89397 241.53963 99.664156 241.43628 101.32256 239.99969 C 102.27545 238.93639 102.6528 237.79486 103.45887 236.61954 C 108.93279 227.65138 114.17193 218.77461 119.81601 209.91264 C 121.90528 206.68904 123.80672 203.13448 126.28073 200.1799 C 127.84678 198.4575 130.06208 196.96814 132.08296 195.90057 C 135.02186 194.46963 138.32223 193.71417 141.49685 193.02375 C 146.14192 192.35401 151.12515 192.57716 155.82466 192.76485 C 158.88999 192.90098 162.8282 193.32411 165.90622 193.65885 C 168.33062 194.19239 166.09912 194.66185 172.32805 196.16567 C 176.84566 197.25082 180.80781 195.90519 184.97534 194.14151 C 188.99498 192.4427 192.9435 190.77788 196.70124 188.55167 C 204.8657 183.95931 212.11352 178.234 218.67974 171.57493 C 222.17415 167.99205 225.00534 164.19739 227.92879 160.13997 C 231.62818 154.86156 234.95203 149.47242 237.69357 143.63555 C 238.94401 140.74633 240.44251 137.86414 241.4029 134.86192 C 244.63041 125.5049 246.31597 116.06458 246.5261 106.15463 C 246.70347 101.03632 246.72073 95.731564 245.89823 90.669272 C 244.57777 81.146177 241.92667 71.893187 237.30496 63.437859 C 233.76366 56.715938 229.30457 50.424101 223.84118 45.139235 C 218.88456 40.19269 213.06012 36.137497 206.85617 32.892954 C 198.93336 28.699339 190.57416 26.054265 181.63859 25.16681 C 178.39649 24.807164 175.29546 24.694065 172.03298 24.720326 z M 99.439473 65.302345 C 99.233377 65.452492 99.024286 65.597536 98.813672 65.740044 C 97.684203 67.353797 96.62216 68.80273 95.167899 71.298878 C 96.492777 69.263519 97.969923 67.282316 99.439473 65.302345 z M 93.440873 74.615472 C 88.790046 82.708691 85.833509 90.432646 83.899853 97.714837 C 84.14869 97.494009 84.395274 97.263886 84.646061 97.051311 C 86.670103 89.711489 89.348599 82.100026 93.440873 74.615472 z M 84.372693 139.73398 C 84.426941 139.8925 84.455456 140.15075 84.510152 140.30552 C 84.608429 140.60341 84.827737 140.72741 84.948368 140.99282 C 85.307614 141.00788 85.650619 141.02095 86.015487 141.03674 C 85.801588 140.74211 85.459829 140.43011 85.326123 140.14997 C 85.287011 140.03514 85.271049 139.88614 85.232589 139.77015 C 84.944862 139.7627 84.657561 139.75355 84.372693 139.73398 z "
       transform="translate(0.23041191,-0.05464795)" /><text
       xml:space="preserve"
       style="font-style:oblique;font-variant:normal;font-weight:500;font-stretch:normal;font-size:22.9306px;font-family:'Sneakers Pro';-inkscape-font-specification:'Sneakers Pro, Medium Oblique';font-variant-ligatures:normal;font-variant-caps:normal;font-variant-numeric:normal;font-variant-east-asian:normal;white-space:pre;inline-size:197.299;display:none;fill:#ffffff;fill-opacity:1;stroke-width:0.264583"
       x="143.625"
       y="196.125"
       id="text58324"
       transform="translate(-128.47051,-9.0074883)"
       inkscape:label="table tennis" /><text
       xml:space="preserve"
       style="font-style:normal;font-variant:normal;font-weight:bold;font-stretch:normal;font-size:7.05556px;font-family:Arial;-inkscape-font-specification:'Arial, Bold';font-variant-ligatures:normal;font-variant-caps:normal;font-variant-numeric:normal;font-variant-east-asian:normal;white-space:pre;inline-size:197.299;display:inline;fill:#ffffff;fill-opacity:1;stroke-width:0.264583"
       x="143.625"
       y="196.125"
       id="text58324-8"
       transform="matrix(1.2035142,0,0,1.244217,-5.1006702,-86.054912)"
       inkscape:label="rights_reserved"><tspan
         x="143.625"
         y="196.125"
         id="tspan379">®
</tspan></text><path
       id="path8956-9"
       style="display:inline;fill:#ffffff;fill-opacity:1;fill-rule:nonzero;stroke:none;stroke-width:1.27751"
       inkscape:label="cal outline white"
       d="m 3321.118,1022.5748 c -68.2915,-0.064 -134.6404,-9.9091 -194.5166,-19.2773 C 2948.2879,975.1927 2777.6698,910.31315 2624.7166,833.25843 2471.7634,756.12751 2336.4134,666.58507 2229.4139,587.57485 1936.3931,371.12097 1685.0218,115.33393 1501.4013,-154.63213 1395.0351,-311.08038 1311.9314,-470.68226 1253.0077,-632.3323 c -58.9249,-161.64978 -93.6255,-325.34432 -103.2275,-489.4482 -1.4765,-25.2929 -2.3291,-51.53 -2.3291,-78.4717 0.01,-57.743 3.8883,-118.7165 13.9893,-180.6006 15.1741,-92.7365 44.3546,-187.8152 96.416,-275.4931 26.0179,-43.7841 57.7617,-85.6306 96.0205,-123.8818 38.2382,-38.2526 82.956,-72.8718 134.458,-102.3926 127.2853,-72.9393 275.8731,-110.7465 429.9755,-110.7568 170.5126,0.036 341.9021,44.4918 496.6992,128.1298 3.3456,1.8123 6.3716,3.5795 10.1514,5.8008 12.8972,7.6543 32.9804,20.1406 53.335,33.5449 10.1644,6.7098 20.2902,13.5885 29.663,20.2881 4.6993,3.346 9.2063,6.6647 13.5352,9.9903 4.3041,3.3256 8.4151,6.6147 12.6416,10.3418 l 1.3037,1.1279 1.2598,-1.8457 c 1.2965,-1.8973 2.3773,-3.3565 3.4716,-4.834 2.0432,-2.7261 4.1379,-5.3758 6.4747,-8.291 8.0703,-10.0699 19.0958,-23.191 29.8095,-35.5371 5.3504,-6.1603 10.5721,-12.0534 15.3223,-17.2705 2.3752,-2.6213 4.6482,-5.0715 6.8701,-7.3975 2.2729,-2.3657 4.3629,-4.5278 7.1338,-7.1338 44.802,-42.0386 98.0369,-74.1955 156.2402,-95.7275 58.2418,-21.5623 121.4996,-32.5635 186.9434,-32.5635 25.1176,0 50.4592,1.6226 75.6152,4.9072 28.315,3.682 76.4043,11.8214 131.3525,30.1905 27.4928,9.2162 56.7096,21.011 86.0156,36.372 29.2933,15.3714 58.6822,34.3315 86.1622,58.0664 l 1.2744,1.1133 0.8935,-1.4502 c 6.4358,-10.6833 13.8418,-19.9126 21.8994,-28.3593 14.1231,-14.7233 30.3154,-27.16 48.4864,-38.4082 27.2373,-16.7695 59.0654,-30.7104 95.0244,-41.2647 35.9247,-10.5173 75.9478,-17.5298 119.0332,-19.4092 11.1477,-0.4896 22.3824,-0.7177 33.5302,-0.7177 107.9918,-0.015 218.6062,21.7269 333.9404,64.9511 115.4237,43.2498 235.8737,107.7637 366.0205,194.2236 l 6.4453,4.2774 c 4.6613,-7.1003 3.2391,-6.4048 8.7452,-14.2236 16.2811,-23.0807 36.1986,-48.8366 59.8095,-74.4581 23.6364,-25.6021 50.9281,-51.1308 82.4561,-73.4472 50.2608,-35.5469 109.4816,-68.8415 176.1767,-96.665 66.6696,-27.7979 140.8328,-50.0823 220.6934,-63.0176 6.8366,-1.1033 13.0674,-1.7142 19.4091,-2.3145 -8.0395,-4.4686 -16.5577,-9.087 -30.2343,-14.4726 -23.5598,-9.2264 -59.4288,-19.8986 -115.5762,-28.3301 -56.0965,-8.4224 -132.2786,-14.5173 -235.2392,-14.502 -38.1681,0 -70.0232,0.8333 -89.5606,1.3331 h -0.029 l -11.9385,0.2929 -0.3515,0.015 c -15.4129,0.3093 -39.5709,1.237 -70.3711,2.6953 -92.63,4.3927 -245.9923,13.4464 -427.9834,24.1553 -231.2175,13.6497 -505.3457,29.8366 -758.9355,42.6416 -126.814,6.4056 -248.4863,11.9632 -357.2314,15.9521 -108.7536,3.9882 -204.4767,6.3997 -279.9902,6.4746 h -0.044 l -11.8359,0.015 h -0.1172 c -111.8865,-0.015 -233.8885,-1.3445 -359.663,-11.045 -125.7834,-9.7146 -255.4236,-27.78 -382.7637,-61.7138 -86.9079,-23.1599 -165.6458,-50.2545 -240.9961,-83.8037 -75.3542,-33.5391 -147.1617,-73.4546 -220.3271,-121.5967 -47.6508,-31.3524 -89.5877,-62.3198 -125.7715,-93.1494 -36.1784,-30.8475 -66.6544,-61.5056 -91.2158,-92.9883 h -0.015 c -14.3108,-18.4425 -26.6619,-38.6231 -37.4561,-59.0478 -5.3672,-10.199 -10.2599,-20.4276 -14.6045,-30.5274 -4.3447,-10.1198 -8.1324,-20.0391 -11.25,-30.2636 -1.5363,-5.0723 -2.6884,-11.4219 -3.0176,-16.7139 h 0.015 c -1.3568,-21.6524 6.9722,-42.7827 22.7197,-57.7002 15.7474,-14.8975 37.3044,-22.0579 58.8281,-19.5117 21.3639,2.5961 41.9283,7.4124 61.4063,12.5097 19.3274,5.0951 37.2777,10.6009 50.625,14.6631 l 0.073,0.015 c 12.8262,3.9109 23.2537,7.055 29.4434,8.584 l 0.1025,0.029 c 21.4944,5.3919 42.7413,10.9188 63.8965,16.4355 0.015,0 0.029,0.011 0.044,0.015 72.4732,18.8706 144.9089,37.6594 228.0322,51.9287 186.2702,31.9818 419.9064,48.6436 692.7246,48.6181 99.9609,0 207.0604,-2.2276 318.1933,-6.6357 140.3754,-5.5621 293.2277,-14.5308 441.4307,-23.2178 168.7777,-9.8794 343.7703,-20.1591 504.0966,-25.5762 49.6735,-1.6975 101.1585,-3.7568 153.8965,-5.8886 138.7408,-5.6015 283.1629,-11.4402 429.0674,-11.4551 216.9539,0.05 394.5525,13.6717 543.662,42.8027 126.5587,24.793 258.9924,57.9439 387.6709,119.1211 64.3072,30.5842 127.5991,68.2432 188.2031,115.1367 60.617,46.8898 118.5057,103.0195 172.1631,170.127 19.6267,24.5938 35.6259,48.9966 47.5781,73.9599 5.9634,12.511 10.9066,25.2011 14.5459,38.4815 3.6137,13.2803 5.9657,27.1995 5.9912,42.2168 0,9.9049 -1.0702,20.323 -3.7646,30.9667 -4.9673,19.5301 -14.2735,35.3586 -24.1699,47.7393 -7.4701,9.3567 -15.4216,17.0374 -23.3643,23.6719 -11.9395,9.9446 -23.9755,17.6257 -35.5957,24.1552 -11.6075,6.4901 -22.8406,11.755 -33.1201,16.1133 -37.287,15.7803 -72.9812,28.286 -105.9522,39.9024 h -0.029 c -48.205,16.9242 -93.589,33.1002 -136.5967,55.3271 -43.0588,22.2754 -84.0422,50.2033 -125.1856,92.5342 -39.8791,41.0029 -81.0816,100.4384 -111.0644,167.4463 -30.1617,67.0591 -49.1783,141.5158 -49.1016,213.2666 0,11.301 0.4503,22.5453 1.4063,33.706 v 0.029 l 0.029,0.3516 0.2051,0.3076 c 8.0448,12.0905 22.8386,33.0992 41.8652,59.6191 19.0777,26.5838 42.5863,58.9891 68.8916,95.2735 55.7898,76.9652 126.0342,173.8452 192.2314,267.94915 33.1114,47.05846 65.1985,93.44138 94.0576,136.43554 28.8718,43.01976 54.4735,82.57374 74.8535,116.55761 116.5857,194.49621 210.3035,385.96617 278.5694,544.702115 34.1329,79.380721 61.8734,150.559135 82.9687,210.117175 10.5476,29.79177 19.4307,56.66964 26.6455,80.39062 7.202,23.74648 12.7331,44.22146 16.6406,61.94824 2.9881,13.61138 6.8347,34.18313 10.0782,59.39941 3.2307,25.17797 5.8318,54.756 5.8447,86.03027 -0.013,22.31507 -1.3269,45.50671 -5.0684,68.92089 -2.8348,17.57338 -7.0339,35.31151 -13.623,53.01269 -4.9546,13.25359 -11.2871,26.51576 -19.7022,39.36035 -6.3081,9.61119 -13.8322,18.96892 -22.7197,27.58301 -13.2931,12.92138 -29.9067,24.01492 -48.4863,31.27441 -18.5797,7.33599 -38.7677,10.81965 -58.9307,10.78125 -1.443,0 -2.8636,-0.0206 -4.3066,-0.0586 -27.4545,-0.66459 -54.5802,-5.49963 -81.958,-12.86132 -47.8219,-12.99799 -96.7016,-33.93664 -146.0303,-59.37012 -73.8588,-38.20146 -148.4257,-86.7497 -214.9804,-135.77635 -33.2646,-24.51338 -64.472,-49.13642 -92.4756,-72.72949 -28.0291,-23.61868 -52.8192,-46.15448 -73.5059,-66.88476 -235.5463,-236.135665 -429.0581,-534.88424 -561.4013,-865.23921 -41.0669,-102.61599 -72.2856,-221.40191 -93.5596,-348.23728 -21.2484,-126.8226 -32.4609,-261.6218 -32.4609,-395.7422 0,-53.96 1.8231,-107.8181 5.5518,-160.9716 l 0.044,-0.6153 -0.4395,-0.4541 -0.044,-0.044 c -16.5748,-16.5756 -33.4987,-31.0063 -55.8838,-47.6953 -22.321,-16.6456 -50.0582,-35.353 -86.4258,-59.0625 l -0.088,-0.059 c -6.9338,-4.5384 -14.0092,-9.2829 -21.3134,-14.1651 l -0.088,-0.044 c -31.3237,-21.0383 -65.979,-44.0004 -100.3418,-60.8057 -17.1366,-8.4122 -34.0824,-15.2362 -49.9805,-19.79 -15.9108,-4.5729 -30.6796,-6.8561 -43.9599,-6.8408 -17.4815,0.064 -31.3989,3.6021 -44.0918,10.1074 -5.3377,2.7709 -8.5966,5.3007 -10.9717,7.6025 -3.4606,3.4993 -5.5606,6.5765 -7.9102,13.0665 -2.2347,6.4146 -4.1142,16.5037 -4.1015,30.7324 -0.026,16.2302 2.4647,37.523 7.8662,62.7392 8.032,37.8577 22.4153,84.3314 41.3525,137.3584 18.9116,53.0654 42.3021,112.7889 67.9688,178.3154 l 0.015,0.029 c 13.2036,33.741 26.7709,68.3769 40.166,103.3448 33.2008,86.7297 65.5896,158.07594 89.3408,221.55755 v 0.0146 c 20.1758,54.13895 39.712,101.83298 54.8438,141.60644 7.5851,19.96338 14.0798,37.86693 19.1748,54.71191 2.5411,8.46079 4.7545,16.66336 6.5039,25.23926 1.7112,8.62689 3.1129,17.51884 3.1641,28.74023 -0.038,7.31049 -0.591,15.74397 -3.4131,26.14746 -1.4302,5.17619 -3.4851,10.82956 -6.5625,16.77246 -3.0648,5.93029 -7.2105,12.1198 -12.5098,17.87109 l -0.029,0.0293 c -4.7119,5.09949 -9.1739,8.70382 -13.1836,11.52832 -7.7893,5.41899 -13.9655,8.15824 -19.3799,10.35644 -10.0494,3.9365 -17.8528,5.69732 -25.6933,7.29492 -13.523,2.6073 -26.8298,4.0206 -40.8252,5.1709 -20.8526,1.6742 -42.8154,2.48253 -62.3145,3.03223 -9.7303,0.2811 -18.7993,0.48212 -26.6015,0.67382 -7.7639,0.1917 -14.3489,0.37775 -18.4863,0.55665 -9.5388,0.42179 -21.9408,0.76784 -36.3575,1.01074 -14.3785,0.2428 -30.6296,0.38086 -47.1533,0.38086 -25.437,-0.013 -51.3754,-0.33208 -72.8027,-1.20118 -10.7902,-0.46019 -20.2982,-1.00244 -29.3262,-1.94824 -4.6226,-0.5112 -8.9886,-1.03806 -14.8242,-2.22656 -2.9881,-0.6391 -6.3375,-1.37258 -11.2793,-3.04687 -2.5029,-0.869 -5.4251,-1.9554 -9.2432,-3.8086 -3.8053,-1.9043 -8.5563,-4.43284 -14.8388,-9.50683 -5.4782,-4.5371 -8.5533,-8.01028 -11.1328,-11.00098 -2.57,-3.05015 -3.7947,-5.11187 -5.4786,-7.51465 -13.6515,8.65546 -27.3197,17.49254 -44.3408,23.45215 -22.6743,7.96089 -48.1809,12.73094 -75.5273,13.1543 h -0.015 c -5.1028,0.0769 -10.1639,0.13183 -15.1904,0.13183 -42.1776,0 -81.9376,-2.98816 -120.9228,-9.30176 -38.9854,-6.30089 -77.0758,-15.90635 -115.9717,-28.62304 -75.8765,-24.78178 -149.0006,-57.11116 -219.4629,-98.68652 -70.4749,-41.56276 -138.237,-92.34566 -203.6425,-153.6035 -119.0653,-111.51253 -214.9077,-245.50083 -294.6533,-392.90043 l -0.029,-0.044 c -14.7104,-27.2484 -28.3976,-55.1918 -42.4952,-83.9356 -25.381,-51.8161 -51.3621,-104.4072 -81.8115,-151.4209 -30.4425,-47.1082 -64.9741,-88.1946 -106.7431,-119.2529 l -0.015,-0.015 c -26.844,-20.0043 -52.9889,-34.1981 -78.1933,-43.3887 -25.2504,-9.1765 -49.55,-13.4656 -73.8721,-13.4912 -35.7942,0.075 -67.8609,9.2679 -98.4082,26.3672 -22.8203,12.8459 -44.5519,30.3446 -64.4238,51.7675 -29.8143,32.077 -55.2574,73.0315 -73.5791,117.7881 -18.3753,44.7183 -29.6179,93.1373 -32.4463,139.2627 -1.761,28.4498 -2.6367,57.0761 -2.6367,85.8838 0.01,197.8065 41.604,403.88451 125.9033,617.8711 84.2787,213.93569 211.3493,435.56339 381.5478,662.944293 89.693,119.882777 179.1669,234.459527 278.335,334.672827 99.2191,100.2772 207.7617,186.18804 337.0019,250.88378 5.0567,2.54339 37.3524,18.35059 79.0576,32.95898 20.8271,7.29769 43.9815,14.2948 66.8262,19.29199 22.8191,5.0356 45.3529,7.97775 64.2773,7.93945 20.1503,0 34.8085,-3.10974 45.5859,-7.14843 8.1086,-3.0545 14.1361,-6.65443 19.1163,-10.59082 7.3934,-5.9047 12.6956,-12.7702 16.8457,-21.16699 4.1118,-8.3331 6.7469,-18.22741 7.6025,-28.1836 0.5747,-6.54369 0.8789,-13.18614 0.8789,-19.81933 0,-16.97268 -2.0245,-33.88048 -6.7236,-50.00976 -3.5372,-12.11599 -8.5187,-23.82944 -15.542,-35.33203 -10.5732,-17.20279 -25.6658,-34.27218 -49.5703,-50.97656 -23.8917,-16.62759 -56.8538,-32.72139 -102.1729,-45.62988 l -0.044,-0.0147 c -9.5645,-2.7223 -19.4527,-5.46457 -29.6045,-8.27637 h -0.029 c -32.1409,-8.90809 -62.0352,-17.51251 -90.1025,-27.1875 -21.0442,-7.25939 -41.0821,-15.13854 -60.2491,-24.50683 -14.3656,-7.02929 -28.2423,-14.92953 -41.4843,-24.16992 -19.8311,-13.80319 -38.3087,-30.89841 -53.2617,-51.67968 -14.9851,-20.70874 -26.0481,-44.83823 -32.5489,-70.40039 -3.9713,-15.42629 -6.2109,-31.35 -6.2109,-47.50488 -0.013,-17.86738 2.8163,-36.02779 8.7158,-53.21777 5.8613,-17.21558 14.7244,-33.3108 25.6934,-47.446287 l 0.015,-0.0293 c 20.3036,-26.162073 46.8647,-45.292531 75.8643,-57.919919 29.0761,-12.614487 60.8534,-18.918625 93.6328,-18.969725 h 0.059 c 38.9725,0 77.2028,5.970683 113.8769,16.655272 64.2051,18.736482 123.6491,51.603251 177.3193,93.178709 80.4608,62.51034 148.4476,144.7121 199.8194,234.62401 51.2057,90.01431 85.9515,187.79814 96.1669,283.95994 v 0.0146 c 1.6473,15.65638 2.8418,33.81449 2.8418,53.70117 -0.076,41.11536 -4.9138,89.97434 -23.7744,139.71679 -9.4495,24.81997 -22.5782,49.78752 -40.5322,73.12499 -17.9223,23.31683 -40.7344,44.854 -68.291,62.37305 l -0.029,0.0146 c -27.0901,17.28277 -57.6511,28.97982 -90.4834,36.31342 -32.9198,7.3489 -68.3168,10.5048 -106.9189,10.5176 z m 0,-73.16892 c 69.0702,0 120.8065,-11.55279 158.1445,-35.37597 100.7515,-64.19734 103.6232,-190.20241 96.3574,-259.61424 -26.7394,-254.92325 -262.197,-562.868125 -514.497,-562.880825 -46.6471,0.038 -88.301,18.218295 -111.7969,48.559565 -18.4647,23.84878 -23.5672,52.51135 -15.1904,85.16601 21.3633,83.26612 99.7506,110.57739 226.3476,145.63476 10.1773,2.8118 20.2705,5.61495 30.2051,8.45215 201.7711,57.47474 234.2249,183.16137 225.9375,278.46678 -5.6186,64.73413 -51.1284,133.90136 -161.9678,133.90136 -104.1225,0 -228.9466,-60.97026 -242.8271,-67.91016 C 2736.086,585.82505 2551.2041,357.88122 2370.6688,116.67156 1998.6993,-380.33037 1824.0019,-856.40637 1851.3964,-1298.426 c 12.0416,-194.2151 146.1495,-403.8135 341.8066,-403.8135 66.3019,0 132.1511,23.9989 195.7178,71.3526 102.054,75.9952 159.6682,193.5056 210.5419,297.1582 14.0848,28.7309 27.3965,55.8874 41.1621,81.372 76.9236,142.1722 168.3642,269.45886 280.3272,374.31153 123.5451,115.67788 253.3261,189.60399 395.8593,236.17674 76.0809,24.87106 144.3123,35.54425 228.208,34.18945 79.1071,-1.2781 121.0862,-51.27718 139.7168,-83.90624 13.9699,27.19727 35.71,75.34777 44.2529,82.33886 7.8276,6.41579 143.8127,5.77333 186.2842,3.88184 34.9374,-1.5592 143.0211,-1.02205 156.0205,-15.13184 15.349,-16.66598 -27.9515,-107.23015 -75.9521,-235.95702 -22.2701,-59.73693 -55.0355,-132.05461 -89.0918,-220.95702 -13.2547,-34.5973 -26.7739,-69.0673 -39.9903,-102.8467 -108.3366,-276.5584 -179.8974,-459.2834 -59.7363,-521.4843 23.4449,-12.1417 49.5751,-18.2959 77.6807,-18.2959 85.9133,0 172.0418,57.6741 234.9316,99.7851 7.3553,4.9077 14.2936,9.5661 20.7422,13.7696 73.6162,48.017 115.461,77.6565 154.1015,116.3525 l 24.0381,24.0381 -2.3877,33.9111 c -21.5422,306.8013 22.6937,641.16419 115.4004,872.62204 128.7933,321.61287 317.3651,612.345464 545.2881,840.76166 114.2615,114.52759 401.2479,322.50854 558.9257,326.17674 133.5053,3.1056 95.9896,-232.19543 83.833,-287.44627 -26.3946,-120.02328 -166.9613,-492.97602 -396.123,-875.25874 -77.4087,-129.13575 -246.0469,-361.72013 -357.6269,-515.62493 -52.5977,-72.5688 -94.1499,-129.8639 -112.3975,-157.2656 l -10.6348,-15.9375 -1.6259,-19.1016 c -15.4639,-182.2281 78.8184,-368.1431 179.1357,-471.5771 94.0602,-96.9925 193.6747,-132.0381 289.9951,-165.9375 33.0092,-11.6176 67.1662,-23.6138 101.7334,-38.2617 29.7019,-12.5762 66.6208,-33.5926 73.8867,-62.2852 7.1764,-28.3373 -11.2618,-72.7676 -50.5664,-121.9336 -200.2771,-250.4615 -457.1802,-329.8341 -704.9853,-378.2958 -142.5205,-27.8785 -315.7669,-41.4296 -529.6435,-41.4551 -143.9508,0 -287.3931,5.7865 -426.1084,11.3818 -52.7764,2.137 -104.3853,4.2194 -154.3652,5.918 -159.0315,5.3666 -333.5496,15.5973 -502.3242,25.4883 -148.203,8.6921 -301.4344,17.6905 -442.793,23.291 -112.0268,4.449 -220.0601,6.6797 -321.0937,6.6797 -275.8011,0 -513.0274,-16.7078 -705.0732,-49.6436 -86.7279,-14.9023 -161.6634,-34.3805 -234.1406,-53.2471 -21.1438,-5.5218 -42.1517,-11.002 -63.2519,-16.289 -9.1928,-2.3016 -20.2722,-5.6856 -33.1055,-9.5947 -26.567,-8.1178 -68.2742,-20.8125 -99.375,-24.5069 8.2403,27.144 29.6815,68.7252 51.0205,96.1231 41.1315,52.7599 108.2646,109.9655 199.5117,169.9951 140.7137,92.5704 272.3014,151.153 439.9804,195.8496 243.2401,64.8479 501.05,70.2832 723.6035,70.2832 l 11.8799,-0.015 c 296.2015,-0.2697 929.5617,-37.6517 1391.997,-64.9512 242.6972,-14.2875 434.3951,-25.6009 501.1669,-26.9531 l 11.9385,-0.2929 c 19.5374,-0.4984 52.2167,-1.3623 91.4063,-1.3623 282.1935,0 378.5616,44.2161 422.08,69.2138 47.3623,27.1986 97.0313,66.0395 93.1494,93.2227 -5.6569,39.5958 -104.7785,36.5238 -141.8994,42.5537 -147.6538,23.914 -274.9314,82.5338 -366.3867,147.2168 -104.7993,74.0883 -170.8154,205.0488 -170.8154,205.0488 l -69.2432,-46.0108 c -253.5642,-168.4851 -463.1215,-246.9427 -659.5165,-246.958 -10.1135,0 -20.3129,0.21 -30.3369,0.6446 -113.1252,4.9077 -200.3841,51.1065 -225.0293,92.08 l -45.6299,75.8497 -66.9287,-57.8614 c -89.8207,-77.6681 -215.3667,-101.0201 -265.1806,-107.4756 -21.9763,-2.85 -44.2456,-4.2773 -66.1963,-4.2773 -114.5042,0 -218.6438,38.5261 -293.2178,108.5156 -11.0073,10.314 -51.5514,57.95 -58.8428,68.5694 l -47.6806,69.3164 -63.3985,-55.1954 c -22.2955,-19.7103 -91.737,-62.9246 -105.7324,-70.4882 -144.4588,-78.0669 -304.2239,-119.3408 -461.9824,-119.3408 -142.1655,0 -278.273,34.9431 -393.6327,101.0742 -273.8461,157.022 -315.3416,463.5607 -301.9336,693.0761 18.346,313.34367 132.4407,626.34107 339.082,930.27826 178.1845,262.067574 424.0264,512.59529 710.9765,724.51167 208.9846,154.33945 528.7492,349.43277 865.1367,402.31932 59.1866,9.30429 122.0765,18.36913 183.1787,18.36913 z M 5460.7272,326.12956 C 5430.9103,342.59114 5351.3327,283.86882 5351.3327,283.86882 5198.9414,162.74644 5084.4014,12.685594 4985.6931,-160.19854 4724.8884,-617.00538 4748.945,-975.94067 4748.945,-975.94067 c 0,0 136.0469,155.01823 168.1494,205.79588 43.7611,69.23293 208.4264,300.9966 301.0693,464.38474 99.334,175.18472 213.4753,417.65204 241.7725,501.62106 0,0 45.8164,105.42297 0.791,130.26855 z m -69.2724,-104.85351 -0.7764,-2.03613 c -2.8603,-8.512 -7.3382,-20.44958 -13.0078,-34.58496 -9.9602,-24.79448 -23.6483,-56.52271 -39.8145,-92.167966 -48.5241,-107.025222 -119.6106,-249.939014 -183.2666,-362.153294 -22.2317,-39.23666 -49.3283,-83.44978 -78.0468,-128.54003 -43.0845,-67.67374 -89.8081,-137.35303 -129.917,-196.65527 -20.061,-29.65127 -38.4575,-56.72085 -54.0235,-79.79003 -15.5788,-23.12018 -28.2011,-42.02915 -37.2802,-56.38183 -1.2267,-1.9575 -4.5855,-6.50288 -7.0606,-10.00488 4.3191,24.97678 0.8399,29.32591 7.4121,57.90527 30.3915,132.1137 87.2599,300.57469 193.4766,486.63571 47.8347,83.79011 99.023,161.177982 156.0644,231.752912 55.4674,68.611948 117.0443,130.271508 186.2403,186.020498 z M 3535.7176,-755.67213 c -75.6723,-2.326 -256.1361,-95.55553 -400.4443,-362.70997 -33.6731,-62.3441 -138.0876,-321.6731 -81.5186,-451.1132 17.0856,-39.1357 48.0046,-65.977 87.041,-75.5127 10.0879,-2.491 20.4954,-3.7207 30.8643,-3.7207 127.2992,-0.024 216.455,178.2352 304.0283,376.875 6.8445,15.4773 12.9931,29.4238 18.3691,41.1181 22.3978,48.9756 116.9463,267.34129 135.6152,349.58496 11.6331,51.27605 15.4925,128.8399 -93.955,125.47851 z m 6.7822,-73.03711 c 10.9993,0.0117 16.313,-1.4163 19.2041,-2.3291 0.237,-1.55116 0.5356,-2.67875 0.5273,-5.55176 0.051,-7.31059 -1.4225,-17.97053 -3.8232,-28.37402 -1.6354,-7.23386 -4.653,-18.04671 -8.6719,-30.68847 -7.036,-22.25116 -17.1246,-50.32587 -28.4765,-80.05371 -17.0346,-44.6429 -36.9722,-93.2054 -54.3897,-134.3848 -8.7089,-20.6023 -16.7906,-39.361 -23.584,-54.9023 -6.7806,-15.503 -12.3046,-27.8753 -15.6884,-35.2881 -5.7094,-12.4519 -11.9349,-26.559 -18.75,-42.0117 l -0.015,-0.029 c -21.6698,-49.1544 -43.1914,-96.4232 -64.8486,-139.0722 -16.23,-31.9901 -32.5401,-61.3831 -48.8086,-86.8946 -12.1948,-19.1455 -24.3609,-36.0975 -36.2109,-50.3467 -17.7625,-21.4472 -34.793,-36.5035 -49.2481,-45.1611 -7.2531,-4.3825 -13.8218,-7.2588 -19.9512,-9.0967 -6.1421,-1.8263 -11.8447,-2.6665 -18.0761,-2.6806 h -0.029 c -4.5587,-0.01 -9.1327,0.5474 -13.3594,1.5967 l -0.1758,0.044 c -8.4663,2.1216 -15.0925,5.6118 -21.1963,10.8545 -6.0527,5.2771 -11.6424,12.517 -16.2011,22.8808 -3.0008,6.8402 -5.6905,15.8187 -7.5293,26.7627 -1.8516,10.9134 -2.8418,23.7099 -2.8418,37.793 -0.025,27.0937 3.7174,58.8006 10.166,91.2891 9.6155,48.7838 25.1671,99.3364 40.6054,141.372 7.7128,21.0242 15.3807,39.9598 22.1485,55.4883 6.7423,15.4774 12.7391,27.7775 16.289,34.3213 67.7679,125.4679 142.7237,207.63211 206.7627,257.88572 31.9876,25.12674 61.284,42.21924 84.8438,52.66113 11.7479,5.22729 22.0453,8.78238 30.205,10.94238 8.1213,2.1728 14.1577,2.84929 16.5967,2.90039 h 0.015 c 1.5707,0.051 3.0688,0.0732 4.5117,0.0732 z"
       transform="matrix(0.03527778,0,0,-0.03527778,-18.269626,69.327398)" /><path
       id="path2528"
       style="display:inline;fill:#ffffff;stroke:none;stroke-width:0.264583"
       d="m 199.98676,131.39715 a 15.063,15.063 0 0 0 -15.06265,15.06264 15.063,15.063 0 0 0 15.06265,15.06317 15.063,15.063 0 0 0 15.06316,-15.06317 15.063,15.063 0 0 0 -15.06316,-15.06264 z m 2.33474,2.5771 a 12.686,12.686 0 0 1 12.68605,12.68553 12.686,12.686 0 0 1 -12.68605,12.68605 12.686,12.686 0 0 1 -12.68605,-12.68605 12.686,12.686 0 0 1 12.68605,-12.68553 z"
       inkscape:label="ball" /></g></svg>
