<?xml version="1.0" encoding="UTF-8" standalone="no"?>
<svg
   width="300"
   height="400"
   viewBox="0 0 79.3752 105.832"
   version="1.1"
   id="svg73"
   sodipodi:docname="ocf_penguin.svg"
   inkscape:version="1.2.1 (9c6d41e4, 2022-07-14)"
   xmlns:inkscape="http://www.inkscape.org/namespaces/inkscape"
   xmlns:sodipodi="http://sodipodi.sourceforge.net/DTD/sodipodi-0.dtd"
   xmlns="http://www.w3.org/2000/svg"
   xmlns:svg="http://www.w3.org/2000/svg">
  <sodipodi:namedview
     id="namedview75"
     pagecolor="#ffffff"
     bordercolor="#000000"
     borderopacity="0.25"
     inkscape:showpageshadow="2"
     inkscape:pageopacity="0.0"
     inkscape:pagecheckerboard="true"
     inkscape:deskcolor="#d1d1d1"
     showgrid="false"
     inkscape:zoom="1.1639913"
     inkscape:cx="-2.1477824"
     inkscape:cy="256.87478"
     inkscape:window-width="1280"
     inkscape:window-height="672"
     inkscape:window-x="0"
     inkscape:window-y="25"
     inkscape:window-maximized="0"
     inkscape:current-layer="svg73" />
  <defs
     id="defs5">
    <linearGradient
       id="linearGradient1934"
       inkscape:swatch="solid">
      <stop
         style="stop-color:#2d2c25;stop-opacity:1;"
         offset="0"
         id="stop1932" />
    </linearGradient>
    <clipPath
       id="a">
      <path
         d="M 0,792 H 612 V 0 H 0 Z"
         id="path2" />
    </clipPath>
  </defs>
  <g
     transform="matrix(9.9990899,0,0,10.00006,4.7121708e-7,-2836.3941)"
     id="g71"
     inkscape:label="penguin"
     style="display:inline">
    <g
       fill="#ffffff"
       stroke="#fffffe"
       stroke-width="7.406"
       id="g33"
       style="display:inline"
       transform="matrix(0.93826831,0,0,0.93826831,-2.1453967,16.469825)"
       inkscape:label="background">
      <path
         d="m 7.037,285.187 c -0.89,-0.015 -1.663,0.51 -1.82,0.628 -1.001,0.869 -1.17,2.72 -0.094,3.57 0.073,0.34 0.174,0.717 0.26,1.068 -0.003,0.023 -0.044,0.43 -0.301,1.068 -0.265,0.658 -0.756,1.552 -1.665,2.491 -0.033,0.034 -0.11,0.088 -0.187,0.151 a 0.577,0.577 0 0 0 -0.187,0.225 c -0.033,0.09 -0.01,0.197 0.096,0.29 0.107,0.094 0.293,0.185 0.602,0.277 0.439,0.13 0.716,0.083 0.919,0.02 0.101,-0.032 0.184,-0.067 0.258,-0.085 a 0.331,0.331 0 0 1 0.213,0.007 c 0.057,0.022 0.099,0.06 0.145,0.112 0.045,0.052 0.095,0.117 0.165,0.182 0.14,0.13 0.366,0.256 0.82,0.299 0.447,0.042 0.798,0.085 1.217,0.093 0.42,0.008 0.907,-0.02 1.628,-0.12 l 0.033,-0.006 0.002,-0.033 c 0,0 0.005,-0.098 0.032,-0.215 0.027,-0.117 0.077,-0.251 0.152,-0.32 0.607,-0.552 0.762,-1.008 1.02,-2.07 0.182,-0.75 0.089,-1.641 -0.062,-2.34 a 6.741,6.741 0 0 0 -0.242,-0.861 2.128,2.128 0 0 0 -0.104,-0.247 0.38,0.38 0 0 0 -0.042,-0.067 L 9.891,289.3 9.573,288.302 c 0.08,-0.078 0.163,-0.193 0.491,-0.463 0.624,-0.514 -0.752,0.112 -1.232,-1.494 0,0 -0.261,-1.012 -1.616,-1.148 -0.06,-0.006 -0.12,-0.01 -0.179,-0.01 z"
         stroke-width="0.600067"
         id="path31"
         style="display:inline"
         inkscape:label="white body" />
      <path
         d="m 2.2184892,287.4342 c -0.2486411,0 -0.1595056,0.46727 -0.2486411,0.89512 -0.047851,0.22706 0.4972823,-0.0253 0.7018247,-0.3603 0.041284,-0.0675 -0.4531836,-0.53482 -0.4531836,-0.53482 m -0.2486411,1.60632 c 0,0.61926 -0.1688883,0.988 -0.5676523,1.6082 -0.3997022,0.62018 -0.78439234,0.94952 -0.99268784,1.23851 -0.2092339,0.29086 -0.1576292,0.36967 0.1304192,0.39594 0.2871102,0.0272 0.4569367,0.19422 0.72434324,-0.11353 0.2674064,-0.30962 1.0358482,-1.27322 1.2760448,-1.87654 0.2420733,-0.6033 0.3255792,-0.91011 0.4034555,-1.30513 0.077876,-0.39594 -1.1493788,0.0525 -1.1493788,0.0525"
         stroke="#ffffff"
         stroke-width="0.562923"
         id="path35"
         style="display:inline"
         inkscape:label="white lower scarf"
         transform="matrix(1.0657932,0,0,1.0657932,2.2865492,-17.553417)" />
      <path
         d="m 6.8310162,286.97727 c 0.2458264,-0.19141 0.4738255,0.61832 0.4738255,0.78626 0,0.1689 -0.9044906,0.41284 -1.3998963,0.55264 -0.4944674,0.13887 -2.2396465,0.60988 -2.9611747,0.6718 -0.5845412,0.0497 -1.0114533,0.18297 -1.2835511,0.24959 0,0 -0.234567,0.0985 -0.5488869,0.32933 -0.48789964,0.35842 -1.12310734,0.34247 -0.67930634,-0.15763 0.4447392,-0.50103 0.026271,-0.31714 0.67930634,-0.64647 0.653973,-0.32933 1.3848839,-0.59955 1.5415748,-0.76751 0,0 0.633331,-0.43535 1.2985633,-0.31243 0.2336289,0.0432 2.4704605,-0.38657 2.8795454,-0.70558"
         stroke="#ffffff"
         stroke-width="0.562923"
         id="path37"
         style="display:inline"
         transform="matrix(1.0657932,0,0,1.0657932,2.2865492,-17.553417)"
         inkscape:label="white upper scarf" />
    </g>
    <g
       id="g1707"
       inkscape:label="body"
       style="display:inline">
      <path
         d="m 7.085287,287.92586 c 0.09195,-0.0488 0.7768868,1.88873 0.4381712,3.27831 -0.2411349,0.99456 -0.3809368,1.40927 -0.9448362,1.92345 -0.1641969,0.14825 -0.1857771,0.5273 -0.1857771,0.5273 -1.3501681,0.1886 -1.8202405,0.10509 -2.6609289,0.0263 -0.8406884,-0.0797 -0.8003428,-0.45881 -1.048984,-0.55357 -0.3143198,-0.1201 -0.4972821,0.29368 -1.3070077,0.0525 -1.14937874,-0.34246 -0.43441824,-0.66898 -0.2871101,-0.82192 1.7114014,-1.76958 1.8549565,-3.37027 1.8549565,-3.37027 1.182218,-0.1398 3.6423575,-0.79752 4.1415163,-1.06211"
         stroke="#020202"
         stroke-width="0.0760091"
         id="path47"
         style="display:inline"
         inkscape:label="black body"
         transform="translate(0,1.0116e-5)" />
      <path
         d="m 7.2973357,286.54003 c 0.5854801,-0.4832 -0.7055779,0.10509 -1.1559467,-1.40177 0,0 -0.2439497,-0.94952 -1.5162416,-1.07713 -0.9035523,-0.091 -1.717031,0.46163 -1.87466,0.57985 -0.9673547,0.83882 -1.1109097,2.65717 0,3.41905 0,0 0.1566908,-0.2158 1.4111555,-0.33402 1.2544647,-0.11822 1.9469067,-0.4166 2.2987574,-0.55358 0.5019736,-0.19423 0.2458262,-0.14543 0.8369354,-0.6324"
         id="path41"
         style="display:inline;stroke-width:0.938268"
         inkscape:label="black head" />
      <path
         d="m 4.6880114,286.11218 a 0.61362748,0.61362748 0 0 1 -0.6098744,0.61645 0.61362748,0.61362748 0 0 1 -0.6117509,-0.61645 c 0,-0.34059 0.2739744,-0.61643 0.6108126,-0.61643 0.3377767,0 0.6108127,0.27584 0.6108127,0.61643"
         fill="#ffffff"
         id="path43"
         style="display:inline;stroke-width:0.938268"
         inkscape:label="white cornea" />
      <path
         d="m 4.1250505,286.01272 c 0,0.10321 -0.088197,0.18766 -0.1970363,0.18766 A 0.192345,0.192345 0 0 1 3.731916,286.01272 c 0,-0.10321 0.088197,-0.18764 0.1970363,-0.18764 0.107901,0 0.1970364,0.0844 0.1970364,0.18764"
         id="path45"
         style="display:inline;stroke-width:0.938268"
         inkscape:label="black pupil" />
      <path
         d="m 4.4834689,288.69712 c -1.8230552,2.81667 0.4325417,3.83001 2.8701628,3.14319 0,0 0.3490358,-0.99738 0.2589621,-1.90374 -0.1660736,-1.67387 -0.5920473,-2.00414 -0.5920473,-2.00414 -0.4606898,0.20642 -2.5370776,0.76469 -2.5370776,0.76469"
         fill="#ffffff"
         id="path51"
         style="display:inline;stroke-width:0.938268"
         inkscape:label="white belly" />
    </g>
    <g
       fill="#0f4d92"
       id="g65"
       transform="matrix(0.93826831,0,0,0.93826831,-2.1453967,16.469825)"
       inkscape:label="scarf"
       style="display:inline">
      <path
         id="path61"
         style="display:inline"
         d="m 9.6519336,288.27384 c -0.027909,-9.3e-4 -0.056162,0.009 -0.084818,0.0314 -0.4359995,0.34 -2.8198645,0.79779 -3.0688642,0.75179 -0.7011439,-0.12954 -1.3666055,0.32153 -1.3813194,0.33157 0.00588,-0.009 0.011634,-0.0175 0.017074,-0.0264 0.044,-0.072 -0.4830211,-0.57004 -0.4830211,-0.57004 -0.2649998,0 -0.1699182,0.49792 -0.2649181,0.95392 -0.00294,0.0139 -0.00382,0.0263 -0.00275,0.0369 -0.2816242,0.12726 -0.6016767,0.26889 -0.9120673,0.42519 -0.6959993,0.351 -0.2502568,0.15501 -0.7242564,0.68901 -0.4729995,0.533 0.2042569,0.54998 0.7242564,0.16799 0.3349997,-0.246 0.5849128,-0.35139 0.5849128,-0.35139 0.09196,-0.0225 0.2024663,-0.052 0.3277053,-0.0837 -0.022277,0.58629 -0.2059011,0.97011 -0.603088,1.58786 -0.4259996,0.661 -0.8360204,1.01218 -1.0580201,1.32018 -0.2229998,0.31 -0.1676561,0.39389 0.1393436,0.42189 0.3059997,0.029 0.4871732,0.20683 0.7721729,-0.12117 0.2849997,-0.33 1.1038398,-1.35683 1.3598396,-1.99983 0.2579997,-0.643 0.3471477,-0.96968 0.4301476,-1.39068 0.7689993,-0.066 2.6288857,-0.568 3.1558852,-0.716 0.5279995,-0.149 1.4920226,-0.40932 1.4920226,-0.58932 0,-0.15942 -0.1929781,-0.86157 -0.4202333,-0.8691 z"
         inkscape:label="blue scarf body" />
      <path
         d="m 8.004,289.663 -0.94,0.138 v -0.748 l 0.737,-0.13 z m 1.375,-0.343 -0.724,0.224 -0.236,-0.77 0.596,-0.203 z m -3.704,0.818 0.799,-0.14 -0.145,-0.787 -0.68,0.112 z m 4.261,-1.08 -0.279,0.153 -0.278,-0.8 0.163,-0.105 z m -5.682,0.858 0.585,-0.258 0.112,0.616 -0.752,0.23 z m 0.85,1.228 H 4.448 l 0.043,-0.36 0.78,-0.28 z m -0.464,1.053 -0.793,0.021 0.417,-0.686 h 0.661 z m -0.441,0.555 -0.645,-0.084 -0.485,0.618 0.65,0.155 z m -0.327,-2.15 -0.803,0.542 0.22,-0.774 0.583,-0.232 z"
         id="path67"
         style="display:inline;fill:#ffd700;fill-opacity:1"
         transform="translate(0,1.0602511e-5)"
         inkscape:label="yellow squares" />
    </g>
  </g>
</svg>
