<?xml version="1.0" encoding="UTF-8" standalone="no"?>
<svg
   viewBox="52 42 45 45"
   version="1.1"
   id="svg12"
   sodipodi:docname="gmail.svg"
   width="45"
   height="45"
   inkscape:version="1.2.1 (9c6d41e4, 2022-07-14)"
   xmlns:inkscape="http://www.inkscape.org/namespaces/inkscape"
   xmlns:sodipodi="http://sodipodi.sourceforge.net/DTD/sodipodi-0.dtd"
   xmlns="http://www.w3.org/2000/svg"
   xmlns:svg="http://www.w3.org/2000/svg">
  <defs
     id="defs16" />
  <sodipodi:namedview
     id="namedview14"
     pagecolor="#ffffff"
     bordercolor="#000000"
     borderopacity="0.25"
     inkscape:showpageshadow="2"
     inkscape:pageopacity="0.0"
     inkscape:pagecheckerboard="0"
     inkscape:deskcolor="#d1d1d1"
     showgrid="false"
     inkscape:zoom="3.5757576"
     inkscape:cx="33.279661"
     inkscape:cy="33"
     inkscape:window-width="1280"
     inkscape:window-height="456"
     inkscape:window-x="0"
     inkscape:window-y="25"
     inkscape:window-maximized="0"
     inkscape:current-layer="svg12" />
  <path
     fill="#4285f4"
     d="m 55.068182,81.375 h 7.159091 V 63.993119 L 52,56.324642 v 21.982967 c 0,1.69729 1.375568,3.067391 3.068182,3.067391"
     id="path2"
     style="stroke-width:0.511298" />
  <path
     fill="#34a853"
     d="m 86.772727,81.375 h 7.159091 C 95.629545,81.375 97,79.999787 97,78.307609 V 56.324642 l -10.227273,7.668477"
     id="path4"
     style="stroke-width:0.511298" />
  <path
     fill="#fbbc04"
     d="M 86.772727,50.701092 V 63.993119 L 97,56.324642 v -4.089854 c 0,-3.79334 -4.33125,-5.955851 -7.363636,-3.680869"
     id="path6"
     style="stroke-width:0.511298" />
  <path
     fill="#ea4335"
     d="M 62.227273,63.993119 V 50.701092 L 74.5,59.903265 86.772727,50.701092 V 63.993119 L 74.5,73.195291"
     id="path8"
     style="stroke-width:0.511298" />
  <path
     fill="#c5221f"
     d="m 52,52.234788 v 4.089854 l 10.227273,7.668477 V 50.701092 L 59.363636,48.553919 C 56.326136,46.278937 52,48.441448 52,52.234788"
     id="path10"
     style="stroke-width:0.511298" />
</svg>
