<?xml version="1.0" encoding="UTF-8" standalone="no"?>
<svg
   width="45"
   height="45"
   viewBox="0 0 11.906249 11.906249"
   inkscape:version="1.2.1 (9c6d41e4, 2022-07-14)"
   sodipodi:docname="Instagram.svg"
   version="1.1"
   id="svg48"
   xmlns:inkscape="http://www.inkscape.org/namespaces/inkscape"
   xmlns:sodipodi="http://sodipodi.sourceforge.net/DTD/sodipodi-0.dtd"
   xmlns:xlink="http://www.w3.org/1999/xlink"
   xmlns="http://www.w3.org/2000/svg"
   xmlns:svg="http://www.w3.org/2000/svg">
  <defs
     id="defs32">
    <radialGradient
       id="f"
       cx="158.429"
       cy="578.08801"
       r="52.351501"
       xlink:href="#a"
       gradientUnits="userSpaceOnUse"
       gradientTransform="matrix(0,-4.03418,4.28018,0,-2332.2273,942.2356)"
       fx="158.429"
       fy="578.08801" />
    <radialGradient
       inkscape:collect="always"
       xlink:href="#c"
       id="h"
       cx="144.01199"
       cy="51.3367"
       fx="144.01199"
       fy="51.3367"
       r="67.081001"
       gradientTransform="matrix(-0.09595593,0.0270196,-0.00920319,-0.0326928,16.388664,-1.1203975)"
       gradientUnits="userSpaceOnUse" />
    <linearGradient
       inkscape:collect="always"
       id="d">
      <stop
         offset="0"
         stop-color="#ff005f"
         id="stop6" />
      <stop
         offset="1"
         stop-color="#fc01d8"
         id="stop8" />
    </linearGradient>
    <linearGradient
       id="c">
      <stop
         offset="0"
         stop-color="#780cff"
         id="stop11" />
      <stop
         stop-color="#820bff"
         offset="1"
         stop-opacity="0"
         id="stop13" />
    </linearGradient>
    <linearGradient
       inkscape:collect="always"
       id="b">
      <stop
         offset="0"
         stop-color="#fc0"
         id="stop16" />
      <stop
         offset="1"
         stop-color="#fc0"
         stop-opacity="0"
         id="stop18" />
    </linearGradient>
    <linearGradient
       id="a">
      <stop
         offset="0"
         stop-color="#fc0"
         id="stop21" />
      <stop
         offset=".1242"
         stop-color="#fc0"
         id="stop23" />
      <stop
         offset=".5672"
         stop-color="#fe4a05"
         id="stop25" />
      <stop
         offset=".6942"
         stop-color="#ff0f3f"
         id="stop27" />
      <stop
         offset="1"
         stop-color="#fe0657"
         stop-opacity="0"
         id="stop29" />
    </linearGradient>
    <radialGradient
       inkscape:collect="always"
       xlink:href="#d"
       id="e-1"
       gradientUnits="userSpaceOnUse"
       gradientTransform="matrix(-0.1243187,0.0350608,-0.02525998,-0.08956559,51.61482,54.903669)"
       cx="199.78841"
       cy="628.43793"
       fx="199.78841"
       fy="628.43793"
       r="52.351501" />
    <radialGradient
       id="f-8"
       cx="158.429"
       cy="578.08801"
       r="52.351501"
       xlink:href="#a"
       gradientUnits="userSpaceOnUse"
       gradientTransform="matrix(0,-0.16136719,0.17120706,0,-95.500168,37.625163)"
       fx="158.429"
       fy="578.08801" />
    <radialGradient
       inkscape:collect="always"
       xlink:href="#b"
       id="g-1"
       gradientUnits="userSpaceOnUse"
       gradientTransform="matrix(0.02697638,-0.0464812,0.06051315,0.0351204,-34.785751,-1.9776735)"
       cx="172.6149"
       cy="600.69238"
       fx="172.6149"
       fy="600.69238"
       r="65" />
    <radialGradient
       inkscape:collect="always"
       xlink:href="#b"
       id="radialGradient893"
       gradientUnits="userSpaceOnUse"
       gradientTransform="matrix(0.02697638,-0.0464812,0.06051315,0.0351204,-34.785751,-1.9776735)"
       cx="172.6149"
       cy="600.69238"
       fx="172.6149"
       fy="600.69238"
       r="65" />
    <radialGradient
       inkscape:collect="always"
       xlink:href="#a"
       id="radialGradient895"
       gradientUnits="userSpaceOnUse"
       gradientTransform="matrix(0,-0.16136719,0.17120706,0,-95.500168,37.625163)"
       cx="158.429"
       cy="578.08801"
       fx="158.429"
       fy="578.08801"
       r="52.351501" />
    <radialGradient
       inkscape:collect="always"
       xlink:href="#d"
       id="radialGradient897"
       gradientUnits="userSpaceOnUse"
       gradientTransform="matrix(-0.1243187,0.0350608,-0.02525998,-0.08956559,51.61482,54.903669)"
       cx="199.78841"
       cy="628.43793"
       fx="199.78841"
       fy="628.43793"
       r="52.351501" />
  </defs>
  <sodipodi:namedview
     pagecolor="#ffffff"
     bordercolor="#666666"
     borderopacity="1"
     inkscape:pageopacity="0"
     inkscape:pageshadow="2"
     inkscape:zoom="2.6684316"
     inkscape:cx="-10.867807"
     inkscape:cy="-4.4970237"
     inkscape:document-units="mm"
     inkscape:current-layer="g46"
     inkscape:document-rotation="0"
     showgrid="false"
     inkscape:window-width="1280"
     inkscape:window-height="662"
     inkscape:window-x="0"
     inkscape:window-y="25"
     inkscape:window-maximized="0"
     id="namedview34"
     inkscape:showpageshadow="2"
     inkscape:pagecheckerboard="0"
     inkscape:deskcolor="#d1d1d1" />
  <g
     inkscape:label="Layer 1"
     inkscape:groupmode="layer"
     id="g46">
    <path
       id="path36-1"
       style="display:inline;fill:url(#e-1);stroke-width:0.04"
       d="m 5.9344441,3.8144646 c -0.037884,1.52e-4 -0.075539,0.00126 -0.1129439,0.00332 -0.037405,0.00206 -0.074555,0.00508 -0.1114353,0.00901 -0.03688,0.00393 -0.073492,0.00876 -0.1098018,0.014511 -0.03631,0.00574 -0.072331,0.012388 -0.1080244,0.019906 -0.035693,0.00752 -0.07107,0.015914 -0.1061019,0.025156 -0.035031,0.00924 -0.069711,0.019321 -0.1040346,0.030241 -0.034324,0.010921 -0.068294,0.02267 -0.1018648,0.035223 -0.03357,0.012552 -0.066737,0.025922 -0.099508,0.04006 -0.032771,0.014138 -0.065143,0.029054 -0.097069,0.044731 -0.031925,0.015677 -0.063409,0.032109 -0.094444,0.049278 -0.031035,0.017169 -0.061618,0.035067 -0.091715,0.053682 -0.030098,0.018615 -0.059706,0.037947 -0.088821,0.05796 -0.029116,0.020014 -0.057737,0.040728 -0.085824,0.062094 -0.028087,0.021367 -0.055649,0.04339 -0.082661,0.066063 -0.027012,0.022673 -0.053483,0.045996 -0.079375,0.069929 -0.025892,0.023932 -0.051195,0.048483 -0.075923,0.073629 -0.024727,0.025146 -0.048872,0.050872 -0.072389,0.077184 -0.023516,0.026312 -0.046409,0.053204 -0.068668,0.080636 -0.022258,0.027432 -0.043888,0.055417 -0.064844,0.083923 -0.020955,0.028505 -0.041247,0.057532 -0.060854,0.087064 -0.019607,0.029532 -0.038528,0.05955 -0.056741,0.090062 -0.018212,0.030511 -0.035711,0.06151 -0.052483,0.092955 -0.016771,0.031446 -0.032814,0.063351 -0.0481,0.095684 -0.015287,0.032333 -0.029821,0.065094 -0.043573,0.098268 -0.013754,0.033173 -0.026726,0.066761 -0.038901,0.100728 -0.012176,0.033968 -0.023555,0.068307 -0.034107,0.1030219 -0.010553,0.034715 -0.020283,0.069797 -0.029166,0.1052132 -0.00888,0.035415 -0.016912,0.071168 -0.024081,0.1072388 -0.00716,0.03607 -0.013464,0.072463 -0.018871,0.1091408 -0.0054,0.036678 -0.00992,0.073658 -0.013518,0.1108976 -0.0036,0.037239 -0.00629,0.074735 -0.00804,0.1124892 -0.00174,0.037754 -0.00257,0.075756 -0.00242,0.1139776 1.479e-4,0.038218 0.00127,0.076201 0.00331,0.113936 0.00204,0.037735 0.00501,0.075221 0.00891,0.1124275 0.00389,0.037206 0.00871,0.074143 0.014407,0.1107736 0.0057,0.036631 0.012269,0.072965 0.01972,0.1089752 0.00745,0.03601 0.015769,0.07169 0.024929,0.107032 0.00916,0.035342 0.01917,0.070337 0.029993,0.1049652 0.010823,0.034628 0.022472,0.068885 0.034913,0.1027536 0.012442,0.033868 0.025675,0.067356 0.039688,0.1004176 0.014012,0.033061 0.0288,0.065707 0.044338,0.097916 0.015539,0.03221 0.031827,0.06398 0.048844,0.095291 0.017018,0.031311 0.034756,0.062155 0.053206,0.092522 0.018451,0.030366 0.037606,0.060252 0.057444,0.089628 0.019838,0.029375 0.040358,0.058251 0.061536,0.086589 0.021179,0.028338 0.043012,0.056132 0.065484,0.083385 0.022472,0.027253 0.045587,0.053953 0.069309,0.080077 0.023721,0.026124 0.048044,0.051677 0.072967,0.076626 0.024924,0.024948 0.050443,0.049302 0.076523,0.073028 0.026079,0.023726 0.052723,0.04683 0.079912,0.069288 0.027189,0.022458 0.054925,0.044258 0.083179,0.065402 0.028253,0.021143 0.057028,0.04163 0.0863,0.061412 0.029271,0.019783 0.059033,0.038861 0.089276,0.057236 0.030243,0.018376 0.060961,0.036036 0.092129,0.052958 0.031168,0.016923 0.062789,0.033111 0.094837,0.048534 0.032047,0.015423 0.064519,0.030089 0.097399,0.043966 0.03288,0.013877 0.066172,0.026968 0.099839,0.039253 0.033668,0.012285 0.067725,0.023769 0.1021332,0.034417 0.034408,0.010648 0.069159,0.020471 0.1042623,0.029435 0.035103,0.00896 0.070557,0.017055 0.1063087,0.024288 0.035752,0.00724 0.071815,0.013602 0.1081692,0.019058 0.036355,0.00546 0.072996,0.010011 0.1099056,0.013643 0.03691,0.00364 0.074076,0.00634 0.1114965,0.00811 0.03742,0.00176 0.0751,0.0026 0.1129856,0.00244 0.03788,-1.6e-4 0.075521,-0.00128 0.112923,-0.00335 0.037402,-0.00206 0.074557,-0.00507 0.1114353,-0.00899 0.036877,-0.00393 0.073474,-0.00876 0.1097811,-0.014511 0.036308,-0.00574 0.072332,-0.012387 0.1080243,-0.019906 0.035692,-0.00752 0.071052,-0.015913 0.1060815,-0.025156 0.03503,-0.00924 0.069733,-0.01934 0.1040556,-0.030261 0.034323,-0.010922 0.068275,-0.022668 0.1018438,-0.035222 0.033569,-0.012554 0.066759,-0.02592 0.099529,-0.04006 0.03277,-0.014139 0.065123,-0.029052 0.097048,-0.044732 0.031924,-0.015678 0.063409,-0.032108 0.094444,-0.049279 0.031035,-0.017171 0.061618,-0.035085 0.091715,-0.053702 0.030098,-0.018616 0.059706,-0.037945 0.088821,-0.05796 0.029116,-0.020016 0.057737,-0.040726 0.085824,-0.062094 0.028088,-0.021369 0.055648,-0.043389 0.082661,-0.066063 0.027013,-0.022675 0.053482,-0.045995 0.079375,-0.069929 0.025894,-0.023934 0.051215,-0.048483 0.075944,-0.073628 0.024728,-0.025147 0.048871,-0.050891 0.072388,-0.077204 0.023517,-0.026313 0.046407,-0.053204 0.068668,-0.080636 0.02226,-0.027432 0.043886,-0.055396 0.064844,-0.083902 0.020957,-0.028505 0.041245,-0.057553 0.060854,-0.087084 0.019607,-0.029533 0.038527,-0.059549 0.05674,-0.090062 0.018212,-0.030512 0.03573,-0.06151 0.052503,-0.092955 0.016773,-0.031445 0.032813,-0.063352 0.048101,-0.095684 0.015287,-0.032332 0.029819,-0.065095 0.043574,-0.098268 0.013756,-0.033173 0.026725,-0.066762 0.038902,-0.100728 0.012178,-0.033966 0.023553,-0.068309 0.034107,-0.103022 0.010555,-0.034714 0.020283,-0.069799 0.029166,-0.1052132 0.00889,-0.035414 0.016933,-0.07115 0.024102,-0.1072184 0.00716,-0.036068 0.013464,-0.072465 0.018871,-0.1091404 0.0054,-0.036676 0.00994,-0.073641 0.01354,-0.1108772 0.0036,-0.037236 0.00628,-0.074739 0.00802,-0.1124891 0.00174,-0.03775 0.00258,-0.07574 0.00242,-0.1139568 -1.599e-4,-0.038222 -0.00127,-0.076218 -0.00331,-0.1139568 -0.00204,-0.03774 -0.00501,-0.075218 -0.00891,-0.1124272 -0.00389,-0.037209 -0.00869,-0.07414 -0.014386,-0.1107736 -0.0057,-0.036626 -0.012289,-0.072977 -0.019739,-0.1089885 C 8.0843051,5.5380812 8.0759881,5.5024062 8.0668261,5.4670617 8.0576661,5.4317177 8.0476581,5.3967067 8.0368331,5.3620761 8.0260011,5.3274471 8.0143571,5.2931921 8.0019131,5.2593226 7.9894701,5.2254536 7.9762191,5.1919676 7.9622061,5.158905 7.9481921,5.125842 7.9334081,5.093198 7.9178671,5.060989 7.9023281,5.028779 7.8860411,4.997009 7.8690231,4.965697 7.8520051,4.934387 7.8342481,4.903542 7.8157961,4.873176 7.7973441,4.842806 7.7781911,4.812919 7.7583531,4.783544 7.7385153,4.7541696 7.7179962,4.7253124 7.6968175,4.6969756 7.6756389,4.6686384 7.6538069,4.640823 7.6313331,4.6135699 7.6088584,4.5863166 7.5857473,4.5596152 7.5620246,4.533492 7.538302,4.5073685 7.5139606,4.4818138 7.4890362,4.4568662 7.4641117,4.431919 7.4385944,4.407583 7.4125144,4.3838578 c -0.02608,-0.023725 -0.052722,-0.046831 -0.079912,-0.069288 -0.02719,-0.022457 -0.054925,-0.04426 -0.083179,-0.065402 -0.028253,-0.021142 -0.057027,-0.041631 -0.086299,-0.061412 -0.029271,-0.019781 -0.059034,-0.038863 -0.089276,-0.057237 -0.030242,-0.018374 -0.060961,-0.036037 -0.092128,-0.052958 -0.031168,-0.016921 -0.06279,-0.033092 -0.094837,-0.048514 -0.032047,-0.015421 -0.06452,-0.030091 -0.0974,-0.043966 -0.032879,-0.013876 -0.066172,-0.026969 -0.099839,-0.039253 -0.033666,-0.012284 -0.067705,-0.023749 -0.1021128,-0.034396 -0.034406,-0.010646 -0.069182,-0.020473 -0.1042829,-0.029435 -0.035101,-0.00896 -0.070538,-0.017076 -0.106288,-0.024308 -0.035749,-0.00724 -0.071796,-0.013582 -0.1081483,-0.019037 -0.036351,-0.00546 -0.072998,-0.01001 -0.109905,-0.013643 -0.036907,-0.00364 -0.07408,-0.00634 -0.1114971,-0.00811 -0.037417,-0.00176 -0.075084,-0.0026 -0.1129649,-0.00244 z" />
    <path
       id="path1061"
       style="display:inline;fill:url(#radialGradient897);stroke-width:0.04"
       d="m 5.9548664,0.66145833 c -2.2092137,0 -2.8553504,0.002272 -2.9809421,0.0126917 C 2.5205576,0.71184599 2.238446,0.78325524 1.9310947,0.93631492 1.6942394,1.0539667 1.5074298,1.1903501 1.3230703,1.3815177 0.98731925,1.7301449 0.78383145,2.1590459 0.71016766,2.6688808 c -0.0358119,0.2475075 -0.0462324,0.2979745 -0.0483484,1.5622198 -8.12e-4,0.4214151 0,0.9760298 0,1.7199361 0,2.2080279 0.002459,2.8536802 0.0130431,2.9790634 0.0366279,0.4412792 0.10579322,0.7189068 0.2523048,1.0225939 0.27999928,0.581316 0.81477038,1.017723 1.44476868,1.180558 0.2181393,0.05618 0.4590667,0.08711 0.7683658,0.101762 0.1310477,0.0057 1.466737,0.0098 2.8032376,0.0098 1.3365038,0 2.673011,-0.0016 2.8007982,-0.0082 0.3581389,-0.01685 0.5661047,-0.04478 0.7960438,-0.104222 0.6340668,-0.163647 1.1590778,-0.593517 1.4447688,-1.1829763 0.143663,-0.296359 0.216505,-0.5845933 0.249473,-1.0028325 0.0072,-0.091184 0.01017,-1.5450387 0.01017,-2.9969434 0,-1.4521572 -0.0033,-2.9033373 -0.01042,-2.9945251 C 11.201003,2.5301525 11.128157,2.2443696 10.979859,1.9423103 10.858175,1.6950467 10.723044,1.5103934 10.526883,1.3215937 10.176805,0.98713041 9.7486707,0.78357201 9.2384878,0.70997217 8.9912887,0.67422823 8.9420553,0.66365433 7.6771787,0.66145833 Z M 9.4410799,1.6714637 c 0.013634,-5.6e-5 0.027192,2.32e-4 0.040659,8.68e-4 0.013467,6.352e-4 0.026859,0.00163 0.040142,0.00293 0.013284,0.00131 0.026459,0.00293 0.039542,0.0049 0.013084,0.00196 0.026071,0.00426 0.038942,0.00686 0.025733,0.00521 0.051013,0.011679 0.075778,0.019348 0.024773,0.00767 0.049031,0.016547 0.072702,0.026541 0.023671,0.00999 0.046764,0.021114 0.069209,0.0333 0.022444,0.012187 0.04424,0.025442 0.065316,0.039687 0.021075,0.014246 0.041422,0.029468 0.060995,0.045641 0.019582,0.016172 0.038382,0.033277 0.056329,0.051243 0.01795,0.017965 0.03506,0.036806 0.05124,0.05643 0.01619,0.019624 0.03144,0.040035 0.04572,0.061185 0.01428,0.02115 0.0276,0.043024 0.03986,0.065567 0.01226,0.022543 0.02347,0.045754 0.03357,0.069557 0.01009,0.023803 0.01906,0.048204 0.02685,0.073132 0.0078,0.024929 0.01442,0.050394 0.01978,0.076316 0.0027,0.012961 0.0051,0.026028 0.0071,0.039212 0.002,0.013184 0.0038,0.026483 0.0052,0.039874 0.0014,0.013391 0.0025,0.026892 0.0032,0.040473 7.29e-4,0.01358 0.0012,0.027235 0.0012,0.040989 4e-5,0.013755 -2.35e-4,0.027444 -8.7e-4,0.041031 -6.35e-4,0.013587 -0.0016,0.027071 -0.0029,0.040473 -0.0013,0.013402 -0.0029,0.026715 -0.0049,0.039915 -0.002,0.013201 -0.0042,0.026292 -0.0068,0.039274 -0.0052,0.025964 -0.01158,0.051469 -0.01918,0.07646 -0.0076,0.024991 -0.01638,0.049476 -0.02629,0.07336 -0.0099,0.023883 -0.02093,0.047163 -0.03301,0.069804 -0.01208,0.022641 -0.02522,0.044634 -0.03933,0.065898 -0.01412,0.021264 -0.02922,0.041804 -0.04524,0.061557 -0.01603,0.019753 -0.03298,0.038716 -0.05079,0.056823 -0.017804,0.018108 -0.03648,0.035369 -0.055938,0.051697 -0.019449,0.016328 -0.03968,0.031723 -0.060649,0.046137 -0.020969,0.014414 -0.042649,0.027838 -0.064987,0.040204 -0.022347,0.012365 -0.045369,0.023676 -0.06896,0.033859 -0.023591,0.010183 -0.04776,0.019233 -0.072471,0.0271 -0.012355,0.00393 -0.024844,0.00758 -0.037458,0.010914 -0.012613,0.00333 -0.025351,0.00635 -0.038195,0.00905 -0.012844,0.00271 -0.025796,0.0051 -0.038862,0.00717 -0.013067,0.00207 -0.026249,0.00381 -0.039522,0.00523 -0.013274,0.00141 -0.02664,0.00248 -0.0401,0.00323 -0.013459,7.429e-4 -0.027005,0.00115 -0.040638,0.0012 -0.013634,5.6e-5 -0.027192,-2.32e-4 -0.04066,-8.68e-4 -0.013467,-6.321e-4 -0.026859,-0.00161 -0.040142,-0.00291 -0.013284,-0.00131 -0.026459,-0.00295 -0.039543,-0.00492 -0.013084,-0.00196 -0.026076,-0.00426 -0.038943,-0.00686 -0.025735,-0.00521 -0.051008,-0.011679 -0.075779,-0.019348 -0.024771,-0.00767 -0.049027,-0.016526 -0.072699,-0.02652 -0.023673,-0.00999 -0.046764,-0.021114 -0.069205,-0.0333 -0.022442,-0.012187 -0.044243,-0.025441 -0.065319,-0.039688 -0.021075,-0.014246 -0.04142,-0.029489 -0.060998,-0.045661 -0.01958,-0.016173 -0.03838,-0.033277 -0.056327,-0.051243 -0.017962,-0.017965 -0.035074,-0.036786 -0.051258,-0.05641 -0.016319,-0.019625 -0.031573,-0.040055 -0.045859,-0.061205 -0.014287,-0.021151 -0.027596,-0.043023 -0.039853,-0.065567 -0.012258,-0.022543 -0.023476,-0.045753 -0.033569,-0.069556 -0.010092,-0.023804 -0.019055,-0.048203 -0.026852,-0.073132 -0.0078,-0.02493 -0.014414,-0.050393 -0.019781,-0.076316 -0.00268,-0.012961 -0.00506,-0.026048 -0.00711,-0.039233 -0.00204,-0.013185 -0.00379,-0.026461 -0.00519,-0.039853 -0.00141,-0.013391 -0.00247,-0.026892 -0.0032,-0.040473 -7.291e-4,-0.013581 -0.00116,-0.027256 -0.0012,-0.041011 -4e-5,-0.013758 2.351e-4,-0.02742 8.701e-4,-0.041011 6.35e-4,-0.013589 0.0016,-0.02709 0.00289,-0.040493 0.0013,-0.013404 0.00293,-0.026713 0.00488,-0.039915 0.00196,-0.013202 0.00422,-0.026312 0.0068,-0.039295 0.00516,-0.025965 0.01158,-0.051472 0.019181,-0.07646 0.0076,-0.024989 0.016388,-0.049441 0.026293,-0.073318 0.00991,-0.023878 0.020931,-0.047172 0.033011,-0.069805 0.012079,-0.022634 0.025215,-0.044622 0.039336,-0.065877 0.014121,-0.021255 0.029218,-0.041772 0.045248,-0.061516 0.01603,-0.019743 0.03298,-0.038706 0.050788,-0.056803 0.017806,-0.018097 0.036483,-0.035339 0.055934,-0.051656 0.019452,-0.016316 0.039684,-0.031713 0.060647,-0.046116 0.020964,-0.014403 0.042665,-0.027808 0.065009,-0.040163 0.022345,-0.012356 0.045343,-0.023664 0.068936,-0.033837 0.023593,-0.010174 0.047782,-0.01922 0.072493,-0.027078 0.024709,-0.00786 0.04994,-0.014517 0.075634,-0.019926 0.012845,-0.0027 0.025813,-0.0051 0.038881,-0.00717 0.013069,-0.00207 0.026228,-0.0038 0.039501,-0.00521 0.013274,-0.00141 0.02664,-0.00251 0.0401,-0.00324 0.013462,-7.42e-4 0.027026,-0.00115 0.04066,-0.0012 z M 5.929628,2.6172458 c 4.02e-5,-2e-7 8.02e-5,10e-8 1.202e-4,0 h 2.01e-5 c 0.029132,-1.16e-4 0.05819,1.4e-4 0.087148,7.648e-4 0.029005,6.256e-4 0.057912,0.00162 0.086733,0.00298 0.028822,0.00136 0.057546,0.00308 0.086176,0.00516 0.02863,0.00208 0.057168,0.00452 0.085597,0.00732 0.028429,0.0028 0.056756,0.00596 0.084976,0.00947 0.028219,0.0035 0.056335,0.00735 0.084336,0.011555 0.028001,0.0042 0.055881,0.00875 0.083654,0.013643 0.027773,0.00489 0.055435,0.010138 0.082972,0.015709 0.027537,0.00557 0.054956,0.011472 0.082248,0.017715 0.027291,0.00624 0.054467,0.012815 0.081504,0.01972 0.027037,0.00691 0.053945,0.014147 0.080718,0.021704 0.026774,0.00756 0.053411,0.015445 0.079912,0.023647 0.026502,0.0082 0.052864,0.016712 0.079085,0.025548 0.026221,0.00884 0.052307,0.017987 0.078238,0.027451 0.025931,0.00946 0.051716,0.019251 0.077349,0.029332 0.025633,0.010081 0.051115,0.02046 0.076439,0.03115 0.025325,0.01069 0.05048,0.02168 0.075489,0.03297 0.025008,0.01129 0.049854,0.022887 0.074538,0.034768 0.024684,0.011881 0.049217,0.024042 0.073566,0.036504 0.024349,0.012462 0.048527,0.025226 0.072533,0.038261 0.024006,0.013036 0.047824,0.026356 0.071478,0.039957 0.023654,0.0136 0.047132,0.027475 0.070425,0.04163 0.046587,0.02831 0.092452,0.057724 0.1375417,0.088202 0.04509,0.030477 0.08941,0.062014 0.1329328,0.094589 0.043522,0.032574 0.086253,0.06619 0.1281367,0.1007896 0.041884,0.034599 0.082919,0.070189 0.1230931,0.1067429 0.040173,0.036553 0.079471,0.074053 0.1178636,0.1124892 0.038393,0.038436 0.075887,0.077802 0.1124269,0.1180496 0.036541,0.040248 0.072147,0.081395 0.1067636,0.1233827 0.034617,0.041988 0.068249,0.08483 0.1008723,0.1284882 0.032623,0.043658 0.064237,0.088132 0.094795,0.1333873 0.030558,0.045255 0.060049,0.091276 0.08847,0.1380587 0.01421,0.023391 0.028153,0.046975 0.041817,0.070735 0.013662,0.02376 0.027056,0.047711 0.040163,0.07183 0.013107,0.024119 0.025926,0.048415 0.038468,0.072884 0.012542,0.024469 0.024805,0.049107 0.036773,0.073918 0.011969,0.024812 0.023653,0.049787 0.035037,0.074931 0.011386,0.025144 0.022467,0.050455 0.033259,0.075923 0.010793,0.025468 0.021289,0.051092 0.031481,0.076874 0.010193,0.025783 0.02008,0.051735 0.029662,0.077824 0.00958,0.026089 0.018857,0.052327 0.027822,0.078714 0.00896,0.026387 0.017625,0.052907 0.025963,0.079581 0.00834,0.026675 0.016359,0.053496 0.02406,0.08045 0.0077,0.026954 0.015083,0.054052 0.022138,0.081276 0.00706,0.027224 0.013772,0.054576 0.020174,0.082062 0.0064,0.027486 0.012472,0.055109 0.018211,0.082848 0.00574,0.027739 0.011139,0.055588 0.016206,0.083572 0.00507,0.027982 0.0098,0.056098 0.01418,0.084315 0.00438,0.028218 0.00844,0.056533 0.012133,0.084977 0.0037,0.028444 0.00705,0.056998 0.010047,0.085659 0.003,0.02866 0.00564,0.057432 0.00794,0.086299 0.00228,0.028868 0.00421,0.057852 0.00579,0.08692 0.00157,0.029068 0.00279,0.058219 0.00364,0.087478 8.467e-4,0.029258 0.00132,0.058617 0.00146,0.088057 1.199e-4,0.029439 -1.202e-4,0.058793 -7.526e-4,0.088057 -6.115e-4,0.029264 -0.0016,0.05844 -0.00296,0.087519 -0.00134,0.029079 -0.00307,0.058055 -0.00513,0.08694 -0.00207,0.028885 -0.00448,0.057679 -0.00725,0.086362 -0.00277,0.028682 -0.00589,0.057251 -0.00936,0.085721 -0.00348,0.02847 -0.00731,0.05683 -0.011472,0.08508 -0.00417,0.02825 -0.00868,0.056399 -0.013518,0.084419 -0.00484,0.02802 -0.010023,0.055914 -0.015543,0.083695 -0.00552,0.027781 -0.011386,0.055438 -0.017571,0.082972 -0.00619,0.027533 -0.012693,0.054951 -0.019534,0.082228 -0.00684,0.027277 -0.014008,0.05443 -0.021499,0.081442 -0.00748,0.027011 -0.015313,0.053878 -0.023441,0.080615 -0.00812,0.026737 -0.016564,0.053335 -0.025322,0.079788 -0.00876,0.026453 -0.017825,0.052759 -0.027203,0.07892 -0.00938,0.026161 -0.019052,0.052172 -0.029043,0.078031 -0.00999,0.02586 -0.02029,0.051572 -0.030882,0.077122 -0.010593,0.025549 -0.021493,0.050941 -0.03268,0.076172 -0.011188,0.02523 -0.022665,0.050299 -0.034437,0.075199 -0.011773,0.024901 -0.023824,0.049643 -0.036173,0.074208 -0.012349,0.024564 -0.024993,0.048956 -0.03791,0.073173 -0.012916,0.024219 -0.026108,0.048257 -0.039584,0.07212 -0.013476,0.023862 -0.027232,0.047546 -0.041259,0.071044 -0.028052,0.046998 -0.057195,0.093254 -0.087396,0.1387412 -0.030201,0.045488 -0.061462,0.090204 -0.093741,0.1341104 -0.032278,0.043906 -0.065573,0.087021 -0.09986,0.129274 -0.034285,0.042252 -0.06957,0.08364 -0.1057917,0.124168 -0.036222,0.040527 -0.073388,0.080188 -0.1114764,0.118918 -0.038089,0.03873 -0.077091,0.076537 -0.1169748,0.1133984 -0.039884,0.036862 -0.080657,0.072772 -0.1222662,0.1076939 -0.041609,0.034922 -0.084067,0.068852 -0.1273307,0.1017613 -0.043264,0.03291 -0.087319,0.064795 -0.1321674,0.095622 -0.022425,0.015413 -0.045032,0.030572 -0.067841,0.045454 -0.022808,0.014882 -0.045818,0.029486 -0.068998,0.043821 -0.023182,0.014336 -0.046548,0.028385 -0.070093,0.042168 -0.023547,0.013783 -0.047267,0.027292 -0.071169,0.040515 -0.023902,0.013222 -0.047994,0.026168 -0.072243,0.03882 -0.02425,0.012651 -0.048668,0.02501 -0.073256,0.037083 -0.024588,0.012073 -0.04935,0.023862 -0.074269,0.035347 -0.024919,0.011484 -0.050002,0.022661 -0.075241,0.033549 -0.02524,0.010888 -0.05064,0.021489 -0.076192,0.031771 -0.025552,0.010282 -0.051245,0.020244 -0.077101,0.02991 -0.025856,0.00967 -0.051881,0.019028 -0.078031,0.028071 -0.026151,0.00904 -0.052443,0.017781 -0.078879,0.026189 -0.026436,0.00841 -0.053013,0.0165 -0.079726,0.024268 -0.026714,0.00777 -0.05355,0.015207 -0.080532,0.022324 -0.026981,0.00712 -0.054097,0.013904 -0.081339,0.020361 -0.027241,0.00645 -0.054612,0.012588 -0.082103,0.018376 -0.027492,0.00579 -0.055114,0.011239 -0.082847,0.01635 -0.027733,0.00511 -0.055584,0.00988 -0.08355,0.014304 -0.027966,0.00443 -0.056042,0.00851 -0.084232,0.012237 -0.028191,0.00372 -0.056508,0.0071 -0.084915,0.010128 -0.028406,0.00302 -0.056901,0.00569 -0.085515,0.008 -0.028612,0.00231 -0.057344,0.00426 -0.086155,0.00585 -0.028811,0.00159 -0.057714,0.00283 -0.086713,0.00368 -0.028999,8.56e-4 -0.058092,0.00135 -0.087271,0.00147 -0.02918,1.2e-4 -0.058266,-1.6e-4 -0.087271,-7.64e-4 -0.029006,-6.24e-4 -0.057932,-0.00162 -0.086755,-0.00298 -0.028823,-0.00136 -0.057545,-0.00308 -0.086176,-0.00516 -0.028631,-0.00208 -0.057167,-0.00454 -0.085596,-0.00734 -0.02843,-0.0028 -0.056757,-0.00595 -0.084977,-0.00945 -0.02822,-0.0035 -0.056334,-0.00735 -0.084336,-0.011555 -0.028002,-0.0042 -0.0559,-0.00876 -0.083674,-0.013643 C 5.3299032,9.384289 5.3022442,9.379059 5.2747062,9.37349 5.2471682,9.36792 5.2197512,9.362015 5.1924582,9.355775 5.1651662,9.349535 5.1379932,9.342957 5.1109542,9.336055 5.0839152,9.329155 5.0570112,9.321926 5.0302352,9.314372 5.0034602,9.306812 4.9768272,9.298944 4.9503232,9.290745 4.9238192,9.282545 4.8974392,9.274029 4.8712172,9.265197 4.8449942,9.256357 4.8189122,9.247207 4.7929792,9.237746 4.7670462,9.228286 4.7412652,9.218513 4.7156302,9.208435 4.6899952,9.198358 4.6645182,9.18797 4.6391902,9.177284 4.6138632,9.166598 4.5886912,9.15562 4.5636812,9.144336 4.5386692,9.133051 4.5138082,9.121465 4.4891232,9.109589 4.4644372,9.097713 4.4399092,9.085543 4.4155572,9.073084 4.3912062,9.060626 4.3670332,9.047874 4.3430242,9.034844 4.3190152,9.021813 4.2951812,9.008504 4.2715242,8.994908 4.2478592,8.981322 4.2243672,8.967457 4.2010712,8.953307 4.1777762,8.939157 4.1546672,8.924722 4.1317422,8.910023 4.1088184,8.8953117 4.0860771,8.8803481 4.0635296,8.8651145 4.0184335,8.8346473 3.9741048,8.8031101 3.9305766,8.7705465 3.8870486,8.737983 3.8443294,8.7043865 3.8024397,8.6697982 3.7605499,8.6352094 3.719485,8.599639 3.6793052,8.5630966 3.6391256,8.5265542 3.5998198,8.4890534 3.5614209,8.4506281 3.5230218,8.4122025 3.4855409,8.3728566 3.4489939,8.3326198 3.4124472,8.2923825 3.376833,8.2512562 3.3422097,8.2092786 3.3075866,8.167301 3.2739457,8.1244578 3.2413169,8.080811 3.2086879,8.037164 3.1770649,7.992711 3.1465009,7.947465 3.1159379,7.902219 3.0864369,7.856179 3.0580099,7.8094062 c -0.014214,-0.023386 -0.028172,-0.046959 -0.041837,-0.070714 -0.013667,-0.023755 -0.027053,-0.047695 -0.040163,-0.07181 -0.013109,-0.024115 -0.025924,-0.048399 -0.038468,-0.072864 -0.012544,-0.024465 -0.024823,-0.049111 -0.036794,-0.073918 -0.01197,-0.024807 -0.02365,-0.04977 -0.035036,-0.07491 -0.011388,-0.025141 -0.022464,-0.050438 -0.033259,-0.075902 -0.010795,-0.025464 -0.021308,-0.051095 -0.031502,-0.076874 -0.010195,-0.02578 -0.020077,-0.051719 -0.029662,-0.077805 -0.00958,-0.026085 -0.018856,-0.05231 -0.027822,-0.078692 -0.00897,-0.026382 -0.017624,-0.052911 -0.025963,-0.079581 -0.00834,-0.026671 -0.016358,-0.0535 -0.024061,-0.08045 -0.00771,-0.026951 -0.015101,-0.054035 -0.022159,-0.081256 -0.00706,-0.027221 -0.013771,-0.05458 -0.020174,-0.082062 -0.0064,-0.027483 -0.012492,-0.055091 -0.018231,-0.082827 -0.00574,-0.027736 -0.011138,-0.055591 -0.016205,-0.083571 -0.00507,-0.02798 -0.00979,-0.0561 -0.01418,-0.084316 -0.00439,-0.028216 -0.00844,-0.056535 -0.012133,-0.084977 -0.0037,-0.028442 -0.00705,-0.057 -0.010046,-0.085659 -0.003,-0.028659 -0.00564,-0.057412 -0.00794,-0.086279 -0.00229,-0.028868 -0.00423,-0.057852 -0.0058,-0.08692 -0.00157,-0.029068 -0.00279,-0.058219 -0.00364,-0.087478 -8.491e-4,-0.029257 -0.00133,-0.058617 -0.00145,-0.088056 -1.161e-4,-0.02944 1.439e-4,-0.058793 7.643e-4,-0.088057 6.209e-4,-0.029264 0.00161,-0.05844 0.00296,-0.087519 0.00135,-0.02908 0.00306,-0.058054 0.00513,-0.08694 0.00206,-0.028886 0.00448,-0.057678 0.00725,-0.086362 0.00277,-0.028684 0.00589,-0.057269 0.00936,-0.085741 0.00348,-0.028472 0.00731,-0.056828 0.011472,-0.08508 0.00417,-0.028252 0.00867,-0.056396 0.013518,-0.084419 0.00484,-0.028021 0.010042,-0.055931 0.015565,-0.083715 0.00552,-0.027783 0.011382,-0.055436 0.01757,-0.082972 0.00619,-0.027536 0.01271,-0.054947 0.019555,-0.082228 0.00684,-0.02728 0.014006,-0.054428 0.021498,-0.081442 0.00749,-0.027014 0.015311,-0.053896 0.023441,-0.080636 0.00813,-0.02674 0.016562,-0.053353 0.025322,-0.079809 0.00876,-0.026457 0.017843,-0.052756 0.027223,-0.07892 0.00938,-0.026165 0.01907,-0.052188 0.029063,-0.078052 0.00999,-0.025863 0.020286,-0.051568 0.030882,-0.077122 0.010595,-0.025553 0.02149,-0.050957 0.03268,-0.076192 0.01119,-0.025235 0.022661,-0.050314 0.034437,-0.07522 0.011775,-0.024906 0.023842,-0.049638 0.036194,-0.074207 0.012353,-0.024569 0.02501,-0.048971 0.037931,-0.073195 0.012921,-0.024223 0.026104,-0.048272 0.039584,-0.072141 0.01348,-0.023868 0.027249,-0.04754 0.041279,-0.071044 0.02806,-0.047008 0.057207,-0.093284 0.087416,-0.1387822 0.030209,-0.045499 0.061476,-0.090236 0.093761,-0.134152 0.032287,-0.043916 0.065607,-0.087011 0.099901,-0.1292738 0.034293,-0.042263 0.069561,-0.083692 0.105792,-0.1242301 0.03623,-0.040538 0.073421,-0.080197 0.1115177,-0.1189385 0.038097,-0.038741 0.077103,-0.076567 0.1169953,-0.11344 0.039892,-0.036873 0.080669,-0.072782 0.1222871,-0.1077144 0.041618,-0.034933 0.084079,-0.068883 0.1273511,-0.1018026 0.043272,-0.03292 0.087353,-0.064806 0.1322089,-0.095643 0.044857,-0.030836 0.09049,-0.060616 0.1368597,-0.089297 0.023185,-0.01434 0.046544,-0.028421 0.070094,-0.042209 0.02355,-0.013788 0.047284,-0.027288 0.071189,-0.040515 0.023907,-0.013227 0.047989,-0.026163 0.072243,-0.038819 0.024253,-0.012656 0.048685,-0.025027 0.073277,-0.037104 0.024592,-0.012077 0.049347,-0.023878 0.074269,-0.035367 0.024922,-0.011489 0.050019,-0.022677 0.075261,-0.033569 0.025244,-0.010892 0.050636,-0.021485 0.076192,-0.031771 0.025556,-0.010285 0.051263,-0.02026 0.077122,-0.029931 0.025859,-0.00967 0.051857,-0.019025 0.078011,-0.028071 0.026153,-0.00905 0.05246,-0.017776 0.0789,-0.026189 0.026438,-0.00841 0.053011,-0.016516 0.079726,-0.024288 0.026715,-0.00777 0.053569,-0.015225 0.080553,-0.022345 0.026984,-0.00712 0.054115,-0.0139 0.081359,-0.020361 0.027243,-0.00646 0.05461,-0.012585 0.082103,-0.018376 0.027493,-0.00579 0.055112,-0.011258 0.082848,-0.016371 0.027736,-0.00511 0.055582,-0.00988 0.08355,-0.014304 0.027969,-0.00443 0.056061,-0.00851 0.084253,-0.012237 0.028192,-0.00373 0.056487,-0.0071 0.084894,-0.010129 0.028408,-0.00302 0.056921,-0.00571 0.085535,-0.00802 0.028613,-0.00231 0.057324,-0.00426 0.086134,-0.00585 0.028811,-0.00159 0.057733,-0.00282 0.086733,-0.00368 0.028952,-8.557e-4 0.057995,-0.00133 0.087127,-0.00145 z" />
    <path
       id="path38-0"
       style="display:inline;fill:url(#f-8);stroke-width:0.04"
       d="m 5.9344441,3.8144646 c -0.037884,1.52e-4 -0.075539,0.00126 -0.1129439,0.00332 -0.037405,0.00206 -0.074555,0.00508 -0.1114353,0.00901 -0.03688,0.00393 -0.073492,0.00876 -0.1098018,0.014511 -0.03631,0.00574 -0.072331,0.012388 -0.1080244,0.019906 -0.035693,0.00752 -0.07107,0.015914 -0.1061019,0.025156 -0.035031,0.00924 -0.069711,0.01932 -0.1040346,0.030241 -0.034324,0.01092 -0.068294,0.02267 -0.1018648,0.035223 -0.03357,0.012552 -0.066737,0.025922 -0.099508,0.04006 -0.032771,0.014138 -0.065143,0.029054 -0.097069,0.044731 -0.031925,0.015677 -0.063409,0.032109 -0.094444,0.049278 -0.031035,0.017169 -0.061618,0.035067 -0.091715,0.053682 -0.030098,0.018615 -0.059706,0.037947 -0.088821,0.05796 -0.029116,0.020014 -0.057737,0.040728 -0.085824,0.062094 -0.028087,0.021367 -0.055649,0.04339 -0.082661,0.066063 -0.027012,0.022673 -0.053483,0.045996 -0.079375,0.069929 -0.025892,0.023932 -0.051195,0.048483 -0.075923,0.073629 -0.024727,0.025146 -0.048872,0.050872 -0.072389,0.077184 -0.023516,0.026312 -0.046409,0.053204 -0.068668,0.080636 -0.022258,0.027432 -0.043888,0.055417 -0.064844,0.083923 -0.020955,0.028505 -0.041247,0.057532 -0.060854,0.087064 -0.019607,0.029532 -0.038528,0.05955 -0.056741,0.090062 -0.018212,0.030511 -0.035711,0.06151 -0.052483,0.092955 -0.016771,0.031446 -0.032814,0.063351 -0.0481,0.095684 -0.015287,0.032333 -0.029821,0.065094 -0.043573,0.098268 -0.013754,0.033173 -0.026726,0.066761 -0.038901,0.100728 -0.012176,0.033968 -0.023555,0.068307 -0.034107,0.1030219 -0.010553,0.034715 -0.020283,0.069797 -0.029166,0.1052132 -0.00888,0.035415 -0.016912,0.071168 -0.024081,0.1072388 -0.00716,0.03607 -0.013464,0.072463 -0.018871,0.1091408 -0.0054,0.036678 -0.00992,0.073658 -0.013518,0.1108976 -0.0036,0.037239 -0.00629,0.074735 -0.00804,0.1124892 -0.00174,0.037754 -0.00257,0.075756 -0.00242,0.1139776 1.479e-4,0.038218 0.00127,0.076201 0.00331,0.113936 0.00204,0.037735 0.00501,0.075221 0.00891,0.1124275 0.00389,0.037206 0.00871,0.074143 0.014407,0.1107736 0.0057,0.036631 0.012269,0.072965 0.01972,0.1089752 0.00745,0.03601 0.015769,0.07169 0.024929,0.107032 0.00916,0.035342 0.01917,0.070337 0.029993,0.1049652 0.010823,0.034628 0.022472,0.068885 0.034913,0.1027536 0.012442,0.033868 0.025675,0.067356 0.039688,0.1004176 0.014012,0.033061 0.0288,0.065707 0.044338,0.097916 0.015539,0.03221 0.031827,0.06398 0.048844,0.095291 0.017018,0.031311 0.034756,0.062155 0.053206,0.092522 0.018451,0.030366 0.037606,0.060252 0.057444,0.089628 0.019838,0.029375 0.040358,0.058251 0.061536,0.086589 0.021179,0.028338 0.043012,0.056132 0.065484,0.083385 0.022472,0.027253 0.045587,0.053953 0.069309,0.080077 0.023721,0.026124 0.048044,0.051677 0.072967,0.076626 0.024924,0.024948 0.050443,0.049302 0.076523,0.073028 0.026079,0.023726 0.052723,0.04683 0.079912,0.069288 0.027189,0.022458 0.054925,0.044258 0.083179,0.065402 0.028253,0.021143 0.057028,0.04163 0.0863,0.061412 0.029271,0.019783 0.059033,0.038861 0.089276,0.057236 0.030243,0.018376 0.060961,0.036036 0.092129,0.052958 0.031168,0.016923 0.062789,0.033111 0.094837,0.048534 0.032047,0.015423 0.064519,0.030089 0.097399,0.043966 0.03288,0.013877 0.066172,0.026968 0.099839,0.039253 0.033668,0.012285 0.067725,0.023769 0.1021332,0.034417 0.034408,0.010648 0.069159,0.020471 0.1042623,0.029435 0.035103,0.00896 0.070557,0.017055 0.1063087,0.024288 0.035752,0.00724 0.071815,0.013602 0.1081692,0.019058 0.036355,0.00546 0.072996,0.010011 0.1099056,0.013643 0.03691,0.00364 0.074076,0.00634 0.1114965,0.00811 0.03742,0.00176 0.0751,0.0026 0.1129856,0.00244 0.03788,-1.6e-4 0.075521,-0.00128 0.112923,-0.00335 0.037402,-0.00206 0.074557,-0.00507 0.1114353,-0.00899 0.036877,-0.00393 0.073474,-0.00876 0.1097811,-0.014511 0.036308,-0.00574 0.072332,-0.012387 0.1080243,-0.019906 0.035692,-0.00752 0.071052,-0.015913 0.1060815,-0.025156 0.03503,-0.00924 0.069733,-0.01934 0.1040556,-0.030261 0.034323,-0.010922 0.068275,-0.022668 0.1018438,-0.035222 0.033569,-0.012554 0.066759,-0.02592 0.099529,-0.04006 0.03277,-0.014139 0.065123,-0.029052 0.097048,-0.044732 0.031924,-0.015678 0.063409,-0.032108 0.094444,-0.049279 0.031035,-0.017171 0.061618,-0.035085 0.091715,-0.053702 0.030098,-0.018616 0.059706,-0.037945 0.088821,-0.05796 0.029116,-0.020016 0.057737,-0.040726 0.085824,-0.062094 0.028088,-0.021369 0.055648,-0.043389 0.082661,-0.066063 0.027013,-0.022675 0.053482,-0.045995 0.079375,-0.069929 0.025894,-0.023934 0.051215,-0.048483 0.075944,-0.073628 0.024728,-0.025147 0.048871,-0.050891 0.072388,-0.077204 0.023517,-0.026313 0.046407,-0.053204 0.068668,-0.080636 0.02226,-0.027432 0.043886,-0.055396 0.064844,-0.083902 0.020957,-0.028505 0.041245,-0.057553 0.060854,-0.087084 0.019607,-0.029533 0.038527,-0.059549 0.05674,-0.090062 0.018212,-0.030512 0.03573,-0.06151 0.052503,-0.092955 0.016773,-0.031445 0.032813,-0.063352 0.048101,-0.095684 0.015287,-0.032332 0.029819,-0.065095 0.043574,-0.098268 0.013756,-0.033173 0.026725,-0.066762 0.038902,-0.100728 0.012178,-0.033966 0.023553,-0.068309 0.034107,-0.103022 0.010555,-0.034714 0.020283,-0.069799 0.029166,-0.1052132 0.00889,-0.035414 0.016933,-0.07115 0.024102,-0.1072184 0.00716,-0.036068 0.013464,-0.072465 0.018871,-0.1091404 0.0054,-0.036676 0.00994,-0.073641 0.01354,-0.1108772 0.0036,-0.037236 0.00628,-0.074739 0.00802,-0.1124891 0.00174,-0.03775 0.00258,-0.07574 0.00242,-0.1139568 -1.599e-4,-0.038222 -0.00127,-0.076218 -0.00331,-0.1139568 -0.00204,-0.03774 -0.00501,-0.075218 -0.00891,-0.1124272 -0.00389,-0.037209 -0.00869,-0.07414 -0.014386,-0.1107736 -0.0057,-0.036626 -0.012289,-0.072977 -0.019739,-0.1089885 C 8.0843051,5.5380812 8.0759881,5.5024062 8.0668261,5.4670617 8.0576661,5.4317177 8.0476581,5.3967067 8.0368331,5.3620761 8.0260011,5.3274471 8.0143571,5.2931921 8.0019131,5.2593226 7.9894701,5.2254536 7.9762191,5.1919676 7.9622061,5.158905 7.9481921,5.125842 7.9334081,5.093198 7.9178671,5.060989 7.9023281,5.028779 7.8860411,4.997009 7.8690231,4.965697 7.8520051,4.934387 7.8342481,4.903542 7.8157961,4.873176 7.7973441,4.842806 7.7781911,4.812919 7.7583531,4.783544 7.7385153,4.7541696 7.7179962,4.7253124 7.6968175,4.6969756 7.6756389,4.6686384 7.6538069,4.640823 7.6313331,4.6135699 7.6088584,4.5863166 7.5857473,4.5596152 7.5620246,4.533492 7.538302,4.5073685 7.5139606,4.4818138 7.4890362,4.4568662 7.4641117,4.431919 7.4385944,4.407583 7.4125144,4.3838578 c -0.02608,-0.023725 -0.052722,-0.046831 -0.079912,-0.069288 -0.02719,-0.022457 -0.054925,-0.04426 -0.083179,-0.065402 -0.028253,-0.021142 -0.057027,-0.041631 -0.086299,-0.061412 -0.029271,-0.019781 -0.059034,-0.038863 -0.089276,-0.057237 -0.030242,-0.018374 -0.060961,-0.036037 -0.092128,-0.052958 -0.031168,-0.016921 -0.06279,-0.033092 -0.094837,-0.048514 -0.032047,-0.015422 -0.06452,-0.03009 -0.0974,-0.043966 -0.032879,-0.013875 -0.066172,-0.026969 -0.099839,-0.039253 -0.033667,-0.012284 -0.067706,-0.023749 -0.1021128,-0.034396 -0.034406,-0.010646 -0.069181,-0.020473 -0.1042829,-0.029435 -0.035101,-0.00896 -0.070539,-0.017076 -0.106288,-0.024309 -0.035749,-0.00724 -0.071796,-0.013582 -0.1081483,-0.019037 -0.036351,-0.00546 -0.072998,-0.010011 -0.109905,-0.013643 -0.036907,-0.00364 -0.07408,-0.00634 -0.1114971,-0.00811 -0.037417,-0.00176 -0.075084,-0.0026 -0.1129649,-0.00244 z" />
    <path
       id="path1037"
       style="display:inline;fill:url(#radialGradient895);stroke-width:0.04"
       d="m 5.9548664,0.66145833 c -2.2092158,0 -2.8553502,0.002272 -2.9809421,0.0126917 C 2.5205572,0.71184602 2.2384462,0.78325508 1.9310947,0.93631492 1.6942392,1.0539668 1.50743,1.1903499 1.3230703,1.3815177 0.98731894,1.7301452 0.78383152,2.1590452 0.71016766,2.6688808 0.67435576,2.9163886 0.66393526,2.966854 0.66181926,4.2311006 c -8.12e-4,0.4214156 0,0.976029 0,1.7199361 0,2.2080299 0.002459,2.8536798 0.0130431,2.9790634 0.0366279,0.4412796 0.10579307,0.7189068 0.2523048,1.0225939 0.27999944,0.581316 0.81476974,1.017722 1.44476864,1.180558 0.2181395,0.05618 0.4590664,0.08711 0.7683658,0.101762 0.1310477,0.0057 1.466736,0.0098 2.8032376,0.0098 1.3365052,0 2.6730108,-0.0016 2.8007982,-0.0082 0.3581393,-0.01685 0.5661044,-0.04478 0.7960438,-0.104222 0.6340668,-0.163647 1.1590778,-0.593517 1.4447688,-1.1829763 0.143663,-0.296359 0.216505,-0.5845929 0.249473,-1.0028325 0.0072,-0.091184 0.01017,-1.5450371 0.01017,-2.9969434 0,-1.4521584 -0.0033,-2.9033372 -0.01042,-2.9945251 C 11.201003,2.530152 11.128158,2.24437 10.979859,1.9423103 10.858175,1.6950465 10.723044,1.5103935 10.526883,1.3215937 10.176804,0.98713006 9.7486707,0.78357208 9.2384878,0.70997217 8.9912885,0.6742282 8.9420564,0.66365433 7.6771787,0.66145833 Z M 5.9296284,2.6172458 h 1.201e-4 2.02e-5 c 0.029132,-1.16e-4 0.05819,1.4e-4 0.087148,7.648e-4 0.029005,6.24e-4 0.057911,0.00162 0.086733,0.00298 0.028822,0.00136 0.057546,0.00308 0.086176,0.00516 0.02863,0.00208 0.057168,0.00452 0.085597,0.00732 0.028429,0.0028 0.056756,0.00596 0.084976,0.00947 0.02822,0.0035 0.056335,0.00735 0.084336,0.011555 0.028001,0.0042 0.055881,0.00875 0.083654,0.013643 0.027773,0.00489 0.055435,0.010138 0.082972,0.015709 0.027537,0.00557 0.054956,0.011472 0.082248,0.017715 0.027291,0.00624 0.054467,0.012815 0.081504,0.01972 0.027037,0.00691 0.053945,0.014147 0.080718,0.021704 0.026774,0.00756 0.053411,0.015445 0.079912,0.023647 0.026502,0.0082 0.052864,0.016712 0.079085,0.025548 0.026221,0.00884 0.052307,0.017987 0.078238,0.027451 0.025931,0.00946 0.051716,0.019251 0.077349,0.029332 0.025633,0.010082 0.051115,0.02046 0.076439,0.03115 0.025325,0.01069 0.05048,0.021679 0.075489,0.03297 0.025008,0.01129 0.049854,0.022888 0.074538,0.034768 0.024684,0.011881 0.049217,0.024042 0.073566,0.036504 0.024349,0.012462 0.048527,0.025226 0.072533,0.038261 0.024006,0.013036 0.047824,0.026356 0.071478,0.039957 0.023654,0.0136 0.047132,0.027475 0.070425,0.04163 0.046587,0.02831 0.092452,0.057724 0.1375417,0.088202 0.04509,0.030477 0.08941,0.062014 0.1329328,0.094589 0.043522,0.032574 0.086253,0.06619 0.1281367,0.1007896 0.041884,0.034599 0.082919,0.070189 0.1230931,0.1067429 0.040173,0.036553 0.079471,0.074053 0.1178636,0.1124892 0.038393,0.038436 0.075887,0.077802 0.1124269,0.1180496 0.036541,0.040248 0.072147,0.081395 0.1067636,0.1233827 0.034617,0.041988 0.068249,0.084831 0.1008722,0.1284882 0.032623,0.043658 0.064237,0.088132 0.094795,0.1333873 0.030558,0.045255 0.060049,0.091276 0.08847,0.1380587 0.01421,0.023391 0.028153,0.046975 0.041817,0.070735 0.013662,0.02376 0.027056,0.047711 0.040163,0.07183 0.013107,0.024119 0.025926,0.048415 0.038468,0.072884 0.012542,0.024469 0.024805,0.049107 0.036773,0.073918 0.011969,0.024812 0.023652,0.049787 0.035036,0.074931 0.011386,0.025144 0.022468,0.050455 0.033259,0.075923 0.010793,0.025468 0.021289,0.051092 0.031481,0.076874 0.010193,0.025783 0.02008,0.051735 0.029662,0.077824 0.00958,0.026089 0.018857,0.052327 0.027822,0.078714 0.00896,0.026387 0.017625,0.052907 0.025963,0.079581 0.00834,0.026675 0.016359,0.053496 0.02406,0.08045 0.0077,0.026954 0.015083,0.054052 0.022138,0.081276 0.00706,0.027224 0.013772,0.054576 0.020174,0.082062 0.0064,0.027486 0.012472,0.055109 0.018211,0.082848 0.00574,0.027739 0.011139,0.055588 0.016206,0.083572 0.00507,0.027982 0.0098,0.056098 0.014179,0.084315 0.00438,0.028218 0.00844,0.056533 0.012133,0.084977 0.0037,0.028444 0.00705,0.056998 0.010047,0.085659 0.003,0.02866 0.00564,0.057432 0.00794,0.086299 0.00228,0.028868 0.00421,0.057852 0.00579,0.08692 0.00157,0.029068 0.00279,0.058219 0.00364,0.087478 8.466e-4,0.029258 0.00132,0.058617 0.00146,0.088057 1.199e-4,0.029439 -1.202e-4,0.058793 -7.527e-4,0.088057 -6.114e-4,0.029264 -0.0016,0.05844 -0.00296,0.087519 -0.00134,0.029079 -0.00307,0.058055 -0.00513,0.08694 -0.00207,0.028885 -0.00448,0.057679 -0.00725,0.086362 -0.00277,0.028682 -0.00589,0.057251 -0.00936,0.085721 -0.00348,0.02847 -0.00731,0.05683 -0.011472,0.08508 -0.00417,0.02825 -0.00868,0.056399 -0.013518,0.084419 -0.00484,0.02802 -0.010023,0.055914 -0.015543,0.083695 -0.00552,0.027781 -0.011386,0.055438 -0.017571,0.082972 -0.00619,0.027533 -0.012693,0.054951 -0.019534,0.082228 -0.00684,0.027277 -0.014008,0.05443 -0.021499,0.081442 -0.00748,0.027011 -0.015313,0.053878 -0.023441,0.080615 -0.00812,0.026737 -0.016564,0.053335 -0.025322,0.079788 -0.00876,0.026453 -0.017825,0.052759 -0.027203,0.07892 -0.00938,0.026161 -0.019052,0.052172 -0.029043,0.078031 -0.00999,0.02586 -0.02029,0.051572 -0.030882,0.077122 -0.010593,0.025549 -0.021493,0.050941 -0.03268,0.076172 -0.011188,0.02523 -0.022665,0.050298 -0.034437,0.075199 -0.011773,0.024901 -0.023824,0.049643 -0.036173,0.074208 -0.012349,0.024564 -0.024993,0.048955 -0.03791,0.073173 -0.012917,0.024219 -0.026108,0.048257 -0.039584,0.07212 -0.013477,0.023863 -0.027232,0.047546 -0.041259,0.071044 -0.028053,0.046998 -0.057195,0.093254 -0.087396,0.1387412 -0.030201,0.045488 -0.061462,0.090204 -0.093741,0.1341104 -0.032278,0.043906 -0.065573,0.087021 -0.09986,0.129274 -0.034285,0.042252 -0.06957,0.08364 -0.1057918,0.124168 -0.036222,0.040527 -0.073387,0.080188 -0.1114763,0.118918 -0.038089,0.03873 -0.077091,0.076537 -0.1169748,0.1133984 -0.039884,0.036862 -0.080657,0.072772 -0.1222662,0.1076939 -0.041609,0.034922 -0.084067,0.068852 -0.1273307,0.1017613 -0.043264,0.03291 -0.087319,0.064795 -0.1321675,0.095622 -0.022425,0.015413 -0.045032,0.030572 -0.067841,0.045454 -0.022808,0.014882 -0.045818,0.029486 -0.068998,0.043821 -0.023182,0.014336 -0.046547,0.028385 -0.070093,0.042168 -0.023547,0.013783 -0.047267,0.027292 -0.071169,0.040515 -0.023902,0.013222 -0.047994,0.026168 -0.072244,0.03882 -0.02425,0.012651 -0.048667,0.02501 -0.073256,0.037083 -0.024588,0.012073 -0.04935,0.023862 -0.074269,0.035347 -0.024919,0.011484 -0.050001,0.022661 -0.075241,0.033549 -0.02524,0.010888 -0.05064,0.021489 -0.076192,0.031771 -0.025552,0.010282 -0.051245,0.020244 -0.077101,0.02991 -0.025856,0.00967 -0.051881,0.019028 -0.078031,0.028071 -0.026151,0.00904 -0.052443,0.017781 -0.078879,0.026189 -0.026436,0.00841 -0.053013,0.0165 -0.079726,0.024268 -0.026714,0.00777 -0.05355,0.015207 -0.080533,0.022324 -0.026981,0.00712 -0.054097,0.013904 -0.081339,0.020361 -0.027241,0.00645 -0.054612,0.012588 -0.082103,0.018376 -0.027492,0.00579 -0.055114,0.011239 -0.082847,0.01635 -0.027733,0.00511 -0.055584,0.00988 -0.08355,0.014304 -0.027966,0.00443 -0.056042,0.00851 -0.084232,0.012237 -0.028191,0.00372 -0.056508,0.0071 -0.084915,0.010128 -0.028406,0.00302 -0.056901,0.00569 -0.085515,0.008 -0.028613,0.00231 -0.057344,0.00426 -0.086155,0.00585 -0.028811,0.00159 -0.057714,0.00283 -0.086713,0.00368 -0.029,8.56e-4 -0.058092,0.00135 -0.087271,0.00147 -0.02918,1.2e-4 -0.058266,-1.6e-4 -0.087271,-7.64e-4 -0.029006,-6.24e-4 -0.057932,-0.00162 -0.086755,-0.00298 -0.028823,-0.00136 -0.057545,-0.00308 -0.086176,-0.00516 -0.028631,-0.00208 -0.057167,-0.00454 -0.085596,-0.00734 -0.02843,-0.0028 -0.056756,-0.00595 -0.084977,-0.00945 -0.02822,-0.0035 -0.056334,-0.00735 -0.084336,-0.011555 C 5.4133463,9.398622 5.3854493,9.394062 5.3576743,9.389179 5.3298993,9.384289 5.3022403,9.379059 5.2747023,9.37349 5.2471643,9.36792 5.2197473,9.362015 5.1924543,9.355775 5.1651613,9.349535 5.1379893,9.342957 5.1109503,9.336055 5.0839113,9.329155 5.0570073,9.321926 5.0302313,9.314372 5.0034563,9.306812 4.9768233,9.298944 4.9503193,9.290745 4.9238153,9.282545 4.8974353,9.274029 4.8712133,9.265197 4.8449903,9.256357 4.8189083,9.247207 4.7929753,9.237746 4.7670423,9.228286 4.7412613,9.218513 4.7156263,9.208435 4.6899903,9.198358 4.6645143,9.18797 4.6391863,9.177284 4.6138593,9.166598 4.5886873,9.15562 4.5636773,9.144336 4.5386653,9.133051 4.5138043,9.121465 4.4891193,9.109589 4.4644333,9.097713 4.4399053,9.085543 4.4155533,9.073084 4.3912023,9.060626 4.3670293,9.047874 4.3430203,9.034844 4.3190113,9.021813 4.2951773,9.008504 4.2715203,8.994908 4.2478595,8.9813097 4.2243671,8.9674449 4.2010711,8.9532949 4.177776,8.9391449 4.1546666,8.9247101 4.1317422,8.9100109 4.1088186,8.8953117 4.0860773,8.8803481 4.0635297,8.8651145 4.0184337,8.8346473 3.974105,8.8031101 3.9305767,8.7705465 3.8870487,8.737983 3.8443296,8.7043865 3.8024398,8.6697982 3.7605501,8.6352094 3.7194852,8.599639 3.6793053,8.5630966 3.6391258,8.5265542 3.59982,8.4890534 3.5614211,8.4506281 3.523022,8.4122025 3.4855411,8.3728566 3.448994,8.3326198 3.4124474,8.2923825 3.3768332,8.2512562 3.3422099,8.2092786 3.3075867,8.167301 3.2739459,8.1244578 3.2413171,8.080811 3.2086881,8.037164 3.1770651,7.992711 3.1465011,7.947465 3.1159381,7.902219 3.0864371,7.856179 3.0580101,7.8094062 c -0.014214,-0.023386 -0.028172,-0.046959 -0.041837,-0.070714 -0.013667,-0.023755 -0.027053,-0.047695 -0.040163,-0.07181 -0.013109,-0.024115 -0.025923,-0.048399 -0.038467,-0.072864 -0.012544,-0.024465 -0.024823,-0.049111 -0.036794,-0.073918 -0.01197,-0.024807 -0.02365,-0.04977 -0.035036,-0.07491 -0.011388,-0.025141 -0.022464,-0.050438 -0.033259,-0.075902 -0.010796,-0.025464 -0.021308,-0.051095 -0.031502,-0.076874 -0.010195,-0.02578 -0.020077,-0.051719 -0.029662,-0.077805 -0.00958,-0.026085 -0.018856,-0.05231 -0.027822,-0.078692 -0.00897,-0.026382 -0.017624,-0.052911 -0.025963,-0.079581 -0.00834,-0.026671 -0.016358,-0.0535 -0.024061,-0.08045 -0.00771,-0.026951 -0.015101,-0.054035 -0.022159,-0.081256 -0.00706,-0.027221 -0.013772,-0.05458 -0.020174,-0.082062 -0.0064,-0.027483 -0.012492,-0.055091 -0.018231,-0.082827 -0.00574,-0.027736 -0.011138,-0.055591 -0.016205,-0.083571 -0.00507,-0.02798 -0.00979,-0.0561 -0.01418,-0.084316 -0.00439,-0.028216 -0.00844,-0.056535 -0.012133,-0.084977 -0.0037,-0.028442 -0.00705,-0.057 -0.010046,-0.085659 -0.003,-0.028659 -0.00564,-0.057411 -0.00794,-0.086279 -0.00229,-0.028868 -0.00423,-0.057852 -0.0058,-0.08692 -0.00157,-0.029068 -0.00279,-0.058219 -0.00364,-0.087478 -8.49e-4,-0.029258 -0.00133,-0.058617 -0.00145,-0.088056 -1.161e-4,-0.02944 1.439e-4,-0.058793 7.643e-4,-0.088057 6.209e-4,-0.029264 0.00161,-0.05844 0.00296,-0.087519 0.00135,-0.02908 0.00306,-0.058054 0.00513,-0.08694 0.00206,-0.028886 0.00448,-0.057678 0.00725,-0.086362 0.00277,-0.028684 0.00589,-0.057269 0.00936,-0.085741 0.00348,-0.028472 0.00731,-0.056828 0.011472,-0.08508 0.00417,-0.028252 0.00867,-0.056396 0.013518,-0.084419 0.00484,-0.028021 0.010042,-0.055931 0.015565,-0.083715 0.00552,-0.027783 0.011382,-0.055436 0.01757,-0.082972 0.00619,-0.027536 0.01271,-0.054947 0.019555,-0.082228 0.00684,-0.02728 0.014006,-0.054428 0.021498,-0.081442 0.00749,-0.027014 0.015311,-0.053896 0.023441,-0.080636 0.00813,-0.02674 0.016562,-0.053353 0.025322,-0.079809 0.00876,-0.026457 0.017843,-0.052756 0.027223,-0.07892 0.00938,-0.026165 0.01907,-0.052188 0.029063,-0.078052 0.00999,-0.025863 0.020286,-0.051568 0.030882,-0.077122 0.010596,-0.025553 0.02149,-0.050957 0.03268,-0.076192 0.01119,-0.025235 0.022661,-0.050314 0.034437,-0.07522 0.011775,-0.024906 0.023842,-0.049638 0.036194,-0.074207 0.012353,-0.024569 0.02501,-0.048971 0.037931,-0.073195 0.012921,-0.024223 0.026104,-0.048272 0.039584,-0.072141 0.01348,-0.023868 0.027249,-0.04754 0.041279,-0.071044 0.028059,-0.047008 0.057207,-0.093284 0.087416,-0.1387822 0.030209,-0.045499 0.061475,-0.090236 0.093761,-0.134152 0.032287,-0.043916 0.065607,-0.087011 0.099901,-0.1292738 0.034293,-0.042263 0.069561,-0.083692 0.105792,-0.1242301 0.03623,-0.040539 0.07342,-0.080197 0.1115177,-0.1189385 0.038097,-0.038741 0.077102,-0.076567 0.1169953,-0.11344 0.039892,-0.036873 0.080669,-0.072782 0.1222871,-0.1077144 0.041618,-0.034933 0.084079,-0.068882 0.1273511,-0.1018026 0.043272,-0.03292 0.087353,-0.064806 0.1322089,-0.095643 0.044857,-0.030836 0.09049,-0.060616 0.1368597,-0.089297 0.023185,-0.01434 0.046544,-0.028421 0.070094,-0.042209 0.02355,-0.013788 0.047284,-0.027288 0.071189,-0.040515 0.023907,-0.013227 0.047989,-0.026163 0.072244,-0.038819 0.024253,-0.012656 0.048685,-0.025027 0.073277,-0.037104 0.024592,-0.012077 0.049347,-0.023878 0.074269,-0.035367 0.024922,-0.011489 0.050019,-0.022677 0.075261,-0.033569 0.025244,-0.010892 0.050636,-0.021485 0.076192,-0.031771 0.025556,-0.010285 0.051263,-0.02026 0.077122,-0.029931 0.025859,-0.00967 0.051857,-0.019025 0.078011,-0.028071 0.026153,-0.00905 0.05246,-0.017777 0.078899,-0.026189 0.026438,-0.00841 0.053011,-0.016517 0.079726,-0.024288 0.026715,-0.00777 0.053569,-0.015225 0.080553,-0.022345 0.026984,-0.00712 0.054115,-0.0139 0.081359,-0.020361 0.027243,-0.00646 0.05461,-0.012585 0.082103,-0.018376 0.027493,-0.0058 0.055112,-0.011258 0.082848,-0.016371 0.027736,-0.00511 0.055582,-0.00988 0.08355,-0.014304 0.027969,-0.00443 0.056061,-0.00851 0.084253,-0.012237 0.028192,-0.00373 0.056487,-0.0071 0.084894,-0.010129 0.028408,-0.00302 0.056921,-0.00571 0.085535,-0.00802 0.028613,-0.00231 0.057324,-0.00426 0.086134,-0.00585 0.028812,-0.00159 0.057733,-0.00283 0.086733,-0.00368 0.028952,-8.56e-4 0.057996,-0.00132 0.087127,-0.00145 z" />
    <path
       id="path40-1"
       style="display:inline;fill:url(#g-1);stroke-width:0.04"
       d="m 5.9344441,3.8144646 c -0.037884,1.52e-4 -0.075539,0.00126 -0.1129439,0.00332 -0.037405,0.00206 -0.074555,0.00508 -0.1114353,0.00901 -0.03688,0.00393 -0.073492,0.00876 -0.1098018,0.014511 -0.03631,0.00574 -0.072331,0.012388 -0.1080244,0.019906 -0.035693,0.00752 -0.07107,0.015914 -0.1061019,0.025156 -0.035031,0.00924 -0.069711,0.01932 -0.1040346,0.030241 -0.034324,0.01092 -0.068294,0.02267 -0.1018648,0.035223 -0.03357,0.012552 -0.066737,0.025922 -0.099508,0.04006 -0.032771,0.014138 -0.065143,0.029054 -0.097069,0.044731 -0.031925,0.015677 -0.063409,0.032109 -0.094444,0.049278 -0.031035,0.017169 -0.061618,0.035067 -0.091715,0.053682 -0.030098,0.018615 -0.059706,0.037947 -0.088821,0.05796 -0.029116,0.020014 -0.057737,0.040728 -0.085824,0.062094 -0.028087,0.021367 -0.055649,0.04339 -0.082661,0.066063 -0.027012,0.022673 -0.053483,0.045996 -0.079375,0.069929 -0.025892,0.023932 -0.051195,0.048483 -0.075923,0.073629 -0.024727,0.025146 -0.048872,0.050872 -0.072389,0.077184 -0.023516,0.026312 -0.046409,0.053204 -0.068668,0.080636 -0.022258,0.027432 -0.043888,0.055417 -0.064844,0.083923 -0.020955,0.028505 -0.041247,0.057532 -0.060854,0.087064 -0.019607,0.029532 -0.038528,0.05955 -0.056741,0.090062 -0.018212,0.030511 -0.035711,0.06151 -0.052483,0.092955 -0.016771,0.031446 -0.032814,0.063351 -0.0481,0.095684 -0.015287,0.032333 -0.029821,0.065094 -0.043573,0.098268 -0.013754,0.033173 -0.026726,0.066761 -0.038901,0.100728 -0.012176,0.033968 -0.023555,0.068307 -0.034107,0.1030219 -0.010553,0.034715 -0.020283,0.069797 -0.029166,0.1052132 -0.00888,0.035415 -0.016912,0.071168 -0.024081,0.1072388 -0.00716,0.03607 -0.013464,0.072463 -0.018871,0.1091408 -0.0054,0.036678 -0.00992,0.073658 -0.013518,0.1108976 -0.0036,0.037239 -0.00629,0.074735 -0.00804,0.1124892 -0.00174,0.037754 -0.00257,0.075756 -0.00242,0.1139776 1.479e-4,0.038218 0.00127,0.076201 0.00331,0.113936 0.00204,0.037735 0.00501,0.075221 0.00891,0.1124275 0.00389,0.037206 0.00871,0.074143 0.014407,0.1107736 0.0057,0.036631 0.012269,0.072965 0.01972,0.1089752 0.00745,0.03601 0.015769,0.07169 0.024929,0.107032 0.00916,0.035342 0.01917,0.070337 0.029993,0.1049652 0.010823,0.034628 0.022472,0.068885 0.034913,0.1027536 0.012442,0.033868 0.025675,0.067356 0.039688,0.1004176 0.014012,0.033061 0.0288,0.065707 0.044338,0.097916 0.015539,0.03221 0.031827,0.06398 0.048844,0.095291 0.017018,0.031311 0.034756,0.062155 0.053206,0.092522 0.018451,0.030366 0.037606,0.060252 0.057444,0.089628 0.019838,0.029375 0.040358,0.058251 0.061536,0.086589 0.021179,0.028338 0.043012,0.056132 0.065484,0.083385 0.022472,0.027253 0.045587,0.053953 0.069309,0.080077 0.023721,0.026124 0.048044,0.051677 0.072967,0.076626 0.024924,0.024948 0.050443,0.049302 0.076523,0.073028 0.026079,0.023726 0.052723,0.04683 0.079912,0.069288 0.027189,0.022458 0.054925,0.044258 0.083179,0.065402 0.028253,0.021143 0.057028,0.04163 0.0863,0.061412 0.029271,0.019783 0.059033,0.038861 0.089276,0.057236 0.030243,0.018376 0.060961,0.036036 0.092129,0.052958 0.031168,0.016923 0.062789,0.033111 0.094837,0.048534 0.032047,0.015423 0.064519,0.030089 0.097399,0.043966 0.03288,0.013877 0.066172,0.026968 0.099839,0.039253 0.033668,0.012285 0.067725,0.023769 0.1021332,0.034417 0.034408,0.010648 0.069159,0.020471 0.1042623,0.029435 0.035103,0.00896 0.070557,0.017055 0.1063087,0.024288 0.035752,0.00724 0.071815,0.013602 0.1081692,0.019058 0.036355,0.00546 0.072996,0.010011 0.1099056,0.013643 0.03691,0.00364 0.074076,0.00634 0.1114965,0.00811 0.03742,0.00176 0.0751,0.0026 0.1129856,0.00244 0.03788,-1.6e-4 0.075521,-0.00128 0.112923,-0.00335 0.037402,-0.00206 0.074557,-0.00507 0.1114353,-0.00899 0.036877,-0.00393 0.073474,-0.00876 0.1097811,-0.014511 0.036308,-0.00574 0.072332,-0.012387 0.1080243,-0.019906 0.035692,-0.00752 0.071052,-0.015913 0.1060815,-0.025156 0.03503,-0.00924 0.069733,-0.01934 0.1040556,-0.030261 0.034323,-0.010922 0.068275,-0.022668 0.1018438,-0.035222 0.033569,-0.012554 0.066759,-0.02592 0.099529,-0.04006 0.03277,-0.014139 0.065123,-0.029052 0.097048,-0.044732 0.031924,-0.015678 0.063409,-0.032108 0.094444,-0.049279 0.031035,-0.017171 0.061618,-0.035085 0.091715,-0.053702 0.030098,-0.018616 0.059706,-0.037945 0.088821,-0.05796 0.029116,-0.020016 0.057737,-0.040726 0.085824,-0.062094 0.028088,-0.021369 0.055648,-0.043389 0.082661,-0.066063 0.027013,-0.022675 0.053482,-0.045995 0.079375,-0.069929 0.025894,-0.023934 0.051215,-0.048483 0.075944,-0.073628 0.024728,-0.025147 0.048871,-0.050891 0.072388,-0.077204 0.023517,-0.026313 0.046407,-0.053204 0.068668,-0.080636 0.02226,-0.027432 0.043886,-0.055396 0.064844,-0.083902 0.020957,-0.028505 0.041245,-0.057553 0.060854,-0.087084 0.019607,-0.029533 0.038527,-0.059549 0.05674,-0.090062 0.018212,-0.030512 0.03573,-0.06151 0.052503,-0.092955 0.016773,-0.031445 0.032813,-0.063352 0.048101,-0.095684 0.015287,-0.032332 0.029819,-0.065095 0.043574,-0.098268 0.013756,-0.033173 0.026725,-0.066762 0.038902,-0.100728 0.012178,-0.033966 0.023553,-0.068309 0.034107,-0.103022 0.010555,-0.034714 0.020283,-0.069799 0.029166,-0.1052132 0.00889,-0.035414 0.016933,-0.07115 0.024102,-0.1072184 0.00716,-0.036068 0.013464,-0.072465 0.018871,-0.1091404 0.0054,-0.036676 0.00994,-0.073641 0.01354,-0.1108772 0.0036,-0.037236 0.00628,-0.074739 0.00802,-0.1124891 0.00174,-0.03775 0.00258,-0.07574 0.00242,-0.1139568 -1.599e-4,-0.038222 -0.00127,-0.076218 -0.00331,-0.1139568 -0.00204,-0.03774 -0.00501,-0.075218 -0.00891,-0.1124272 -0.00389,-0.037209 -0.00869,-0.07414 -0.014386,-0.1107736 -0.0057,-0.036626 -0.012289,-0.072977 -0.019739,-0.1089885 C 8.0843051,5.5380812 8.0759881,5.5024062 8.0668261,5.4670617 8.0576661,5.4317177 8.0476581,5.3967067 8.0368331,5.3620761 8.0260011,5.3274471 8.0143571,5.2931921 8.0019131,5.2593226 7.9894701,5.2254536 7.9762191,5.1919676 7.9622061,5.158905 7.9481921,5.125842 7.9334081,5.093198 7.9178671,5.060989 7.9023281,5.028779 7.8860411,4.997009 7.8690231,4.965697 7.8520051,4.934387 7.8342481,4.903542 7.8157961,4.873176 7.7973441,4.842806 7.7781911,4.812919 7.7583531,4.783544 7.7385153,4.7541696 7.7179962,4.7253124 7.6968175,4.6969756 7.6756389,4.6686384 7.6538069,4.640823 7.6313331,4.6135699 7.6088584,4.5863166 7.5857473,4.5596152 7.5620246,4.533492 7.538302,4.5073685 7.5139606,4.4818138 7.4890362,4.4568662 7.4641117,4.431919 7.4385944,4.407583 7.4125144,4.3838578 c -0.02608,-0.023725 -0.052722,-0.046831 -0.079912,-0.069288 -0.02719,-0.022457 -0.054925,-0.04426 -0.083179,-0.065402 -0.028253,-0.021142 -0.057027,-0.041631 -0.086299,-0.061412 -0.029271,-0.019781 -0.059034,-0.038863 -0.089276,-0.057237 -0.030242,-0.018374 -0.060961,-0.036037 -0.092128,-0.052958 -0.031168,-0.016921 -0.06279,-0.033092 -0.094837,-0.048514 -0.032047,-0.015422 -0.06452,-0.03009 -0.0974,-0.043966 -0.032879,-0.013875 -0.066172,-0.026969 -0.099839,-0.039253 -0.033667,-0.012284 -0.067706,-0.023749 -0.1021128,-0.034396 -0.034406,-0.010646 -0.069181,-0.020473 -0.1042829,-0.029435 -0.035101,-0.00896 -0.070539,-0.017076 -0.106288,-0.024309 -0.035749,-0.00724 -0.071796,-0.013582 -0.1081483,-0.019037 -0.036351,-0.00546 -0.072998,-0.010011 -0.109905,-0.013643 -0.036907,-0.00364 -0.07408,-0.00634 -0.1114971,-0.00811 -0.037417,-0.00176 -0.075084,-0.0026 -0.1129649,-0.00244 z" />
    <path
       id="path1160"
       style="display:inline;fill:url(#radialGradient893);stroke-width:0.04"
       d="m 5.9548664,0.66145833 c -2.2092158,0 -2.8553502,0.002272 -2.9809421,0.0126917 C 2.5205572,0.71184602 2.2384462,0.78325508 1.9310947,0.93631492 1.6942392,1.0539668 1.50743,1.1903499 1.3230703,1.3815177 0.98731894,1.7301452 0.78383152,2.1590456 0.71016766,2.6688808 0.67435576,2.9163886 0.66393526,2.966854 0.66181926,4.2311006 c -8.12e-4,0.4214156 0,0.976029 0,1.7199361 0,2.2080299 0.002459,2.8536798 0.0130431,2.9790634 0.0366279,0.4412796 0.10579307,0.7189068 0.2523048,1.0225939 0.27999944,0.581316 0.81476974,1.017722 1.44476864,1.180558 0.2181395,0.05618 0.4590664,0.08711 0.7683658,0.101762 0.1310477,0.0057 1.466736,0.0098 2.8032376,0.0098 1.3365052,0 2.6730108,-0.0016 2.8007982,-0.0082 0.3581393,-0.01685 0.5661044,-0.04478 0.7960438,-0.104222 0.6340668,-0.163647 1.1590778,-0.593517 1.4447688,-1.1829763 0.143663,-0.296359 0.216505,-0.5845929 0.249473,-1.0028325 0.0072,-0.091184 0.01017,-1.5450371 0.01017,-2.9969434 0,-1.4521586 -0.0033,-2.9033372 -0.01042,-2.9945251 C 11.201003,2.5301522 11.128158,2.24437 10.979859,1.9423103 10.858175,1.6950465 10.723044,1.5103935 10.526883,1.3215937 10.176804,0.98713006 9.7486707,0.78357208 9.2384878,0.70997217 8.9912885,0.6742282 8.9420564,0.66365433 7.6771787,0.66145833 Z M 5.9296284,2.6172458 h 1.201e-4 2.02e-5 c 0.029132,-1.16e-4 0.05819,1.4e-4 0.087148,7.648e-4 0.029005,6.24e-4 0.057911,0.00162 0.086733,0.00298 0.028822,0.00136 0.057546,0.00308 0.086176,0.00516 0.02863,0.00208 0.057168,0.00452 0.085597,0.00732 0.028429,0.0028 0.056756,0.00596 0.084976,0.00947 0.02822,0.0035 0.056335,0.00735 0.084336,0.011555 0.028001,0.0042 0.055881,0.00875 0.083654,0.013643 0.027773,0.00489 0.055435,0.010138 0.082972,0.015709 0.027537,0.00557 0.054956,0.011472 0.082248,0.017715 0.027291,0.00624 0.054467,0.012815 0.081504,0.01972 0.027037,0.00691 0.053945,0.014147 0.080718,0.021704 0.026774,0.00756 0.053411,0.015445 0.079912,0.023647 0.026502,0.0082 0.052864,0.016712 0.079085,0.025548 0.026221,0.00884 0.052307,0.017987 0.078238,0.027451 0.025931,0.00946 0.051716,0.019251 0.077349,0.029332 0.025633,0.010082 0.051115,0.02046 0.076439,0.03115 0.025325,0.01069 0.05048,0.021679 0.075489,0.03297 0.025008,0.01129 0.049854,0.022888 0.074538,0.034768 0.024684,0.011881 0.049217,0.024042 0.073566,0.036504 0.024349,0.012462 0.048527,0.025226 0.072533,0.038261 0.024006,0.013036 0.047824,0.026356 0.071478,0.039957 0.023654,0.0136 0.047132,0.027475 0.070425,0.04163 0.046587,0.02831 0.092452,0.057724 0.1375417,0.088202 0.04509,0.030477 0.08941,0.062014 0.1329328,0.094589 0.043522,0.032574 0.086253,0.06619 0.1281367,0.1007896 0.041884,0.034599 0.082919,0.070189 0.1230931,0.1067429 0.040173,0.036553 0.079471,0.074053 0.1178636,0.1124892 0.038393,0.038436 0.075887,0.077802 0.1124269,0.1180496 0.036541,0.040248 0.072147,0.081395 0.1067636,0.1233827 0.034617,0.041988 0.068249,0.084831 0.1008722,0.1284882 0.032623,0.043658 0.064237,0.088132 0.094795,0.1333873 0.030558,0.045255 0.060049,0.091276 0.08847,0.1380587 0.01421,0.023391 0.028153,0.046975 0.041817,0.070735 0.013662,0.02376 0.027056,0.047711 0.040163,0.07183 0.013107,0.024119 0.025926,0.048415 0.038468,0.072884 0.012542,0.024469 0.024805,0.049107 0.036773,0.073918 0.011969,0.024812 0.023652,0.049787 0.035036,0.074931 0.011386,0.025144 0.022468,0.050455 0.033259,0.075923 0.010793,0.025468 0.021289,0.051092 0.031481,0.076874 0.010193,0.025783 0.02008,0.051735 0.029662,0.077824 0.00958,0.026089 0.018857,0.052327 0.027822,0.078714 0.00896,0.026387 0.017625,0.052907 0.025963,0.079581 0.00834,0.026675 0.016359,0.053496 0.02406,0.08045 0.0077,0.026954 0.015083,0.054052 0.022138,0.081276 0.00706,0.027224 0.013772,0.054576 0.020174,0.082062 0.0064,0.027486 0.012472,0.055109 0.018211,0.082848 0.00574,0.027739 0.011139,0.055588 0.016206,0.083572 0.00507,0.027982 0.0098,0.056098 0.014179,0.084315 0.00438,0.028218 0.00844,0.056533 0.012133,0.084977 0.0037,0.028444 0.00705,0.056998 0.010047,0.085659 0.003,0.02866 0.00564,0.057432 0.00794,0.086299 0.00228,0.028868 0.00421,0.057852 0.00579,0.08692 0.00157,0.029068 0.00279,0.058219 0.00364,0.087478 8.466e-4,0.029258 0.00132,0.058617 0.00146,0.088057 1.199e-4,0.029439 -1.202e-4,0.058793 -7.527e-4,0.088057 -6.114e-4,0.029264 -0.0016,0.05844 -0.00296,0.087519 -0.00134,0.029079 -0.00307,0.058055 -0.00513,0.08694 -0.00207,0.028885 -0.00448,0.057679 -0.00725,0.086362 -0.00277,0.028682 -0.00589,0.057251 -0.00936,0.085721 -0.00348,0.02847 -0.00731,0.05683 -0.011472,0.08508 -0.00417,0.02825 -0.00868,0.056399 -0.013518,0.084419 -0.00484,0.02802 -0.010023,0.055914 -0.015543,0.083695 -0.00552,0.027781 -0.011386,0.055438 -0.017571,0.082972 -0.00619,0.027533 -0.012693,0.054951 -0.019534,0.082228 -0.00684,0.027277 -0.014008,0.05443 -0.021499,0.081442 -0.00748,0.027011 -0.015313,0.053878 -0.023441,0.080615 -0.00812,0.026737 -0.016564,0.053335 -0.025322,0.079788 -0.00876,0.026453 -0.017825,0.052759 -0.027203,0.07892 -0.00938,0.026161 -0.019052,0.052172 -0.029043,0.078031 -0.00999,0.02586 -0.02029,0.051572 -0.030882,0.077122 -0.010593,0.025549 -0.021493,0.050941 -0.03268,0.076172 -0.011188,0.02523 -0.022665,0.050298 -0.034437,0.075199 -0.011773,0.024901 -0.023824,0.049643 -0.036173,0.074208 -0.012349,0.024564 -0.024993,0.048955 -0.03791,0.073173 -0.012917,0.024219 -0.026108,0.048257 -0.039584,0.07212 -0.013477,0.023863 -0.027232,0.047546 -0.041259,0.071044 -0.028053,0.046998 -0.057195,0.093254 -0.087396,0.1387412 -0.030201,0.045488 -0.061462,0.090204 -0.093741,0.1341104 -0.032278,0.043906 -0.065573,0.087021 -0.09986,0.129274 -0.034285,0.042252 -0.06957,0.08364 -0.1057918,0.124168 -0.036222,0.040527 -0.073387,0.080188 -0.1114763,0.118918 -0.038089,0.03873 -0.077091,0.076537 -0.1169748,0.1133984 -0.039884,0.036862 -0.080657,0.072772 -0.1222662,0.1076939 -0.041609,0.034922 -0.084067,0.068852 -0.1273307,0.1017613 -0.043264,0.03291 -0.087319,0.064795 -0.1321675,0.095622 -0.022425,0.015413 -0.045032,0.030572 -0.067841,0.045454 -0.022808,0.014882 -0.045818,0.029486 -0.068998,0.043821 -0.023182,0.014336 -0.046547,0.028385 -0.070093,0.042168 -0.023547,0.013783 -0.047267,0.027292 -0.071169,0.040515 -0.023902,0.013222 -0.047994,0.026168 -0.072244,0.03882 -0.02425,0.012651 -0.048667,0.02501 -0.073256,0.037083 -0.024588,0.012073 -0.04935,0.023862 -0.074269,0.035347 -0.024919,0.011484 -0.050001,0.022661 -0.075241,0.033549 -0.02524,0.010888 -0.05064,0.021489 -0.076192,0.031771 -0.025552,0.010282 -0.051245,0.020244 -0.077101,0.02991 -0.025856,0.00967 -0.051881,0.019028 -0.078031,0.028071 -0.026151,0.00904 -0.052443,0.017781 -0.078879,0.026189 -0.026436,0.00841 -0.053013,0.0165 -0.079726,0.024268 -0.026714,0.00777 -0.05355,0.015207 -0.080533,0.022324 -0.026981,0.00712 -0.054097,0.013904 -0.081339,0.020361 -0.027241,0.00645 -0.054612,0.012588 -0.082103,0.018376 -0.027492,0.00579 -0.055114,0.011239 -0.082847,0.01635 -0.027733,0.00511 -0.055584,0.00988 -0.08355,0.014304 -0.027966,0.00443 -0.056042,0.00851 -0.084232,0.012237 -0.028191,0.00372 -0.056508,0.0071 -0.084915,0.010128 -0.028406,0.00302 -0.056901,0.00569 -0.085515,0.008 -0.028613,0.00231 -0.057344,0.00426 -0.086155,0.00585 -0.028811,0.00159 -0.057714,0.00283 -0.086713,0.00368 -0.029,8.56e-4 -0.058092,0.00135 -0.087271,0.00147 -0.02918,1.2e-4 -0.058266,-1.6e-4 -0.087271,-7.64e-4 -0.029006,-6.24e-4 -0.057932,-0.00162 -0.086755,-0.00298 -0.028823,-0.00136 -0.057545,-0.00308 -0.086176,-0.00516 -0.028631,-0.00208 -0.057167,-0.00454 -0.085596,-0.00734 -0.02843,-0.0028 -0.056756,-0.00595 -0.084977,-0.00945 -0.02822,-0.0035 -0.056334,-0.00735 -0.084336,-0.011555 C 5.4133463,9.398622 5.3854493,9.394062 5.3576743,9.389179 5.3298993,9.384289 5.3022403,9.379059 5.2747023,9.37349 5.2471643,9.36792 5.2197473,9.362015 5.1924543,9.355775 5.1651613,9.349535 5.1379893,9.342957 5.1109503,9.336055 5.0839113,9.329155 5.0570073,9.321926 5.0302313,9.314372 5.0034563,9.306812 4.9768233,9.298944 4.9503193,9.290745 4.9238153,9.282545 4.8974353,9.274029 4.8712133,9.265197 4.8449903,9.256357 4.8189083,9.247207 4.7929753,9.237746 4.7670423,9.228286 4.7412613,9.218513 4.7156263,9.208435 4.6899903,9.198358 4.6645143,9.18797 4.6391863,9.177284 4.6138593,9.166598 4.5886873,9.15562 4.5636773,9.144336 4.5386653,9.133051 4.5138043,9.121465 4.4891193,9.109589 4.4644333,9.097713 4.4399053,9.085543 4.4155533,9.073084 4.3912023,9.060626 4.3670293,9.047874 4.3430203,9.034844 4.3190113,9.021813 4.2951773,9.008504 4.2715203,8.994908 4.2478595,8.9813097 4.2243671,8.9674449 4.2010711,8.9532949 4.177776,8.9391449 4.1546666,8.9247101 4.1317422,8.9100109 4.1088186,8.8953117 4.0860773,8.8803481 4.0635297,8.8651145 4.0184337,8.8346473 3.974105,8.8031101 3.9305767,8.7705465 3.8870487,8.737983 3.8443296,8.7043865 3.8024398,8.6697982 3.7605501,8.6352094 3.7194852,8.599639 3.6793053,8.5630966 3.6391258,8.5265542 3.59982,8.4890534 3.5614211,8.4506281 3.523022,8.4122025 3.4855411,8.3728566 3.448994,8.3326198 3.4124474,8.2923825 3.3768332,8.2512562 3.3422099,8.2092786 3.3075867,8.167301 3.2739459,8.1244578 3.2413171,8.080811 3.2086881,8.037164 3.1770651,7.992711 3.1465011,7.947465 3.1159381,7.902219 3.0864371,7.856179 3.0580101,7.8094062 c -0.014214,-0.023386 -0.028172,-0.046959 -0.041837,-0.070714 -0.013667,-0.023755 -0.027053,-0.047695 -0.040163,-0.07181 -0.013109,-0.024115 -0.025923,-0.048399 -0.038467,-0.072864 -0.012544,-0.024465 -0.024823,-0.049111 -0.036794,-0.073918 -0.01197,-0.024807 -0.02365,-0.04977 -0.035036,-0.07491 -0.011388,-0.025141 -0.022464,-0.050438 -0.033259,-0.075902 -0.010796,-0.025464 -0.021308,-0.051095 -0.031502,-0.076874 -0.010195,-0.02578 -0.020077,-0.051719 -0.029662,-0.077805 -0.00958,-0.026085 -0.018856,-0.05231 -0.027822,-0.078692 -0.00897,-0.026382 -0.017624,-0.052911 -0.025963,-0.079581 -0.00834,-0.026671 -0.016358,-0.0535 -0.024061,-0.08045 -0.00771,-0.026951 -0.015101,-0.054035 -0.022159,-0.081256 -0.00706,-0.027221 -0.013772,-0.05458 -0.020174,-0.082062 -0.0064,-0.027483 -0.012492,-0.055091 -0.018231,-0.082827 -0.00574,-0.027736 -0.011138,-0.055591 -0.016205,-0.083571 -0.00507,-0.02798 -0.00979,-0.0561 -0.01418,-0.084316 -0.00439,-0.028216 -0.00844,-0.056535 -0.012133,-0.084977 -0.0037,-0.028442 -0.00705,-0.057 -0.010046,-0.085659 -0.003,-0.028659 -0.00564,-0.057411 -0.00794,-0.086279 -0.00229,-0.028868 -0.00423,-0.057852 -0.0058,-0.08692 -0.00157,-0.029068 -0.00279,-0.058219 -0.00364,-0.087478 -8.49e-4,-0.029258 -0.00133,-0.058617 -0.00145,-0.088056 -1.161e-4,-0.02944 1.439e-4,-0.058793 7.643e-4,-0.088057 6.209e-4,-0.029264 0.00161,-0.05844 0.00296,-0.087519 0.00135,-0.02908 0.00306,-0.058054 0.00513,-0.08694 0.00206,-0.028886 0.00448,-0.057678 0.00725,-0.086362 0.00277,-0.028684 0.00589,-0.057269 0.00936,-0.085741 0.00348,-0.028472 0.00731,-0.056828 0.011472,-0.08508 0.00417,-0.028252 0.00867,-0.056396 0.013518,-0.084419 0.00484,-0.028021 0.010042,-0.055931 0.015565,-0.083715 0.00552,-0.027783 0.011382,-0.055436 0.01757,-0.082972 0.00619,-0.027536 0.01271,-0.054947 0.019555,-0.082228 0.00684,-0.02728 0.014006,-0.054428 0.021498,-0.081442 0.00749,-0.027014 0.015311,-0.053896 0.023441,-0.080636 0.00813,-0.02674 0.016562,-0.053353 0.025322,-0.079809 0.00876,-0.026457 0.017843,-0.052756 0.027223,-0.07892 0.00938,-0.026165 0.01907,-0.052188 0.029063,-0.078052 0.00999,-0.025863 0.020286,-0.051568 0.030882,-0.077122 0.010596,-0.025553 0.02149,-0.050957 0.03268,-0.076192 0.01119,-0.025235 0.022661,-0.050314 0.034437,-0.07522 0.011775,-0.024906 0.023842,-0.049638 0.036194,-0.074207 0.012353,-0.024569 0.02501,-0.048971 0.037931,-0.073195 0.012921,-0.024223 0.026104,-0.048272 0.039584,-0.072141 0.01348,-0.023868 0.027249,-0.04754 0.041279,-0.071044 0.028059,-0.047008 0.057207,-0.093284 0.087416,-0.1387822 0.030209,-0.045499 0.061475,-0.090236 0.093761,-0.134152 0.032287,-0.043916 0.065607,-0.087011 0.099901,-0.1292738 0.034293,-0.042263 0.069561,-0.083692 0.105792,-0.1242301 0.03623,-0.040539 0.07342,-0.080197 0.1115177,-0.1189385 0.038097,-0.038741 0.077102,-0.076567 0.1169953,-0.11344 0.039892,-0.036873 0.080669,-0.072782 0.1222871,-0.1077144 0.041618,-0.034933 0.084079,-0.068882 0.1273511,-0.1018026 0.043272,-0.03292 0.087353,-0.064806 0.1322089,-0.095643 0.044857,-0.030836 0.09049,-0.060616 0.1368597,-0.089297 0.023185,-0.01434 0.046544,-0.028421 0.070094,-0.042209 0.02355,-0.013788 0.047284,-0.027288 0.071189,-0.040515 0.023907,-0.013227 0.047989,-0.026163 0.072244,-0.038819 0.024253,-0.012656 0.048685,-0.025027 0.073277,-0.037104 0.024592,-0.012077 0.049347,-0.023878 0.074269,-0.035367 0.024922,-0.011489 0.050019,-0.022677 0.075261,-0.033569 0.025244,-0.010892 0.050636,-0.021485 0.076192,-0.031771 0.025556,-0.010285 0.051263,-0.02026 0.077122,-0.029931 0.025859,-0.00967 0.051857,-0.019025 0.078011,-0.028071 0.026153,-0.00905 0.05246,-0.017777 0.078899,-0.026189 0.026438,-0.00841 0.053011,-0.016517 0.079726,-0.024288 0.026715,-0.00777 0.053569,-0.015225 0.080553,-0.022345 0.026984,-0.00712 0.054115,-0.0139 0.081359,-0.020361 0.027243,-0.00646 0.05461,-0.012585 0.082103,-0.018376 0.027493,-0.0058 0.055112,-0.011258 0.082848,-0.016371 0.027736,-0.00511 0.055582,-0.00988 0.08355,-0.014304 0.027969,-0.00443 0.056061,-0.00851 0.084253,-0.012237 0.028192,-0.00373 0.056487,-0.0071 0.084894,-0.010129 0.028408,-0.00302 0.056921,-0.00571 0.085535,-0.00802 0.028613,-0.00231 0.057324,-0.00426 0.086134,-0.00585 0.028812,-0.00159 0.057733,-0.00283 0.086733,-0.00368 0.028952,-8.56e-4 0.057996,-0.00132 0.087127,-0.00145 z" />
    <path
       d="m 5.9548555,0.66145833 c -2.2092181,0 -2.8553337,0.00228 -2.9809255,0.0127 C 2.5205623,0.71185433 2.2384506,0.78325832 1.9310988,0.93631831 1.6942431,1.0539703 1.5074391,1.1903423 1.3230793,1.3815103 0.98732758,1.7301382 0.78383973,2.1590422 0.71017578,2.6688781 c -0.035812,0.247508 -0.046232,0.297984 -0.048348,1.562232 -8.12e-4,0.421416 0,0.9760279 0,1.7199358 0,2.2080319 0.00244,2.8536718 0.013024,2.9790558 0.036628,0.44128 0.10581191,0.7189123 0.2523238,1.0226003 0.27999982,0.581316 0.81475942,1.017712 1.44475892,1.180547 0.2181398,0.05618 0.4590676,0.08712 0.7683673,0.101768 0.131048,0.0057 1.4667349,0.0098 2.8032378,0.0098 1.336507,0 2.6730099,-0.0016 2.8007978,-0.0082 0.3581398,-0.01685 0.5661035,-0.04478 0.7960434,-0.104216 0.6340672,-0.163648 1.1590672,-0.593531 1.4447602,-1.1829914 0.143663,-0.2963599 0.216511,-0.5845758 0.249479,-1.0028158 0.0072,-0.091184 0.01017,-1.5450519 0.01017,-2.9969597 0,-1.4521599 -0.0033,-2.9033399 -0.01042,-2.9945279 C 11.201,2.5301421 11.128152,2.2443702 10.979852,1.9423102 10.858168,1.6950462 10.723053,1.5103903 10.526892,1.3215903 10.176812,0.9871263 9.7486725,0.78358232 9.238489,0.70998233 8.9912892,0.67423833 8.9420492,0.66365433 7.6771702,0.66145833 Z"
       inkscape:connector-curvature="0"
       fill="url(#h)"
       id="path42"
       style="display:inline;fill:url(#h);stroke-width:0.04" />
    <path
       id="path989-5-6"
       d="m 219.49069,25.250159 5.2e-4,0.0067 c -0.34083,0.0014 -0.67994,0.01142 -1.01648,0.02997 -0.33653,0.01855 -0.6707,0.04581 -1.00252,0.08113 -0.33182,0.03532 -0.66083,0.07855 -0.98754,0.130225 -0.32669,0.05168 -0.65086,0.111704 -0.97202,0.179317 -0.64234,0.135226 -1.2731,0.301702 -1.89084,0.498161 -0.61774,0.196459 -1.22247,0.422617 -1.81229,0.676961 -0.58983,0.254345 -1.1648,0.53706 -1.72341,0.845943 -0.55862,0.308884 -1.10112,0.643997 -1.62523,1.004074 -0.5241,0.360076 -1.0299,0.744979 -1.51618,1.152901 -0.48629,0.407921 -0.9532,0.838974 -1.39837,1.291394 -0.44517,0.452424 -0.86894,0.926494 -1.26969,1.420064 -0.40074,0.49358 -0.77818,1.00652 -1.1312,1.5379 -0.35302,0.53137 -0.68141,1.08109 -0.9834,1.64692 -0.30199,0.56584 -0.57761,1.14817 -0.82527,1.74512 -0.24766,0.59694 -0.4673,1.20825 -0.65732,1.83296 -0.19003,0.624712 -0.35047,1.262382 -0.47956,1.911512 -0.0645,0.32456 -0.12133,0.65233 -0.17002,0.98237 -0.0487,0.33004 -0.0895,0.66277 -0.12195,0.99787 -0.0324,0.3351 -0.0566,0.6726 -0.0724,1.01234 -0.0157,0.33974 -0.023,0.6813 -0.0217,1.02526 0.001,0.34386 0.0116,0.68574 0.03,1.02526 0.0184,0.33953 0.0451,0.67705 0.0801,1.01183 0.035,0.33478 0.0784,0.66671 0.1297,0.99632 0.0513,0.32961 0.11069,0.65679 0.17777,0.98082 0.13417,0.64806 0.29963,1.28465 0.49454,1.90789 0.19491,0.62324 0.41896,1.23324 0.67128,1.82831 0.25233,0.59508 0.53281,1.17533 0.83923,1.73892 0.30641,0.56359 0.63915,1.11041 0.99632,1.63917 0.35717,0.52877 0.73848,1.03953 1.14308,1.53014 0.4046,0.49061 0.83236,0.96113 1.28106,1.41025 0.4487,0.44913 0.91872,0.87675 1.40818,1.28106 0.48947,0.40431 0.99807,0.78538 1.52497,1.14153 0.52691,0.35616 1.07196,0.68751 1.63298,0.99219 0.56102,0.30467 1.13832,0.58265 1.73013,0.83251 0.5918,0.24986 1.1982,0.47129 1.81746,0.66301 0.61925,0.19171 1.25107,0.35345 1.89445,0.48369 0.32169,0.0651 0.64649,0.12244 0.97359,0.17156 0.3271,0.0491 0.65648,0.0903 0.98857,0.12299 0.33209,0.0327 0.66689,0.057 1.00355,0.0729 0.33667,0.0159 0.67566,0.0231 1.01648,0.0217 0.34082,-10e-4 0.67944,-0.0114 1.01596,-0.03 0.33652,-0.0186 0.6707,-0.0453 1.00252,-0.0806 0.33182,-0.0354 0.66136,-0.079 0.98805,-0.13074 0.3267,-0.0517 0.65035,-0.11163 0.97152,-0.17931 0.64234,-0.13537 1.27363,-0.30255 1.89136,-0.4992 0.61773,-0.19665 1.22195,-0.4229 1.81177,-0.67748 0.58983,-0.25457 1.16532,-0.53732 1.72393,-0.84646 0.55861,-0.30914 1.10061,-0.64475 1.62471,-1.0051 0.5241,-0.36035 1.0299,-0.74522 1.51618,-1.15342 0.48629,-0.4082 0.9532,-0.83974 1.39837,-1.29243 0.44516,-0.45269 0.86895,-0.92676 1.26969,-1.42059 0.40074,-0.49382 0.77818,-1.00732 1.1312,-1.53892 0.35301,-0.5316 0.68141,-1.08143 0.9834,-1.64744 0.30199,-0.56602 0.57761,-1.14804 0.82527,-1.74512 0.24766,-0.59707 0.4673,-1.20922 0.65732,-1.83399 0.19003,-0.62478 0.35047,-1.2624 0.47956,-1.91152 0.0645,-0.32455 0.12133,-0.65183 0.17001,-0.98185 0.0487,-0.33001 0.0895,-0.66282 0.12195,-0.99787 0.0324,-0.33505 0.0566,-0.67216 0.0724,-1.01182 0.0157,-0.33967 0.023,-0.68192 0.0217,-1.02578 -0.001,-0.34386 -0.0116,-0.68522 -0.03,-1.02474 -0.0184,-0.33953 -0.0451,-0.67705 -0.0801,-1.01183 -0.035,-0.33477 -0.0784,-0.66723 -0.12971,-0.99684 -0.0513,-0.32961 -0.11069,-0.65627 -0.17777,-0.9803 -0.13416,-0.64805 -0.29963,-1.28467 -0.49454,-1.907892 -0.19491,-0.62323 -0.41896,-1.23325 -0.67128,-1.82832 -0.25233,-0.59507 -0.53281,-1.17533 -0.83923,-1.73891 -0.30641,-0.56358 -0.63915,-1.11042 -0.99631,-1.63917 -0.35717,-0.52876 -0.73849,-1.03902 -1.14308,-1.52963 -0.4046,-0.4906 -0.83236,-0.96164 -1.28106,-1.410762 -0.4487,-0.449119 -0.91873,-0.876758 -1.40818,-1.281059 -0.48947,-0.404301 -0.99807,-0.784865 -1.52497,-1.141016 -0.52691,-0.356151 -1.07196,-0.687518 -1.63298,-0.992187 -0.56102,-0.304669 -1.13832,-0.582652 -1.73013,-0.832508 -0.5918,-0.249855 -1.1982,-0.471815 -1.81746,-0.663525 -0.61925,-0.19171 -1.25107,-0.353459 -1.89445,-0.483691 -0.32169,-0.06512 -0.64649,-0.122444 -0.9736,-0.171566 -0.3271,-0.04912 -0.65647,-0.08976 -0.98857,-0.122473 -0.33209,-0.03271 -0.66689,-0.0575 -1.00355,-0.07338 -0.33666,-0.01588 -0.67565,-0.02306 -1.01648,-0.0217 z"
       style="display:none" />
    <path
       id="path991-6-6-7"
       d="m 131.70432,48.894711 c -0.72828,0.003 -1.45437,0.0148 -2.17816,0.0362 -0.725,0.0214 -1.44807,0.0523 -2.16835,0.092 -0.72028,0.0397 -1.43801,0.0884 -2.15335,0.14625 -0.71535,0.0578 -1.42819,0.12486 -2.13838,0.2005 -0.71018,0.0756 -1.41754,0.15996 -2.12235,0.25322 -0.7048,0.0933 -1.40712,0.19527 -2.10633,0.30592 -0.6992,0.11066 -1.39537,0.22977 -2.08876,0.3576 -0.69338,0.12783 -1.38385,0.2645 -2.07119,0.40928 -0.68734,0.14478 -1.3715,0.2979 -2.05259,0.4594 -0.68108,0.1615 -1.35938,0.33101 -2.03398,0.50902 -0.6746,0.178 -1.34593,0.36434 -2.01383,0.55862 -0.6679,0.19427 -1.33219,0.39687 -1.99316,0.6072 -0.66098,0.21032 -1.31866,0.42858 -1.97249,0.65474 -0.65384,0.22615 -1.3038,0.46 -1.95027,0.70176 -0.64647,0.24176 -1.28916,0.49114 -1.92805,0.74828 -0.63888,0.25713 -1.273715,0.52197 -1.904795,0.79426 -0.63108,0.2723 -1.25849,0.55201 -1.88154,0.83923 -0.62306,0.28722 -1.24193,0.58225 -1.85674,0.88418 -0.6148,0.30193 -1.22558,0.61118 -1.83192,0.92759 -0.60635,0.31641 -1.20844,0.63982 -1.8061,0.97049 -0.59765,0.33066 -1.19098,0.66815 -1.77973,1.01286 -0.58875,0.3447 -1.17273,0.69672 -1.75235,1.05523 -1.15924,0.71702 -2.30009,1.46151 -3.4215,2.23242 -1.1214,0.77091 -2.22342,1.56806 -3.30522,2.39107 -1.08181,0.82301 -2.14334,1.67175 -3.18379,2.54506 -1.04044,0.87331 -2.05986,1.77104 -3.05717,2.69286 -0.99732,0.92182 -1.97247,1.86747 -2.92489,2.836 -0.95242,0.96854 -1.88218,1.96001 -2.78794,2.97347 -0.90577,1.01345 -1.78746,2.04917 -2.6448,3.10575 -0.85735,1.05658 -1.69036,2.13393 -2.49753,3.23185 -0.80716,1.09791 -1.58882,2.21634 -2.34404,3.3538 -0.75522,1.13745 -1.48389,2.29435 -2.18539,3.46955 -0.35076,0.5876 -0.69499,1.17942 -1.03198,1.77612 -0.337,0.5967 -0.66659,1.19793 -0.98961,1.80351 -0.32301,0.60557 -0.63944,1.21564 -0.94826,1.82986 -0.30881,0.61423 -0.61046,1.23253 -0.90485,1.85518 -0.2944,0.62266 -0.58118,1.24965 -0.86093,1.88051 -0.27976,0.630859 -0.55212,1.265959 -0.81701,1.904789 -0.26489,0.63884 -0.52223,1.28146 -0.77204,1.92805 -0.24981,0.64659 -0.49207,1.29718 -0.72657,1.9513 -0.23451,0.65412 -0.4616,1.31158 -0.68058,1.97301 -0.21899,0.66142 -0.4298,1.32672 -0.63304,1.99523 -0.20324,0.6685 -0.39873,1.34053 -0.58601,2.01589 -0.18728,0.67537 -0.36634,1.35406 -0.53743,2.03606 -0.1711,0.68199 -0.33418,1.36728 -0.48886,2.05568 -0.15469,0.68841 -0.30119,1.37971 -0.43925,2.0743 -0.13807,0.69459 -0.26791,1.39234 -0.38913,2.09289 -0.12121,0.70055 -0.23381,1.40418 -0.33796,2.11047 -0.10415,0.70628 -0.19994,1.4152 -0.2868,2.127 -0.08687,0.7118 -0.16474,1.42645 -0.2341,2.14354 -0.06935,0.71708 -0.12976,1.43689 -0.18138,2.15904 -0.05163,0.72215 -0.09448,1.44652 -0.12816,2.17351 -0.03368,0.72699 -0.05839,1.45638 -0.0739,2.18798 -0.01551,0.7316 -0.022,1.46542 -0.01912,2.20142 0.0029,0.73599 0.01494,1.46996 0.03618,2.20141 0.02123,0.73145 0.05158,1.46027 0.09095,2.18695 0.03936,0.72668 0.08793,1.4513 0.14521,2.17299 0.05727,0.72169 0.12347,1.4405 0.19843,2.15698 0.07497,0.71648 0.15872,1.43042 0.25115,2.14147 0.09243,0.71104 0.19367,1.41903 0.30334,2.12442 0.10968,0.70538 0.22781,1.40837 0.3545,2.10788 0.1267,0.69951 0.26165,1.39587 0.40515,2.08928 0.14349,0.6934 0.29571,1.38359 0.45578,2.07067 0.16007,0.68708 0.32794,1.37102 0.50436,2.05155 0.17643,0.68054 0.36142,1.35763 0.55398,2.03141 0.19255,0.67377 0.39304,1.34446 0.60151,2.01124 0.20846,0.66678 0.4249,1.32998 0.64905,1.98954 0.22416,0.65957 0.45595,1.31519 0.69557,1.96733 0.23962,0.65213 0.48669,1.30062 0.74156,1.9451 0.25486,0.64448 0.51766,1.28524 0.78755,1.92184 0.26988,0.6366 0.54679,1.26906 0.83147,1.89756 0.28468,0.6285 0.57666,1.25258 0.87591,1.87276 0.29926,0.62017 0.60623,1.23632 0.91984,1.84795 0.31362,0.61162 0.63396,1.21873 0.9617,1.82159 0.32775,0.60286 0.66242,1.20137 1.00408,1.79524 0.34165,0.59387 0.69059,1.18319 1.04593,1.76785 0.71068,1.16932 1.44817,2.32033 2.21227,3.45147 0.76409,1.13114 1.55466,2.24247 2.37039,3.33365 0.81573,1.09117 1.65674,2.16225 2.52233,3.21169 0.86559,1.04944 1.75593,2.0776 2.6696,3.08353 0.91367,1.00592 1.85071,1.98957 2.81069,2.95021 0.95997,0.96063 1.94261,1.89815 2.9471,2.81171 1.0045,0.91356 2.03112,1.80282 3.07837,2.66754 1.04724,0.86471 2.11521,1.70462 3.20342,2.51871 1.08821,0.81409 2.19643,1.60251 3.32383,2.36419 1.1274,0.76169 2.27373,1.49702 3.43855,2.20452 0.5824,0.35375 1.1697,0.70037 1.76113,1.04025 0.59143,0.33987 1.18726,0.67261 1.78749,0.99839 0.60022,0.32577 1.20453,0.64456 1.81332,0.95601 0.6088,0.31145 1.22202,0.6157 1.83917,0.91261 0.61715,0.2969 1.23868,0.58654 1.86397,0.86868 0.62528,0.28213 1.25455,0.55657 1.88774,0.82372 0.633195,0.26715 1.270115,0.52683 1.910995,0.77876 0.64088,0.25194 1.28539,0.49627 1.93373,0.73277 0.64834,0.23651 1.30037,0.46542 1.95596,0.68627 0.65558,0.22084 1.31505,0.43375 1.97765,0.63872 0.66261,0.20496 1.32842,0.4018 1.99781,0.59066 0.6694,0.18886 1.342,0.36954 2.01797,0.54209 0.67597,0.17254 1.35528,0.33699 2.0376,0.49299 0.68233,0.156 1.36775,0.30364 2.05621,0.44287 0.68845,0.13923 1.37992,0.26998 2.07429,0.39222 0.69436,0.12224 1.39181,0.23604 2.09186,0.34106 0.70005,0.10503 1.40289,0.20128 2.1084,0.28888 0.70551,0.0876 1.41366,0.16622 2.12442,0.23616 0.71075,0.0699 1.42414,0.13139 2.13992,0.18345 0.71577,0.0521 1.43382,0.0952 2.15439,0.12919 0.72057,0.034 1.44371,0.0588 2.16886,0.0744 0.72514,0.0156 1.45228,0.022 2.18178,0.0191 0.72949,-0.003 1.45678,-0.0153 2.18178,-0.0367 0.72499,-0.0214 1.44755,-0.0523 2.16782,-0.092 0.72027,-0.0397 1.43855,-0.0885 2.15388,-0.14624 0.71532,-0.0578 1.42769,-0.12439 2.13785,-0.19999 0.71016,-0.0756 1.41809,-0.16 2.12287,-0.25322 0.70477,-0.0932 1.40664,-0.19531 2.10581,-0.30592 0.69917,-0.11061 1.39542,-0.22983 2.08876,-0.3576 0.69335,-0.12778 1.3839,-0.26405 2.0712,-0.40876 0.68729,-0.14472 1.37155,-0.29797 2.05258,-0.45941 0.68104,-0.16143 1.35893,-0.33108 2.03347,-0.50901 0.67455,-0.17793 1.34548,-0.36391 2.01332,-0.5581 0.66783,-0.1942 1.33224,-0.39644 1.99316,-0.60669 0.66091,-0.21024 1.3182,-0.42867 1.97197,-0.65474 0.65376,-0.22606 1.30439,-0.4601 1.95078,-0.70176 0.6464,-0.24167 1.28872,-0.49072 1.92753,-0.74776 0.63882,-0.25704 1.27381,-0.52208 1.90481,-0.79427 0.631,-0.27219 1.25805,-0.55159 1.88102,-0.83871 0.62297,-0.28711 1.24201,-0.58184 1.85673,-0.88366 0.61473,-0.30182 1.22515,-0.61078 1.83142,-0.92708 0.60625,-0.31629 1.20852,-0.63993 1.80609,-0.97048 0.59756,-0.33055 1.19056,-0.66828 1.77922,-1.01286 0.58865,-0.34458 1.17282,-0.69581 1.75235,-1.0542 1.15904,-0.71677 2.29977,-1.46125 3.42097,-2.2319 1.12121,-0.77066 2.22259,-1.56781 3.3042,-2.39056 1.0816,-0.82274 2.14303,-1.67098 3.18326,-2.54403 1.04024,-0.87304 2.05956,-1.77079 3.05667,-2.69234 0.9971,-0.92155 1.97215,-1.86671 2.92436,-2.83497 0.95222,-0.96826 1.88136,-1.95976 2.78691,-2.97294 0.90556,-1.01319 1.78766,-2.04789 2.6448,-3.10421 0.85715,-1.05631 1.68953,-2.13419 2.49649,-3.23184 0.80696,-1.09765 1.58851,-2.21557 2.34353,-3.35277 0.75502,-1.13719 1.48356,-2.29357 2.18488,-3.46852 0.35066,-0.58747 0.69456,-1.17954 1.03146,-1.77612 0.3369,-0.59658 0.66668,-1.19753 0.9896,-1.80299 0.32293,-0.60546 0.63902,-1.21523 0.94775,-1.82934 0.30873,-0.61412 0.61003,-1.23265 0.90434,-1.85519 0.29431,-0.62254 0.58126,-1.24924 0.86093,-1.87999 0.27967,-0.63075 0.55219,-1.26554 0.817,-1.90427 0.26481,-0.63874 0.52231,-1.28156 0.77205,-1.92805 0.24973,-0.64649 0.49161,-1.29676 0.72605,-1.95079 0.23444,-0.65402 0.46115,-1.31167 0.68006,-1.973 0.21892,-0.66134 0.42986,-1.32629 0.63304,-1.99471 0.20318,-0.66843 0.39879,-1.3401 0.58601,-2.01538 0.18722,-0.67529 0.3664,-1.35413 0.53743,-2.03606 0.17104,-0.68192 0.33371,-1.36734 0.48835,-2.05568 0.15463,-0.68834 0.30123,-1.37977 0.43924,-2.0743 0.13802,-0.69453 0.26743,-1.39188 0.3886,-2.09237 0.12119,-0.7005 0.23385,-1.40423 0.33798,-2.11047 0.1041,-0.70624 0.19997,-1.41524 0.2868,-2.127 0.0868,-0.71176 0.16476,-1.42597 0.2341,-2.14302 0.0693,-0.71706 0.12977,-1.43692 0.18138,-2.15904 0.0516,-0.72213 0.0945,-1.44654 0.12816,-2.17352 0.0337,-0.72697 0.0584,-1.45638 0.0739,-2.18798 0.0155,-0.73159 0.0215,-1.46542 0.0186,-2.20141 -0.003,-0.736 -0.0149,-1.46996 -0.0362,-2.20142 -0.0212,-0.73146 -0.0516,-1.46025 -0.0909,-2.18694 -0.0394,-0.7267 -0.0874,-1.45128 -0.14469,-2.173 -0.0573,-0.72171 -0.12349,-1.44098 -0.19844,-2.15749 -0.0749,-0.71651 -0.15874,-1.43039 -0.25114,-2.14147 -0.0924,-0.71108 -0.1937,-1.41898 -0.30335,-2.12442 -0.10964,-0.70543 -0.22783,-1.40832 -0.3545,-2.10788 -0.12666,-0.69956 -0.26168,-1.39581 -0.40514,-2.08928 -0.14346,-0.69347 -0.29524,-1.38404 -0.45527,-2.07119 -0.16003,-0.68715 -0.32798,-1.37094 -0.50436,-2.05155 -0.17638,-0.68062 -0.36094,-1.35807 -0.55346,-2.03192 -0.19251,-0.67385 -0.39309,-1.34438 -0.60151,-2.01125 -0.20842,-0.66686 -0.42495,-1.32988 -0.64905,-1.98954 -0.22411,-0.65966 -0.456,-1.31561 -0.69557,-1.96784 -0.23956,-0.65223 -0.48675,-1.30104 -0.74156,-1.94562 -0.2548,-0.64457 -0.5172,-1.28514 -0.78703,-1.92184 -0.26982,-0.63671 -0.54685,-1.269479 -0.83147,-1.898079 -0.28462,-0.6286 -0.57672,-1.25299 -0.87592,-1.87327 -0.29919,-0.62028 -0.60578,-1.23621 -0.91932,-1.84795 -0.31355,-0.61174 -0.63402,-1.21913 -0.9617,-1.82211 -0.32767,-0.60298 -0.66249,-1.20176 -1.00407,-1.79576 -0.34159,-0.59399 -0.69015,-1.18358 -1.04542,-1.76836 -0.71053,-1.16957 -1.4478,-2.32008 -2.21175,-3.45147 -0.76394,-1.1314 -1.5543,-2.24324 -2.36988,-3.33468 -0.81558,-1.09144 -1.65638,-2.1625 -2.52181,-3.21221 -0.86543,-1.04971 -1.75557,-2.07837 -2.66909,-3.08457 -0.91351,-1.00619 -1.85086,-1.99033 -2.81068,-2.95124 -0.95981,-0.9609 -1.94225,-1.8984 -2.94659,-2.81223 -1.00434,-0.91383 -2.03024,-1.80359 -3.07733,-2.66857 -1.04709,-0.86498 -2.11536,-1.70539 -3.20342,-2.51974 -1.08806,-0.81436 -2.19606,-1.60278 -3.32331,-2.36472 -1.12726,-0.76194 -2.27388,-1.49728 -3.43855,-2.20503 -0.58234,-0.35388 -1.16926,-0.70077 -1.76062,-1.04076 -0.59136,-0.34 -1.18681,-0.67302 -1.78697,-0.99891 -0.60016,-0.32589 -1.20459,-0.64497 -1.81333,-0.95653 -0.60873,-0.31156 -1.22207,-0.61559 -1.83916,-0.91261 -0.61709,-0.29701 -1.23823,-0.58695 -1.86345,-0.86919 -0.62522,-0.28225 -1.25409,-0.55699 -1.88723,-0.82424 -0.63313,-0.26725 -1.27018,-0.52673 -1.911,-0.77877 -0.64082,-0.25203 -1.28545,-0.49669 -1.93373,-0.73329 -0.64829,-0.23659 -1.30042,-0.46533 -1.95596,-0.68626 -0.65553,-0.22093 -1.31458,-0.43367 -1.97714,-0.63872 -0.66255,-0.20505 -1.32845,-0.40223 -1.99781,-0.59118 -0.66935,-0.18894 -1.34203,-0.36999 -2.01796,-0.5426 -0.67593,-0.17261 -1.35532,-0.33693 -2.0376,-0.49299 -0.68229,-0.15607 -1.36779,-0.30358 -2.05621,-0.44287 -0.68842,-0.13929 -1.37996,-0.27045 -2.07429,-0.39274 -0.69433,-0.12229 -1.39132,-0.23599 -2.09135,-0.34107 -0.70002,-0.10507 -1.4029,-0.20123 -2.10839,-0.28887 -0.70549,-0.0876 -1.41369,-0.16671 -2.12442,-0.23667 -0.71074,-0.07 -1.42416,-0.13086 -2.13992,-0.18294 -0.71576,-0.0521 -1.43383,-0.0952 -2.15439,-0.12919 -0.72056,-0.034 -1.44321,-0.0588 -2.16835,-0.0744 -0.72393,-0.0156 -1.45039,-0.022 -2.17868,-0.0191 -3.4e-4,0 -6.8e-4,0 -0.001,0 -8.6e-4,0 -0.002,0 -0.003,0 z m 0.1204,29.93047 c 0.94701,-0.004 1.8887,0.0169 2.82412,0.061 0.93542,0.0441 1.86475,0.11176 2.78743,0.20258 0.92268,0.0908 1.83885,0.20467 2.74763,0.34106 0.90879,0.13639 1.80998,0.29514 2.70371,0.47594 0.89374,0.1808 1.77968,0.38366 2.65721,0.60772 0.87753,0.22405 1.7469,0.46971 2.60707,0.73587 0.86018,0.26616 1.71116,0.55278 2.55282,0.8599 0.84166,0.30711 1.67398,0.63443 2.49597,0.98133 0.82199,0.3469 1.63382,0.71362 2.43499,1.09916 0.80118,0.38554 1.59172,0.78982 2.37092,1.21285 0.7792,0.42302 1.54715,0.86459 2.30322,1.32395 0.75607,0.45935 1.50012,0.93639 2.2319,1.43092 0.73179,0.49453 1.45114,1.00675 2.15749,1.5353 0.70635,0.52855 1.39971,1.07363 2.07946,1.63505 0.67976,0.56141 1.3458,1.13906 1.99781,1.73219 0.65201,0.59313 1.28995,1.20153 1.91306,1.82521 0.62311,0.62369 1.23164,1.26256 1.8247,1.91565 0.59306,0.65308 1.17086,1.32061 1.73271,2.00194 0.56185,0.68133 1.10762,1.376719 1.63711,2.085149 0.52948,0.70842 1.04244,1.42984 1.53841,2.1642 0.49596,0.73437 0.97479,1.48155 1.43609,2.24069 0.46129,0.75915 0.90519,1.53027 1.33066,2.31304 0.42547,0.78278 0.83263,1.57704 1.22112,2.38229 0.38849,0.80524 0.75811,1.62134 1.10847,2.44791 0.35036,0.82657 0.68163,1.66371 0.9927,2.51044 0.31107,0.84673 0.60219,1.70309 0.87282,2.56883 0.27062,0.86575 0.52079,1.74105 0.74982,2.62465 0.22903,0.8836 0.43694,1.77551 0.62322,2.67581 0.18628,0.90029 0.35113,1.80905 0.4935,2.72489 0.14239,0.91585 0.26235,1.83911 0.35967,2.76934 0.0973,0.93024 0.17162,1.86721 0.22273,2.81069 0.0511,0.94347 0.079,1.89336 0.0827,2.84892 0.004,0.95544 -0.0167,1.90516 -0.0605,2.84892 -0.0437,0.94376 -0.11047,1.88133 -0.20051,2.81223 -0.09,0.9309 -0.20328,1.85504 -0.33848,2.77192 -0.13521,0.91689 -0.29257,1.82682 -0.47181,2.72852 -0.17923,0.9017 -0.38043,1.79511 -0.60255,2.68046 -0.22211,0.88535 -0.4653,1.76249 -0.72915,2.63033 -0.26384,0.86783 -0.54823,1.72639 -0.85266,2.57555 -0.30444,0.84916 -0.62867,1.68888 -0.97255,2.51819 -0.34388,0.82932 -0.70716,1.64839 -1.08934,2.4567 -0.38218,0.80831 -0.78318,1.60596 -1.20251,2.3921 -0.41933,0.78614 -0.85723,1.56109 -1.31258,2.32389 -0.45534,0.76281 -0.92832,1.51324 -1.41852,2.25154 -0.4902,0.73831 -0.99743,1.46449 -1.52135,2.17713 -0.52393,0.71264 -1.0646,1.41174 -1.62109,2.09755 -0.5565,0.68581 -1.12877,1.35808 -1.7167,2.0159 -0.58792,0.65782 -1.19149,1.30145 -1.8097,1.93011 -0.61821,0.62866 -1.25125,1.24237 -1.8986,1.84072 -0.64734,0.59834 -1.30903,1.18135 -1.98437,1.74821 -0.67534,0.56685 -1.36435,1.11737 -2.06654,1.65158 -0.70219,0.5342 -1.41771,1.05197 -2.14561,1.55236 -0.72789,0.50039 -1.46808,0.9836 -2.22053,1.449 -0.75245,0.46541 -1.51702,0.91329 -2.29289,1.34256 -0.77586,0.42926 -1.56296,0.84001 -2.36109,1.23196 -0.79813,0.39196 -1.60696,0.7648 -2.42621,1.11828 -0.81925,0.35349 -1.64899,0.68765 -2.48822,1.00149 -0.83923,0.31385 -1.68804,0.60752 -2.5461,0.88057 -0.85806,0.27304 -1.72564,0.52546 -2.60139,0.75654 -0.87575,0.23108 -1.75974,0.44096 -2.65204,0.6289 -0.89229,0.18795 -1.79292,0.354 -2.70061,0.49765 -0.90769,0.14365 -1.82259,0.26457 -2.74453,0.36277 -0.92194,0.0982 -1.85083,0.17322 -2.78588,0.22479 -0.93505,0.0516 -1.87607,0.0799 -2.82308,0.0837 -0.94712,0.004 -1.88912,-0.0169 -2.82464,-0.061 -0.93551,-0.0441 -1.86466,-0.11175 -2.78742,-0.20258 -0.92276,-0.0908 -1.83878,-0.20466 -2.74764,-0.34106 -0.90885,-0.1364 -1.81043,-0.29564 -2.70423,-0.47646 -0.89379,-0.18082 -1.78014,-0.38311 -2.65771,-0.60719 -0.87758,-0.22409 -1.74635,-0.46969 -2.60656,-0.73588 -0.86021,-0.26619 -1.71165,-0.55327 -2.55334,-0.86041 -0.84168,-0.30714 -1.67396,-0.6344 -2.49597,-0.98134 -0.82201,-0.34693 -1.63381,-0.71358 -2.43499,-1.09915 -0.80118,-0.38558 -1.59172,-0.7903 -2.37092,-1.21337 -0.7792,-0.42306 -1.54715,-0.86455 -2.30321,-1.32395 -0.75607,-0.45939 -1.50013,-0.93635 -2.23191,-1.43092 -0.73177,-0.49456 -1.45116,-1.00672 -2.157495,-1.5353 -0.70633,-0.52859 -1.39972,-1.0736 -2.07946,-1.63505 -0.67974,-0.56144 -1.34583,-1.13903 -1.99781,-1.73219 -0.65199,-0.59316 -1.28998,-1.20202 -1.91306,-1.82573 -0.62308,-0.62371 -1.23116,-1.26253 -1.82418,-1.91564 -0.59303,-0.65311 -1.1709,-1.3206 -1.73271,-2.00195 -0.56181,-0.68135 -1.10766,-1.37619 -1.63711,-2.08463 -0.52945,-0.70844 -1.04248,-1.43035 -1.53841,-2.16472 -0.49593,-0.73437 -0.97483,-1.48154 -1.43609,-2.24069 -0.46126,-0.75915 -0.90471,-1.53027 -1.33015,-2.31304 -0.42543,-0.78277 -0.83266,-1.57704 -1.22111,-2.38228 -0.38846,-0.80524 -0.75814,-1.62137 -1.10846,-2.44791 -0.35033,-0.82655 -0.68115,-1.66374 -0.99219,-2.51045 -0.31104,-0.8467 -0.60221,-1.70313 -0.87281,-2.56883 -0.2706,-0.86571 -0.52082,-1.74058 -0.74983,-2.62413 -0.229,-0.88355 -0.43696,-1.77557 -0.62322,-2.67581 -0.18626,-0.90024 -0.35063,-1.8086 -0.49299,-2.72438 -0.14236,-0.91577 -0.26288,-1.83918 -0.36018,-2.76934 -0.09731,-0.93015 -0.17163,-1.8673 -0.22273,-2.81068 -0.0511,-0.94338 -0.07894,-1.89296 -0.08268,-2.8484 -0.0037,-0.95556 0.01674,-1.90559 0.06046,-2.84944 0.04371,-0.94385 0.111,-1.88125 0.20102,-2.81223 0.09002,-0.93099 0.20278,-1.85549 0.33796,-2.77244 0.13519,-0.91695 0.2926,-1.82676 0.47181,-2.72852 0.17921,-0.90176 0.37995,-1.79558 0.60203,-2.68097 0.22208,-0.8854 0.46534,-1.76246 0.72916,-2.63033 0.26381,-0.86788 0.54825,-1.72637 0.85266,-2.57556 0.3044,-0.84918 0.6287,-1.68885 0.97255,-2.51819 0.34384,-0.82934 0.70719,-1.64837 1.08934,-2.4567 0.38214,-0.80832 0.78321,-1.60595 1.20251,-2.3921 0.41929,-0.78614 0.85676,-1.56109 1.31206,-2.32389 0.45531,-0.7628 0.92835,-1.51324 1.41852,-2.25154 0.49017,-0.7383 0.99747,-1.46398 1.52135,-2.17661 0.52389,-0.71263 1.06463,-1.412269 1.62109,-2.098059 0.55647,-0.6858 1.1288,-1.35811 1.71669,-2.0159 0.5879,-0.6578 1.19153,-1.30096 1.80971,-1.9296 0.61818,-0.62864 1.25076,-1.2424 1.89808,-1.84071 0.64732,-0.59832 1.30905,-1.1814 1.98437,-1.74822 0.67532,-0.56682 1.36437,-1.11741 2.06654,-1.65158 0.70218,-0.53417 1.417735,-1.052 2.145615,-1.55236 0.72788,-0.50035 1.46809,-0.98363 2.22054,-1.449 0.75244,-0.46538 1.51701,-0.91281 2.29288,-1.34204 0.77586,-0.42923 1.56295,-0.84005 2.36109,-1.23197 0.79815,-0.39192 1.60746,-0.76483 2.42673,-1.11828 0.81927,-0.35345 1.64845,-0.68767 2.4877,-1.00148 0.83926,-0.31382 1.68852,-0.60756 2.54662,-0.88057 0.8581,-0.27302 1.72508,-0.52498 2.60087,-0.75603 0.8758,-0.23105 1.76021,-0.44098 2.65255,-0.6289 0.89235,-0.18793 1.79286,-0.35401 2.70061,-0.49765 0.90776,-0.14363 1.82304,-0.26459 2.74506,-0.36277 0.92202,-0.0982 1.85073,-0.17374 2.78587,-0.2253 0.93514,-0.0516 1.87649,-0.0794 2.8236,-0.0832 z"
       style="display:none" />
  </g>
</svg>
