<?xml version="1.0" encoding="UTF-8" standalone="no"?>
<!-- Generator: Adobe Illustrator 23.0.1, SVG Export Plug-In . SVG Version: 6.00 Build 0)  -->

<svg
   version="1.1"
   id="Layer_1"
   x="0px"
   y="0px"
   viewBox="0 0 45 45"
   xml:space="preserve"
   sodipodi:docname="slack.svg"
   width="45"
   height="45"
   inkscape:version="1.2.1 (9c6d41e4, 2022-07-14)"
   xmlns:inkscape="http://www.inkscape.org/namespaces/inkscape"
   xmlns:sodipodi="http://sodipodi.sourceforge.net/DTD/sodipodi-0.dtd"
   xmlns="http://www.w3.org/2000/svg"
   xmlns:svg="http://www.w3.org/2000/svg"><defs
   id="defs337" /><sodipodi:namedview
   id="namedview335"
   pagecolor="#ffffff"
   bordercolor="#000000"
   borderopacity="0.25"
   inkscape:showpageshadow="2"
   inkscape:pageopacity="0.0"
   inkscape:pagecheckerboard="0"
   inkscape:deskcolor="#d1d1d1"
   showgrid="false"
   inkscape:zoom="9.565618"
   inkscape:cx="18.085606"
   inkscape:cy="18.399229"
   inkscape:window-width="1280"
   inkscape:window-height="456"
   inkscape:window-x="0"
   inkscape:window-y="74"
   inkscape:window-maximized="0"
   inkscape:current-layer="Layer_1" />
<style
   type="text/css"
   id="style306">
	.st0{fill:#E01E5A;}
	.st1{fill:#36C5F0;}
	.st2{fill:#2EB67D;}
	.st3{fill:#ECB22E;}
</style>
<g
   id="g332"
   transform="matrix(0.3257329,0,0,0.3257329,-21.473941,-21.473941)">
	<g
   id="g312">
		<path
   class="st0"
   d="m 99.4,151.2 c 0,7.1 -5.8,12.9 -12.9,12.9 -7.1,0 -12.9,-5.8 -12.9,-12.9 0,-7.1 5.8,-12.9 12.9,-12.9 h 12.9 z"
   id="path308" />
		<path
   class="st0"
   d="m 105.9,151.2 c 0,-7.1 5.8,-12.9 12.9,-12.9 7.1,0 12.9,5.8 12.9,12.9 v 32.3 c 0,7.1 -5.8,12.9 -12.9,12.9 -7.1,0 -12.9,-5.8 -12.9,-12.9 z"
   id="path310" />
	</g>
	<g
   id="g318">
		<path
   class="st1"
   d="m 118.8,99.4 c -7.1,0 -12.9,-5.8 -12.9,-12.9 0,-7.1 5.8,-12.9 12.9,-12.9 7.1,0 12.9,5.8 12.9,12.9 v 12.9 z"
   id="path314" />
		<path
   class="st1"
   d="m 118.8,105.9 c 7.1,0 12.9,5.8 12.9,12.9 0,7.1 -5.8,12.9 -12.9,12.9 H 86.5 c -7.1,0 -12.9,-5.8 -12.9,-12.9 0,-7.1 5.8,-12.9 12.9,-12.9 z"
   id="path316" />
	</g>
	<g
   id="g324">
		<path
   class="st2"
   d="m 170.6,118.8 c 0,-7.1 5.8,-12.9 12.9,-12.9 7.1,0 12.9,5.8 12.9,12.9 0,7.1 -5.8,12.9 -12.9,12.9 h -12.9 z"
   id="path320" />
		<path
   class="st2"
   d="m 164.1,118.8 c 0,7.1 -5.8,12.9 -12.9,12.9 -7.1,0 -12.9,-5.8 -12.9,-12.9 V 86.5 c 0,-7.1 5.8,-12.9 12.9,-12.9 7.1,0 12.9,5.8 12.9,12.9 z"
   id="path322" />
	</g>
	<g
   id="g330">
		<path
   class="st3"
   d="m 151.2,170.6 c 7.1,0 12.9,5.8 12.9,12.9 0,7.1 -5.8,12.9 -12.9,12.9 -7.1,0 -12.9,-5.8 -12.9,-12.9 v -12.9 z"
   id="path326" />
		<path
   class="st3"
   d="m 151.2,164.1 c -7.1,0 -12.9,-5.8 -12.9,-12.9 0,-7.1 5.8,-12.9 12.9,-12.9 h 32.3 c 7.1,0 12.9,5.8 12.9,12.9 0,7.1 -5.8,12.9 -12.9,12.9 z"
   id="path328" />
	</g>
</g>
</svg>
