<?xml version="1.0" encoding="UTF-8" standalone="no"?>
<!-- Created with Inkscape (http://www.inkscape.org/) -->

<svg
   version="1.1"
   id="svg2"
   width="1000"
   height="1000"
   viewBox="0 0 1000 1000"
   sodipodi:docname="cal_table_tennis_navy.svg"
   inkscape:version="1.2.1 (9c6d41e4, 2022-07-14)"
   inkscape:export-filename="cal_table_tennis_navy.png"
   inkscape:export-xdpi="96"
   inkscape:export-ydpi="96"
   xmlns:inkscape="http://www.inkscape.org/namespaces/inkscape"
   xmlns:sodipodi="http://sodipodi.sourceforge.net/DTD/sodipodi-0.dtd"
   xmlns="http://www.w3.org/2000/svg"
   xmlns:svg="http://www.w3.org/2000/svg">
  <defs
     id="defs6" />
  <sodipodi:namedview
     id="namedview4"
     pagecolor="#ffffff"
     bordercolor="#000000"
     borderopacity="0.25"
     inkscape:showpageshadow="2"
     inkscape:pageopacity="0.0"
     inkscape:pagecheckerboard="0"
     inkscape:deskcolor="#d1d1d1"
     showgrid="false"
     inkscape:zoom="0.40298317"
     inkscape:cx="-8.6852262"
     inkscape:cy="477.68744"
     inkscape:window-width="1280"
     inkscape:window-height="663"
     inkscape:window-x="0"
     inkscape:window-y="25"
     inkscape:window-maximized="0"
     inkscape:current-layer="g10" />
  <g
     id="g8"
     inkscape:groupmode="layer"
     inkscape:label="ink_ext_XXXXXX"
     transform="matrix(1.3333333,0,0,-1.3333333,0,312)">
    <g
       id="g10"
       transform="scale(0.1)">
      <rect
         style="fill:#ffffff;fill-opacity:0.93036211;stroke-width:16.7788"
         id="rect424"
         width="7500"
         height="7500"
         x="0"
         y="-2340"
         transform="scale(1,-1)" />
      <path
         d="m 3721.0578,-1394.1988 c -16.0898,-38.6218 -83.6859,-147.9487 -160.8975,-147.9487 -93.3012,0 -96.5384,51.4743 -96.5384,115.7371 0,183.3975 215.5769,617.78853 408.6538,617.78853 57.8526,0 77.2116,-29.03847 77.2116,-54.71154 0,-9.71154 -119.1026,-254.10259 -228.4295,-530.86539 z M 5542.0194,150.032 c 6.3782,0 9.6795,-12.88462 9.6795,-22.4359 0,-90.128209 -295.9936,-649.87181 -591.9872,-1052.08336 99.6795,601.60258 530.8333,1074.51926 582.3077,1074.51926 z m -170.5449,-1927.0834 c -193.0449,57.9487 -408.6218,157.6923 -427.8526,546.9552 350.609,414.99997 807.5,1183.942294 807.5,1492.78846 0,80.41666 -16.0577,170.51282 -131.891,170.51282 -273.4615,0 -1090.6731,-752.88463 -1090.6731,-1611.82698 0,-77.2436 9.6154,-151.2179 25.7372,-205.9615 -167.3398,-154.3911 -292.8205,-225.1603 -418.2052,-225.1603 -41.8269,0 -51.4423,16.0898 -51.4423,90.0641 0,106.1539 318.4295,765.64106 318.4295,807.53209 0,61.15385 -25.7051,77.24359 -74.0064,77.24359 h -254.1025 c -19.359,0 -38.6539,-16.08974 -54.6795,-54.67949 -9.7116,12.78846 -61.218,54.67949 -144.8077,54.67949 -276.7308,0 -624.1026,-212.3718 -823.5866,-627.37178 -45.0833,-96.5385 -128.7179,-324.9359 -357.1699,-324.9359 -196.1891,0 -260.5929,209.1025 -260.5929,450.3846 0,665.92949 788.2083,1669.80772 1219.3942,1669.80772 70.7372,0 102.8526,-35.44871 102.8526,-103.04487 0,-125.41667 -112.5641,-202.59616 -196.218,-212.27565 -122.2756,-12.91666 -221.9551,-67.6282 -221.9551,-173.71795 0,-90.096156 70.7372,-128.782054 164.0705,-128.782054 135.0962,0 447.2116,295.993594 447.2116,566.217964 0,160.86539 -93.3013,247.82052 -257.3718,247.82052 -678.8686,0 -1846.7372,-965.16028 -1846.7372,-1885.35258 0,-453.5898 247.8076,-675.609 694.8974,-675.609 215.5705,0 424.6923,164.1025 485.8398,222.0192 12.9102,-67.532 93.3397,-222.0192 360.2948,-222.0192 176.9872,0 295.9936,115.9295 334.6475,170.5449 12.8846,-57.8847 51.4423,-170.5449 247.7244,-170.5449 231.6346,0 440.7371,83.6538 652.9807,273.4615 96.6667,-173.6859 263.9103,-276.6346 434.4552,-312.0192 54.7115,-9.6475 125.5128,-22.5 125.5128,-38.6539 0,-25.673 -106.218,-80.4519 -325.0321,-80.4519 -472.9487,0 -1238.6538,70.8365 -1894.9487,70.8365 -913.6988,0 -1212.8879,-414.9615 -1212.8879,-492.2756 0,-32.1763 22.5353,-38.5609 48.2757,-38.5609 51.4455,0 231.6442,138.2724 933.0064,138.2724 772.1314,0 1299.7276,-57.8557 1717.9968,-57.8557 833.3013,0 1084.2949,424.6827 1084.2949,476.1891 0,80.4167 -70.8333,90.032 -160.9615,115.7692"
         style="fill:#15213a;fill-opacity:1;fill-rule:nonzero;stroke:none;stroke-width:3.20513"
         id="path12" />
      <path
         d="m 5445.9296,-2300.4136 c -34.8077,0 -62.6923,28.1699 -62.6923,62.6891 0,35.1314 27.8846,62.625 62.6923,62.625 34.8398,0 62.6923,-27.4936 62.6923,-62.625 0,-34.5192 -27.8525,-62.6891 -62.6923,-62.6891 z m 0,136.5321 c -40.7372,0 -73.8141,-32.7885 -73.8141,-73.843 0,-40.7019 33.0769,-73.8173 73.8141,-73.8173 41.1218,0 73.8141,33.1154 73.8141,73.8173 0,41.0545 -32.6923,73.843 -73.8141,73.843"
         style="fill:#15213a;fill-opacity:1;fill-rule:nonzero;stroke:none;stroke-width:3.20513"
         id="path14" />
      <path
         d="m 5429.5835,-2235.9584 v 29.8974 h 22.6282 c 7.2756,0 15.2884,-5.9231 15.2884,-15.3109 0,-8.6891 -8.0128,-14.5865 -15.2884,-14.5865 z m 50.1282,14.5865 c 0,15.6987 -13.2693,25.7276 -27.5,25.7276 h -34.4552 v -84.6122 h 11.827 v 33.4679 h 14.6154 l 21.9551,-33.4679 h 14.6154 l -22.6603,33.8429 c 4.8398,0 21.6026,6.1859 21.6026,25.0417"
         style="fill:#15213a;fill-opacity:1;fill-rule:nonzero;stroke:none;stroke-width:3.20513"
         id="path16" />
      <path
         d="M 1862.9944,-2882.0546 H 1746.645 v 101.9263 h 334.609 v -101.9263 h -116.3333 v -667.3045 h -101.9263 v 667.3045"
         style="fill:#15213a;fill-opacity:1;fill-rule:nonzero;stroke:none;stroke-width:3.20513"
         id="path18" />
      <path
         d="m 2272.6002,-3314.7469 -34.6186,293.2436 -34.6186,-293.2436 z m 11.5288,-101.952 h -93.2596 l -15.375,-132.6602 h -101.9391 l 101.9391,769.2308 h 124.0224 l 101.9263,-769.2308 h -101.9263 l -15.3878,132.6602"
         style="fill:#15213a;fill-opacity:1;fill-rule:nonzero;stroke:none;stroke-width:3.20513"
         id="path20" />
      <path
         d="m 2661.0585,-3237.8495 -21.1603,21.1474 h -81.7179 v -230.7692 h 81.7179 l 21.1603,21.1571 z m 0,334.6474 -21.1603,21.1475 h -81.7179 v -230.7693 h 81.7179 l 21.1603,21.1571 z m 71.1506,-261.5416 30.7629,-30.7628 v -273.1122 l -80.7693,-80.7404 h -225.9615 v 769.2308 h 225.9615 l 80.7693,-80.7693 v -273.0737 l -30.7629,-30.7724"
         style="fill:#15213a;fill-opacity:1;fill-rule:nonzero;stroke:none;stroke-width:3.20513"
         id="path22" />
      <path
         d="m 2953.3502,-3447.4713 h 169.234 v -101.8878 h -271.1603 v 769.2308 h 101.9263 v -667.343"
         style="fill:#15213a;fill-opacity:1;fill-rule:nonzero;stroke:none;stroke-width:3.20513"
         id="path24" />
      <path
         d="m 3288.9335,-3447.4713 h 169.2308 v -101.8878 h -271.1539 v 769.2308 h 271.1539 v -101.9263 h -169.2308 v -230.7693 h 169.2308 v -103.8782 h -169.2308 v -230.7692"
         style="fill:#15213a;fill-opacity:1;fill-rule:nonzero;stroke:none;stroke-width:3.20513"
         id="path26" />
      <path
         d="m 3823.5169,-2882.0546 h -116.3141 v 101.9263 h 334.6154 v -101.9263 h -116.3783 v -667.3045 h -101.923 v 667.3045"
         style="fill:#15213a;fill-opacity:1;fill-rule:nonzero;stroke:none;stroke-width:3.20513"
         id="path28" />
      <path
         d="m 4208.1323,-3447.4713 h 169.2628 v -101.8878 h -271.1539 v 769.2308 h 271.1539 v -101.9263 h -169.2628 v -230.7693 h 169.2628 v -103.8782 h -169.2628 v -230.7692"
         style="fill:#15213a;fill-opacity:1;fill-rule:nonzero;stroke:none;stroke-width:3.20513"
         id="path30" />
      <path
         d="m 4558.1323,-2780.1283 112.5,-378.8815 v 378.8815 h 101.9551 v -769.2308 h -92.3077 l -112.532,378.8429 v -378.8429 h -101.9231 v 769.2308 h 92.3077"
         style="fill:#15213a;fill-opacity:1;fill-rule:nonzero;stroke:none;stroke-width:3.20513"
         id="path32" />
      <path
         d="m 4953.3246,-2780.1283 112.5,-378.8815 v 378.8815 h 101.9551 v -769.2308 h -92.3077 l -112.532,378.8429 v -378.8429 h -101.8911 v 769.2308 h 92.2757"
         style="fill:#15213a;fill-opacity:1;fill-rule:nonzero;stroke:none;stroke-width:3.20513"
         id="path34" />
      <path
         d="m 5358.1323,-3549.3591 h -101.891 v 769.2308 h 101.891 v -769.2308"
         style="fill:#15213a;fill-opacity:1;fill-rule:nonzero;stroke:none;stroke-width:3.20513"
         id="path36" />
      <path
         d="m 5651.4336,-2903.2021 -21.1218,21.1475 h -60.609 l -21.1538,-21.1475 v -189.4262 l 21.1538,-21.1859 h 102.8846 l 80.7693,-80.7404 v -274.0641 l -80.7693,-80.7404 h -145.1923 l -80.7692,80.7404 v 86.5384 h 101.9231 v -44.2339 l 21.1538,-21.1571 h 60.609 l 21.1218,21.1571 v 189.4551 l -21.1218,21.157 h -102.9167 l -80.7692,80.7308 v 274.0737 l 80.7692,80.7693 h 145.1923 l 80.7693,-80.7693 v -86.5384 h -101.9231 v 44.2339"
         style="fill:#15213a;fill-opacity:1;fill-rule:nonzero;stroke:none;stroke-width:3.20513"
         id="path38" />
    </g>
  </g>
</svg>
