<?xml version="1.0" encoding="UTF-8" standalone="no"?>
<!-- Created with Inkscape (http://www.inkscape.org/) -->

<svg
   version="1.1"
   id="svg2"
   width="1000"
   height="1000"
   viewBox="0 0 1000 1000"
   sodipodi:docname="cal_table_tennis_gold.svg"
   inkscape:version="1.2.1 (9c6d41e4, 2022-07-14)"
   inkscape:export-filename="cal_table_tennis_gold.png"
   inkscape:export-xdpi="96"
   inkscape:export-ydpi="96"
   xmlns:inkscape="http://www.inkscape.org/namespaces/inkscape"
   xmlns:sodipodi="http://sodipodi.sourceforge.net/DTD/sodipodi-0.dtd"
   xmlns="http://www.w3.org/2000/svg"
   xmlns:svg="http://www.w3.org/2000/svg">
  <defs
     id="defs6" />
  <sodipodi:namedview
     id="namedview4"
     pagecolor="#ffffff"
     bordercolor="#000000"
     borderopacity="0.25"
     inkscape:showpageshadow="2"
     inkscape:pageopacity="0.0"
     inkscape:pagecheckerboard="0"
     inkscape:deskcolor="#d1d1d1"
     showgrid="false"
     inkscape:zoom="0.34793541"
     inkscape:cx="84.785851"
     inkscape:cy="132.20845"
     inkscape:window-width="1280"
     inkscape:window-height="800"
     inkscape:window-x="0"
     inkscape:window-y="0"
     inkscape:window-maximized="0"
     inkscape:current-layer="g8" />
  <g
     id="g8"
     inkscape:groupmode="layer"
     inkscape:label="ink_ext_XXXXXX"
     transform="matrix(1.3333333,0,0,-1.3333333,0,312)">
    <g
       id="g10"
       transform="scale(0.1)">
      <path
         d="M 7500.0002,-5160.0002 H 0 V 2340 h 7500.0002 v -7500.0002"
         style="fill:#15213a;fill-opacity:1;fill-rule:nonzero;stroke:none;stroke-width:3.20513"
         id="path12" />
      <path
         d="m 3721.0661,-1394.1988 c -16.0897,-38.6218 -83.6859,-147.9487 -160.8974,-147.9487 -93.3013,0 -96.5385,51.4743 -96.5385,115.7371 0,183.3975 215.5769,617.78853 408.6539,617.78853 57.8525,0 77.2115,-29.03847 77.2115,-54.71154 0,-9.71154 -119.1026,-254.10259 -228.4295,-530.86539 z M 5542.0277,150.032 c 6.3782,0 9.6795,-12.88462 9.6795,-22.4359 0,-90.128209 -295.9936,-649.87181 -591.9872,-1052.08336 99.6795,601.60258 530.8333,1074.51926 582.3077,1074.51926 z m -170.5449,-1927.0834 c -193.0449,57.9487 -408.6218,157.6923 -427.8525,546.9552 350.6089,414.99997 807.5,1183.942294 807.5,1492.78846 0,80.41666 -16.0577,170.51282 -131.8911,170.51282 -273.4615,0 -1090.6731,-752.88463 -1090.6731,-1611.82698 0,-77.2436 9.6154,-151.2179 25.7372,-205.9615 -167.3397,-154.3911 -292.8205,-225.1603 -418.2051,-225.1603 -41.8269,0 -51.4423,16.0898 -51.4423,90.0641 0,106.1539 318.4295,765.64106 318.4295,807.53209 0,61.15385 -25.7052,77.24359 -74.0064,77.24359 h -254.1026 c -19.359,0 -38.6539,-16.08974 -54.6795,-54.67949 -9.7115,12.78846 -61.218,54.67949 -144.8077,54.67949 -276.7308,0 -624.1026,-212.3718 -823.5868,-627.37178 -45.0834,-96.5385 -128.718,-324.9359 -357.1699,-324.9359 -196.1891,0 -260.593,209.1025 -260.593,450.3846 0,665.92949 788.2087,1669.80772 1219.3946,1669.80772 70.7371,0 102.8525,-35.44871 102.8525,-103.04487 0,-125.41667 -112.5641,-202.59616 -196.2179,-212.27565 -122.2757,-12.91666 -221.9552,-67.6282 -221.9552,-173.71795 0,-90.096156 70.7372,-128.782054 164.0706,-128.782054 135.0961,0 447.2115,295.993594 447.2115,566.217964 0,160.86539 -93.3013,247.82052 -257.3718,247.82052 -678.8689,0 -1846.7375,-965.16028 -1846.7375,-1885.35258 0,-453.5898 247.8077,-675.609 694.8974,-675.609 215.5706,0 424.6924,164.1025 485.8398,222.0192 12.9103,-67.532 93.3398,-222.0192 360.2952,-222.0192 176.9872,0 295.9936,115.9295 334.6474,170.5449 12.8846,-57.8847 51.4423,-170.5449 247.7244,-170.5449 231.6346,0 440.7372,83.6538 652.9808,273.4615 96.6666,-173.6859 263.9102,-276.6346 434.4551,-312.0192 54.7115,-9.6475 125.5128,-22.5 125.5128,-38.6539 0,-25.673 -106.2179,-80.4519 -325.032,-80.4519 -472.9488,0 -1238.6539,70.8365 -1894.9491,70.8365 -913.6987,0 -1212.8878,-414.9615 -1212.8878,-492.2756 0,-32.1763 22.5352,-38.5609 48.2756,-38.5609 51.4455,0 231.6442,138.2724 933.0064,138.2724 772.1318,0 1299.7279,-57.8557 1717.9972,-57.8557 833.3013,0 1084.2949,424.6827 1084.2949,476.1891 0,80.4167 -70.8334,90.032 -160.9616,115.7692"
         style="fill:#fbc01c;fill-opacity:1;fill-rule:nonzero;stroke:none;stroke-width:3.20513"
         id="path14" />
      <path
         d="m 5445.938,-2300.4136 c -34.8077,0 -62.6924,28.1699 -62.6924,62.6891 0,35.1314 27.8847,62.625 62.6924,62.625 34.8397,0 62.6923,-27.4936 62.6923,-62.625 0,-34.5192 -27.8526,-62.6891 -62.6923,-62.6891 z m 0,136.5321 c -40.7372,0 -73.8141,-32.7885 -73.8141,-73.843 0,-40.7019 33.0769,-73.8173 73.8141,-73.8173 41.1218,0 73.8141,33.1154 73.8141,73.8173 0,41.0545 -32.6923,73.843 -73.8141,73.843"
         style="fill:#fbc01c;fill-opacity:1;fill-rule:nonzero;stroke:none;stroke-width:3.20513"
         id="path16" />
      <path
         d="m 5429.5918,-2235.9584 v 29.8974 h 22.6282 c 7.2756,0 15.2885,-5.9231 15.2885,-15.3109 0,-8.6891 -8.0129,-14.5865 -15.2885,-14.5865 z m 50.1282,14.5865 c 0,15.6987 -13.2692,25.7276 -27.5,25.7276 h -34.4551 v -84.6122 h 11.8269 v 33.4679 h 14.6154 l 21.9551,-33.4679 h 14.6154 l -22.6603,33.8429 c 4.8398,0 21.6026,6.1859 21.6026,25.0417"
         style="fill:#fbc01c;fill-opacity:1;fill-rule:nonzero;stroke:none;stroke-width:3.20513"
         id="path18" />
      <path
         d="m 1862.9961,-2882.0546 h -116.3494 v 101.9263 h 334.609 v -101.9263 h -116.3333 v -667.3045 h -101.9263 v 667.3045"
         style="fill:#fbc01c;fill-opacity:1;fill-rule:nonzero;stroke:none;stroke-width:3.20513"
         id="path20" />
      <path
         d="m 2272.6019,-3314.7469 -34.6186,293.2436 -34.6186,-293.2436 z m 11.5288,-101.952 h -93.2596 l -15.375,-132.6602 H 2073.557 l 101.9391,769.2308 h 124.0224 l 101.9263,-769.2308 h -101.9263 l -15.3878,132.6602"
         style="fill:#fbc01c;fill-opacity:1;fill-rule:nonzero;stroke:none;stroke-width:3.20513"
         id="path22" />
      <path
         d="m 2661.0602,-3237.8495 -21.1603,21.1474 h -81.7179 v -230.7692 h 81.7179 l 21.1603,21.1571 z m 0,334.6474 -21.1603,21.1475 h -81.7179 v -230.7693 h 81.7179 l 21.1603,21.1571 z m 71.1506,-261.5416 30.7629,-30.7628 v -273.1122 l -80.7693,-80.7404 h -225.9615 v 769.2308 h 225.9615 l 80.7693,-80.7693 v -273.0737 l -30.7629,-30.7724"
         style="fill:#fbc01c;fill-opacity:1;fill-rule:nonzero;stroke:none;stroke-width:3.20513"
         id="path24" />
      <path
         d="m 2953.3519,-3447.4713 h 169.2339 v -101.8878 h -271.1602 v 769.2308 h 101.9263 v -667.343"
         style="fill:#fbc01c;fill-opacity:1;fill-rule:nonzero;stroke:none;stroke-width:3.20513"
         id="path26" />
      <path
         d="m 3288.9353,-3447.4713 h 169.2308 v -101.8878 h -271.154 v 769.2308 h 271.154 v -101.9263 h -169.2308 v -230.7693 h 169.2308 v -103.8782 h -169.2308 v -230.7692"
         style="fill:#fbc01c;fill-opacity:1;fill-rule:nonzero;stroke:none;stroke-width:3.20513"
         id="path28" />
      <path
         d="m 3823.5187,-2882.0546 h -116.3141 v 101.9263 H 4041.82 v -101.9263 h -116.3782 v -667.3045 h -101.9231 v 667.3045"
         style="fill:#fbc01c;fill-opacity:1;fill-rule:nonzero;stroke:none;stroke-width:3.20513"
         id="path30" />
      <path
         d="m 4208.1341,-3447.4713 h 169.2628 v -101.8878 h -271.1538 v 769.2308 h 271.1538 v -101.9263 h -169.2628 v -230.7693 h 169.2628 v -103.8782 h -169.2628 v -230.7692"
         style="fill:#fbc01c;fill-opacity:1;fill-rule:nonzero;stroke:none;stroke-width:3.20513"
         id="path32" />
      <path
         d="m 4558.1341,-2780.1283 112.5,-378.8815 v 378.8815 h 101.9551 v -769.2308 h -92.3077 l -112.532,378.8429 v -378.8429 h -101.9231 v 769.2308 h 92.3077"
         style="fill:#fbc01c;fill-opacity:1;fill-rule:nonzero;stroke:none;stroke-width:3.20513"
         id="path34" />
      <path
         d="m 4953.3264,-2780.1283 112.5,-378.8815 v 378.8815 h 101.9551 v -769.2308 h -92.3077 l -112.532,378.8429 v -378.8429 h -101.891 v 769.2308 h 92.2756"
         style="fill:#fbc01c;fill-opacity:1;fill-rule:nonzero;stroke:none;stroke-width:3.20513"
         id="path36" />
      <path
         d="m 5358.1341,-3549.3591 h -101.891 v 769.2308 h 101.891 v -769.2308"
         style="fill:#fbc01c;fill-opacity:1;fill-rule:nonzero;stroke:none;stroke-width:3.20513"
         id="path38" />
      <path
         d="m 5651.4354,-2903.2021 -21.1218,21.1475 h -60.609 l -21.1538,-21.1475 v -189.4262 l 21.1538,-21.1859 h 102.8846 l 80.7693,-80.7404 v -274.0641 l -80.7693,-80.7404 h -145.1923 l -80.7692,80.7404 v 86.5384 h 101.9231 v -44.2339 l 21.1538,-21.1571 h 60.609 l 21.1218,21.1571 v 189.4551 l -21.1218,21.157 h -102.9167 l -80.7692,80.7308 v 274.0737 l 80.7692,80.7693 h 145.1923 l 80.7693,-80.7693 v -86.5384 h -101.9231 v 44.2339"
         style="fill:#fbc01c;fill-opacity:1;fill-rule:nonzero;stroke:none;stroke-width:3.20513"
         id="path40" />
    </g>
  </g>
</svg>
