<?xml version="1.0" encoding="UTF-8" standalone="no"?>
<!-- Created with Inkscape (http://www.inkscape.org/) -->

<svg
   version="1.1"
   id="svg2"
   width="1000"
   height="766"
   viewBox="0 0 999.99999 766"
   sodipodi:docname="california_table_tennis_gold.svg"
   inkscape:version="1.2.1 (9c6d41e4, 2022-07-14)"
   inkscape:export-filename="california_table_tennis_gold.png"
   inkscape:export-xdpi="96"
   inkscape:export-ydpi="96"
   xmlns:inkscape="http://www.inkscape.org/namespaces/inkscape"
   xmlns:sodipodi="http://sodipodi.sourceforge.net/DTD/sodipodi-0.dtd"
   xmlns="http://www.w3.org/2000/svg"
   xmlns:svg="http://www.w3.org/2000/svg">
  <defs
     id="defs6" />
  <sodipodi:namedview
     id="namedview4"
     pagecolor="#ffffff"
     bordercolor="#000000"
     borderopacity="0.25"
     inkscape:showpageshadow="2"
     inkscape:pageopacity="0.0"
     inkscape:pagecheckerboard="0"
     inkscape:deskcolor="#d1d1d1"
     showgrid="false"
     inkscape:zoom="0.75425063"
     inkscape:cx="2346.7001"
     inkscape:cy="540.93425"
     inkscape:window-width="829"
     inkscape:window-height="456"
     inkscape:window-x="582"
     inkscape:window-y="26"
     inkscape:window-maximized="0"
     inkscape:current-layer="g8" />
  <g
     id="g8"
     inkscape:groupmode="layer"
     inkscape:label="ink_ext_XXXXXX"
     transform="matrix(1.3333333,0,0,-1.3333333,0,312.89333)">
    <g
       id="g10"
       transform="scale(0.1)">
      <path
         d="M 7500.0002,-3398.3301 H 0 V 2346.67 h 7500.0002 v -5745.0001"
         style="fill:#15213a;fill-opacity:1;fill-rule:nonzero;stroke:none;stroke-width:2.44824"
         id="path12"
         inkscape:label="path12" />
      <path
         d="m 6083.1352,-501.82594 c 0,9.57226 -18.5827,10.55152 -41.9397,9.74364 -99.5975,-3.42742 -217.5574,35.49817 -229.75,122.30957 -0.612,2.96226 -1.0772,6.04693 -1.2241,9.30297 v 0.0245 0 c 0.024,1.64025 0.073,3.20708 0.098,4.72492 -3.4521,-3.15811 -6.9287,-6.31622 -10.4298,-9.47433 v 0 c -55.1851,-49.7709 -117.3478,-100.22726 -192.0949,-100.22726 -12.6578,0 -25.438,1.49337 -37.9979,4.43115 -40.4951,8.54404 -74.135,43.20985 -81.4799,83.43295 -14.9837,-7.90753 -125.0355,-85.39147 -199.1461,-85.39147 -19.4396,0 -96.8553,-0.24481 -91.6894,100.20278 -74.3554,-53.59 -181.3713,-119.54317 -256.8284,-97.38741 -72.3967,21.27443 -58.0985,122.04028 -10.9439,244.66811 20.3944,53.02693 46.1507,98.07289 56.4826,129.580577 8.8384,27.492725 -3.7214,30.650839 -12.7312,33.12347 -32.4647,1.493371 -66.2515,-33.46621 -66.3739,-33.588618 -107.8973,-100.569999 -227.8158,-344.675039 -228.9175,-346.755959 -8.5202,-15.93746 -37.802,-19.41384 -68.5774,-19.41384 -31.6567,0 -80.6965,7.56479 -86.2541,22.54747 -3.9908,10.84531 -1.567,31.99732 0.8079,46.36796 l -13.123,-8.20131 c -54.426,-34.05376 -110.6883,-69.30712 -176.4011,-69.30712 -70.9278,0 -92.3505,49.79537 -88.8984,92.85833 0.049,0.56308 0.049,1.10167 0.1469,1.64026 9.8422,73.27313 36.333,140.03418 61.9179,204.56741 9.2057,23.13502 16.4772,42.01025 22.8918,59.14731 l -0.8814,1.22408 c -24.5322,-20.17277 -47.6932,-31.21393 -72.3478,-34.49444 -43.6045,-67.74032 -105.2041,-144.78359 -196.208,-144.78359 -28.5964,0 -57.7803,12.09386 -57.7803,12.09386 -70.9767,-120.35105 -190.8952,-192.05737 -321.3904,-192.05737 h -2.4239 c -138.134,0 -156.7901,122.75024 -156.7901,122.75024 -40.691,-33.44173 -86.2052,-70.31087 -137.0568,-92.07492 3.9663,-17.84701 7.0267,-35.42472 9.1812,-52.75763 0.4162,-6.12037 0.71,-12.33868 1.1018,-18.53249 1122.0877,-3.7212 2325.1413,-53.24727 2561.159,-41.15341 91.9587,4.70045 125.8924,27.17447 125.8924,40.85963 z m -2369.211,119.44523 c 3.3052,-1.07718 6.537,-1.5913 9.9401,-1.5913 14.0778,0 30.1143,9.08265 47.6687,26.95414 76.363,77.72876 137.1057,262.882342 117.5682,320.46283 -3.5991,10.60049 -9.8912,16.622938 -18.7052,17.920458 -2.84,0.416185 -5.8514,0.612037 -8.8384,0.612037 -75.3836,0 -146.3358,-134.648245 -168.5421,-231.839805 -16.722,-73.39554 -8.9118,-122.94609 20.9087,-132.51836 z m 1983.2584,55.69541 c 4.1866,-3.72118 9.2547,-5.38592 16.4282,-5.38592 5.6067,0 11.654,1.07719 17.1138,2.12989 0.9303,0.31825 1.8852,0.56307 2.8645,0.73445 40.9603,18.14078 84.32,62.79503 103.931,106.49452 17.7993,42.76918 43.5066,98.85629 60.8407,138.17358 17.7258,40.14966 13.0495,58.853525 -11.1644,58.168044 -94.3336,-2.692965 -193.1721,-160.574154 -201.2026,-240.383844 -2.1545,-31.40977 1.5914,-51.36219 11.1888,-59.93072 z m -2389.3117,-135.72543 -0.2938,-0.17137 c 0,0 -62.5789,-257.88811 -73.3026,-332.82599 -3.2807,-23.01261 17.4321,-37.82391 32.2199,-14.8113 49.5784,77.1412 63.8276,251.1557 41.3765,347.80866 z M 2278.119,-46.372122 c 0,11.114601 -8.3855,23.698092 -33.471,23.698092 -83.6932,0 -177.1503,-188.28722 -177.1503,-267.77864 0,-27.85995 1.4053,-50.1626 41.8417,-50.1626 33.4734,0 62.7773,47.39618 69.7574,64.14154 47.397,119.95934 99.0222,225.89079 99.0222,230.101608 z m 437.9205,-26.513464 c 128.3162,174.357246 256.6325,416.968906 256.6325,456.041376 0,4.13737 -1.4445,9.71915 -4.2111,9.71915 -22.3042,0 -209.2086,-204.9836 -252.4214,-465.760526 z m 729.7451,61.962676 c 43.7269,57.311191 97.9816,133.98724 163.474,249.46649 111.8881,197.34537 103.4659,231.98669 98.2265,237.9112 -0.7345,0.8079 -1.4935,1.15063 -2.5463,1.15063 -0.3427,0 -0.71,-0.0245 -1.1262,-0.1224 -5.4108,-1.10166 -37.3613,-16.84327 -139.2112,-217.5426 -54.6709,-107.7186 -93.893,-203.808492 -118.8168,-270.86332 z m 2795.7566,-484.09717 c 0,-21.66613 -73.425,-181.08966 -456.1702,-189.46234 -410.0195,-8.96022 -1423.9652,16.89224 -2392.2742,10.40465 -42.0376,-264.69398 -192.609,-345.18673 -293.2593,-283.93399 -54.1323,32.97413 -49.8232,146.17659 -23.0876,280.55554 -818.2444,-12.38764 -1549.7841,-54.25101 -1780.0899,-168.50617 -21.4692,-11.72663 -31.5685,2.54608 -27.7443,18.60594 10.7016,44.97252 110.3554,225.13187 504.7081,270.47162 334.7387,38.48491 820.1468,53.05141 1343.5723,55.25474 17.6278,69.57642 33.395,126.54487 35.3781,134.45239 -15.7671,-8.37267 -31.5832,-22.54746 -48.2318,-32.78072 -50.0681,-30.87118 -101.2379,-56.50331 -158.7978,-58.02116 -87.968,-2.27678 -89.5839,64.21498 -90.7346,97.06915 l -0.1469,4.28427 c -81.2351,-92.80938 -215.868,-154.01312 -285.1064,9.00918 -92.0322,-82.28232 -182.6688,-118.53942 -283.0694,-118.53942 -85.0888,0 -101.8157,48.84059 -107.3905,73.93413 -16.7563,-23.67361 -68.3423,-73.93413 -145.0823,-73.93413 -115.7197,0 -150.5812,66.95691 -156.1756,96.23678 -26.5104,-25.09354 -117.1642,-96.23678 -210.6115,-96.23678 -193.8087,0 -301.2384,96.23678 -301.2384,292.84771 0,398.87707 506.2653,817.24142 800.5602,817.24142 71.1162,0 111.5698,-37.70151 111.5698,-107.42482 0,-117.11949 -135.3062,-245.42704 -193.8748,-245.42704 -40.4462,0 -71.1261,16.74535 -71.1261,55.81782 0,45.97625 43.2177,69.69883 96.2213,75.30509 36.2645,4.18634 85.0692,37.65255 85.0692,92.00148 0,29.30435 -13.926,44.67874 -44.5961,44.67874 -186.9142,0 -528.6061,-435.15866 -528.6061,-723.82002 0,-104.58497 27.9255,-195.21548 112.9751,-195.21548 99.0344,0 135.2792,99.00318 154.829,140.84207 86.4746,179.890054 237.0558,271.940494 357.0331,271.940494 36.2277,0 58.549,-18.165274 62.7577,-23.698092 6.9507,16.745346 15.3191,23.698092 23.707,23.698092 h 110.1644 c 20.9209,0 38.5243,-11.09012 32.0607,-33.466211 -5.019,-17.4553091 -136.6307,-304.060223 -138.0262,-350.036483 -0.8692,-28.42302 11.3724,-39.02351 22.3017,-39.04799 60.9802,-0.0734 108.7468,30.67532 181.2904,97.58326 -6.9777,23.74705 -11.1643,55.79333 -11.1643,89.30851 0,372.31464 331.9182,704.38171 472.7943,698.65303 50.1905,-2.03196 57.1927,-39.04799 57.1927,-73.90964 0,-133.88932 -198.0688,-467.204942 -350.0602,-647.07052 -7.5408,-120.27761 33.9336,-179.98799 126.2841,-51.60701 0,0 0.3918,0.0734 1.0773,0.19586 39.8341,56.01367 74.4778,125.61458 101.8989,182.142357 l 0.8569,1.762669 c 31.216,64.2639365 51.2433,104.217744 69.1405,115.699567 0.71,0.440667 1.4689,0.856853 2.2279,1.199594 16.5506,7.491339 57.9517,8.078895 70.2422,8.078895 66.888,0 76.4364,-12.044898 80.5006,-17.186013 2.4484,-3.084669 3.7705,-6.928264 3.7705,-10.869785 0,-2.27678 -0.4897,-4.822856 -1.3711,-6.952747 -0.71,-1.713704 -2.938,-6.610005 -5.7291,-12.8038241 C 3044.4811,-245.23534 3031.9947,-304.21128 3056.4778,-321.03007 c 12.5599,-8.64196 94.8723,19.87898 124.7173,48.52234 58.5637,206.942113 135.0246,404.63022 215.3783,556.83171 101.1889,191.64118 202.9165,303.00752 302.3671,331.03884 27.4456,7.71167 48.0849,5.53281 61.8444,-6.04693 26.9805,-22.93917 21.1045,-75.52543 17.2362,-110.31364 -0.7835,-6.65897 -1.3466,-11.99593 -1.7383,-16.47605 -0.073,-0.85685 -0.2204,-1.7137 -0.4162,-2.54608 -66.3494,-278.10983 -248.1614,-515.286604 -399.4428,-691.03929 l -12.0457,-41.30029 c -12.3395,-34.71476 -15.6448,-67.15275 16.1833,-73.78724 54.0833,0.36722 98.1041,28.52094 137.5954,59.17178 10.6747,120.59587 99.1323,240.579702 210.849,285.552218 45.5142,20.025866 96.3412,31.18943 142.5899,31.18943 56.4827,0 102.3641,-16.671902 132.7232,-48.2285546 37.9244,-38.6807694 40.8624,-94.0824044 38.2672,-148.2599634 22.1818,-42.7447 121.6568,-16.74534 140.6803,17.55324 -35.1823,26.68483 -67.9898,62.08508 -66.8636,100.496553 v 0.17137 c -4.1866,46.416923 19.2193,88.525103 59.7879,107.473784 0.1714,0.07344 0.3183,0.171371 0.4652,0.244816 11.0174,5.997967 24.5076,9.180562 39.0017,9.180562 19.9538,0 41.3031,-6.02245 57.1437,-16.084346 1.0038,-0.661 1.8852,-1.493372 2.8155,-2.227816 33.9582,-27.003094 27.5681,-80.519653 22.8183,-103.16504 53.9854,-0.342742 78.4686,30.2591334 88.3108,48.497851 11.9723,22.180239 14.6409,32.242135 50.4108,35.155433 15.3265,1.248557 35.3782,1.493372 53.7406,1.493372 23.6507,0 42.5272,-0.930297 59.2003,-4.063929 18.0685,-3.402928 15.5223,-28.88817 9.5484,-42.2305872 -6.3167,-14.7378629 -94.9212,-218.3749828 -123.9827,-311.3067528 -5.7046,-22.13127 15.4488,-24.0898 16.6485,-24.0898 31.1916,0 89.8287,24.38358 107.0159,39.73348 21.4473,49.15885 42.2824,101.47582 59.0534,143.60848 17.4075,43.72395 47.228,108.697857 67.598,154.1600018 13.7595,30.7242822 22.9407,43.7484402 50.4843,43.7484402 l 125.9658,1.640261 c 11.5071,0 28.5719,-10.184304 22.0104,-34.372026 -4.309,-15.9374566 -25.1442,-60.053119 -27.2987,-66.418309 69.5811,66.589679 138.5012,100.349667 204.973,100.349667 15.204,0 30.3102,-1.836112 44.8776,-5.483855 0.5142,-0.122408 1.0283,-0.269297 1.518,-0.440668 36.6513,-12.754861 65.468,-46.83310861 70.1198,-82.894358 0.098,-0.758926 0.1469,-1.542335 0.1469,-2.325742 -0.3918,-64.166012 -37.7286,-136.215062 -64.9783,-188.825812 -3.1094,-5.97349 -6.0719,-11.70216 -8.8874,-17.21049 l -0.5876,-1.12615 c -10.185,-20.09931 -18.9745,-37.45669 -24.0425,-50.84808 -3.599,-9.62122 -1.0772,-18.50801 1.6893,-20.56445 2.3259,-1.81164 7.6388,-4.5046 20.0518,-4.5046 35.5985,0 99.0588,26.36658 116.4419,43.06295 56.0664,162.80199 130.3483,304.256087 130.5197,304.574347 8.3243,15.619197 16.3303,19.389348 36.5289,23.135017 39.8096,7.393413 104.8124,0.489629 118.5474,-5.532819 12.2171,-5.361448 15.2775,-16.573975 6.8308,-33.686544 -37.6551,-76.137464 -113.9691,-270.520571 -123.1747,-307.536591 -7.1002,-27.22344 5.1414,-60.8855 100.5278,-9.27849 39.271,135.2358 171.6759,316.913007 341.4912,352.068441 99.6464,20.613423 122.6606,-39.0235106 123.1747,-39.8069187 l 9.4016,9.1805627 c 12.315,13.171046 29.7225,20.711349 47.7421,20.711349 h 98.4958 c 10.5522,0 23.8221,-11.285971 15.4244,-27.2968727 C 6094.5933,-47.694123 6015.733,-206.3832 5996.93,-286.78045 c -0.5876,-2.44815 -1.0773,-4.79838 -1.5425,-7.12412 -0.8079,-3.99048 -1.5669,-7.90752 -2.0076,-11.40838 0.1224,-9.37641 0.8079,-18.06734 1.9831,-26.14623 0.3428,-0.66101 0.6121,-1.37097 1.0283,-1.90956 0.2449,-0.34275 -0.025,-0.88134 -0.4896,-1.49337 v 0 c 15.5713,-92.61352 111.2759,-91.46288 177.9191,-111.46428 37.8999,-10.82081 67.7204,-14.86027 67.7204,-48.69369 z M 5558.51,211.14878 c 47.5463,0 86.2052,38.55836 86.2052,85.95454 0,23.13501 -8.9853,44.77667 -25.2176,60.88549 -16.2569,16.37812 -37.9245,25.4118 -60.9876,25.4118 -22.9897,0 -44.6573,-9.00919 -60.9141,-25.31387 -16.3058,-16.18228 -25.2911,-37.84841 -25.2911,-60.98342 0,-23.03709 8.9608,-44.67873 25.2421,-60.95893 16.1589,-16.13331 37.802,-24.99561 60.9631,-24.99561 z m -2402.655,24.99561 c -16.3058,16.32915 -25.2422,37.9708 -25.2422,60.95893 0,23.11054 8.9609,44.75218 25.2422,60.95894 16.3058,16.32916 37.9734,25.33835 60.9875,25.33835 22.9163,0 44.5839,-9.00919 60.9631,-25.33835 16.2813,-16.23124 25.2421,-37.87288 25.2421,-60.95894 0,-47.39618 -38.6833,-85.95454 -86.2052,-85.95454 -23.161,0 -44.8286,8.8623 -60.9875,24.99561"
         style="fill:#fbc01c;fill-opacity:1;fill-rule:nonzero;stroke:none;stroke-width:2.44824"
         id="path14" />
      <path
         d="m 6258.2877,-712.17099 v 62.40334 l -25.7318,-62.40334 h -2.7666 l -25.6583,62.40334 v -62.40334 h -9.6464 v 75.50095 h 14.7633 l 21.9859,-54.912 21.9124,54.912 h 14.7879 v -75.50095 z m -97.4919,66.61416 v -66.61416 h -9.573 v 66.61416 h -21.3003 v 8.88679 h 52.2226 v -8.88679 h -21.3493"
         style="fill:#fbc01c;fill-opacity:1;fill-rule:nonzero;stroke:none;stroke-width:2.44824"
         id="path16" />
      <path
         d="m 2358.9134,-1189.6777 h -83.6247 v 73.2437 h 240.503 v -73.2437 h -83.6394 v -479.5706 h -73.2389 v 479.5706"
         style="fill:#fbc01c;fill-opacity:1;fill-rule:nonzero;stroke:none;stroke-width:2.44824"
         id="path18" />
      <path
         d="m 2653.3136,-1500.6515 -24.8749,210.771 -24.8993,-210.771 z m 8.2998,-73.2243 h -67.0594 l -11.0419,-95.3725 h -73.2536 l 73.2536,552.8143 h 89.1432 l 73.2536,-552.8143 h -73.2536 l -11.0419,95.3725"
         style="fill:#fbc01c;fill-opacity:1;fill-rule:nonzero;stroke:none;stroke-width:2.44824"
         id="path20" />
      <path
         d="m 2932.4951,-1445.3479 -15.2285,15.2055 h -58.7351 v -165.8621 h 58.7351 l 15.2285,15.2348 z m 0,240.4647 -15.2285,15.2055 h -58.7351 v -165.8427 h 58.7351 l 15.2285,15.2055 z m 51.1208,-187.9714 22.1083,-22.1117 v -196.2339 l -58.0251,-58.0481 h -162.4212 v 552.8143 h 162.4212 l 58.0251,-58.0481 v -196.2436 l -22.1083,-22.1289"
         style="fill:#fbc01c;fill-opacity:1;fill-rule:nonzero;stroke:none;stroke-width:2.44824"
         id="path22" />
      <path
         d="m 3142.5606,-1596.0045 h 121.6324 v -73.2438 h -194.886 v 552.8143 h 73.2536 v -479.5705"
         style="fill:#fbc01c;fill-opacity:1;fill-rule:nonzero;stroke:none;stroke-width:2.44824"
         id="path24" />
      <path
         d="m 3383.7687,-1596.0045 h 121.6079 v -73.2438 h -194.8615 v 552.8143 h 194.8615 v -73.2437 h -121.6079 v -165.8427 h 121.6079 v -74.622 h -121.6079 v -165.8621"
         style="fill:#fbc01c;fill-opacity:1;fill-rule:nonzero;stroke:none;stroke-width:2.44824"
         id="path26" />
      <path
         d="m 3768.0075,-1189.6777 h -83.6345 v 73.2437 h 240.4736 v -73.2437 h -83.61 v -479.5706 h -73.2291 v 479.5706"
         style="fill:#fbc01c;fill-opacity:1;fill-rule:nonzero;stroke:none;stroke-width:2.44824"
         id="path28" />
      <path
         d="m 4044.3979,-1596.0045 h 121.6323 v -73.2438 h -194.886 v 552.8143 h 194.886 v -73.2437 h -121.6323 v -165.8427 h 121.6323 v -74.622 h -121.6323 v -165.8621"
         style="fill:#fbc01c;fill-opacity:1;fill-rule:nonzero;stroke:none;stroke-width:2.44824"
         id="path30" />
      <path
         d="m 4295.9379,-1116.434 80.8434,-272.2612 v 272.2612 h 73.2536 v -552.8143 h -66.3494 l -80.8189,272.2612 v -272.2612 h -73.2536 v 552.8143 h 66.3249"
         style="fill:#fbc01c;fill-opacity:1;fill-rule:nonzero;stroke:none;stroke-width:2.44824"
         id="path32" />
      <path
         d="m 4579.967,-1116.434 80.8434,-272.2612 v 272.2612 h 73.2536 v -552.8143 h -66.3493 l -80.8434,272.2612 v -272.2612 h -73.2537 v 552.8143 h 66.3494"
         style="fill:#fbc01c;fill-opacity:1;fill-rule:nonzero;stroke:none;stroke-width:2.44824"
         id="path34" />
      <path
         d="m 4870.9004,-1669.2483 h -73.2536 v 552.8143 h 73.2536 v -552.8143"
         style="fill:#fbc01c;fill-opacity:1;fill-rule:nonzero;stroke:none;stroke-width:2.44824"
         id="path36" />
      <path
         d="m 5081.6515,-1204.8832 -15.1796,15.2055 h -43.5311 l -15.204,-15.2055 v -136.1392 l 15.204,-15.2054 h 73.9147 l 58.0496,-58.0481 v -196.9243 l -58.0496,-58.0481 h -104.3227 l -58.0496,58.0481 v 62.1806 h 73.2536 v -31.7501 l 15.204,-15.2348 h 43.5311 l 15.1796,15.2348 v 136.1123 l -15.1796,15.1761 h -73.9391 l -58.0496,58.048 v 196.9512 l 58.0496,58.0481 h 104.3227 l 58.0496,-58.0481 v -62.2074 h -73.2536 v 31.8063"
         style="fill:#fbc01c;fill-opacity:1;fill-rule:nonzero;stroke:none;stroke-width:2.44824"
         id="path38" />
    </g>
  </g>
</svg>
