<?xml version="1.0" encoding="UTF-8" standalone="no"?>
<!-- Created with Inkscape (http://www.inkscape.org/) -->

<svg
   version="1.1"
   id="svg2"
   width="1000"
   height="766"
   viewBox="0 0 999.99999 766"
   sodipodi:docname="california_table_tennis_navy.svg"
   inkscape:version="1.2.1 (9c6d41e4, 2022-07-14)"
   inkscape:export-filename="california_table_tennis_navy.png"
   inkscape:export-xdpi="96"
   inkscape:export-ydpi="96"
   xmlns:inkscape="http://www.inkscape.org/namespaces/inkscape"
   xmlns:sodipodi="http://sodipodi.sourceforge.net/DTD/sodipodi-0.dtd"
   xmlns="http://www.w3.org/2000/svg"
   xmlns:svg="http://www.w3.org/2000/svg">
  <defs
     id="defs6" />
  <sodipodi:namedview
     id="namedview4"
     pagecolor="#ffffff"
     bordercolor="#000000"
     borderopacity="0.25"
     inkscape:showpageshadow="2"
     inkscape:pageopacity="0.0"
     inkscape:pagecheckerboard="0"
     inkscape:deskcolor="#d1d1d1"
     showgrid="false"
     inkscape:zoom="0.75425063"
     inkscape:cx="208.81653"
     inkscape:cy="625.78668"
     inkscape:window-width="1280"
     inkscape:window-height="456"
     inkscape:window-x="191"
     inkscape:window-y="28"
     inkscape:window-maximized="0"
     inkscape:current-layer="g10" />
  <g
     id="g8"
     inkscape:groupmode="layer"
     inkscape:label="ink_ext_XXXXXX"
     transform="matrix(1.3333333,0,0,-1.3333333,0,312.89333)">
    <g
       id="g10"
       transform="scale(0.1)">
      <path
         d="M 7500.0002,-3398.3001 H 0 V 2346.7 h 7500.0002 v -5745.0001"
         style="fill:#ffffff;fill-opacity:1;fill-rule:nonzero;stroke:none;stroke-width:2.44823"
         id="path12-9"
         inkscape:label="path11" />
      <path
         d="m 6083.1945,-501.83601 c 0,9.57215 -18.5829,10.5514 -41.94,9.74352 -99.5985,-3.42737 -217.5595,35.49777 -229.7522,122.30814 -0.6121,2.96223 -1.0773,6.04686 -1.2242,9.30286 v 0.0245 0 c 0.024,1.64023 0.073,3.20703 0.098,4.72486 -3.4521,-3.15807 -6.9288,-6.31614 -10.4299,-9.47422 v 0 c -55.1856,-49.7703 -117.3489,-100.22609 -192.0968,-100.22609 -12.6579,0 -25.4382,1.49336 -37.9982,4.4311 -40.4955,8.54395 -74.1357,43.20934 -81.4808,83.43198 -14.9838,-7.90744 -125.0367,-85.39048 -199.1479,-85.39048 -19.4399,0 -96.8564,-0.2448 -91.6904,100.20161 -74.3561,-53.58938 -181.373,-119.54176 -256.8308,-97.38627 -72.3974,21.27418 -58.0991,122.03885 -10.9441,244.66524 20.3947,53.02632 46.1512,98.07174 56.4832,129.579067 8.8385,27.492402 -3.7215,30.650478 -12.7314,33.12308 -32.465,1.493355 -66.2521,-33.465818 -66.3745,-33.588224 -107.8983,-100.568823 -227.818,-344.671003 -228.9198,-346.751893 -8.5202,-15.93728 -37.8023,-19.41361 -68.578,-19.41361 -31.657,0 -80.6973,7.5647 -86.255,22.5472 -3.9908,10.84518 -1.5669,31.99694 0.808,46.36742 l -13.1231,-8.20121 c -54.4266,-34.05337 -110.6895,-69.30631 -176.4029,-69.30631 -70.9284,0 -92.3514,49.79478 -88.8993,92.85723 0.049,0.56307 0.049,1.10167 0.1469,1.64025 9.8424,73.27227 36.3334,140.03254 61.9186,204.56501 9.2057,23.13475 16.4773,42.00977 22.8919,59.14662 l -0.8814,1.22406 c -24.5323,-20.17253 -47.6936,-31.21355 -72.3484,-34.49403 -43.6049,-67.73952 -105.2052,-144.7819 -196.21,-144.7819 -28.5966,0 -57.7808,12.09372 -57.7808,12.09372 -70.9774,-120.34964 -190.8971,-192.05512 -321.3936,-192.05512 h -2.4239 c -138.1353,0 -156.7916,122.74881 -156.7916,122.74881 -40.6915,-33.44134 -86.2061,-70.31004 -137.0581,-92.07385 3.9663,-17.8468 7.0267,-35.42431 9.1813,-52.757 0.4162,-6.12031 0.71,-12.33854 1.1017,-18.53229 1122.0987,-3.72114 2325.164,-53.24663 2561.184,-41.15291 91.9597,4.70039 125.8936,27.17414 125.8936,40.85914 z m -2369.2341,119.44384 c 3.3053,-1.07718 6.5371,-1.59128 9.9403,-1.59128 14.0779,0 30.1145,9.08253 47.6691,26.95381 76.3638,77.72786 137.1071,262.879268 117.5693,320.459081 -3.599,10.600365 -9.8913,16.622744 -18.7053,17.920248 -2.8401,0.41618 -5.8515,0.61203 -8.8385,0.61203 -75.3844,0 -146.3373,-134.646679 -168.5437,-231.837079 -16.7222,-73.39469 -8.912,-122.94466 20.9088,-132.51681 z m 1983.2778,55.69476 c 4.1867,-3.72115 9.2548,-5.38587 16.4284,-5.38587 5.6067,0 11.6541,1.07718 17.1139,2.12986 0.9304,0.31826 1.8852,0.56307 2.8645,0.73445 40.9608,18.14058 84.3209,62.79431 103.9321,106.49327 17.7994,42.76868 43.507,98.85514 60.8412,138.171963 17.726,40.149189 13.0497,58.852836 -11.1644,58.167362 -94.3345,-2.692934 -193.174,-160.572275 -201.2046,-240.381025 -2.1545,-31.4094 1.5914,-51.36159 11.1889,-59.93001 z m -2389.335,-135.72384 -0.2938,-0.17138 c 0,0 -62.5796,-257.88509 -73.3033,-332.82208 -3.2808,-23.01235 17.4322,-37.82348 32.2202,-14.81114 49.5789,77.1403 63.8282,251.15276 41.3769,347.8046 z m -1029.762,416.033725 c 0,11.11447 -8.3856,23.697813 -33.4713,23.697813 -83.694,0 -177.152,-188.285008 -177.152,-267.775508 0,-27.85962 1.4053,-50.16201 41.8421,-50.16201 33.4737,0 62.7779,47.39563 69.7581,64.14078 47.3974,119.95795 99.0231,225.888156 99.0231,230.098925 z M 2716.066,-72.90068 c 128.3175,174.3552 256.635,416.96401 256.635,456.03603 0,4.13733 -1.4445,9.71905 -4.2112,9.71905 -22.3043,0 -209.2106,-204.9812 -252.4238,-465.75508 z m 729.7522,61.961951 c 43.7274,57.310519 97.9826,133.985679 163.4757,249.463559 111.8891,197.34305 103.4668,231.98398 98.2274,237.90843 -0.7345,0.80788 -1.4935,1.15062 -2.5463,1.15062 -0.3428,0 -0.71,-0.0245 -1.1262,-0.12241 -5.4109,-1.10165 -37.3617,-16.84308 -139.2127,-217.54006 C 3509.9647,152.20408 3470.7423,56.115313 3445.8182,-10.938729 Z M 6241.6021,-495.03023 c 0,-21.66588 -73.4257,-181.08753 -456.1747,-189.46011 -410.0235,-8.96012 -1423.979,16.89204 -2392.2975,10.40452 -42.038,-264.69088 -192.6109,-345.18268 -293.2621,-283.93067 -54.1328,32.97375 -49.8238,146.17488 -23.0879,280.55226 -818.2523,-12.3875 -1549.7992,-54.25037 -1780.1072,-168.50419 -21.4695,-11.7265 -31.5689,2.54604 -27.7446,18.60572 10.7017,44.97199 110.3565,225.12924 504.7131,270.46844 334.7419,38.48447 820.1547,53.05079 1343.5853,55.2541 17.628,69.5756 33.3954,126.54338 35.3785,134.45082 -15.7673,-8.37257 -31.5836,-22.5472 -48.2323,-32.78034 -50.0685,-30.87082 -101.2388,-56.50265 -158.7993,-58.02048 -87.9689,-2.27675 -89.5848,64.21422 -90.7355,97.06801 l -0.1469,4.28422 c -81.2359,-92.80828 -215.8701,-154.01132 -285.1092,9.00908 -92.0331,-82.28136 -182.6706,-118.53803 -283.0722,-118.53803 -85.0896,0 -101.8166,48.84002 -107.3915,73.93326 -16.7564,-23.67333 -68.343,-73.93326 -145.0837,-73.93326 -115.7208,0 -150.5827,66.95611 -156.1772,96.23564 -26.5106,-25.09324 -117.1653,-96.23564 -210.6136,-96.23564 -193.8105,0 -301.2413,96.23564 -301.2413,292.84427 0,398.87239 506.2702,817.23185 800.568,817.23185 71.117,0 111.5709,-37.70108 111.5709,-107.42357 0,-117.11812 -135.3075,-245.42416 -193.8767,-245.42416 -40.4466,0 -71.1267,16.74515 -71.1267,55.81717 0,45.97572 43.2181,69.69802 96.2222,75.30421 36.2648,4.18629 85.07,37.6521 85.07,92.0004 0,29.30401 -13.9261,44.67821 -44.5965,44.67821 -186.9161,0 -528.6113,-435.15356 -528.6113,-723.81154 0,-104.58375 27.9258,-195.21319 112.9762,-195.21319 99.0354,0 135.2806,99.00203 154.8306,140.84042 86.4753,179.887948 237.058,271.937309 357.0365,271.937309 36.2281,0 58.5496,-18.165059 62.7583,-23.697814 6.9508,16.74515 15.3193,23.697814 23.7073,23.697814 h 110.1655 c 20.921,0 38.5246,-11.089989 32.061,-33.465817 -5.0191,-17.4551056 -136.6321,-304.056662 -138.0276,-350.032392 -0.8692,-28.42268 11.3725,-39.02305 22.3019,-39.04753 60.9808,-0.0734 108.7479,30.67496 181.2922,97.58211 -6.9777,23.74678 -11.1644,55.79269 -11.1644,89.30748 0,372.31028 331.9215,704.37345 472.7989,698.64485 50.191,-2.03194 57.1933,-39.04753 57.1933,-73.90879 0,-133.88775 -198.0707,-467.199461 -350.0637,-647.06293 -7.5409,-120.2762 33.934,-179.98588 126.2854,-51.6064 0,0 0.3917,0.0735 1.0773,0.19585 39.8345,56.01302 74.4785,125.6131 101.8999,182.140225 l 0.8569,1.762647 c 31.2163,64.2631838 51.2438,104.216523 69.1411,115.698212 0.71,0.440662 1.469,0.856842 2.228,1.19958 16.5508,7.49125 57.9522,8.0788 70.2429,8.0788 66.8886,0 76.4372,-12.044757 80.5014,-17.185812 2.4483,-3.084632 3.7704,-6.928183 3.7704,-10.869658 0,-2.276753 -0.4896,-4.822799 -1.371,-6.952665 -0.71,-1.713685 -2.938,-6.609927 -5.7291,-12.8036741 C 3044.5108,-245.24842 3032.0243,-304.22366 3056.5077,-321.04225 c 12.5599,-8.64187 94.8731,19.87874 124.7184,48.52176 58.5643,206.939693 135.026,404.62549 215.3805,556.82518 101.1899,191.63894 202.9184,303.00398 302.37,331.03497 27.4459,7.71158 48.0854,5.53275 61.845,-6.04686 26.9807,-22.9389 21.1047,-75.52454 17.2363,-110.31235 -0.7834,-6.65888 -1.3465,-11.99579 -1.7383,-16.47585 -0.073,-0.85685 -0.2203,-1.71369 -0.4162,-2.54605 -66.35,-278.10658 -248.1637,-515.280568 -399.4467,-691.0312 l -12.0458,-41.2998 c -12.3396,-34.71436 -15.6449,-67.15197 16.1835,-73.78638 54.0839,0.36722 98.105,28.52061 137.5967,59.1711 10.6748,120.59445 99.1333,240.576874 210.8511,285.548862 45.5146,20.025632 96.3422,31.189066 142.5913,31.189066 56.4832,0 102.3651,-16.671707 132.7245,-48.2279901 37.9248,-38.6803169 40.8628,-94.0813009 38.2676,-148.2582279 22.1819,-42.7442 121.658,-16.74515 140.6816,17.55303 -35.1827,26.68452 -67.9904,62.084358 -66.8642,100.495381 v 0.171369 c -4.1866,46.416379 19.2195,88.524065 59.7885,107.472524 0.1714,0.07344 0.3183,0.171369 0.4652,0.244813 11.0175,5.997897 24.5079,9.180454 39.002,9.180454 19.954,0 41.3035,-6.022378 57.1443,-16.084157 1.0038,-0.660993 1.8852,-1.493353 2.8156,-2.22779 33.9584,-27.002778 27.5683,-80.518709 22.8185,-103.163831 53.9859,-0.342737 78.4693,30.258779 88.3116,48.497282 11.9724,22.17998 14.6411,32.241758 50.4113,35.155023 15.3267,1.248541 35.3786,1.493353 53.7411,1.493353 23.651,0 42.5277,-0.930286 59.2009,-4.063881 18.0687,-3.402889 15.5224,-28.887831 9.5485,-42.2300923 -6.3167,-14.7376901 -94.9221,-218.3724177 -123.9839,-311.3031077 -5.7047,-22.13101 15.449,-24.08951 16.6487,-24.08951 31.1918,0 89.8296,24.38328 107.0169,39.73301 21.4475,49.15827 42.2828,101.47463 59.054,143.60679 17.4077,43.72345 47.2285,108.696589 67.5986,154.1582021 13.7597,30.7239219 22.941,43.7479269 50.4848,43.7479269 l 125.9671,1.640242 c 11.5072,0 28.5721,-10.184185 22.0106,-34.371623 -4.3091,-15.9372698 -25.1445,-60.052415 -27.299,-66.417531 69.5818,66.588899 138.5026,100.348492 204.975,100.348492 15.2042,0 30.3105,-1.836091 44.8781,-5.483792 0.5141,-0.122406 1.0283,-0.269293 1.518,-0.440661 36.6516,-12.754713 65.4686,-46.83256085 70.1204,-82.893388 0.098,-0.758917 0.1469,-1.542316 0.1469,-2.325715 -0.3917,-64.165263 -37.7289,-136.213463 -64.9789,-188.823593 -3.1094,-5.97342 -6.0719,-11.70202 -8.8875,-17.21029 l -0.5876,-1.12614 c -10.1851,-20.09908 -18.9746,-37.45626 -24.0427,-50.84748 -3.5991,-9.62111 -1.0773,-18.5078 1.6894,-20.56421 2.3259,-1.81162 7.6388,-4.50455 20.0519,-4.50455 35.5988,0 99.0598,26.36626 116.443,43.06245 56.067,162.80007 130.3496,304.252516 130.521,304.570772 8.3244,15.619013 16.3304,19.38912 36.5292,23.134746 39.8101,7.393326 104.8135,0.489624 118.5487,-5.532754 12.2172,-5.361386 15.2776,-16.573781 6.8308,-33.686149 -37.6554,-76.136572 -113.9702,-270.517395 -123.1759,-307.532995 -7.1002,-27.22312 5.1415,-60.88478 100.5288,-9.27838 39.2714,135.23422 171.6776,316.9093 341.4945,352.064321 99.6474,20.613181 122.6618,-39.0230529 123.1759,-39.8064518 l 9.4017,9.1804548 c 12.3151,13.170892 29.7228,20.711106 47.7426,20.711106 h 98.4967 c 10.5524,0 23.8224,-11.285839 15.4246,-27.2965521 -29.3801,-55.8906089 -108.2412,-214.5778379 -127.0444,-294.9741279 -0.5876,-2.44813 -1.0773,-4.79833 -1.5425,-7.12404 -0.8079,-3.99044 -1.5669,-7.90743 -2.0076,-11.40825 0.1224,-9.3763 0.808,-18.06713 1.9832,-26.14593 0.3427,-0.66099 0.612,-1.37095 1.0283,-1.90953 0.2448,-0.34274 -0.024,-0.88132 -0.4897,-1.49336 v 0 c 15.5714,-92.61243 111.277,-91.46181 177.9209,-111.46296 37.9003,-10.82069 67.721,-14.86009 67.721,-48.69313 z m -683.0378,706.16058 c 47.5467,0 86.206,38.55792 86.206,85.95354 0,23.13475 -8.9854,44.77614 -25.2179,60.88478 -16.257,16.37793 -37.9248,25.41149 -60.9881,25.41149 -22.99,0 -44.6578,-9.00908 -60.9147,-25.31357 -16.306,-16.18208 -25.2914,-37.84795 -25.2914,-60.9827 0,-23.03682 8.9609,-44.67822 25.2424,-60.95822 16.159,-16.13312 37.8024,-24.99532 60.9637,-24.99532 z m -2402.6785,24.99532 c -16.306,16.32897 -25.2424,37.97037 -25.2424,60.95822 0,23.11027 8.9609,44.75165 25.2424,60.95823 16.3059,16.32896 37.9737,25.33804 60.9881,25.33804 22.9165,0 44.5843,-9.00908 60.9637,-25.33804 16.2815,-16.23105 25.2424,-37.87244 25.2424,-60.95823 0,-47.39562 -38.6838,-85.95354 -86.2061,-85.95354 -23.1613,0 -44.8291,8.8622 -60.9881,24.99532"
         style="fill:#15213a;fill-opacity:1;fill-rule:nonzero;stroke:none;stroke-width:2.44823"
         id="path12" />
      <path
         d="m 6258.3488,-712.17859 v 62.40261 l -25.7321,-62.40261 h -2.7666 l -25.6586,62.40261 v -62.40261 h -9.6464 v 75.50005 h 14.7634 l 21.9861,-54.91135 21.9127,54.91135 h 14.788 v -75.50005 z m -97.4929,66.61338 v -66.61338 h -9.573 v 66.61338 h -21.3006 v 8.88667 h 52.2231 v -8.88667 h -21.3495"
         style="fill:#15213a;fill-opacity:1;fill-rule:nonzero;stroke:none;stroke-width:2.44823"
         id="path14" />
      <path
         d="m 2358.9364,-1189.6798 h -83.6255 v 73.2429 h 240.5054 v -73.2429 h -83.6402 v -479.5649 h -73.2397 v 479.5649"
         style="fill:#15213a;fill-opacity:1;fill-rule:nonzero;stroke:none;stroke-width:2.44823"
         id="path16" />
      <path
         d="m 2653.3395,-1500.6499 -24.8751,210.7686 -24.8996,-210.7686 z m 8.2999,-73.2233 h -67.06 l -11.0421,-95.3715 h -73.2543 l 73.2543,552.8078 h 89.1441 l 73.2543,-552.8078 h -73.2543 l -11.042,95.3715"
         style="fill:#15213a;fill-opacity:1;fill-rule:nonzero;stroke:none;stroke-width:2.44823"
         id="path18" />
      <path
         d="m 2932.5237,-1445.3468 -15.2286,15.2052 h -58.7357 v -165.8602 h 58.7357 l 15.2286,15.2347 z m 0,240.4618 -15.2286,15.2052 h -58.7357 v -165.8405 h 58.7357 l 15.2286,15.2052 z m 51.1214,-187.9692 22.1085,-22.1114 v -196.2317 l -58.0257,-58.0474 H 2785.305 v 552.8078 h 162.4229 l 58.0257,-58.0473 v -196.2415 l -22.1085,-22.1285"
         style="fill:#15213a;fill-opacity:1;fill-rule:nonzero;stroke:none;stroke-width:2.44823"
         id="path20" />
      <path
         d="m 3142.5913,-1596.0018 h 121.6335 v -73.2429 H 3069.337 v 552.8078 h 73.2543 v -479.5649"
         style="fill:#15213a;fill-opacity:1;fill-rule:nonzero;stroke:none;stroke-width:2.44823"
         id="path22" />
      <path
         d="m 3383.8018,-1596.0018 h 121.609 v -73.2429 h -194.8634 v 552.8078 h 194.8634 v -73.2429 h -121.609 v -165.8405 h 121.609 v -74.6213 h -121.609 v -165.8602"
         style="fill:#15213a;fill-opacity:1;fill-rule:nonzero;stroke:none;stroke-width:2.44823"
         id="path24" />
      <path
         d="m 3768.0442,-1189.6798 h -83.6353 v 73.2429 h 240.476 v -73.2429 h -83.6108 v -479.5649 h -73.2299 v 479.5649"
         style="fill:#15213a;fill-opacity:1;fill-rule:nonzero;stroke:none;stroke-width:2.44823"
         id="path26" />
      <path
         d="m 4044.4373,-1596.0018 h 121.6336 v -73.2429 H 3971.183 v 552.8078 h 194.8879 v -73.2429 h -121.6336 v -165.8405 h 121.6336 v -74.6213 h -121.6336 v -165.8602"
         style="fill:#15213a;fill-opacity:1;fill-rule:nonzero;stroke:none;stroke-width:2.44823"
         id="path28" />
      <path
         d="m 4295.9798,-1116.4369 80.8442,-272.258 v 272.258 h 73.2543 v -552.8078 h -66.35 l -80.8197,272.2581 v -272.2581 h -73.2543 v 552.8078 h 66.3255"
         style="fill:#15213a;fill-opacity:1;fill-rule:nonzero;stroke:none;stroke-width:2.44823"
         id="path30" />
      <path
         d="m 4580.0117,-1116.4369 80.8442,-272.258 v 272.258 h 73.2543 v -552.8078 h -66.35 l -80.8442,272.2581 v -272.2581 h -73.2543 v 552.8078 h 66.35"
         style="fill:#15213a;fill-opacity:1;fill-rule:nonzero;stroke:none;stroke-width:2.44823"
         id="path32" />
      <path
         d="m 4870.948,-1669.2447 h -73.2544 v 552.8078 h 73.2544 v -552.8078"
         style="fill:#15213a;fill-opacity:1;fill-rule:nonzero;stroke:none;stroke-width:2.44823"
         id="path34" />
      <path
         d="m 5081.7011,-1204.885 -15.1797,15.2052 h -43.5315 l -15.2042,-15.2052 v -136.1376 l 15.2042,-15.2053 h 73.9154 l 58.0501,-58.0474 v -196.922 l -58.0501,-58.0474 h -104.3238 l -58.0502,58.0474 v 62.1798 h 73.2544 v -31.7496 l 15.2042,-15.2347 h 43.5315 l 15.1797,15.2347 v 136.1106 l -15.1797,15.176 h -73.9399 l -58.0502,58.0473 v 196.949 l 58.0502,58.0473 h 104.3238 l 58.0501,-58.0473 v -62.2069 h -73.2543 v 31.8061"
         style="fill:#15213a;fill-opacity:1;fill-rule:nonzero;stroke:none;stroke-width:2.44823"
         id="path36" />
    </g>
  </g>
</svg>
